G04 #@! TF.GenerationSoftware,KiCad,Pcbnew,6.0.9-8da3e8f707~117~ubuntu20.04.1*
G04 #@! TF.CreationDate,2022-11-29T05:25:06-05:00*
G04 #@! TF.ProjectId,audiomute,61756469-6f6d-4757-9465-2e6b69636164,rev?*
G04 #@! TF.SameCoordinates,Original*
G04 #@! TF.FileFunction,Legend,Bot*
G04 #@! TF.FilePolarity,Positive*
%FSLAX46Y46*%
G04 Gerber Fmt 4.6, Leading zero omitted, Abs format (unit mm)*
G04 Created by KiCad (PCBNEW 6.0.9-8da3e8f707~117~ubuntu20.04.1) date 2022-11-29 05:25:06*
%MOMM*%
%LPD*%
G01*
G04 APERTURE LIST*
%ADD10C,0.150000*%
%ADD11C,0.120000*%
G04 APERTURE END LIST*
D10*
X104986057Y-92349580D02*
X105319390Y-91873390D01*
X105557485Y-92349580D02*
X105557485Y-91349580D01*
X105176533Y-91349580D01*
X105081295Y-91397200D01*
X105033676Y-91444819D01*
X104986057Y-91540057D01*
X104986057Y-91682914D01*
X105033676Y-91778152D01*
X105081295Y-91825771D01*
X105176533Y-91873390D01*
X105557485Y-91873390D01*
X104033676Y-92349580D02*
X104605104Y-92349580D01*
X104319390Y-92349580D02*
X104319390Y-91349580D01*
X104414628Y-91492438D01*
X104509866Y-91587676D01*
X104605104Y-91635295D01*
X103414628Y-91349580D02*
X103319390Y-91349580D01*
X103224152Y-91397200D01*
X103176533Y-91444819D01*
X103128914Y-91540057D01*
X103081295Y-91730533D01*
X103081295Y-91968628D01*
X103128914Y-92159104D01*
X103176533Y-92254342D01*
X103224152Y-92301961D01*
X103319390Y-92349580D01*
X103414628Y-92349580D01*
X103509866Y-92301961D01*
X103557485Y-92254342D01*
X103605104Y-92159104D01*
X103652723Y-91968628D01*
X103652723Y-91730533D01*
X103605104Y-91540057D01*
X103557485Y-91444819D01*
X103509866Y-91397200D01*
X103414628Y-91349580D01*
X118346457Y-84627980D02*
X118679790Y-84151790D01*
X118917885Y-84627980D02*
X118917885Y-83627980D01*
X118536933Y-83627980D01*
X118441695Y-83675600D01*
X118394076Y-83723219D01*
X118346457Y-83818457D01*
X118346457Y-83961314D01*
X118394076Y-84056552D01*
X118441695Y-84104171D01*
X118536933Y-84151790D01*
X118917885Y-84151790D01*
X117394076Y-84627980D02*
X117965504Y-84627980D01*
X117679790Y-84627980D02*
X117679790Y-83627980D01*
X117775028Y-83770838D01*
X117870266Y-83866076D01*
X117965504Y-83913695D01*
X116441695Y-84627980D02*
X117013123Y-84627980D01*
X116727409Y-84627980D02*
X116727409Y-83627980D01*
X116822647Y-83770838D01*
X116917885Y-83866076D01*
X117013123Y-83913695D01*
X104662266Y-84475580D02*
X104995600Y-83999390D01*
X105233695Y-84475580D02*
X105233695Y-83475580D01*
X104852742Y-83475580D01*
X104757504Y-83523200D01*
X104709885Y-83570819D01*
X104662266Y-83666057D01*
X104662266Y-83808914D01*
X104709885Y-83904152D01*
X104757504Y-83951771D01*
X104852742Y-83999390D01*
X105233695Y-83999390D01*
X104186076Y-84475580D02*
X103995600Y-84475580D01*
X103900361Y-84427961D01*
X103852742Y-84380342D01*
X103757504Y-84237485D01*
X103709885Y-84047009D01*
X103709885Y-83666057D01*
X103757504Y-83570819D01*
X103805123Y-83523200D01*
X103900361Y-83475580D01*
X104090838Y-83475580D01*
X104186076Y-83523200D01*
X104233695Y-83570819D01*
X104281314Y-83666057D01*
X104281314Y-83904152D01*
X104233695Y-83999390D01*
X104186076Y-84047009D01*
X104090838Y-84094628D01*
X103900361Y-84094628D01*
X103805123Y-84047009D01*
X103757504Y-83999390D01*
X103709885Y-83904152D01*
X118448057Y-92451180D02*
X118781390Y-91974990D01*
X119019485Y-92451180D02*
X119019485Y-91451180D01*
X118638533Y-91451180D01*
X118543295Y-91498800D01*
X118495676Y-91546419D01*
X118448057Y-91641657D01*
X118448057Y-91784514D01*
X118495676Y-91879752D01*
X118543295Y-91927371D01*
X118638533Y-91974990D01*
X119019485Y-91974990D01*
X117495676Y-92451180D02*
X118067104Y-92451180D01*
X117781390Y-92451180D02*
X117781390Y-91451180D01*
X117876628Y-91594038D01*
X117971866Y-91689276D01*
X118067104Y-91736895D01*
X117114723Y-91546419D02*
X117067104Y-91498800D01*
X116971866Y-91451180D01*
X116733771Y-91451180D01*
X116638533Y-91498800D01*
X116590914Y-91546419D01*
X116543295Y-91641657D01*
X116543295Y-91736895D01*
X116590914Y-91879752D01*
X117162342Y-92451180D01*
X116543295Y-92451180D01*
D11*
X105171864Y-90673600D02*
X103717736Y-90673600D01*
X105171864Y-88853600D02*
X103717736Y-88853600D01*
X118430664Y-85246800D02*
X116976536Y-85246800D01*
X118430664Y-87066800D02*
X116976536Y-87066800D01*
X105171864Y-87066800D02*
X103717736Y-87066800D01*
X105171864Y-85246800D02*
X103717736Y-85246800D01*
X118430664Y-90775200D02*
X116976536Y-90775200D01*
X118430664Y-88955200D02*
X116976536Y-88955200D01*
M02*
