G04 #@! TF.GenerationSoftware,KiCad,Pcbnew,6.0.9-8da3e8f707~117~ubuntu20.04.1*
G04 #@! TF.CreationDate,2022-11-29T05:25:06-05:00*
G04 #@! TF.ProjectId,audiomute,61756469-6f6d-4757-9465-2e6b69636164,rev?*
G04 #@! TF.SameCoordinates,Original*
G04 #@! TF.FileFunction,Soldermask,Top*
G04 #@! TF.FilePolarity,Negative*
%FSLAX46Y46*%
G04 Gerber Fmt 4.6, Leading zero omitted, Abs format (unit mm)*
G04 Created by KiCad (PCBNEW 6.0.9-8da3e8f707~117~ubuntu20.04.1) date 2022-11-29 05:25:06*
%MOMM*%
%LPD*%
G01*
G04 APERTURE LIST*
G04 Aperture macros list*
%AMRoundRect*
0 Rectangle with rounded corners*
0 $1 Rounding radius*
0 $2 $3 $4 $5 $6 $7 $8 $9 X,Y pos of 4 corners*
0 Add a 4 corners polygon primitive as box body*
4,1,4,$2,$3,$4,$5,$6,$7,$8,$9,$2,$3,0*
0 Add four circle primitives for the rounded corners*
1,1,$1+$1,$2,$3*
1,1,$1+$1,$4,$5*
1,1,$1+$1,$6,$7*
1,1,$1+$1,$8,$9*
0 Add four rect primitives between the rounded corners*
20,1,$1+$1,$2,$3,$4,$5,0*
20,1,$1+$1,$4,$5,$6,$7,0*
20,1,$1+$1,$6,$7,$8,$9,0*
20,1,$1+$1,$8,$9,$2,$3,0*%
G04 Aperture macros list end*
%ADD10RoundRect,0.250000X-0.400000X-0.625000X0.400000X-0.625000X0.400000X0.625000X-0.400000X0.625000X0*%
%ADD11RoundRect,0.150000X0.150000X-0.587500X0.150000X0.587500X-0.150000X0.587500X-0.150000X-0.587500X0*%
%ADD12RoundRect,0.250000X0.412500X0.650000X-0.412500X0.650000X-0.412500X-0.650000X0.412500X-0.650000X0*%
%ADD13C,2.100000*%
%ADD14RoundRect,0.250000X-0.412500X-0.650000X0.412500X-0.650000X0.412500X0.650000X-0.412500X0.650000X0*%
%ADD15C,1.524000*%
%ADD16C,1.700000*%
%ADD17R,2.800000X2.200000*%
%ADD18R,2.800000X2.800000*%
%ADD19R,2.800000X2.600000*%
%ADD20RoundRect,0.150000X-0.587500X-0.150000X0.587500X-0.150000X0.587500X0.150000X-0.587500X0.150000X0*%
%ADD21RoundRect,0.150000X0.587500X0.150000X-0.587500X0.150000X-0.587500X-0.150000X0.587500X-0.150000X0*%
%ADD22RoundRect,0.250000X0.400000X0.625000X-0.400000X0.625000X-0.400000X-0.625000X0.400000X-0.625000X0*%
G04 APERTURE END LIST*
D10*
X112496000Y-101219000D03*
X115596000Y-101219000D03*
D11*
X109794000Y-98346500D03*
X111694000Y-98346500D03*
X110744000Y-96471500D03*
X103698000Y-91310700D03*
X105598000Y-91310700D03*
X104648000Y-89435700D03*
D12*
X109385500Y-104521000D03*
X106260500Y-104521000D03*
D13*
X100941000Y-102616000D03*
X98441000Y-102616000D03*
D10*
X108694760Y-89806240D03*
X111794760Y-89806240D03*
D12*
X100749500Y-86106000D03*
X97624500Y-86106000D03*
D14*
X89505260Y-97426240D03*
X92630260Y-97426240D03*
D10*
X95994760Y-97426240D03*
X99094760Y-97426240D03*
X97645760Y-89425240D03*
X100745760Y-89425240D03*
D15*
X98374000Y-82296000D03*
X105994000Y-82296000D03*
X111074000Y-82296000D03*
X116154000Y-82296000D03*
X116154000Y-74676000D03*
X111074000Y-74676000D03*
X105994000Y-74676000D03*
X98374000Y-74676000D03*
D10*
X115298760Y-94378240D03*
X118398760Y-94378240D03*
D16*
X124206000Y-84109500D03*
X124206000Y-77109500D03*
D17*
X120506000Y-76009500D03*
D18*
X120506000Y-85409500D03*
D17*
X127906000Y-78009500D03*
D19*
X124956000Y-89409500D03*
D10*
X103106760Y-95902240D03*
X106206760Y-95902240D03*
D20*
X98131260Y-92412240D03*
X98131260Y-94312240D03*
X100006260Y-93362240D03*
D16*
X90297000Y-77109500D03*
X90297000Y-84109500D03*
D17*
X86597000Y-76009500D03*
D18*
X86597000Y-85409500D03*
D17*
X93997000Y-78009500D03*
D19*
X91047000Y-89409500D03*
D10*
X106273000Y-101219000D03*
X109373000Y-101219000D03*
D21*
X116770260Y-91645240D03*
X116770260Y-89745240D03*
X114895260Y-90695240D03*
D13*
X89916000Y-102616000D03*
X87416000Y-102616000D03*
D14*
X111721500Y-85979000D03*
X114846500Y-85979000D03*
D22*
X112048760Y-93108240D03*
X108948760Y-93108240D03*
M02*
