M48
INCH,TZ
T1C0.0197
T2C0.0400
T3C0.0433
%
G90
G05
T1
X28600Y-29300
X28800Y-41500
X28900Y-35300
X32450Y-32550
X33980Y-36800
X35040Y-31500
X35380Y-34020
X36980Y-40400
X37280Y-34440
X37853Y-36407
X39553Y-37457
X39860Y-32620
X40060Y-29400
X40120Y-36000
X40203Y-36957
X41980Y-38540
X42340Y-33880
X43060Y-30440
X43480Y-36020
X43680Y-40480
X44703Y-37107
X44920Y-36340
X45053Y-38157
X47400Y-41600
X47850Y-36050
X49580Y-29420
X51600Y-31000
X51750Y-38350
X55150Y-35000
X55600Y-41600
X55700Y-29200
T2
X38730Y-29400
X38730Y-32400
X41730Y-29400
X41730Y-32400
X43730Y-29400
X43730Y-32400
X45730Y-29400
X45730Y-32400
T3
X34416Y-40400
X35400Y-40400
X38756Y-40400
X39741Y-40400
T0
M30
