G04 #@! TF.GenerationSoftware,KiCad,Pcbnew,6.0.9-8da3e8f707~116~ubuntu20.04.1*
G04 #@! TF.CreationDate,2022-11-10T07:20:07-05:00*
G04 #@! TF.ProjectId,audiomute,61756469-6f6d-4757-9465-2e6b69636164,rev?*
G04 #@! TF.SameCoordinates,Original*
G04 #@! TF.FileFunction,Copper,L1,Top*
G04 #@! TF.FilePolarity,Positive*
%FSLAX46Y46*%
G04 Gerber Fmt 4.6, Leading zero omitted, Abs format (unit mm)*
G04 Created by KiCad (PCBNEW 6.0.9-8da3e8f707~116~ubuntu20.04.1) date 2022-11-10 07:20:07*
%MOMM*%
%LPD*%
G01*
G04 APERTURE LIST*
G04 Aperture macros list*
%AMRoundRect*
0 Rectangle with rounded corners*
0 $1 Rounding radius*
0 $2 $3 $4 $5 $6 $7 $8 $9 X,Y pos of 4 corners*
0 Add a 4 corners polygon primitive as box body*
4,1,4,$2,$3,$4,$5,$6,$7,$8,$9,$2,$3,0*
0 Add four circle primitives for the rounded corners*
1,1,$1+$1,$2,$3*
1,1,$1+$1,$4,$5*
1,1,$1+$1,$6,$7*
1,1,$1+$1,$8,$9*
0 Add four rect primitives between the rounded corners*
20,1,$1+$1,$2,$3,$4,$5,0*
20,1,$1+$1,$4,$5,$6,$7,0*
20,1,$1+$1,$6,$7,$8,$9,0*
20,1,$1+$1,$8,$9,$2,$3,0*%
G04 Aperture macros list end*
G04 #@! TA.AperFunction,SMDPad,CuDef*
%ADD10R,2.800000X2.200000*%
G04 #@! TD*
G04 #@! TA.AperFunction,SMDPad,CuDef*
%ADD11R,2.800000X2.800000*%
G04 #@! TD*
G04 #@! TA.AperFunction,SMDPad,CuDef*
%ADD12R,2.800000X2.600000*%
G04 #@! TD*
G04 #@! TA.AperFunction,SMDPad,CuDef*
%ADD13RoundRect,0.250000X-0.400000X-0.625000X0.400000X-0.625000X0.400000X0.625000X-0.400000X0.625000X0*%
G04 #@! TD*
G04 #@! TA.AperFunction,SMDPad,CuDef*
%ADD14RoundRect,0.150000X0.150000X-0.587500X0.150000X0.587500X-0.150000X0.587500X-0.150000X-0.587500X0*%
G04 #@! TD*
G04 #@! TA.AperFunction,SMDPad,CuDef*
%ADD15RoundRect,0.250000X0.412500X0.650000X-0.412500X0.650000X-0.412500X-0.650000X0.412500X-0.650000X0*%
G04 #@! TD*
G04 #@! TA.AperFunction,ComponentPad*
%ADD16C,2.100000*%
G04 #@! TD*
G04 #@! TA.AperFunction,SMDPad,CuDef*
%ADD17RoundRect,0.250000X-0.412500X-0.650000X0.412500X-0.650000X0.412500X0.650000X-0.412500X0.650000X0*%
G04 #@! TD*
G04 #@! TA.AperFunction,ComponentPad*
%ADD18C,1.524000*%
G04 #@! TD*
G04 #@! TA.AperFunction,SMDPad,CuDef*
%ADD19RoundRect,0.150000X-0.587500X-0.150000X0.587500X-0.150000X0.587500X0.150000X-0.587500X0.150000X0*%
G04 #@! TD*
G04 #@! TA.AperFunction,SMDPad,CuDef*
%ADD20RoundRect,0.150000X0.587500X0.150000X-0.587500X0.150000X-0.587500X-0.150000X0.587500X-0.150000X0*%
G04 #@! TD*
G04 #@! TA.AperFunction,SMDPad,CuDef*
%ADD21RoundRect,0.250000X0.400000X0.625000X-0.400000X0.625000X-0.400000X-0.625000X0.400000X-0.625000X0*%
G04 #@! TD*
G04 #@! TA.AperFunction,ViaPad*
%ADD22C,1.000000*%
G04 #@! TD*
G04 #@! TA.AperFunction,Conductor*
%ADD23C,0.500000*%
G04 #@! TD*
G04 #@! TA.AperFunction,Conductor*
%ADD24C,1.000000*%
G04 #@! TD*
G04 APERTURE END LIST*
D10*
X86597000Y-76009500D03*
D11*
X86597000Y-85409500D03*
D10*
X93997000Y-78009500D03*
D12*
X91047000Y-89409500D03*
D10*
X120506000Y-76009500D03*
D11*
X120506000Y-85409500D03*
D10*
X127906000Y-78009500D03*
D12*
X124956000Y-89409500D03*
D13*
X112496000Y-101219000D03*
X115596000Y-101219000D03*
D14*
X109794000Y-98346500D03*
X111694000Y-98346500D03*
X110744000Y-96471500D03*
X103698000Y-91310700D03*
X105598000Y-91310700D03*
X104648000Y-89435700D03*
D15*
X109385500Y-104521000D03*
X106260500Y-104521000D03*
D16*
X100941000Y-102616000D03*
X98441000Y-102616000D03*
D13*
X108694760Y-89806240D03*
X111794760Y-89806240D03*
D15*
X100749500Y-86106000D03*
X97624500Y-86106000D03*
D17*
X89505260Y-97426240D03*
X92630260Y-97426240D03*
D13*
X95994760Y-97426240D03*
X99094760Y-97426240D03*
X97645760Y-89425240D03*
X100745760Y-89425240D03*
D18*
X98374000Y-82296000D03*
X105994000Y-82296000D03*
X111074000Y-82296000D03*
X116154000Y-82296000D03*
X116154000Y-74676000D03*
X111074000Y-74676000D03*
X105994000Y-74676000D03*
X98374000Y-74676000D03*
D13*
X115298760Y-94378240D03*
X118398760Y-94378240D03*
X103106760Y-95902240D03*
X106206760Y-95902240D03*
D19*
X98131260Y-92412240D03*
X98131260Y-94312240D03*
X100006260Y-93362240D03*
D13*
X106273000Y-101219000D03*
X109373000Y-101219000D03*
D20*
X116770260Y-91645240D03*
X116770260Y-89745240D03*
X114895260Y-90695240D03*
D16*
X89916000Y-102616000D03*
X87416000Y-102616000D03*
D17*
X111721500Y-85979000D03*
X114846500Y-85979000D03*
D21*
X112048760Y-93108240D03*
X108948760Y-93108240D03*
D22*
X141478000Y-74168000D03*
X89865200Y-86410800D03*
X86309200Y-93472000D03*
X110439200Y-91490800D03*
X101904800Y-91440000D03*
X93929200Y-102616000D03*
X94691200Y-87477600D03*
X106629200Y-97891600D03*
X89001600Y-80010000D03*
X109372400Y-77317600D03*
X101244400Y-82854800D03*
X73152000Y-105410000D03*
X120396000Y-105664000D03*
X73406000Y-89662000D03*
X101752400Y-74676000D03*
X114096800Y-92303600D03*
X114435760Y-96918240D03*
X141224000Y-105664000D03*
X82423000Y-82677000D03*
X121539000Y-91567000D03*
X131064000Y-78740000D03*
X110947200Y-102819200D03*
X125933200Y-74726800D03*
X107543600Y-86055200D03*
X72644000Y-74422000D03*
X131445000Y-97409000D03*
X140081000Y-88900000D03*
X96147760Y-92473240D03*
X102116760Y-93870240D03*
X100465760Y-95140240D03*
X113546760Y-94251240D03*
D23*
X102819200Y-80568800D02*
X91440000Y-80568800D01*
X91440000Y-80568800D02*
X90924800Y-81084000D01*
X103347500Y-81084000D02*
X103334400Y-81084000D01*
X103334400Y-81084000D02*
X102819200Y-80568800D01*
X90922500Y-81084000D02*
X90924800Y-81084000D01*
X103347500Y-81084000D02*
X104559500Y-82296000D01*
X104559500Y-82296000D02*
X105994000Y-82296000D01*
X86597000Y-85409500D02*
X90922500Y-81084000D01*
X100749500Y-86106000D02*
X104559500Y-82296000D01*
X97645760Y-86127260D02*
X97624500Y-86106000D01*
X97645760Y-89425240D02*
X97645760Y-86127260D01*
X106273000Y-101219000D02*
X106273000Y-104508500D01*
X100965000Y-102616000D02*
X102362000Y-101219000D01*
X102362000Y-101219000D02*
X106273000Y-101219000D01*
X106273000Y-104508500D02*
X106260500Y-104521000D01*
X97938260Y-94505240D02*
X98131260Y-94312240D01*
X92630260Y-97426240D02*
X92630260Y-99922740D01*
X97163760Y-94505240D02*
X97938260Y-94505240D01*
X95994760Y-95674240D02*
X97163760Y-94505240D01*
X92621500Y-99905500D02*
X89911000Y-102616000D01*
X92630260Y-97426240D02*
X95994760Y-97426240D01*
X95994760Y-97426240D02*
X95994760Y-95674240D01*
X112496000Y-101219000D02*
X109373000Y-101219000D01*
X109794000Y-100798000D02*
X109373000Y-101219000D01*
X109794000Y-98346500D02*
X109794000Y-100798000D01*
X106214920Y-95910400D02*
X106206760Y-95902240D01*
X108559600Y-95910400D02*
X106214920Y-95910400D01*
X109120700Y-96471500D02*
X108559600Y-95910400D01*
X110744000Y-96471500D02*
X109120700Y-96471500D01*
X102624760Y-95013240D02*
X102624760Y-95420240D01*
X99094760Y-97426240D02*
X101582760Y-97426240D01*
X102116760Y-93870240D02*
X102116760Y-94505240D01*
X98131260Y-92412240D02*
X96208760Y-92412240D01*
X96208760Y-92412240D02*
X96147760Y-92473240D01*
X101582760Y-97426240D02*
X103106760Y-95902240D01*
X102116760Y-94505240D02*
X102624760Y-95013240D01*
X113800760Y-94378240D02*
X113673760Y-94378240D01*
X113673760Y-94378240D02*
X113546760Y-94251240D01*
X100006260Y-94680740D02*
X100465760Y-95140240D01*
X113191760Y-94251240D02*
X112048760Y-93108240D01*
X115298760Y-94378240D02*
X113800760Y-94378240D01*
X113546760Y-94251240D02*
X113191760Y-94251240D01*
X100006260Y-93362240D02*
X100006260Y-94680740D01*
X104284240Y-93108240D02*
X103682800Y-92506800D01*
X108948760Y-93108240D02*
X104284240Y-93108240D01*
X103682800Y-91325900D02*
X103698000Y-91310700D01*
X103682800Y-92506800D02*
X103682800Y-91325900D01*
X116836260Y-91711240D02*
X116770260Y-91645240D01*
X118398760Y-92499240D02*
X117610760Y-91711240D01*
X117610760Y-91711240D02*
X116836260Y-91711240D01*
X118398760Y-94378240D02*
X118398760Y-92499240D01*
D24*
X102660500Y-78009500D02*
X105994000Y-74676000D01*
X93997000Y-78009500D02*
X102660500Y-78009500D01*
D23*
X104648000Y-89435700D02*
X100756220Y-89435700D01*
X108324220Y-89435700D02*
X108694760Y-89806240D01*
X104648000Y-89435700D02*
X108324220Y-89435700D01*
X100756220Y-89435700D02*
X100745760Y-89425240D01*
X111794760Y-89806240D02*
X116709260Y-89806240D01*
X111794760Y-86052260D02*
X111721500Y-85979000D01*
X111794760Y-89806240D02*
X111794760Y-86052260D01*
X116709260Y-89806240D02*
X116770260Y-89745240D01*
D24*
X126769100Y-79146400D02*
X127906000Y-78009500D01*
X115544400Y-79146400D02*
X126769100Y-79146400D01*
X111074000Y-74676000D02*
X115544400Y-79146400D01*
D23*
X114846500Y-85979000D02*
X115416000Y-85409500D01*
X115416000Y-85409500D02*
X120506000Y-85409500D01*
X114846500Y-85979000D02*
X114846500Y-85890500D01*
X114846500Y-85890500D02*
X114668500Y-85890500D01*
X114668500Y-85890500D02*
X111074000Y-82296000D01*
G04 #@! TA.AperFunction,Conductor*
G36*
X142943621Y-72918502D02*
G01*
X142990114Y-72972158D01*
X143001500Y-73024500D01*
X143001500Y-107188500D01*
X142981498Y-107256621D01*
X142927842Y-107303114D01*
X142875500Y-107314500D01*
X71373500Y-107314500D01*
X71305379Y-107294498D01*
X71258886Y-107240842D01*
X71247500Y-107188500D01*
X71247500Y-103885030D01*
X86511800Y-103885030D01*
X86517527Y-103892680D01*
X86702272Y-104005893D01*
X86711067Y-104010375D01*
X86928490Y-104100434D01*
X86937875Y-104103483D01*
X87166708Y-104158422D01*
X87176455Y-104159965D01*
X87411070Y-104178430D01*
X87420930Y-104178430D01*
X87655545Y-104159965D01*
X87665292Y-104158422D01*
X87894125Y-104103483D01*
X87903510Y-104100434D01*
X88120933Y-104010375D01*
X88129728Y-104005893D01*
X88310805Y-103894928D01*
X88320267Y-103884470D01*
X88316484Y-103875694D01*
X87428812Y-102988022D01*
X87414868Y-102980408D01*
X87413035Y-102980539D01*
X87406420Y-102984790D01*
X86518560Y-103872650D01*
X86511800Y-103885030D01*
X71247500Y-103885030D01*
X71247500Y-101600000D01*
X75206654Y-101600000D01*
X75206924Y-101604119D01*
X75212772Y-101693337D01*
X75226017Y-101895426D01*
X75226819Y-101899459D01*
X75226820Y-101899465D01*
X75282970Y-102181747D01*
X75283776Y-102185797D01*
X75285103Y-102189706D01*
X75285104Y-102189710D01*
X75370907Y-102442478D01*
X75378941Y-102466145D01*
X75437243Y-102584369D01*
X75459160Y-102628812D01*
X75509885Y-102731673D01*
X75512179Y-102735106D01*
X75592706Y-102855623D01*
X75674367Y-102977838D01*
X75677081Y-102980932D01*
X75677085Y-102980938D01*
X75849060Y-103177037D01*
X75869573Y-103200427D01*
X75872662Y-103203136D01*
X76089062Y-103392915D01*
X76089068Y-103392919D01*
X76092162Y-103395633D01*
X76095588Y-103397922D01*
X76095593Y-103397926D01*
X76278690Y-103520267D01*
X76338327Y-103560115D01*
X76342026Y-103561939D01*
X76342031Y-103561942D01*
X76478313Y-103629148D01*
X76603855Y-103691059D01*
X76607760Y-103692384D01*
X76607761Y-103692385D01*
X76880290Y-103784896D01*
X76880294Y-103784897D01*
X76884203Y-103786224D01*
X76888247Y-103787028D01*
X76888253Y-103787030D01*
X77170535Y-103843180D01*
X77170541Y-103843181D01*
X77174574Y-103843983D01*
X77178679Y-103844252D01*
X77178686Y-103844253D01*
X77465881Y-103863076D01*
X77470000Y-103863346D01*
X77474119Y-103863076D01*
X77761314Y-103844253D01*
X77761321Y-103844252D01*
X77765426Y-103843983D01*
X77769459Y-103843181D01*
X77769465Y-103843180D01*
X78051747Y-103787030D01*
X78051753Y-103787028D01*
X78055797Y-103786224D01*
X78059706Y-103784897D01*
X78059710Y-103784896D01*
X78332239Y-103692385D01*
X78332240Y-103692384D01*
X78336145Y-103691059D01*
X78461687Y-103629148D01*
X78597969Y-103561942D01*
X78597974Y-103561939D01*
X78601673Y-103560115D01*
X78661310Y-103520267D01*
X78844407Y-103397926D01*
X78844412Y-103397922D01*
X78847838Y-103395633D01*
X78850932Y-103392919D01*
X78850938Y-103392915D01*
X79067338Y-103203136D01*
X79070427Y-103200427D01*
X79090940Y-103177037D01*
X79262915Y-102980938D01*
X79262919Y-102980932D01*
X79265633Y-102977838D01*
X79347295Y-102855623D01*
X79427821Y-102735106D01*
X79430115Y-102731673D01*
X79480841Y-102628812D01*
X79484728Y-102620930D01*
X85853570Y-102620930D01*
X85872035Y-102855545D01*
X85873578Y-102865292D01*
X85928517Y-103094125D01*
X85931566Y-103103510D01*
X86021625Y-103320933D01*
X86026107Y-103329728D01*
X86137072Y-103510805D01*
X86147530Y-103520267D01*
X86156306Y-103516484D01*
X87043978Y-102628812D01*
X87050356Y-102617132D01*
X87780408Y-102617132D01*
X87780539Y-102618965D01*
X87784790Y-102625580D01*
X88572873Y-103413663D01*
X88591209Y-103436920D01*
X88651248Y-103534896D01*
X88654463Y-103538660D01*
X88654465Y-103538663D01*
X88769096Y-103672877D01*
X88810567Y-103721433D01*
X88814323Y-103724641D01*
X88991182Y-103875694D01*
X88997104Y-103880752D01*
X89001327Y-103883340D01*
X89001330Y-103883342D01*
X89020237Y-103894928D01*
X89206268Y-104008927D01*
X89350967Y-104068864D01*
X89428335Y-104100911D01*
X89428337Y-104100912D01*
X89432908Y-104102805D01*
X89515563Y-104122649D01*
X89666630Y-104158917D01*
X89666636Y-104158918D01*
X89671443Y-104160072D01*
X89916000Y-104179319D01*
X90160557Y-104160072D01*
X90165364Y-104158918D01*
X90165370Y-104158917D01*
X90316437Y-104122649D01*
X90399092Y-104102805D01*
X90403663Y-104100912D01*
X90403665Y-104100911D01*
X90481033Y-104068864D01*
X90625732Y-104008927D01*
X90811763Y-103894928D01*
X90827915Y-103885030D01*
X97536800Y-103885030D01*
X97542527Y-103892680D01*
X97727272Y-104005893D01*
X97736067Y-104010375D01*
X97953490Y-104100434D01*
X97962875Y-104103483D01*
X98191708Y-104158422D01*
X98201455Y-104159965D01*
X98436070Y-104178430D01*
X98445930Y-104178430D01*
X98680545Y-104159965D01*
X98690292Y-104158422D01*
X98919125Y-104103483D01*
X98928510Y-104100434D01*
X99145933Y-104010375D01*
X99154728Y-104005893D01*
X99335805Y-103894928D01*
X99345267Y-103884470D01*
X99341484Y-103875694D01*
X98453812Y-102988022D01*
X98439868Y-102980408D01*
X98438035Y-102980539D01*
X98431420Y-102984790D01*
X97543560Y-103872650D01*
X97536800Y-103885030D01*
X90827915Y-103885030D01*
X90830670Y-103883342D01*
X90830673Y-103883340D01*
X90834896Y-103880752D01*
X90840819Y-103875694D01*
X91017677Y-103724641D01*
X91021433Y-103721433D01*
X91062904Y-103672877D01*
X91177535Y-103538663D01*
X91177537Y-103538660D01*
X91180752Y-103534896D01*
X91308927Y-103325732D01*
X91391598Y-103126149D01*
X91400911Y-103103665D01*
X91400912Y-103103663D01*
X91402805Y-103099092D01*
X91422649Y-103016437D01*
X91458917Y-102865370D01*
X91458918Y-102865364D01*
X91460072Y-102860557D01*
X91478931Y-102620930D01*
X96878570Y-102620930D01*
X96897035Y-102855545D01*
X96898578Y-102865292D01*
X96953517Y-103094125D01*
X96956566Y-103103510D01*
X97046625Y-103320933D01*
X97051107Y-103329728D01*
X97162072Y-103510805D01*
X97172530Y-103520267D01*
X97181306Y-103516484D01*
X98068978Y-102628812D01*
X98076592Y-102614868D01*
X98076461Y-102613035D01*
X98072210Y-102606420D01*
X97184350Y-101718560D01*
X97171970Y-101711800D01*
X97164320Y-101717527D01*
X97051107Y-101902272D01*
X97046625Y-101911067D01*
X96956566Y-102128490D01*
X96953517Y-102137875D01*
X96898578Y-102366708D01*
X96897035Y-102376455D01*
X96878570Y-102611070D01*
X96878570Y-102620930D01*
X91478931Y-102620930D01*
X91479319Y-102616000D01*
X91460072Y-102371443D01*
X91458916Y-102366629D01*
X91458915Y-102366621D01*
X91431662Y-102253106D01*
X91435208Y-102182198D01*
X91465085Y-102134596D01*
X92252151Y-101347530D01*
X97536733Y-101347530D01*
X97540516Y-101356306D01*
X98428188Y-102243978D01*
X98442132Y-102251592D01*
X98443965Y-102251461D01*
X98450580Y-102247210D01*
X99338440Y-101359350D01*
X99345200Y-101346970D01*
X99339473Y-101339320D01*
X99154728Y-101226107D01*
X99145933Y-101221625D01*
X98928510Y-101131566D01*
X98919125Y-101128517D01*
X98690292Y-101073578D01*
X98680545Y-101072035D01*
X98445930Y-101053570D01*
X98436070Y-101053570D01*
X98201455Y-101072035D01*
X98191708Y-101073578D01*
X97962875Y-101128517D01*
X97953490Y-101131566D01*
X97736067Y-101221625D01*
X97727272Y-101226107D01*
X97546195Y-101337072D01*
X97536733Y-101347530D01*
X92252151Y-101347530D01*
X93020715Y-100578966D01*
X93035127Y-100566579D01*
X93145183Y-100485587D01*
X93145187Y-100485584D01*
X93151078Y-100481248D01*
X93155817Y-100475670D01*
X93155820Y-100475667D01*
X93260854Y-100352034D01*
X93260857Y-100352030D01*
X93265593Y-100346455D01*
X93314022Y-100251614D01*
X93342702Y-100195448D01*
X93342703Y-100195446D01*
X93346029Y-100188932D01*
X93361458Y-100125880D01*
X93386733Y-100022584D01*
X93388068Y-100017130D01*
X93388760Y-100005976D01*
X93388760Y-98824345D01*
X93408762Y-98756224D01*
X93448457Y-98717201D01*
X93510880Y-98678572D01*
X93517108Y-98674718D01*
X93642065Y-98549543D01*
X93646098Y-98543000D01*
X93731035Y-98405208D01*
X93731036Y-98405206D01*
X93734875Y-98398978D01*
X93777299Y-98271073D01*
X93817729Y-98212713D01*
X93883294Y-98185476D01*
X93896892Y-98184740D01*
X94748881Y-98184740D01*
X94817002Y-98204742D01*
X94863495Y-98258398D01*
X94868404Y-98270863D01*
X94900489Y-98367030D01*
X94903210Y-98375186D01*
X94996282Y-98525588D01*
X95121457Y-98650545D01*
X95127687Y-98654385D01*
X95127688Y-98654386D01*
X95264850Y-98738934D01*
X95272022Y-98743355D01*
X95304547Y-98754143D01*
X95433371Y-98796872D01*
X95433373Y-98796872D01*
X95439899Y-98799037D01*
X95446735Y-98799737D01*
X95446738Y-98799738D01*
X95489791Y-98804149D01*
X95544360Y-98809740D01*
X96445160Y-98809740D01*
X96448406Y-98809403D01*
X96448410Y-98809403D01*
X96544068Y-98799478D01*
X96544072Y-98799477D01*
X96550926Y-98798766D01*
X96557462Y-98796585D01*
X96557464Y-98796585D01*
X96689566Y-98752512D01*
X96718706Y-98742790D01*
X96869108Y-98649718D01*
X96912386Y-98606365D01*
X96988894Y-98529723D01*
X96994065Y-98524543D01*
X97065482Y-98408684D01*
X97118255Y-98361190D01*
X97172742Y-98348800D01*
X97916680Y-98348800D01*
X97984801Y-98368802D01*
X98023823Y-98408496D01*
X98096282Y-98525588D01*
X98221457Y-98650545D01*
X98227687Y-98654385D01*
X98227688Y-98654386D01*
X98364850Y-98738934D01*
X98372022Y-98743355D01*
X98404547Y-98754143D01*
X98533371Y-98796872D01*
X98533373Y-98796872D01*
X98539899Y-98799037D01*
X98546735Y-98799737D01*
X98546738Y-98799738D01*
X98589791Y-98804149D01*
X98644360Y-98809740D01*
X99545160Y-98809740D01*
X99548406Y-98809403D01*
X99548410Y-98809403D01*
X99644068Y-98799478D01*
X99644072Y-98799477D01*
X99650926Y-98798766D01*
X99657462Y-98796585D01*
X99657464Y-98796585D01*
X99789566Y-98752512D01*
X99818706Y-98742790D01*
X99969108Y-98649718D01*
X100012386Y-98606365D01*
X100088894Y-98529723D01*
X100094065Y-98524543D01*
X100167012Y-98406202D01*
X100183035Y-98380208D01*
X100183036Y-98380206D01*
X100186875Y-98373978D01*
X100221007Y-98271073D01*
X100261438Y-98212713D01*
X100327002Y-98185476D01*
X100340600Y-98184740D01*
X101515690Y-98184740D01*
X101534640Y-98186173D01*
X101548875Y-98188339D01*
X101548879Y-98188339D01*
X101556109Y-98189439D01*
X101563401Y-98188846D01*
X101563404Y-98188846D01*
X101608778Y-98185155D01*
X101618993Y-98184740D01*
X101627053Y-98184740D01*
X101640343Y-98183191D01*
X101655267Y-98181451D01*
X101659642Y-98181018D01*
X101725099Y-98175694D01*
X101725102Y-98175693D01*
X101732397Y-98175100D01*
X101739361Y-98172844D01*
X101745320Y-98171653D01*
X101751175Y-98170269D01*
X101758441Y-98169422D01*
X101827087Y-98144505D01*
X101831215Y-98143088D01*
X101893696Y-98122847D01*
X101893698Y-98122846D01*
X101900659Y-98120591D01*
X101906914Y-98116795D01*
X101912388Y-98114289D01*
X101917818Y-98111570D01*
X101924697Y-98109073D01*
X101949975Y-98092500D01*
X101985736Y-98069054D01*
X101989440Y-98066717D01*
X102051867Y-98028835D01*
X102060244Y-98021437D01*
X102060268Y-98021464D01*
X102063260Y-98018811D01*
X102066493Y-98016108D01*
X102072612Y-98012096D01*
X102125888Y-97955857D01*
X102128266Y-97953415D01*
X102759036Y-97322645D01*
X102821348Y-97288619D01*
X102848131Y-97285740D01*
X103557160Y-97285740D01*
X103560406Y-97285403D01*
X103560410Y-97285403D01*
X103656068Y-97275478D01*
X103656072Y-97275477D01*
X103662926Y-97274766D01*
X103669462Y-97272585D01*
X103669464Y-97272585D01*
X103813855Y-97224412D01*
X103830706Y-97218790D01*
X103981108Y-97125718D01*
X104106065Y-97000543D01*
X104146168Y-96935484D01*
X104198940Y-96887991D01*
X104253428Y-96875600D01*
X105060116Y-96875600D01*
X105128237Y-96895602D01*
X105167259Y-96935296D01*
X105208282Y-97001588D01*
X105333457Y-97126545D01*
X105339687Y-97130385D01*
X105339688Y-97130386D01*
X105476850Y-97214934D01*
X105484022Y-97219355D01*
X105522568Y-97232140D01*
X105645371Y-97272872D01*
X105645373Y-97272872D01*
X105651899Y-97275037D01*
X105658735Y-97275737D01*
X105658738Y-97275738D01*
X105701791Y-97280149D01*
X105756360Y-97285740D01*
X106657160Y-97285740D01*
X106660406Y-97285403D01*
X106660410Y-97285403D01*
X106756068Y-97275478D01*
X106756072Y-97275477D01*
X106762926Y-97274766D01*
X106769462Y-97272585D01*
X106769464Y-97272585D01*
X106913855Y-97224412D01*
X106930706Y-97218790D01*
X107081108Y-97125718D01*
X107206065Y-97000543D01*
X107246168Y-96935484D01*
X107295035Y-96856208D01*
X107295036Y-96856206D01*
X107298875Y-96849978D01*
X107330301Y-96755232D01*
X107370730Y-96696873D01*
X107436294Y-96669636D01*
X107449893Y-96668900D01*
X108193229Y-96668900D01*
X108261350Y-96688902D01*
X108282324Y-96705805D01*
X108536930Y-96960411D01*
X108549316Y-96974823D01*
X108557849Y-96986418D01*
X108557854Y-96986423D01*
X108562192Y-96992318D01*
X108567770Y-96997057D01*
X108567773Y-96997060D01*
X108602468Y-97026535D01*
X108609984Y-97033465D01*
X108615679Y-97039160D01*
X108618561Y-97041440D01*
X108637951Y-97056781D01*
X108641355Y-97059572D01*
X108691403Y-97102091D01*
X108696985Y-97106833D01*
X108703501Y-97110161D01*
X108708550Y-97113528D01*
X108713679Y-97116695D01*
X108719416Y-97121234D01*
X108785575Y-97152155D01*
X108789469Y-97154058D01*
X108854508Y-97187269D01*
X108861616Y-97189008D01*
X108867259Y-97191107D01*
X108873022Y-97193024D01*
X108879650Y-97196122D01*
X108886812Y-97197612D01*
X108886813Y-97197612D01*
X108951112Y-97210986D01*
X108955384Y-97211953D01*
X108982218Y-97218519D01*
X109006300Y-97224412D01*
X109067714Y-97260033D01*
X109100121Y-97323202D01*
X109093232Y-97393863D01*
X109084804Y-97410940D01*
X109034855Y-97495399D01*
X109032644Y-97503010D01*
X109032643Y-97503012D01*
X109017472Y-97555231D01*
X108988438Y-97655169D01*
X108987934Y-97661574D01*
X108987933Y-97661579D01*
X108986003Y-97686105D01*
X108985500Y-97692498D01*
X108985500Y-99000502D01*
X108985693Y-99002950D01*
X108985693Y-99002958D01*
X108987927Y-99031333D01*
X108988438Y-99037831D01*
X108990232Y-99044007D01*
X108990233Y-99044011D01*
X109030497Y-99182602D01*
X109035500Y-99217754D01*
X109035500Y-99710183D01*
X109015498Y-99778304D01*
X108961842Y-99824797D01*
X108922504Y-99835510D01*
X108914620Y-99836328D01*
X108823692Y-99845762D01*
X108823688Y-99845763D01*
X108816834Y-99846474D01*
X108810298Y-99848655D01*
X108810296Y-99848655D01*
X108793928Y-99854116D01*
X108649054Y-99902450D01*
X108498652Y-99995522D01*
X108373695Y-100120697D01*
X108369855Y-100126927D01*
X108369854Y-100126928D01*
X108312905Y-100219316D01*
X108260132Y-100266809D01*
X108205645Y-100279200D01*
X107440412Y-100279200D01*
X107372291Y-100259198D01*
X107333268Y-100219503D01*
X107275332Y-100125880D01*
X107271478Y-100119652D01*
X107146303Y-99994695D01*
X107140072Y-99990854D01*
X107001968Y-99905725D01*
X107001966Y-99905724D01*
X106995738Y-99901885D01*
X106915995Y-99875436D01*
X106834389Y-99848368D01*
X106834387Y-99848368D01*
X106827861Y-99846203D01*
X106821025Y-99845503D01*
X106821022Y-99845502D01*
X106777969Y-99841091D01*
X106723400Y-99835500D01*
X105822600Y-99835500D01*
X105819354Y-99835837D01*
X105819350Y-99835837D01*
X105723692Y-99845762D01*
X105723688Y-99845763D01*
X105716834Y-99846474D01*
X105710298Y-99848655D01*
X105710296Y-99848655D01*
X105693928Y-99854116D01*
X105549054Y-99902450D01*
X105398652Y-99995522D01*
X105273695Y-100120697D01*
X105269855Y-100126927D01*
X105269854Y-100126928D01*
X105192766Y-100251988D01*
X105180885Y-100271262D01*
X105165858Y-100316568D01*
X105146753Y-100374167D01*
X105106322Y-100432527D01*
X105040758Y-100459764D01*
X105027160Y-100460500D01*
X102429063Y-100460500D01*
X102410114Y-100459067D01*
X102409907Y-100459036D01*
X102388651Y-100455802D01*
X102381359Y-100456395D01*
X102381356Y-100456395D01*
X102335991Y-100460085D01*
X102325777Y-100460500D01*
X102317707Y-100460500D01*
X102314087Y-100460922D01*
X102314069Y-100460923D01*
X102289461Y-100463792D01*
X102285100Y-100464224D01*
X102259981Y-100466267D01*
X102219661Y-100469546D01*
X102219658Y-100469547D01*
X102212363Y-100470140D01*
X102205399Y-100472396D01*
X102199440Y-100473587D01*
X102193585Y-100474971D01*
X102186319Y-100475818D01*
X102117673Y-100500735D01*
X102113545Y-100502152D01*
X102051064Y-100522393D01*
X102051062Y-100522394D01*
X102044101Y-100524649D01*
X102037846Y-100528445D01*
X102032372Y-100530951D01*
X102026942Y-100533670D01*
X102020063Y-100536167D01*
X101959016Y-100576191D01*
X101955327Y-100578518D01*
X101954590Y-100578966D01*
X101897693Y-100613491D01*
X101897688Y-100613495D01*
X101892892Y-100616405D01*
X101884516Y-100623803D01*
X101884493Y-100623777D01*
X101881503Y-100626426D01*
X101878264Y-100629134D01*
X101872148Y-100633144D01*
X101867121Y-100638451D01*
X101867117Y-100638454D01*
X101818872Y-100689383D01*
X101816494Y-100691825D01*
X101437726Y-101070593D01*
X101375414Y-101104619D01*
X101319219Y-101104017D01*
X101263593Y-101090663D01*
X101190370Y-101073083D01*
X101190364Y-101073082D01*
X101185557Y-101071928D01*
X100941000Y-101052681D01*
X100696443Y-101071928D01*
X100691636Y-101073082D01*
X100691630Y-101073083D01*
X100540563Y-101109351D01*
X100457908Y-101129195D01*
X100453337Y-101131088D01*
X100453335Y-101131089D01*
X100375967Y-101163136D01*
X100231268Y-101223073D01*
X100104861Y-101300535D01*
X100026330Y-101348658D01*
X100026327Y-101348660D01*
X100022104Y-101351248D01*
X100018340Y-101354463D01*
X100018337Y-101354465D01*
X99874312Y-101477475D01*
X99835567Y-101510567D01*
X99676248Y-101697104D01*
X99616209Y-101795080D01*
X99597873Y-101818337D01*
X98813022Y-102603188D01*
X98805408Y-102617132D01*
X98805539Y-102618965D01*
X98809790Y-102625580D01*
X99597873Y-103413663D01*
X99616209Y-103436920D01*
X99676248Y-103534896D01*
X99679463Y-103538660D01*
X99679465Y-103538663D01*
X99794096Y-103672877D01*
X99835567Y-103721433D01*
X99839323Y-103724641D01*
X100016182Y-103875694D01*
X100022104Y-103880752D01*
X100026327Y-103883340D01*
X100026330Y-103883342D01*
X100045237Y-103894928D01*
X100231268Y-104008927D01*
X100375967Y-104068864D01*
X100453335Y-104100911D01*
X100453337Y-104100912D01*
X100457908Y-104102805D01*
X100540563Y-104122649D01*
X100691630Y-104158917D01*
X100691636Y-104158918D01*
X100696443Y-104160072D01*
X100941000Y-104179319D01*
X101185557Y-104160072D01*
X101190364Y-104158918D01*
X101190370Y-104158917D01*
X101341437Y-104122649D01*
X101424092Y-104102805D01*
X101428663Y-104100912D01*
X101428665Y-104100911D01*
X101506033Y-104068864D01*
X101650732Y-104008927D01*
X101836763Y-103894928D01*
X101855670Y-103883342D01*
X101855673Y-103883340D01*
X101859896Y-103880752D01*
X101865819Y-103875694D01*
X102042677Y-103724641D01*
X102046433Y-103721433D01*
X102087904Y-103672877D01*
X102202535Y-103538663D01*
X102202537Y-103538660D01*
X102205752Y-103534896D01*
X102333927Y-103325732D01*
X102416598Y-103126149D01*
X102425911Y-103103665D01*
X102425912Y-103103663D01*
X102427805Y-103099092D01*
X102447649Y-103016437D01*
X102483917Y-102865370D01*
X102483918Y-102865364D01*
X102485072Y-102860557D01*
X102504319Y-102616000D01*
X102485072Y-102371443D01*
X102483915Y-102366621D01*
X102462276Y-102276490D01*
X102465823Y-102205582D01*
X102495700Y-102157981D01*
X102639276Y-102014405D01*
X102701588Y-101980379D01*
X102728371Y-101977500D01*
X105027121Y-101977500D01*
X105095242Y-101997502D01*
X105141735Y-102051158D01*
X105146644Y-102063623D01*
X105179130Y-102160993D01*
X105181450Y-102167946D01*
X105274522Y-102318348D01*
X105399697Y-102443305D01*
X105405925Y-102447144D01*
X105405930Y-102447148D01*
X105454617Y-102477159D01*
X105502110Y-102529931D01*
X105514500Y-102584418D01*
X105514500Y-103115160D01*
X105494498Y-103183281D01*
X105454803Y-103222304D01*
X105373652Y-103272522D01*
X105248695Y-103397697D01*
X105244855Y-103403927D01*
X105244854Y-103403928D01*
X105224516Y-103436923D01*
X105155885Y-103548262D01*
X105151954Y-103560115D01*
X105108522Y-103691059D01*
X105100203Y-103716139D01*
X105099503Y-103722975D01*
X105099502Y-103722978D01*
X105097861Y-103738998D01*
X105089500Y-103820600D01*
X105089500Y-105221400D01*
X105089837Y-105224646D01*
X105089837Y-105224650D01*
X105099618Y-105318914D01*
X105100474Y-105327166D01*
X105156450Y-105494946D01*
X105249522Y-105645348D01*
X105374697Y-105770305D01*
X105380927Y-105774145D01*
X105380928Y-105774146D01*
X105518288Y-105858816D01*
X105525262Y-105863115D01*
X105605005Y-105889564D01*
X105686611Y-105916632D01*
X105686613Y-105916632D01*
X105693139Y-105918797D01*
X105699975Y-105919497D01*
X105699978Y-105919498D01*
X105743031Y-105923909D01*
X105797600Y-105929500D01*
X106723400Y-105929500D01*
X106726646Y-105929163D01*
X106726650Y-105929163D01*
X106822308Y-105919238D01*
X106822312Y-105919237D01*
X106829166Y-105918526D01*
X106835702Y-105916345D01*
X106835704Y-105916345D01*
X106967806Y-105872272D01*
X106996946Y-105862550D01*
X107147348Y-105769478D01*
X107272305Y-105644303D01*
X107365115Y-105493738D01*
X107406378Y-105369333D01*
X107446808Y-105310973D01*
X107512373Y-105283736D01*
X107525971Y-105283000D01*
X108120476Y-105283000D01*
X108188597Y-105303002D01*
X108235090Y-105356658D01*
X108240000Y-105369124D01*
X108279588Y-105487784D01*
X108285761Y-105500962D01*
X108371063Y-105638807D01*
X108380099Y-105650208D01*
X108494829Y-105764739D01*
X108506240Y-105773751D01*
X108644243Y-105858816D01*
X108657424Y-105864963D01*
X108811710Y-105916138D01*
X108825086Y-105919005D01*
X108919438Y-105928672D01*
X108925854Y-105929000D01*
X109113385Y-105929000D01*
X109128624Y-105924525D01*
X109129829Y-105923135D01*
X109131500Y-105915452D01*
X109131500Y-105910884D01*
X109639500Y-105910884D01*
X109643975Y-105926123D01*
X109645365Y-105927328D01*
X109653048Y-105928999D01*
X109845095Y-105928999D01*
X109851614Y-105928662D01*
X109947206Y-105918743D01*
X109960600Y-105915851D01*
X110114784Y-105864412D01*
X110127962Y-105858239D01*
X110265807Y-105772937D01*
X110277208Y-105763901D01*
X110391739Y-105649171D01*
X110400751Y-105637760D01*
X110485816Y-105499757D01*
X110491963Y-105486576D01*
X110543138Y-105332290D01*
X110546005Y-105318914D01*
X110555672Y-105224562D01*
X110556000Y-105218146D01*
X110556000Y-104793115D01*
X110551525Y-104777876D01*
X110550135Y-104776671D01*
X110542452Y-104775000D01*
X109657615Y-104775000D01*
X109642376Y-104779475D01*
X109641171Y-104780865D01*
X109639500Y-104788548D01*
X109639500Y-105910884D01*
X109131500Y-105910884D01*
X109131500Y-104248885D01*
X109639500Y-104248885D01*
X109643975Y-104264124D01*
X109645365Y-104265329D01*
X109653048Y-104267000D01*
X110537884Y-104267000D01*
X110553123Y-104262525D01*
X110554328Y-104261135D01*
X110555999Y-104253452D01*
X110555999Y-103823905D01*
X110555662Y-103817386D01*
X110545743Y-103721794D01*
X110542851Y-103708400D01*
X110491412Y-103554216D01*
X110485239Y-103541038D01*
X110399937Y-103403193D01*
X110390901Y-103391792D01*
X110276171Y-103277261D01*
X110264760Y-103268249D01*
X110126757Y-103183184D01*
X110113576Y-103177037D01*
X109959290Y-103125862D01*
X109945914Y-103122995D01*
X109851562Y-103113328D01*
X109845145Y-103113000D01*
X109657615Y-103113000D01*
X109642376Y-103117475D01*
X109641171Y-103118865D01*
X109639500Y-103126548D01*
X109639500Y-104248885D01*
X109131500Y-104248885D01*
X109131500Y-103131116D01*
X109127025Y-103115877D01*
X109125635Y-103114672D01*
X109117952Y-103113001D01*
X108925905Y-103113001D01*
X108919386Y-103113338D01*
X108823794Y-103123257D01*
X108810400Y-103126149D01*
X108656216Y-103177588D01*
X108643038Y-103183761D01*
X108505193Y-103269063D01*
X108493792Y-103278099D01*
X108379261Y-103392829D01*
X108370249Y-103404240D01*
X108285184Y-103542243D01*
X108279036Y-103555426D01*
X108240149Y-103672667D01*
X108199718Y-103731027D01*
X108134154Y-103758264D01*
X108120556Y-103759000D01*
X107526052Y-103759000D01*
X107457931Y-103738998D01*
X107411438Y-103685342D01*
X107406529Y-103672877D01*
X107366870Y-103554007D01*
X107366869Y-103554005D01*
X107364550Y-103547054D01*
X107271478Y-103396652D01*
X107146303Y-103271695D01*
X107140075Y-103267856D01*
X107140070Y-103267852D01*
X107091383Y-103237841D01*
X107043890Y-103185069D01*
X107031500Y-103130582D01*
X107031500Y-102584369D01*
X107051502Y-102516248D01*
X107091193Y-102477228D01*
X107147348Y-102442478D01*
X107272305Y-102317303D01*
X107333095Y-102218684D01*
X107385868Y-102171191D01*
X107440355Y-102158800D01*
X108205588Y-102158800D01*
X108273709Y-102178802D01*
X108312732Y-102218497D01*
X108374522Y-102318348D01*
X108499697Y-102443305D01*
X108505927Y-102447145D01*
X108505928Y-102447146D01*
X108643288Y-102531816D01*
X108650262Y-102536115D01*
X108695272Y-102551044D01*
X108811611Y-102589632D01*
X108811613Y-102589632D01*
X108818139Y-102591797D01*
X108824975Y-102592497D01*
X108824978Y-102592498D01*
X108868031Y-102596909D01*
X108922600Y-102602500D01*
X109823400Y-102602500D01*
X109826646Y-102602163D01*
X109826650Y-102602163D01*
X109922308Y-102592238D01*
X109922312Y-102592237D01*
X109929166Y-102591526D01*
X109935702Y-102589345D01*
X109935704Y-102589345D01*
X110067806Y-102545272D01*
X110096946Y-102535550D01*
X110247348Y-102442478D01*
X110372305Y-102317303D01*
X110415511Y-102247210D01*
X110461275Y-102172968D01*
X110461276Y-102172966D01*
X110465115Y-102166738D01*
X110499247Y-102063833D01*
X110539678Y-102005473D01*
X110605242Y-101978236D01*
X110618840Y-101977500D01*
X111250121Y-101977500D01*
X111318242Y-101997502D01*
X111364735Y-102051158D01*
X111369644Y-102063623D01*
X111402130Y-102160993D01*
X111404450Y-102167946D01*
X111497522Y-102318348D01*
X111622697Y-102443305D01*
X111628927Y-102447145D01*
X111628928Y-102447146D01*
X111766288Y-102531816D01*
X111773262Y-102536115D01*
X111818272Y-102551044D01*
X111934611Y-102589632D01*
X111934613Y-102589632D01*
X111941139Y-102591797D01*
X111947975Y-102592497D01*
X111947978Y-102592498D01*
X111991031Y-102596909D01*
X112045600Y-102602500D01*
X112946400Y-102602500D01*
X112949646Y-102602163D01*
X112949650Y-102602163D01*
X113045308Y-102592238D01*
X113045312Y-102592237D01*
X113052166Y-102591526D01*
X113058702Y-102589345D01*
X113058704Y-102589345D01*
X113190806Y-102545272D01*
X113219946Y-102535550D01*
X113370348Y-102442478D01*
X113495305Y-102317303D01*
X113538511Y-102247210D01*
X113584275Y-102172968D01*
X113584276Y-102172966D01*
X113588115Y-102166738D01*
X113621086Y-102067333D01*
X113661516Y-102008973D01*
X113727081Y-101981736D01*
X113740679Y-101981000D01*
X114351817Y-101981000D01*
X114419938Y-102001002D01*
X114466431Y-102054658D01*
X114471341Y-102067124D01*
X114502588Y-102160784D01*
X114508761Y-102173962D01*
X114594063Y-102311807D01*
X114603099Y-102323208D01*
X114717829Y-102437739D01*
X114729240Y-102446751D01*
X114867243Y-102531816D01*
X114880424Y-102537963D01*
X115034710Y-102589138D01*
X115048086Y-102592005D01*
X115142438Y-102601672D01*
X115148854Y-102602000D01*
X115323885Y-102602000D01*
X115339124Y-102597525D01*
X115340329Y-102596135D01*
X115342000Y-102588452D01*
X115342000Y-102583884D01*
X115850000Y-102583884D01*
X115854475Y-102599123D01*
X115855865Y-102600328D01*
X115863548Y-102601999D01*
X116043095Y-102601999D01*
X116049614Y-102601662D01*
X116145206Y-102591743D01*
X116158600Y-102588851D01*
X116312784Y-102537412D01*
X116325962Y-102531239D01*
X116463807Y-102445937D01*
X116475208Y-102436901D01*
X116589739Y-102322171D01*
X116598751Y-102310760D01*
X116683816Y-102172757D01*
X116689963Y-102159576D01*
X116741138Y-102005290D01*
X116744005Y-101991914D01*
X116753672Y-101897562D01*
X116754000Y-101891146D01*
X116754000Y-101600000D01*
X134896654Y-101600000D01*
X134896924Y-101604119D01*
X134902772Y-101693337D01*
X134916017Y-101895426D01*
X134916819Y-101899459D01*
X134916820Y-101899465D01*
X134972970Y-102181747D01*
X134973776Y-102185797D01*
X134975103Y-102189706D01*
X134975104Y-102189710D01*
X135060907Y-102442478D01*
X135068941Y-102466145D01*
X135127243Y-102584369D01*
X135149160Y-102628812D01*
X135199885Y-102731673D01*
X135202179Y-102735106D01*
X135282706Y-102855623D01*
X135364367Y-102977838D01*
X135367081Y-102980932D01*
X135367085Y-102980938D01*
X135539060Y-103177037D01*
X135559573Y-103200427D01*
X135562662Y-103203136D01*
X135779062Y-103392915D01*
X135779068Y-103392919D01*
X135782162Y-103395633D01*
X135785588Y-103397922D01*
X135785593Y-103397926D01*
X135968690Y-103520267D01*
X136028327Y-103560115D01*
X136032026Y-103561939D01*
X136032031Y-103561942D01*
X136168313Y-103629148D01*
X136293855Y-103691059D01*
X136297760Y-103692384D01*
X136297761Y-103692385D01*
X136570290Y-103784896D01*
X136570294Y-103784897D01*
X136574203Y-103786224D01*
X136578247Y-103787028D01*
X136578253Y-103787030D01*
X136860535Y-103843180D01*
X136860541Y-103843181D01*
X136864574Y-103843983D01*
X136868679Y-103844252D01*
X136868686Y-103844253D01*
X137155881Y-103863076D01*
X137160000Y-103863346D01*
X137164119Y-103863076D01*
X137451314Y-103844253D01*
X137451321Y-103844252D01*
X137455426Y-103843983D01*
X137459459Y-103843181D01*
X137459465Y-103843180D01*
X137741747Y-103787030D01*
X137741753Y-103787028D01*
X137745797Y-103786224D01*
X137749706Y-103784897D01*
X137749710Y-103784896D01*
X138022239Y-103692385D01*
X138022240Y-103692384D01*
X138026145Y-103691059D01*
X138151687Y-103629148D01*
X138287969Y-103561942D01*
X138287974Y-103561939D01*
X138291673Y-103560115D01*
X138351310Y-103520267D01*
X138534407Y-103397926D01*
X138534412Y-103397922D01*
X138537838Y-103395633D01*
X138540932Y-103392919D01*
X138540938Y-103392915D01*
X138757338Y-103203136D01*
X138760427Y-103200427D01*
X138780940Y-103177037D01*
X138952915Y-102980938D01*
X138952919Y-102980932D01*
X138955633Y-102977838D01*
X139037295Y-102855623D01*
X139117821Y-102735106D01*
X139120115Y-102731673D01*
X139170841Y-102628812D01*
X139192757Y-102584369D01*
X139251059Y-102466145D01*
X139259093Y-102442478D01*
X139344896Y-102189710D01*
X139344897Y-102189706D01*
X139346224Y-102185797D01*
X139347030Y-102181747D01*
X139403180Y-101899465D01*
X139403181Y-101899459D01*
X139403983Y-101895426D01*
X139417229Y-101693337D01*
X139423076Y-101604119D01*
X139423346Y-101600000D01*
X139417274Y-101507359D01*
X139404253Y-101308686D01*
X139404252Y-101308679D01*
X139403983Y-101304574D01*
X139387772Y-101223073D01*
X139347030Y-101018253D01*
X139347028Y-101018247D01*
X139346224Y-101014203D01*
X139251059Y-100733855D01*
X139174460Y-100578528D01*
X139121942Y-100472031D01*
X139121939Y-100472026D01*
X139120115Y-100468327D01*
X139057199Y-100374167D01*
X138957926Y-100225593D01*
X138957922Y-100225588D01*
X138955633Y-100222162D01*
X138952919Y-100219068D01*
X138952915Y-100219062D01*
X138763136Y-100002662D01*
X138760427Y-99999573D01*
X138653938Y-99906184D01*
X138540938Y-99807085D01*
X138540932Y-99807081D01*
X138537838Y-99804367D01*
X138534412Y-99802078D01*
X138534407Y-99802074D01*
X138295106Y-99642179D01*
X138291673Y-99639885D01*
X138287974Y-99638061D01*
X138287969Y-99638058D01*
X138099048Y-99544893D01*
X138026145Y-99508941D01*
X137946311Y-99481841D01*
X137749710Y-99415104D01*
X137749706Y-99415103D01*
X137745797Y-99413776D01*
X137741753Y-99412972D01*
X137741747Y-99412970D01*
X137459465Y-99356820D01*
X137459459Y-99356819D01*
X137455426Y-99356017D01*
X137451321Y-99355748D01*
X137451314Y-99355747D01*
X137164119Y-99336924D01*
X137160000Y-99336654D01*
X137155881Y-99336924D01*
X136868686Y-99355747D01*
X136868679Y-99355748D01*
X136864574Y-99356017D01*
X136860541Y-99356819D01*
X136860535Y-99356820D01*
X136578253Y-99412970D01*
X136578247Y-99412972D01*
X136574203Y-99413776D01*
X136570294Y-99415103D01*
X136570290Y-99415104D01*
X136373689Y-99481841D01*
X136293855Y-99508941D01*
X136220952Y-99544893D01*
X136032031Y-99638058D01*
X136032026Y-99638061D01*
X136028327Y-99639885D01*
X136024894Y-99642179D01*
X135785593Y-99802074D01*
X135785588Y-99802078D01*
X135782162Y-99804367D01*
X135779068Y-99807081D01*
X135779062Y-99807085D01*
X135666062Y-99906184D01*
X135559573Y-99999573D01*
X135556864Y-100002662D01*
X135367085Y-100219062D01*
X135367081Y-100219068D01*
X135364367Y-100222162D01*
X135362078Y-100225588D01*
X135362074Y-100225593D01*
X135262801Y-100374167D01*
X135199885Y-100468327D01*
X135198061Y-100472026D01*
X135198058Y-100472031D01*
X135145540Y-100578528D01*
X135068941Y-100733855D01*
X134973776Y-101014203D01*
X134972972Y-101018247D01*
X134972970Y-101018253D01*
X134932229Y-101223073D01*
X134916017Y-101304574D01*
X134915748Y-101308679D01*
X134915747Y-101308686D01*
X134902726Y-101507359D01*
X134896654Y-101600000D01*
X116754000Y-101600000D01*
X116754000Y-101491115D01*
X116749525Y-101475876D01*
X116748135Y-101474671D01*
X116740452Y-101473000D01*
X115868115Y-101473000D01*
X115852876Y-101477475D01*
X115851671Y-101478865D01*
X115850000Y-101486548D01*
X115850000Y-102583884D01*
X115342000Y-102583884D01*
X115342000Y-100946885D01*
X115850000Y-100946885D01*
X115854475Y-100962124D01*
X115855865Y-100963329D01*
X115863548Y-100965000D01*
X116735884Y-100965000D01*
X116751123Y-100960525D01*
X116752328Y-100959135D01*
X116753999Y-100951452D01*
X116753999Y-100546905D01*
X116753662Y-100540386D01*
X116743743Y-100444794D01*
X116740851Y-100431400D01*
X116689412Y-100277216D01*
X116683239Y-100264038D01*
X116597937Y-100126193D01*
X116588901Y-100114792D01*
X116474171Y-100000261D01*
X116462760Y-99991249D01*
X116324757Y-99906184D01*
X116311576Y-99900037D01*
X116157290Y-99848862D01*
X116143914Y-99845995D01*
X116049562Y-99836328D01*
X116043145Y-99836000D01*
X115868115Y-99836000D01*
X115852876Y-99840475D01*
X115851671Y-99841865D01*
X115850000Y-99849548D01*
X115850000Y-100946885D01*
X115342000Y-100946885D01*
X115342000Y-99854116D01*
X115337525Y-99838877D01*
X115336135Y-99837672D01*
X115328452Y-99836001D01*
X115148905Y-99836001D01*
X115142386Y-99836338D01*
X115046794Y-99846257D01*
X115033400Y-99849149D01*
X114879216Y-99900588D01*
X114866038Y-99906761D01*
X114728193Y-99992063D01*
X114716792Y-100001099D01*
X114602261Y-100115829D01*
X114593249Y-100127240D01*
X114508184Y-100265243D01*
X114502036Y-100278426D01*
X114471441Y-100370667D01*
X114431010Y-100429027D01*
X114365446Y-100456264D01*
X114351848Y-100457000D01*
X113740711Y-100457000D01*
X113672590Y-100436998D01*
X113626097Y-100383342D01*
X113621187Y-100370876D01*
X113589868Y-100277002D01*
X113587550Y-100270054D01*
X113494478Y-100119652D01*
X113369303Y-99994695D01*
X113363072Y-99990854D01*
X113224968Y-99905725D01*
X113224966Y-99905724D01*
X113218738Y-99901885D01*
X113138995Y-99875436D01*
X113057389Y-99848368D01*
X113057387Y-99848368D01*
X113050861Y-99846203D01*
X113044025Y-99845503D01*
X113044022Y-99845502D01*
X113000969Y-99841091D01*
X112946400Y-99835500D01*
X112045600Y-99835500D01*
X112042354Y-99835837D01*
X112042350Y-99835837D01*
X111946692Y-99845762D01*
X111946688Y-99845763D01*
X111939834Y-99846474D01*
X111933298Y-99848655D01*
X111933296Y-99848655D01*
X111916928Y-99854116D01*
X111772054Y-99902450D01*
X111621652Y-99995522D01*
X111496695Y-100120697D01*
X111492855Y-100126927D01*
X111492854Y-100126928D01*
X111415766Y-100251988D01*
X111403885Y-100271262D01*
X111388858Y-100316568D01*
X111369753Y-100374167D01*
X111329322Y-100432527D01*
X111263758Y-100459764D01*
X111250160Y-100460500D01*
X111065774Y-100460500D01*
X110997653Y-100440498D01*
X110951160Y-100386842D01*
X110941056Y-100316568D01*
X110970550Y-100251988D01*
X110971132Y-100251614D01*
X110991247Y-100228400D01*
X110998000Y-100228400D01*
X110998000Y-99596455D01*
X111018002Y-99528334D01*
X111071658Y-99481841D01*
X111141932Y-99471737D01*
X111188139Y-99488001D01*
X111273779Y-99538648D01*
X111288210Y-99544893D01*
X111422605Y-99583939D01*
X111436706Y-99583899D01*
X111440000Y-99576630D01*
X111440000Y-99570878D01*
X111948000Y-99570878D01*
X111951973Y-99584409D01*
X111959871Y-99585544D01*
X112099790Y-99544893D01*
X112114221Y-99538648D01*
X112243678Y-99462089D01*
X112256104Y-99452449D01*
X112362449Y-99346104D01*
X112372089Y-99333678D01*
X112448648Y-99204221D01*
X112454893Y-99189790D01*
X112497269Y-99043935D01*
X112499570Y-99031333D01*
X112501807Y-99002916D01*
X112502000Y-98997986D01*
X112502000Y-98618615D01*
X112497525Y-98603376D01*
X112496135Y-98602171D01*
X112488452Y-98600500D01*
X111966115Y-98600500D01*
X111950876Y-98604975D01*
X111949671Y-98606365D01*
X111948000Y-98614048D01*
X111948000Y-99570878D01*
X111440000Y-99570878D01*
X111440000Y-98074385D01*
X111948000Y-98074385D01*
X111952475Y-98089624D01*
X111953865Y-98090829D01*
X111961548Y-98092500D01*
X112483884Y-98092500D01*
X112499123Y-98088025D01*
X112500328Y-98086635D01*
X112501999Y-98078952D01*
X112501999Y-97695017D01*
X112501805Y-97690080D01*
X112499570Y-97661664D01*
X112497270Y-97649069D01*
X112454893Y-97503210D01*
X112448648Y-97488779D01*
X112372089Y-97359322D01*
X112362449Y-97346896D01*
X112256104Y-97240551D01*
X112243678Y-97230911D01*
X112114221Y-97154352D01*
X112099790Y-97148107D01*
X111965395Y-97109061D01*
X111951294Y-97109101D01*
X111948000Y-97116370D01*
X111948000Y-98074385D01*
X111440000Y-98074385D01*
X111440000Y-97463842D01*
X111457547Y-97399703D01*
X111499108Y-97329427D01*
X111503145Y-97322601D01*
X111516964Y-97275037D01*
X111533140Y-97219355D01*
X111549562Y-97162831D01*
X111550230Y-97154352D01*
X111552307Y-97127958D01*
X111552307Y-97127950D01*
X111552500Y-97125502D01*
X111552500Y-95817498D01*
X111552307Y-95815042D01*
X111550067Y-95786579D01*
X111550066Y-95786574D01*
X111549562Y-95780169D01*
X111503145Y-95620399D01*
X111436296Y-95507363D01*
X111422491Y-95484020D01*
X111422489Y-95484017D01*
X111418453Y-95477193D01*
X111300807Y-95359547D01*
X111293983Y-95355511D01*
X111293980Y-95355509D01*
X111164427Y-95278892D01*
X111164428Y-95278892D01*
X111157601Y-95274855D01*
X111149990Y-95272644D01*
X111149988Y-95272643D01*
X111097769Y-95257472D01*
X110997831Y-95228438D01*
X110991426Y-95227934D01*
X110991421Y-95227933D01*
X110962958Y-95225693D01*
X110962950Y-95225693D01*
X110960502Y-95225500D01*
X110527498Y-95225500D01*
X110525050Y-95225693D01*
X110525042Y-95225693D01*
X110496579Y-95227933D01*
X110496574Y-95227934D01*
X110490169Y-95228438D01*
X110390231Y-95257472D01*
X110338012Y-95272643D01*
X110338010Y-95272644D01*
X110330399Y-95274855D01*
X110323572Y-95278892D01*
X110323573Y-95278892D01*
X110194020Y-95355509D01*
X110194017Y-95355511D01*
X110187193Y-95359547D01*
X110069547Y-95477193D01*
X110065511Y-95484017D01*
X110065509Y-95484020D01*
X110051704Y-95507363D01*
X109984855Y-95620399D01*
X109982643Y-95628012D01*
X109979494Y-95635289D01*
X109976726Y-95634091D01*
X109946111Y-95682007D01*
X109881609Y-95711670D01*
X109863348Y-95713000D01*
X109487071Y-95713000D01*
X109418950Y-95692998D01*
X109397976Y-95676095D01*
X109143370Y-95421489D01*
X109130984Y-95407077D01*
X109122451Y-95395482D01*
X109122446Y-95395477D01*
X109118108Y-95389582D01*
X109112530Y-95384843D01*
X109112527Y-95384840D01*
X109077832Y-95355365D01*
X109070316Y-95348435D01*
X109064621Y-95342740D01*
X109047378Y-95329098D01*
X109042349Y-95325119D01*
X109038945Y-95322328D01*
X108988897Y-95279809D01*
X108988895Y-95279808D01*
X108983315Y-95275067D01*
X108976799Y-95271739D01*
X108971750Y-95268372D01*
X108966621Y-95265205D01*
X108960884Y-95260666D01*
X108894725Y-95229745D01*
X108890825Y-95227839D01*
X108887643Y-95226214D01*
X108825792Y-95194631D01*
X108818684Y-95192892D01*
X108813041Y-95190793D01*
X108807278Y-95188876D01*
X108800650Y-95185778D01*
X108792391Y-95184060D01*
X108729188Y-95170914D01*
X108724899Y-95169943D01*
X108653990Y-95152592D01*
X108648388Y-95152244D01*
X108648385Y-95152244D01*
X108642836Y-95151900D01*
X108642838Y-95151864D01*
X108638845Y-95151625D01*
X108634653Y-95151251D01*
X108627485Y-95149760D01*
X108571963Y-95151262D01*
X108550079Y-95151854D01*
X108546672Y-95151900D01*
X107455361Y-95151900D01*
X107387240Y-95131898D01*
X107340747Y-95078242D01*
X107335837Y-95065776D01*
X107300628Y-94960242D01*
X107298310Y-94953294D01*
X107205238Y-94802892D01*
X107080063Y-94677935D01*
X107042656Y-94654877D01*
X106935728Y-94588965D01*
X106935726Y-94588964D01*
X106929498Y-94585125D01*
X106769014Y-94531895D01*
X106768149Y-94531608D01*
X106768147Y-94531608D01*
X106761621Y-94529443D01*
X106754785Y-94528743D01*
X106754782Y-94528742D01*
X106711729Y-94524331D01*
X106657160Y-94518740D01*
X105756360Y-94518740D01*
X105753114Y-94519077D01*
X105753110Y-94519077D01*
X105657452Y-94529002D01*
X105657448Y-94529003D01*
X105650594Y-94529714D01*
X105644058Y-94531895D01*
X105644056Y-94531895D01*
X105591189Y-94549533D01*
X105482814Y-94585690D01*
X105332412Y-94678762D01*
X105207455Y-94803937D01*
X105203615Y-94810167D01*
X105203614Y-94810168D01*
X105125978Y-94936116D01*
X105073205Y-94983610D01*
X105018718Y-94996000D01*
X104294940Y-94996000D01*
X104226819Y-94975998D01*
X104187796Y-94936303D01*
X104109092Y-94809120D01*
X104105238Y-94802892D01*
X103980063Y-94677935D01*
X103942656Y-94654877D01*
X103835728Y-94588965D01*
X103835726Y-94588964D01*
X103829498Y-94585125D01*
X103669014Y-94531895D01*
X103668149Y-94531608D01*
X103668147Y-94531608D01*
X103661621Y-94529443D01*
X103654785Y-94528743D01*
X103654782Y-94528742D01*
X103611729Y-94524331D01*
X103557160Y-94518740D01*
X103255915Y-94518740D01*
X103187794Y-94498738D01*
X103169261Y-94484212D01*
X103154377Y-94470112D01*
X103151936Y-94467735D01*
X103078607Y-94394406D01*
X103044581Y-94332094D01*
X103048144Y-94265539D01*
X103067422Y-94207588D01*
X103104957Y-94094753D01*
X103129745Y-93898535D01*
X103130140Y-93870240D01*
X103110840Y-93673407D01*
X103053676Y-93484071D01*
X102960826Y-93309444D01*
X102888481Y-93220740D01*
X102839720Y-93160953D01*
X102839717Y-93160950D01*
X102835825Y-93156178D01*
X102828471Y-93150094D01*
X102688185Y-93034039D01*
X102688181Y-93034037D01*
X102683435Y-93030110D01*
X102509461Y-92936042D01*
X102320528Y-92877558D01*
X102314403Y-92876914D01*
X102314402Y-92876914D01*
X102129964Y-92857529D01*
X102129962Y-92857529D01*
X102123835Y-92856885D01*
X102041336Y-92864393D01*
X101933011Y-92874251D01*
X101933008Y-92874252D01*
X101926872Y-92874810D01*
X101920966Y-92876548D01*
X101920962Y-92876549D01*
X101815836Y-92907489D01*
X101737141Y-92930650D01*
X101731683Y-92933503D01*
X101731679Y-92933505D01*
X101650573Y-92975907D01*
X101561870Y-93022280D01*
X101435461Y-93123916D01*
X101369839Y-93151013D01*
X101299984Y-93138330D01*
X101248076Y-93089894D01*
X101235512Y-93060873D01*
X101205117Y-92956252D01*
X101205116Y-92956250D01*
X101202905Y-92948639D01*
X101158912Y-92874251D01*
X101122251Y-92812260D01*
X101122249Y-92812257D01*
X101118213Y-92805433D01*
X101000567Y-92687787D01*
X100993743Y-92683751D01*
X100993740Y-92683749D01*
X100864187Y-92607132D01*
X100864188Y-92607132D01*
X100857361Y-92603095D01*
X100849750Y-92600884D01*
X100849748Y-92600883D01*
X100775481Y-92579307D01*
X100697591Y-92556678D01*
X100691186Y-92556174D01*
X100691181Y-92556173D01*
X100662718Y-92553933D01*
X100662710Y-92553933D01*
X100660262Y-92553740D01*
X99503260Y-92553740D01*
X99435139Y-92533738D01*
X99388646Y-92480082D01*
X99377260Y-92427740D01*
X99377260Y-92195738D01*
X99376127Y-92181341D01*
X99374827Y-92164819D01*
X99374826Y-92164814D01*
X99374322Y-92158409D01*
X99338449Y-92034933D01*
X99330117Y-92006252D01*
X99330116Y-92006250D01*
X99327905Y-91998639D01*
X99307835Y-91964702D01*
X99247251Y-91862260D01*
X99247249Y-91862257D01*
X99243213Y-91855433D01*
X99125567Y-91737787D01*
X99118743Y-91733751D01*
X99118740Y-91733749D01*
X98989187Y-91657132D01*
X98989188Y-91657132D01*
X98982361Y-91653095D01*
X98974750Y-91650884D01*
X98974748Y-91650883D01*
X98910425Y-91632196D01*
X98822591Y-91606678D01*
X98816186Y-91606174D01*
X98816181Y-91606173D01*
X98787718Y-91603933D01*
X98787710Y-91603933D01*
X98785262Y-91603740D01*
X97477258Y-91603740D01*
X97474810Y-91603933D01*
X97474802Y-91603933D01*
X97446339Y-91606173D01*
X97446334Y-91606174D01*
X97439929Y-91606678D01*
X97433753Y-91608472D01*
X97433749Y-91608473D01*
X97295158Y-91648737D01*
X97260006Y-91653740D01*
X96782467Y-91653740D01*
X96714514Y-91632963D01*
X96714435Y-91633110D01*
X96713707Y-91632716D01*
X96713705Y-91632716D01*
X96540461Y-91539042D01*
X96351528Y-91480558D01*
X96345403Y-91479914D01*
X96345402Y-91479914D01*
X96160964Y-91460529D01*
X96160962Y-91460529D01*
X96154835Y-91459885D01*
X96072336Y-91467393D01*
X95964011Y-91477251D01*
X95964008Y-91477252D01*
X95957872Y-91477810D01*
X95951966Y-91479548D01*
X95951962Y-91479549D01*
X95871470Y-91503239D01*
X95768141Y-91533650D01*
X95762683Y-91536503D01*
X95762679Y-91536505D01*
X95674098Y-91582815D01*
X95592870Y-91625280D01*
X95438735Y-91749208D01*
X95311606Y-91900714D01*
X95308639Y-91906112D01*
X95308635Y-91906117D01*
X95248711Y-92015120D01*
X95216327Y-92074027D01*
X95214466Y-92079894D01*
X95214465Y-92079896D01*
X95185918Y-92169888D01*
X95156525Y-92262546D01*
X95134479Y-92459091D01*
X95134995Y-92465235D01*
X95144574Y-92579307D01*
X95151028Y-92656174D01*
X95158935Y-92683749D01*
X95199352Y-92824699D01*
X95205543Y-92846290D01*
X95208362Y-92851775D01*
X95291155Y-93012871D01*
X95295947Y-93022196D01*
X95418795Y-93177193D01*
X95423488Y-93181187D01*
X95423489Y-93181188D01*
X95559263Y-93296740D01*
X95569410Y-93305376D01*
X95742054Y-93401864D01*
X95930152Y-93462980D01*
X96126537Y-93486398D01*
X96132672Y-93485926D01*
X96132674Y-93485926D01*
X96317590Y-93471697D01*
X96317594Y-93471696D01*
X96323732Y-93471224D01*
X96514223Y-93418038D01*
X96519727Y-93415258D01*
X96519729Y-93415257D01*
X96685255Y-93331644D01*
X96685257Y-93331643D01*
X96690756Y-93328865D01*
X96846607Y-93207101D01*
X96848453Y-93204962D01*
X96910550Y-93173001D01*
X96934314Y-93170740D01*
X96952800Y-93170740D01*
X97020921Y-93190742D01*
X97067414Y-93244398D01*
X97078800Y-93296740D01*
X97078800Y-93573600D01*
X97084120Y-93573600D01*
X97089619Y-93592328D01*
X97089619Y-93663324D01*
X97057818Y-93716922D01*
X97044454Y-93730286D01*
X96987981Y-93761783D01*
X96988080Y-93762057D01*
X96986389Y-93762671D01*
X96986387Y-93762672D01*
X96981200Y-93764555D01*
X96981196Y-93764556D01*
X96919462Y-93786965D01*
X96915358Y-93788375D01*
X96845861Y-93810888D01*
X96839606Y-93814684D01*
X96834147Y-93817183D01*
X96828699Y-93819911D01*
X96821823Y-93822407D01*
X96760770Y-93862435D01*
X96757097Y-93864753D01*
X96753369Y-93867015D01*
X96699446Y-93899736D01*
X96699442Y-93899739D01*
X96694653Y-93902645D01*
X96690454Y-93906354D01*
X96690449Y-93906357D01*
X96686276Y-93910043D01*
X96686252Y-93910016D01*
X96683260Y-93912669D01*
X96680027Y-93915372D01*
X96673908Y-93919384D01*
X96654001Y-93940398D01*
X96620632Y-93975623D01*
X96618254Y-93978065D01*
X95505849Y-95090470D01*
X95491437Y-95102856D01*
X95479842Y-95111389D01*
X95479837Y-95111394D01*
X95473942Y-95115732D01*
X95469203Y-95121310D01*
X95469200Y-95121313D01*
X95439725Y-95156008D01*
X95432795Y-95163524D01*
X95427100Y-95169219D01*
X95424820Y-95172101D01*
X95409479Y-95191491D01*
X95406688Y-95194895D01*
X95364169Y-95244943D01*
X95359427Y-95250525D01*
X95356099Y-95257041D01*
X95352732Y-95262090D01*
X95349565Y-95267219D01*
X95345026Y-95272956D01*
X95314105Y-95339115D01*
X95312202Y-95343009D01*
X95278991Y-95408048D01*
X95277252Y-95415156D01*
X95275153Y-95420799D01*
X95273236Y-95426562D01*
X95270138Y-95433190D01*
X95268648Y-95440352D01*
X95268648Y-95440353D01*
X95255274Y-95504652D01*
X95254304Y-95508936D01*
X95236952Y-95579850D01*
X95236260Y-95591004D01*
X95236224Y-95591002D01*
X95235985Y-95594995D01*
X95235611Y-95599187D01*
X95234120Y-95606355D01*
X95234318Y-95613672D01*
X95236214Y-95683761D01*
X95236260Y-95687168D01*
X95236260Y-96060871D01*
X95216258Y-96128992D01*
X95176567Y-96168012D01*
X95120412Y-96202762D01*
X94995455Y-96327937D01*
X94991615Y-96334167D01*
X94991614Y-96334168D01*
X94913641Y-96460664D01*
X94902645Y-96478502D01*
X94888881Y-96520000D01*
X94868513Y-96581407D01*
X94828082Y-96639767D01*
X94762518Y-96667004D01*
X94748920Y-96667740D01*
X93896979Y-96667740D01*
X93828858Y-96647738D01*
X93782365Y-96594082D01*
X93777457Y-96581622D01*
X93734310Y-96452294D01*
X93641238Y-96301892D01*
X93516063Y-96176935D01*
X93477879Y-96153398D01*
X93371728Y-96087965D01*
X93371726Y-96087964D01*
X93365498Y-96084125D01*
X93266491Y-96051286D01*
X93204149Y-96030608D01*
X93204147Y-96030608D01*
X93197621Y-96028443D01*
X93190785Y-96027743D01*
X93190782Y-96027742D01*
X93147729Y-96023331D01*
X93093160Y-96017740D01*
X92167360Y-96017740D01*
X92164114Y-96018077D01*
X92164110Y-96018077D01*
X92068452Y-96028002D01*
X92068448Y-96028003D01*
X92061594Y-96028714D01*
X92055058Y-96030895D01*
X92055056Y-96030895D01*
X91992523Y-96051758D01*
X91893814Y-96084690D01*
X91743412Y-96177762D01*
X91618455Y-96302937D01*
X91614615Y-96309167D01*
X91614614Y-96309168D01*
X91606878Y-96321719D01*
X91525645Y-96453502D01*
X91510223Y-96499998D01*
X91484382Y-96577907D01*
X91443952Y-96636267D01*
X91378387Y-96663504D01*
X91364789Y-96664240D01*
X90770284Y-96664240D01*
X90702163Y-96644238D01*
X90655670Y-96590582D01*
X90650760Y-96578116D01*
X90611172Y-96459456D01*
X90604999Y-96446278D01*
X90519697Y-96308433D01*
X90510661Y-96297032D01*
X90395931Y-96182501D01*
X90384520Y-96173489D01*
X90246517Y-96088424D01*
X90233336Y-96082277D01*
X90079050Y-96031102D01*
X90065674Y-96028235D01*
X89971322Y-96018568D01*
X89964905Y-96018240D01*
X89777375Y-96018240D01*
X89762136Y-96022715D01*
X89760931Y-96024105D01*
X89759260Y-96031788D01*
X89759260Y-98816124D01*
X89763735Y-98831363D01*
X89765125Y-98832568D01*
X89772808Y-98834239D01*
X89964855Y-98834239D01*
X89971374Y-98833902D01*
X90066966Y-98823983D01*
X90080360Y-98821091D01*
X90234544Y-98769652D01*
X90247722Y-98763479D01*
X90385567Y-98678177D01*
X90396968Y-98669141D01*
X90511499Y-98554411D01*
X90520511Y-98543000D01*
X90545707Y-98502124D01*
X90598479Y-98454631D01*
X90652967Y-98442240D01*
X91482032Y-98442240D01*
X91550153Y-98462242D01*
X91589174Y-98501934D01*
X91619282Y-98550588D01*
X91744457Y-98675545D01*
X91750687Y-98679385D01*
X91750688Y-98679386D01*
X91811876Y-98717103D01*
X91859370Y-98769876D01*
X91871760Y-98824363D01*
X91871760Y-99530369D01*
X91851758Y-99598490D01*
X91834855Y-99619464D01*
X90389340Y-101064979D01*
X90327028Y-101099005D01*
X90270830Y-101098402D01*
X90165379Y-101073085D01*
X90165371Y-101073084D01*
X90160557Y-101071928D01*
X89916000Y-101052681D01*
X89671443Y-101071928D01*
X89666636Y-101073082D01*
X89666630Y-101073083D01*
X89515563Y-101109351D01*
X89432908Y-101129195D01*
X89428337Y-101131088D01*
X89428335Y-101131089D01*
X89350967Y-101163136D01*
X89206268Y-101223073D01*
X89079861Y-101300535D01*
X89001330Y-101348658D01*
X89001327Y-101348660D01*
X88997104Y-101351248D01*
X88993340Y-101354463D01*
X88993337Y-101354465D01*
X88849312Y-101477475D01*
X88810567Y-101510567D01*
X88651248Y-101697104D01*
X88591209Y-101795080D01*
X88572873Y-101818337D01*
X87788022Y-102603188D01*
X87780408Y-102617132D01*
X87050356Y-102617132D01*
X87051592Y-102614868D01*
X87051461Y-102613035D01*
X87047210Y-102606420D01*
X86159350Y-101718560D01*
X86146970Y-101711800D01*
X86139320Y-101717527D01*
X86026107Y-101902272D01*
X86021625Y-101911067D01*
X85931566Y-102128490D01*
X85928517Y-102137875D01*
X85873578Y-102366708D01*
X85872035Y-102376455D01*
X85853570Y-102611070D01*
X85853570Y-102620930D01*
X79484728Y-102620930D01*
X79502757Y-102584369D01*
X79561059Y-102466145D01*
X79569093Y-102442478D01*
X79654896Y-102189710D01*
X79654897Y-102189706D01*
X79656224Y-102185797D01*
X79657030Y-102181747D01*
X79713180Y-101899465D01*
X79713181Y-101899459D01*
X79713983Y-101895426D01*
X79727229Y-101693337D01*
X79733076Y-101604119D01*
X79733346Y-101600000D01*
X79727274Y-101507359D01*
X79716799Y-101347530D01*
X86511733Y-101347530D01*
X86515516Y-101356306D01*
X87403188Y-102243978D01*
X87417132Y-102251592D01*
X87418965Y-102251461D01*
X87425580Y-102247210D01*
X88313440Y-101359350D01*
X88320200Y-101346970D01*
X88314473Y-101339320D01*
X88129728Y-101226107D01*
X88120933Y-101221625D01*
X87903510Y-101131566D01*
X87894125Y-101128517D01*
X87665292Y-101073578D01*
X87655545Y-101072035D01*
X87420930Y-101053570D01*
X87411070Y-101053570D01*
X87176455Y-101072035D01*
X87166708Y-101073578D01*
X86937875Y-101128517D01*
X86928490Y-101131566D01*
X86711067Y-101221625D01*
X86702272Y-101226107D01*
X86521195Y-101337072D01*
X86511733Y-101347530D01*
X79716799Y-101347530D01*
X79714253Y-101308686D01*
X79714252Y-101308679D01*
X79713983Y-101304574D01*
X79697772Y-101223073D01*
X79657030Y-101018253D01*
X79657028Y-101018247D01*
X79656224Y-101014203D01*
X79561059Y-100733855D01*
X79484460Y-100578528D01*
X79431942Y-100472031D01*
X79431939Y-100472026D01*
X79430115Y-100468327D01*
X79367199Y-100374167D01*
X79267926Y-100225593D01*
X79267922Y-100225588D01*
X79265633Y-100222162D01*
X79262919Y-100219068D01*
X79262915Y-100219062D01*
X79073136Y-100002662D01*
X79070427Y-99999573D01*
X78963938Y-99906184D01*
X78850938Y-99807085D01*
X78850932Y-99807081D01*
X78847838Y-99804367D01*
X78844412Y-99802078D01*
X78844407Y-99802074D01*
X78605106Y-99642179D01*
X78601673Y-99639885D01*
X78597974Y-99638061D01*
X78597969Y-99638058D01*
X78409048Y-99544893D01*
X78336145Y-99508941D01*
X78256311Y-99481841D01*
X78059710Y-99415104D01*
X78059706Y-99415103D01*
X78055797Y-99413776D01*
X78051753Y-99412972D01*
X78051747Y-99412970D01*
X77769465Y-99356820D01*
X77769459Y-99356819D01*
X77765426Y-99356017D01*
X77761321Y-99355748D01*
X77761314Y-99355747D01*
X77474119Y-99336924D01*
X77470000Y-99336654D01*
X77465881Y-99336924D01*
X77178686Y-99355747D01*
X77178679Y-99355748D01*
X77174574Y-99356017D01*
X77170541Y-99356819D01*
X77170535Y-99356820D01*
X76888253Y-99412970D01*
X76888247Y-99412972D01*
X76884203Y-99413776D01*
X76880294Y-99415103D01*
X76880290Y-99415104D01*
X76683689Y-99481841D01*
X76603855Y-99508941D01*
X76530952Y-99544893D01*
X76342031Y-99638058D01*
X76342026Y-99638061D01*
X76338327Y-99639885D01*
X76334894Y-99642179D01*
X76095593Y-99802074D01*
X76095588Y-99802078D01*
X76092162Y-99804367D01*
X76089068Y-99807081D01*
X76089062Y-99807085D01*
X75976062Y-99906184D01*
X75869573Y-99999573D01*
X75866864Y-100002662D01*
X75677085Y-100219062D01*
X75677081Y-100219068D01*
X75674367Y-100222162D01*
X75672078Y-100225588D01*
X75672074Y-100225593D01*
X75572801Y-100374167D01*
X75509885Y-100468327D01*
X75508061Y-100472026D01*
X75508058Y-100472031D01*
X75455540Y-100578528D01*
X75378941Y-100733855D01*
X75283776Y-101014203D01*
X75282972Y-101018247D01*
X75282970Y-101018253D01*
X75242229Y-101223073D01*
X75226017Y-101304574D01*
X75225748Y-101308679D01*
X75225747Y-101308686D01*
X75212726Y-101507359D01*
X75206654Y-101600000D01*
X71247500Y-101600000D01*
X71247500Y-98123335D01*
X88334761Y-98123335D01*
X88335098Y-98129854D01*
X88345017Y-98225446D01*
X88347909Y-98238840D01*
X88399348Y-98393024D01*
X88405521Y-98406202D01*
X88490823Y-98544047D01*
X88499859Y-98555448D01*
X88614589Y-98669979D01*
X88626000Y-98678991D01*
X88764003Y-98764056D01*
X88777184Y-98770203D01*
X88931470Y-98821378D01*
X88944846Y-98824245D01*
X89039198Y-98833912D01*
X89045614Y-98834240D01*
X89233145Y-98834240D01*
X89248384Y-98829765D01*
X89249589Y-98828375D01*
X89251260Y-98820692D01*
X89251260Y-97698355D01*
X89246785Y-97683116D01*
X89245395Y-97681911D01*
X89237712Y-97680240D01*
X88352876Y-97680240D01*
X88337637Y-97684715D01*
X88336432Y-97686105D01*
X88334761Y-97693788D01*
X88334761Y-98123335D01*
X71247500Y-98123335D01*
X71247500Y-97154125D01*
X88334760Y-97154125D01*
X88339235Y-97169364D01*
X88340625Y-97170569D01*
X88348308Y-97172240D01*
X89233145Y-97172240D01*
X89248384Y-97167765D01*
X89249589Y-97166375D01*
X89251260Y-97158692D01*
X89251260Y-96036356D01*
X89246785Y-96021117D01*
X89245395Y-96019912D01*
X89237712Y-96018241D01*
X89045665Y-96018241D01*
X89039146Y-96018578D01*
X88943554Y-96028497D01*
X88930160Y-96031389D01*
X88775976Y-96082828D01*
X88762798Y-96089001D01*
X88624953Y-96174303D01*
X88613552Y-96183339D01*
X88499021Y-96298069D01*
X88490009Y-96309480D01*
X88404944Y-96447483D01*
X88398797Y-96460664D01*
X88347622Y-96614950D01*
X88344755Y-96628326D01*
X88335088Y-96722678D01*
X88334760Y-96729095D01*
X88334760Y-97154125D01*
X71247500Y-97154125D01*
X71247500Y-90757634D01*
X89138500Y-90757634D01*
X89145255Y-90819816D01*
X89196385Y-90956205D01*
X89283739Y-91072761D01*
X89400295Y-91160115D01*
X89536684Y-91211245D01*
X89598866Y-91218000D01*
X92495134Y-91218000D01*
X92557316Y-91211245D01*
X92693705Y-91160115D01*
X92810261Y-91072761D01*
X92897615Y-90956205D01*
X92948745Y-90819816D01*
X92955500Y-90757634D01*
X92955500Y-88061366D01*
X92948745Y-87999184D01*
X92897615Y-87862795D01*
X92810261Y-87746239D01*
X92693705Y-87658885D01*
X92557316Y-87607755D01*
X92495134Y-87601000D01*
X89598866Y-87601000D01*
X89536684Y-87607755D01*
X89400295Y-87658885D01*
X89283739Y-87746239D01*
X89196385Y-87862795D01*
X89145255Y-87999184D01*
X89138500Y-88061366D01*
X89138500Y-90757634D01*
X71247500Y-90757634D01*
X71247500Y-86857634D01*
X84688500Y-86857634D01*
X84695255Y-86919816D01*
X84746385Y-87056205D01*
X84833739Y-87172761D01*
X84950295Y-87260115D01*
X85086684Y-87311245D01*
X85148866Y-87318000D01*
X88045134Y-87318000D01*
X88107316Y-87311245D01*
X88243705Y-87260115D01*
X88360261Y-87172761D01*
X88447615Y-87056205D01*
X88498745Y-86919816D01*
X88505500Y-86857634D01*
X88505500Y-84625871D01*
X88525502Y-84557750D01*
X88542405Y-84536776D01*
X88754824Y-84324357D01*
X88817136Y-84290331D01*
X88887951Y-84295396D01*
X88944787Y-84337943D01*
X88967234Y-84387578D01*
X88991093Y-84501291D01*
X88993051Y-84506250D01*
X88993052Y-84506252D01*
X89068710Y-84697828D01*
X89075776Y-84715721D01*
X89078543Y-84720280D01*
X89078544Y-84720283D01*
X89107333Y-84767725D01*
X89195377Y-84912817D01*
X89198874Y-84916847D01*
X89285438Y-85016603D01*
X89346477Y-85086945D01*
X89350608Y-85090332D01*
X89520627Y-85229740D01*
X89520633Y-85229744D01*
X89524755Y-85233124D01*
X89529391Y-85235763D01*
X89529394Y-85235765D01*
X89599027Y-85275402D01*
X89725114Y-85347175D01*
X89941825Y-85425837D01*
X89947074Y-85426786D01*
X89947077Y-85426787D01*
X90164608Y-85466123D01*
X90164615Y-85466124D01*
X90168692Y-85466861D01*
X90186414Y-85467697D01*
X90191356Y-85467930D01*
X90191363Y-85467930D01*
X90192844Y-85468000D01*
X90354890Y-85468000D01*
X90421809Y-85462322D01*
X90521409Y-85453871D01*
X90521413Y-85453870D01*
X90526720Y-85453420D01*
X90531875Y-85452082D01*
X90531881Y-85452081D01*
X90744703Y-85396843D01*
X90744707Y-85396842D01*
X90749872Y-85395501D01*
X90754738Y-85393309D01*
X90754741Y-85393308D01*
X90955202Y-85303007D01*
X90960075Y-85300812D01*
X91151319Y-85172059D01*
X91318135Y-85012924D01*
X91455754Y-84827958D01*
X91488331Y-84763885D01*
X91523546Y-84694621D01*
X91560240Y-84622449D01*
X91573048Y-84581203D01*
X91627024Y-84407371D01*
X91628607Y-84402273D01*
X91642772Y-84295396D01*
X91658198Y-84179011D01*
X91658198Y-84179006D01*
X91658898Y-84173726D01*
X91650249Y-83943342D01*
X91602907Y-83717709D01*
X91557072Y-83601648D01*
X91520185Y-83508244D01*
X91520184Y-83508242D01*
X91518224Y-83503279D01*
X91513438Y-83495391D01*
X91428111Y-83354777D01*
X97679777Y-83354777D01*
X97689074Y-83366793D01*
X97732069Y-83396898D01*
X97741555Y-83402376D01*
X97932993Y-83491645D01*
X97943285Y-83495391D01*
X98147309Y-83550059D01*
X98158104Y-83551962D01*
X98368525Y-83570372D01*
X98379475Y-83570372D01*
X98589896Y-83551962D01*
X98600691Y-83550059D01*
X98804715Y-83495391D01*
X98815007Y-83491645D01*
X99006445Y-83402376D01*
X99015931Y-83396898D01*
X99059764Y-83366207D01*
X99068139Y-83355729D01*
X99061071Y-83342281D01*
X98386812Y-82668022D01*
X98372868Y-82660408D01*
X98371035Y-82660539D01*
X98364420Y-82664790D01*
X97686207Y-83343003D01*
X97679777Y-83354777D01*
X91428111Y-83354777D01*
X91401390Y-83310743D01*
X91398623Y-83306183D01*
X91372550Y-83276136D01*
X91251023Y-83136088D01*
X91251021Y-83136086D01*
X91247523Y-83132055D01*
X91152938Y-83054500D01*
X91073373Y-82989260D01*
X91073367Y-82989256D01*
X91069245Y-82985876D01*
X91064609Y-82983237D01*
X91064606Y-82983235D01*
X90873529Y-82874468D01*
X90868886Y-82871825D01*
X90652175Y-82793163D01*
X90646926Y-82792214D01*
X90646923Y-82792213D01*
X90579007Y-82779932D01*
X90515533Y-82748128D01*
X90479330Y-82687055D01*
X90481892Y-82616105D01*
X90512333Y-82566848D01*
X91384507Y-81694674D01*
X91393907Y-81686595D01*
X91402284Y-81679197D01*
X91402308Y-81679224D01*
X91405299Y-81676572D01*
X91408533Y-81673868D01*
X91414652Y-81669856D01*
X91467894Y-81613653D01*
X91470270Y-81611211D01*
X91590889Y-81490592D01*
X91717275Y-81364205D01*
X91779588Y-81330180D01*
X91806371Y-81327300D01*
X97259864Y-81327300D01*
X97327985Y-81347302D01*
X97374478Y-81400958D01*
X97384582Y-81471232D01*
X97363078Y-81525570D01*
X97273097Y-81654078D01*
X97267624Y-81663556D01*
X97178355Y-81854993D01*
X97174609Y-81865285D01*
X97119941Y-82069309D01*
X97118038Y-82080104D01*
X97099628Y-82290525D01*
X97099628Y-82301475D01*
X97118038Y-82511896D01*
X97119941Y-82522691D01*
X97174609Y-82726715D01*
X97178355Y-82737007D01*
X97267623Y-82928441D01*
X97273103Y-82937932D01*
X97303794Y-82981765D01*
X97314271Y-82990140D01*
X97327718Y-82983072D01*
X98284905Y-82025885D01*
X98347217Y-81991859D01*
X98418032Y-81996924D01*
X98463095Y-82025885D01*
X99421003Y-82983793D01*
X99432777Y-82990223D01*
X99444793Y-82980926D01*
X99474897Y-82937932D01*
X99480377Y-82928441D01*
X99569645Y-82737007D01*
X99573391Y-82726715D01*
X99628059Y-82522691D01*
X99629962Y-82511896D01*
X99648372Y-82301475D01*
X99648372Y-82290525D01*
X99629962Y-82080104D01*
X99628059Y-82069309D01*
X99573391Y-81865285D01*
X99569645Y-81854993D01*
X99480376Y-81663556D01*
X99474903Y-81654078D01*
X99384922Y-81525570D01*
X99362235Y-81458296D01*
X99379520Y-81389436D01*
X99431290Y-81340852D01*
X99488136Y-81327300D01*
X102452828Y-81327300D01*
X102520949Y-81347302D01*
X102541923Y-81364204D01*
X102750634Y-81572914D01*
X102763020Y-81587327D01*
X102775892Y-81604818D01*
X102805637Y-81630088D01*
X102816175Y-81639041D01*
X102823691Y-81645971D01*
X102829380Y-81651660D01*
X102832234Y-81653918D01*
X102832244Y-81653927D01*
X102851642Y-81669274D01*
X102855042Y-81672062D01*
X102903255Y-81713022D01*
X102910771Y-81719952D01*
X103397724Y-82206905D01*
X103431750Y-82269217D01*
X103426685Y-82340032D01*
X103397724Y-82385095D01*
X101122224Y-84660595D01*
X101059912Y-84694621D01*
X101033129Y-84697500D01*
X100286600Y-84697500D01*
X100283354Y-84697837D01*
X100283350Y-84697837D01*
X100187692Y-84707762D01*
X100187688Y-84707763D01*
X100180834Y-84708474D01*
X100174298Y-84710655D01*
X100174296Y-84710655D01*
X100145438Y-84720283D01*
X100013054Y-84764450D01*
X99862652Y-84857522D01*
X99737695Y-84982697D01*
X99733855Y-84988927D01*
X99733854Y-84988928D01*
X99645838Y-85131716D01*
X99593066Y-85179209D01*
X99538578Y-85191600D01*
X98835601Y-85191600D01*
X98767480Y-85171598D01*
X98728457Y-85131903D01*
X98639332Y-84987880D01*
X98635478Y-84981652D01*
X98510303Y-84856695D01*
X98504072Y-84852854D01*
X98365968Y-84767725D01*
X98365966Y-84767724D01*
X98359738Y-84763885D01*
X98247532Y-84726668D01*
X98198389Y-84710368D01*
X98198387Y-84710368D01*
X98191861Y-84708203D01*
X98185025Y-84707503D01*
X98185022Y-84707502D01*
X98141969Y-84703091D01*
X98087400Y-84697500D01*
X97161600Y-84697500D01*
X97158354Y-84697837D01*
X97158350Y-84697837D01*
X97062692Y-84707762D01*
X97062688Y-84707763D01*
X97055834Y-84708474D01*
X97049298Y-84710655D01*
X97049296Y-84710655D01*
X97020438Y-84720283D01*
X96888054Y-84764450D01*
X96737652Y-84857522D01*
X96612695Y-84982697D01*
X96608855Y-84988927D01*
X96608854Y-84988928D01*
X96546348Y-85090332D01*
X96519885Y-85133262D01*
X96517581Y-85140209D01*
X96472740Y-85275402D01*
X96464203Y-85301139D01*
X96463503Y-85307975D01*
X96463502Y-85307978D01*
X96459091Y-85351031D01*
X96453500Y-85405600D01*
X96453500Y-86806400D01*
X96464474Y-86912166D01*
X96466655Y-86918702D01*
X96466655Y-86918704D01*
X96475761Y-86945998D01*
X96520450Y-87079946D01*
X96613522Y-87230348D01*
X96738697Y-87355305D01*
X96744927Y-87359145D01*
X96744928Y-87359146D01*
X96827376Y-87409968D01*
X96874870Y-87462741D01*
X96887260Y-87517228D01*
X96887260Y-88059871D01*
X96867258Y-88127992D01*
X96827567Y-88167012D01*
X96771412Y-88201762D01*
X96646455Y-88326937D01*
X96642615Y-88333167D01*
X96642614Y-88333168D01*
X96581236Y-88432742D01*
X96553645Y-88477502D01*
X96497963Y-88645379D01*
X96487260Y-88749840D01*
X96487260Y-90100640D01*
X96487597Y-90103886D01*
X96487597Y-90103890D01*
X96497044Y-90194936D01*
X96498234Y-90206406D01*
X96500415Y-90212942D01*
X96500415Y-90212944D01*
X96518736Y-90267858D01*
X96554210Y-90374186D01*
X96647282Y-90524588D01*
X96772457Y-90649545D01*
X96778687Y-90653385D01*
X96778688Y-90653386D01*
X96915850Y-90737934D01*
X96923022Y-90742355D01*
X97002765Y-90768804D01*
X97084371Y-90795872D01*
X97084373Y-90795872D01*
X97090899Y-90798037D01*
X97097735Y-90798737D01*
X97097738Y-90798738D01*
X97140791Y-90803149D01*
X97195360Y-90808740D01*
X98096160Y-90808740D01*
X98099406Y-90808403D01*
X98099410Y-90808403D01*
X98195068Y-90798478D01*
X98195072Y-90798477D01*
X98201926Y-90797766D01*
X98208462Y-90795585D01*
X98208464Y-90795585D01*
X98340566Y-90751512D01*
X98369706Y-90741790D01*
X98520108Y-90648718D01*
X98536453Y-90632345D01*
X98639894Y-90528723D01*
X98645065Y-90523543D01*
X98668891Y-90484890D01*
X98732139Y-90382284D01*
X98784912Y-90334790D01*
X98839399Y-90322400D01*
X99551961Y-90322400D01*
X99620082Y-90342402D01*
X99659105Y-90382097D01*
X99688753Y-90430007D01*
X99747282Y-90524588D01*
X99872457Y-90649545D01*
X99878687Y-90653385D01*
X99878688Y-90653386D01*
X100015850Y-90737934D01*
X100023022Y-90742355D01*
X100102765Y-90768804D01*
X100184371Y-90795872D01*
X100184373Y-90795872D01*
X100190899Y-90798037D01*
X100197735Y-90798737D01*
X100197738Y-90798738D01*
X100240791Y-90803149D01*
X100295360Y-90808740D01*
X101196160Y-90808740D01*
X101199406Y-90808403D01*
X101199410Y-90808403D01*
X101295068Y-90798478D01*
X101295072Y-90798477D01*
X101301926Y-90797766D01*
X101308462Y-90795585D01*
X101308464Y-90795585D01*
X101440566Y-90751512D01*
X101469706Y-90741790D01*
X101620108Y-90648718D01*
X101636453Y-90632345D01*
X101739894Y-90528723D01*
X101745065Y-90523543D01*
X101768891Y-90484890D01*
X101834035Y-90379208D01*
X101834036Y-90379206D01*
X101837875Y-90372978D01*
X101868538Y-90280532D01*
X101908967Y-90222173D01*
X101974531Y-90194936D01*
X101988130Y-90194200D01*
X102874911Y-90194200D01*
X102943032Y-90214202D01*
X102989525Y-90267858D01*
X102999629Y-90338132D01*
X102983365Y-90384336D01*
X102938855Y-90459599D01*
X102936644Y-90467210D01*
X102936643Y-90467212D01*
X102931507Y-90484890D01*
X102892438Y-90619369D01*
X102891934Y-90625774D01*
X102891933Y-90625779D01*
X102889693Y-90654242D01*
X102889500Y-90656698D01*
X102889500Y-91964702D01*
X102889693Y-91967150D01*
X102889693Y-91967158D01*
X102891927Y-91995533D01*
X102892438Y-92002031D01*
X102919284Y-92094435D01*
X102919297Y-92094481D01*
X102924300Y-92129634D01*
X102924300Y-92439730D01*
X102922867Y-92458680D01*
X102920859Y-92471880D01*
X102919601Y-92480149D01*
X102920194Y-92487441D01*
X102920194Y-92487444D01*
X102923885Y-92532818D01*
X102924300Y-92543033D01*
X102924300Y-92551093D01*
X102924725Y-92554737D01*
X102927589Y-92579307D01*
X102928022Y-92583682D01*
X102929930Y-92607132D01*
X102933940Y-92656437D01*
X102936196Y-92663401D01*
X102937387Y-92669360D01*
X102938771Y-92675215D01*
X102939618Y-92682481D01*
X102964535Y-92751127D01*
X102965952Y-92755255D01*
X102982208Y-92805433D01*
X102988449Y-92824699D01*
X102992245Y-92830954D01*
X102994751Y-92836428D01*
X102997470Y-92841858D01*
X102999967Y-92848737D01*
X103003980Y-92854857D01*
X103003980Y-92854858D01*
X103039986Y-92909776D01*
X103042323Y-92913480D01*
X103080205Y-92975907D01*
X103083921Y-92980115D01*
X103083922Y-92980116D01*
X103087603Y-92984284D01*
X103087576Y-92984308D01*
X103090229Y-92987300D01*
X103092932Y-92990533D01*
X103096944Y-92996652D01*
X103106224Y-93005443D01*
X103153183Y-93049928D01*
X103155625Y-93052306D01*
X103700470Y-93597151D01*
X103712856Y-93611563D01*
X103721389Y-93623158D01*
X103721394Y-93623163D01*
X103725732Y-93629058D01*
X103731310Y-93633797D01*
X103731313Y-93633800D01*
X103766008Y-93663275D01*
X103773524Y-93670205D01*
X103779220Y-93675901D01*
X103782081Y-93678164D01*
X103782086Y-93678169D01*
X103801496Y-93693525D01*
X103804898Y-93696314D01*
X103860525Y-93743573D01*
X103867042Y-93746901D01*
X103872090Y-93750267D01*
X103877212Y-93753430D01*
X103882956Y-93757975D01*
X103949135Y-93788904D01*
X103953019Y-93790803D01*
X104018048Y-93824009D01*
X104025163Y-93825750D01*
X104030818Y-93827853D01*
X104036557Y-93829762D01*
X104043190Y-93832862D01*
X104114675Y-93847731D01*
X104118941Y-93848697D01*
X104189850Y-93866048D01*
X104195452Y-93866396D01*
X104195455Y-93866396D01*
X104201004Y-93866740D01*
X104201002Y-93866775D01*
X104204974Y-93867015D01*
X104209195Y-93867392D01*
X104216355Y-93868881D01*
X104293782Y-93866786D01*
X104297190Y-93866740D01*
X107702881Y-93866740D01*
X107771002Y-93886742D01*
X107817495Y-93940398D01*
X107822404Y-93952863D01*
X107854890Y-94050233D01*
X107857210Y-94057186D01*
X107950282Y-94207588D01*
X108075457Y-94332545D01*
X108081687Y-94336385D01*
X108081688Y-94336386D01*
X108218850Y-94420934D01*
X108226022Y-94425355D01*
X108305765Y-94451804D01*
X108387371Y-94478872D01*
X108387373Y-94478872D01*
X108393899Y-94481037D01*
X108400735Y-94481737D01*
X108400738Y-94481738D01*
X108443791Y-94486149D01*
X108498360Y-94491740D01*
X109399160Y-94491740D01*
X109402406Y-94491403D01*
X109402410Y-94491403D01*
X109498068Y-94481478D01*
X109498072Y-94481477D01*
X109504926Y-94480766D01*
X109511462Y-94478585D01*
X109511464Y-94478585D01*
X109643566Y-94434512D01*
X109672706Y-94424790D01*
X109823108Y-94331718D01*
X109948065Y-94206543D01*
X109983974Y-94148288D01*
X110019482Y-94090684D01*
X110072255Y-94043190D01*
X110126742Y-94030800D01*
X110870680Y-94030800D01*
X110938801Y-94050802D01*
X110977823Y-94090496D01*
X111050282Y-94207588D01*
X111175457Y-94332545D01*
X111181687Y-94336385D01*
X111181688Y-94336386D01*
X111318850Y-94420934D01*
X111326022Y-94425355D01*
X111405765Y-94451804D01*
X111487371Y-94478872D01*
X111487373Y-94478872D01*
X111493899Y-94481037D01*
X111500735Y-94481737D01*
X111500738Y-94481738D01*
X111543791Y-94486149D01*
X111598360Y-94491740D01*
X112307389Y-94491740D01*
X112375510Y-94511742D01*
X112396484Y-94528645D01*
X112607990Y-94740151D01*
X112620376Y-94754563D01*
X112628909Y-94766158D01*
X112628914Y-94766163D01*
X112633252Y-94772058D01*
X112638830Y-94776797D01*
X112638833Y-94776800D01*
X112673528Y-94806275D01*
X112681044Y-94813205D01*
X112686739Y-94818900D01*
X112689610Y-94821171D01*
X112689623Y-94821183D01*
X112709028Y-94836535D01*
X112712399Y-94839298D01*
X112744400Y-94866485D01*
X112761552Y-94884232D01*
X112817795Y-94955193D01*
X112822482Y-94959182D01*
X112822485Y-94959185D01*
X112963718Y-95079383D01*
X112968410Y-95083376D01*
X113141054Y-95179864D01*
X113329152Y-95240980D01*
X113525537Y-95264398D01*
X113531672Y-95263926D01*
X113531674Y-95263926D01*
X113716590Y-95249697D01*
X113716594Y-95249696D01*
X113722732Y-95249224D01*
X113913223Y-95196038D01*
X113997189Y-95153624D01*
X114067010Y-95140764D01*
X114132701Y-95167693D01*
X114173523Y-95226214D01*
X114207210Y-95327186D01*
X114300282Y-95477588D01*
X114425457Y-95602545D01*
X114431687Y-95606385D01*
X114431688Y-95606386D01*
X114568850Y-95690934D01*
X114576022Y-95695355D01*
X114647382Y-95719024D01*
X114737371Y-95748872D01*
X114737373Y-95748872D01*
X114743899Y-95751037D01*
X114750735Y-95751737D01*
X114750738Y-95751738D01*
X114793791Y-95756149D01*
X114848360Y-95761740D01*
X115749160Y-95761740D01*
X115752406Y-95761403D01*
X115752410Y-95761403D01*
X115848068Y-95751478D01*
X115848072Y-95751477D01*
X115854926Y-95750766D01*
X115861462Y-95748585D01*
X115861464Y-95748585D01*
X115993566Y-95704512D01*
X116022706Y-95694790D01*
X116173108Y-95601718D01*
X116298065Y-95476543D01*
X116390875Y-95325978D01*
X116392248Y-95321838D01*
X116438364Y-95269464D01*
X116505640Y-95250000D01*
X117191873Y-95250000D01*
X117259994Y-95270002D01*
X117305471Y-95321975D01*
X117307210Y-95327186D01*
X117311059Y-95333406D01*
X117311061Y-95333410D01*
X117377240Y-95440353D01*
X117400282Y-95477588D01*
X117525457Y-95602545D01*
X117531687Y-95606385D01*
X117531688Y-95606386D01*
X117668850Y-95690934D01*
X117676022Y-95695355D01*
X117747382Y-95719024D01*
X117837371Y-95748872D01*
X117837373Y-95748872D01*
X117843899Y-95751037D01*
X117850735Y-95751737D01*
X117850738Y-95751738D01*
X117893791Y-95756149D01*
X117948360Y-95761740D01*
X118849160Y-95761740D01*
X118852406Y-95761403D01*
X118852410Y-95761403D01*
X118948068Y-95751478D01*
X118948072Y-95751477D01*
X118954926Y-95750766D01*
X118961462Y-95748585D01*
X118961464Y-95748585D01*
X119093566Y-95704512D01*
X119122706Y-95694790D01*
X119273108Y-95601718D01*
X119398065Y-95476543D01*
X119457815Y-95379611D01*
X119487035Y-95332208D01*
X119487036Y-95332206D01*
X119490875Y-95325978D01*
X119532047Y-95201847D01*
X119544392Y-95164629D01*
X119544392Y-95164627D01*
X119546557Y-95158101D01*
X119547392Y-95149958D01*
X119555855Y-95067348D01*
X119557260Y-95053640D01*
X119557260Y-93702840D01*
X119554206Y-93673407D01*
X119546998Y-93603932D01*
X119546997Y-93603928D01*
X119546286Y-93597074D01*
X119538455Y-93573600D01*
X119492628Y-93436242D01*
X119490310Y-93429294D01*
X119397238Y-93278892D01*
X119272063Y-93153935D01*
X119265835Y-93150096D01*
X119265830Y-93150092D01*
X119217143Y-93120081D01*
X119169650Y-93067309D01*
X119157260Y-93012822D01*
X119157260Y-92566309D01*
X119158693Y-92547358D01*
X119160859Y-92533123D01*
X119160859Y-92533121D01*
X119161959Y-92525891D01*
X119157675Y-92473222D01*
X119157260Y-92463007D01*
X119157260Y-92454947D01*
X119155486Y-92439730D01*
X119153971Y-92426733D01*
X119153538Y-92422358D01*
X119148214Y-92356901D01*
X119148213Y-92356898D01*
X119147620Y-92349603D01*
X119145364Y-92342639D01*
X119144173Y-92336680D01*
X119142789Y-92330825D01*
X119141942Y-92323559D01*
X119117025Y-92254913D01*
X119115608Y-92250785D01*
X119095367Y-92188304D01*
X119095366Y-92188302D01*
X119093111Y-92181341D01*
X119089315Y-92175086D01*
X119086809Y-92169612D01*
X119084090Y-92164182D01*
X119081593Y-92157303D01*
X119041569Y-92096256D01*
X119039232Y-92092552D01*
X119031553Y-92079896D01*
X119018776Y-92058841D01*
X119004269Y-92034933D01*
X119004265Y-92034928D01*
X119001355Y-92030132D01*
X118993957Y-92021756D01*
X118993983Y-92021733D01*
X118991334Y-92018743D01*
X118988626Y-92015504D01*
X118984616Y-92009388D01*
X118979309Y-92004361D01*
X118979306Y-92004357D01*
X118928377Y-91956112D01*
X118925935Y-91953734D01*
X118194530Y-91222329D01*
X118182144Y-91207917D01*
X118173611Y-91196322D01*
X118173606Y-91196317D01*
X118169268Y-91190422D01*
X118163690Y-91185683D01*
X118163687Y-91185680D01*
X118128992Y-91156205D01*
X118121476Y-91149275D01*
X118115781Y-91143580D01*
X118109640Y-91138722D01*
X118093509Y-91125959D01*
X118090105Y-91123168D01*
X118040057Y-91080649D01*
X118040055Y-91080648D01*
X118034475Y-91075907D01*
X118027959Y-91072579D01*
X118022910Y-91069212D01*
X118017781Y-91066045D01*
X118012044Y-91061506D01*
X117945885Y-91030585D01*
X117941985Y-91028679D01*
X117876952Y-90995471D01*
X117869844Y-90993732D01*
X117864201Y-90991633D01*
X117858438Y-90989716D01*
X117851810Y-90986618D01*
X117818259Y-90979639D01*
X117780354Y-90971755D01*
X117776109Y-90970795D01*
X117775573Y-90970664D01*
X117774613Y-90970429D01*
X117740382Y-90956484D01*
X117621361Y-90886095D01*
X117591246Y-90877346D01*
X117531411Y-90839132D01*
X117501734Y-90774635D01*
X117500494Y-90757634D01*
X123047500Y-90757634D01*
X123054255Y-90819816D01*
X123105385Y-90956205D01*
X123192739Y-91072761D01*
X123309295Y-91160115D01*
X123445684Y-91211245D01*
X123507866Y-91218000D01*
X126404134Y-91218000D01*
X126466316Y-91211245D01*
X126602705Y-91160115D01*
X126719261Y-91072761D01*
X126806615Y-90956205D01*
X126857745Y-90819816D01*
X126864500Y-90757634D01*
X126864500Y-88061366D01*
X126857745Y-87999184D01*
X126806615Y-87862795D01*
X126719261Y-87746239D01*
X126602705Y-87658885D01*
X126466316Y-87607755D01*
X126404134Y-87601000D01*
X123507866Y-87601000D01*
X123445684Y-87607755D01*
X123309295Y-87658885D01*
X123192739Y-87746239D01*
X123105385Y-87862795D01*
X123054255Y-87999184D01*
X123047500Y-88061366D01*
X123047500Y-90757634D01*
X117500494Y-90757634D01*
X117500400Y-90756349D01*
X117500400Y-90634131D01*
X117520402Y-90566010D01*
X117574058Y-90519517D01*
X117591246Y-90513134D01*
X117621361Y-90504385D01*
X117708625Y-90452777D01*
X117757740Y-90423731D01*
X117757743Y-90423729D01*
X117764567Y-90419693D01*
X117882213Y-90302047D01*
X117886249Y-90295223D01*
X117886251Y-90295220D01*
X117962868Y-90165667D01*
X117966905Y-90158841D01*
X118013322Y-89999071D01*
X118016260Y-89961742D01*
X118016260Y-89528738D01*
X118013322Y-89491409D01*
X117966905Y-89331639D01*
X117949867Y-89302829D01*
X117886251Y-89195260D01*
X117886249Y-89195257D01*
X117882213Y-89188433D01*
X117764567Y-89070787D01*
X117757743Y-89066751D01*
X117757740Y-89066749D01*
X117628187Y-88990132D01*
X117628188Y-88990132D01*
X117621361Y-88986095D01*
X117613750Y-88983884D01*
X117613748Y-88983883D01*
X117537106Y-88961617D01*
X117461591Y-88939678D01*
X117455186Y-88939174D01*
X117455181Y-88939173D01*
X117426718Y-88936933D01*
X117426710Y-88936933D01*
X117424262Y-88936740D01*
X116116258Y-88936740D01*
X116113810Y-88936933D01*
X116113802Y-88936933D01*
X116085339Y-88939173D01*
X116085334Y-88939174D01*
X116078929Y-88939678D01*
X116003414Y-88961617D01*
X115926772Y-88983883D01*
X115926770Y-88983884D01*
X115919159Y-88986095D01*
X115844591Y-89030195D01*
X115780454Y-89047740D01*
X113040639Y-89047740D01*
X112972518Y-89027738D01*
X112926025Y-88974082D01*
X112921116Y-88961617D01*
X112888630Y-88864247D01*
X112888629Y-88864245D01*
X112886310Y-88857294D01*
X112793238Y-88706892D01*
X112668063Y-88581935D01*
X112661835Y-88578096D01*
X112661830Y-88578092D01*
X112613143Y-88548081D01*
X112565650Y-88495309D01*
X112553260Y-88440822D01*
X112553260Y-87330970D01*
X112573262Y-87262849D01*
X112600994Y-87232226D01*
X112602128Y-87231327D01*
X112608348Y-87227478D01*
X112733305Y-87102303D01*
X112743991Y-87084968D01*
X112809505Y-86978684D01*
X112862277Y-86931191D01*
X112916765Y-86918800D01*
X113651118Y-86918800D01*
X113719239Y-86938802D01*
X113758261Y-86978496D01*
X113835522Y-87103348D01*
X113960697Y-87228305D01*
X113966927Y-87232145D01*
X113966928Y-87232146D01*
X114104090Y-87316694D01*
X114111262Y-87321115D01*
X114140974Y-87330970D01*
X114272611Y-87374632D01*
X114272613Y-87374632D01*
X114279139Y-87376797D01*
X114285975Y-87377497D01*
X114285978Y-87377498D01*
X114329031Y-87381909D01*
X114383600Y-87387500D01*
X115309400Y-87387500D01*
X115312646Y-87387163D01*
X115312650Y-87387163D01*
X115408308Y-87377238D01*
X115408312Y-87377237D01*
X115415166Y-87376526D01*
X115421702Y-87374345D01*
X115421704Y-87374345D01*
X115553806Y-87330272D01*
X115582946Y-87320550D01*
X115733348Y-87227478D01*
X115858305Y-87102303D01*
X115868246Y-87086176D01*
X115947275Y-86957968D01*
X115947276Y-86957966D01*
X115951115Y-86951738D01*
X115998243Y-86809650D01*
X116004632Y-86790389D01*
X116004632Y-86790387D01*
X116006797Y-86783861D01*
X116017500Y-86679400D01*
X116017500Y-86294000D01*
X116037502Y-86225879D01*
X116091158Y-86179386D01*
X116143500Y-86168000D01*
X118471500Y-86168000D01*
X118539621Y-86188002D01*
X118586114Y-86241658D01*
X118597500Y-86294000D01*
X118597500Y-86857634D01*
X118604255Y-86919816D01*
X118655385Y-87056205D01*
X118742739Y-87172761D01*
X118859295Y-87260115D01*
X118995684Y-87311245D01*
X119057866Y-87318000D01*
X121954134Y-87318000D01*
X122016316Y-87311245D01*
X122152705Y-87260115D01*
X122269261Y-87172761D01*
X122356615Y-87056205D01*
X122407745Y-86919816D01*
X122414500Y-86857634D01*
X122414500Y-84045274D01*
X122844102Y-84045274D01*
X122852751Y-84275658D01*
X122900093Y-84501291D01*
X122902051Y-84506250D01*
X122902052Y-84506252D01*
X122977710Y-84697828D01*
X122984776Y-84715721D01*
X122987543Y-84720280D01*
X122987544Y-84720283D01*
X123016333Y-84767725D01*
X123104377Y-84912817D01*
X123107874Y-84916847D01*
X123194438Y-85016603D01*
X123255477Y-85086945D01*
X123259608Y-85090332D01*
X123429627Y-85229740D01*
X123429633Y-85229744D01*
X123433755Y-85233124D01*
X123438391Y-85235763D01*
X123438394Y-85235765D01*
X123508027Y-85275402D01*
X123634114Y-85347175D01*
X123850825Y-85425837D01*
X123856074Y-85426786D01*
X123856077Y-85426787D01*
X124073608Y-85466123D01*
X124073615Y-85466124D01*
X124077692Y-85466861D01*
X124095414Y-85467697D01*
X124100356Y-85467930D01*
X124100363Y-85467930D01*
X124101844Y-85468000D01*
X124263890Y-85468000D01*
X124330809Y-85462322D01*
X124430409Y-85453871D01*
X124430413Y-85453870D01*
X124435720Y-85453420D01*
X124440875Y-85452082D01*
X124440881Y-85452081D01*
X124653703Y-85396843D01*
X124653707Y-85396842D01*
X124658872Y-85395501D01*
X124663738Y-85393309D01*
X124663741Y-85393308D01*
X124864202Y-85303007D01*
X124869075Y-85300812D01*
X125060319Y-85172059D01*
X125227135Y-85012924D01*
X125364754Y-84827958D01*
X125397331Y-84763885D01*
X125432546Y-84694621D01*
X125469240Y-84622449D01*
X125482048Y-84581203D01*
X125536024Y-84407371D01*
X125537607Y-84402273D01*
X125551772Y-84295396D01*
X125567198Y-84179011D01*
X125567198Y-84179006D01*
X125567898Y-84173726D01*
X125559249Y-83943342D01*
X125511907Y-83717709D01*
X125466072Y-83601648D01*
X125429185Y-83508244D01*
X125429184Y-83508242D01*
X125427224Y-83503279D01*
X125422438Y-83495391D01*
X125310390Y-83310743D01*
X125307623Y-83306183D01*
X125281550Y-83276136D01*
X125160023Y-83136088D01*
X125160021Y-83136086D01*
X125156523Y-83132055D01*
X125061938Y-83054500D01*
X124982373Y-82989260D01*
X124982367Y-82989256D01*
X124978245Y-82985876D01*
X124973609Y-82983237D01*
X124973606Y-82983235D01*
X124782529Y-82874468D01*
X124777886Y-82871825D01*
X124561175Y-82793163D01*
X124555926Y-82792214D01*
X124555923Y-82792213D01*
X124338392Y-82752877D01*
X124338385Y-82752876D01*
X124334308Y-82752139D01*
X124316586Y-82751303D01*
X124311644Y-82751070D01*
X124311637Y-82751070D01*
X124310156Y-82751000D01*
X124148110Y-82751000D01*
X124081191Y-82756678D01*
X123981591Y-82765129D01*
X123981587Y-82765130D01*
X123976280Y-82765580D01*
X123971125Y-82766918D01*
X123971119Y-82766919D01*
X123758297Y-82822157D01*
X123758293Y-82822158D01*
X123753128Y-82823499D01*
X123748262Y-82825691D01*
X123748259Y-82825692D01*
X123639980Y-82874468D01*
X123542925Y-82918188D01*
X123351681Y-83046941D01*
X123184865Y-83206076D01*
X123047246Y-83391042D01*
X123044830Y-83395793D01*
X123044828Y-83395797D01*
X123010104Y-83464095D01*
X122942760Y-83596551D01*
X122941178Y-83601645D01*
X122941177Y-83601648D01*
X122893371Y-83755609D01*
X122874393Y-83816727D01*
X122873692Y-83822016D01*
X122858304Y-83938123D01*
X122844102Y-84045274D01*
X122414500Y-84045274D01*
X122414500Y-83961366D01*
X122407745Y-83899184D01*
X122356615Y-83762795D01*
X122269261Y-83646239D01*
X122152705Y-83558885D01*
X122016316Y-83507755D01*
X121954134Y-83501000D01*
X119057866Y-83501000D01*
X118995684Y-83507755D01*
X118859295Y-83558885D01*
X118742739Y-83646239D01*
X118655385Y-83762795D01*
X118604255Y-83899184D01*
X118597500Y-83961366D01*
X118597500Y-84525000D01*
X118577498Y-84593121D01*
X118523842Y-84639614D01*
X118471500Y-84651000D01*
X115637935Y-84651000D01*
X115585935Y-84639472D01*
X115581738Y-84636885D01*
X115574790Y-84634581D01*
X115574787Y-84634579D01*
X115420389Y-84583368D01*
X115420387Y-84583368D01*
X115413861Y-84581203D01*
X115407025Y-84580503D01*
X115407022Y-84580502D01*
X115363969Y-84576091D01*
X115309400Y-84570500D01*
X114473371Y-84570500D01*
X114405250Y-84550498D01*
X114384276Y-84533595D01*
X112374595Y-82523914D01*
X112340569Y-82461602D01*
X112338169Y-82423838D01*
X112348874Y-82301476D01*
X112348874Y-82301475D01*
X112349353Y-82296000D01*
X114878647Y-82296000D01*
X114898022Y-82517463D01*
X114955560Y-82732196D01*
X114957882Y-82737177D01*
X114957883Y-82737178D01*
X115047186Y-82928689D01*
X115047189Y-82928694D01*
X115049512Y-82933676D01*
X115052668Y-82938183D01*
X115052669Y-82938185D01*
X115143134Y-83067382D01*
X115177023Y-83115781D01*
X115334219Y-83272977D01*
X115338727Y-83276134D01*
X115338730Y-83276136D01*
X115381642Y-83306183D01*
X115516323Y-83400488D01*
X115521305Y-83402811D01*
X115521310Y-83402814D01*
X115711810Y-83491645D01*
X115717804Y-83494440D01*
X115723112Y-83495862D01*
X115723114Y-83495863D01*
X115742286Y-83501000D01*
X115932537Y-83551978D01*
X116154000Y-83571353D01*
X116375463Y-83551978D01*
X116565714Y-83501000D01*
X116584886Y-83495863D01*
X116584888Y-83495862D01*
X116590196Y-83494440D01*
X116596190Y-83491645D01*
X116786690Y-83402814D01*
X116786695Y-83402811D01*
X116791677Y-83400488D01*
X116926358Y-83306183D01*
X116969270Y-83276136D01*
X116969273Y-83276134D01*
X116973781Y-83272977D01*
X117130977Y-83115781D01*
X117164867Y-83067382D01*
X117255331Y-82938185D01*
X117255332Y-82938183D01*
X117258488Y-82933676D01*
X117260811Y-82928694D01*
X117260814Y-82928689D01*
X117350117Y-82737178D01*
X117350118Y-82737177D01*
X117352440Y-82732196D01*
X117409978Y-82517463D01*
X117429353Y-82296000D01*
X117409978Y-82074537D01*
X117352440Y-81859804D01*
X117285534Y-81716324D01*
X117260814Y-81663311D01*
X117260811Y-81663306D01*
X117258488Y-81658324D01*
X117253822Y-81651660D01*
X117134136Y-81480730D01*
X117134134Y-81480727D01*
X117130977Y-81476219D01*
X116973781Y-81319023D01*
X116969273Y-81315866D01*
X116969270Y-81315864D01*
X116893505Y-81262813D01*
X116791677Y-81191512D01*
X116786695Y-81189189D01*
X116786690Y-81189186D01*
X116595178Y-81099883D01*
X116595177Y-81099882D01*
X116590196Y-81097560D01*
X116584888Y-81096138D01*
X116584886Y-81096137D01*
X116519051Y-81078497D01*
X116375463Y-81040022D01*
X116154000Y-81020647D01*
X115932537Y-81040022D01*
X115788949Y-81078497D01*
X115723114Y-81096137D01*
X115723112Y-81096138D01*
X115717804Y-81097560D01*
X115712823Y-81099882D01*
X115712822Y-81099883D01*
X115521311Y-81189186D01*
X115521306Y-81189189D01*
X115516324Y-81191512D01*
X115511817Y-81194668D01*
X115511815Y-81194669D01*
X115338730Y-81315864D01*
X115338727Y-81315866D01*
X115334219Y-81319023D01*
X115177023Y-81476219D01*
X115173866Y-81480727D01*
X115173864Y-81480730D01*
X115054178Y-81651660D01*
X115049512Y-81658324D01*
X115047189Y-81663306D01*
X115047186Y-81663311D01*
X115022466Y-81716324D01*
X114955560Y-81859804D01*
X114898022Y-82074537D01*
X114878647Y-82296000D01*
X112349353Y-82296000D01*
X112329978Y-82074537D01*
X112272440Y-81859804D01*
X112205534Y-81716324D01*
X112180814Y-81663311D01*
X112180811Y-81663306D01*
X112178488Y-81658324D01*
X112173822Y-81651660D01*
X112054136Y-81480730D01*
X112054134Y-81480727D01*
X112050977Y-81476219D01*
X111893781Y-81319023D01*
X111889273Y-81315866D01*
X111889270Y-81315864D01*
X111813505Y-81262813D01*
X111711677Y-81191512D01*
X111706695Y-81189189D01*
X111706690Y-81189186D01*
X111515178Y-81099883D01*
X111515177Y-81099882D01*
X111510196Y-81097560D01*
X111504888Y-81096138D01*
X111504886Y-81096137D01*
X111439051Y-81078497D01*
X111295463Y-81040022D01*
X111074000Y-81020647D01*
X110852537Y-81040022D01*
X110708949Y-81078497D01*
X110643114Y-81096137D01*
X110643112Y-81096138D01*
X110637804Y-81097560D01*
X110632823Y-81099882D01*
X110632822Y-81099883D01*
X110441311Y-81189186D01*
X110441306Y-81189189D01*
X110436324Y-81191512D01*
X110431817Y-81194668D01*
X110431815Y-81194669D01*
X110258730Y-81315864D01*
X110258727Y-81315866D01*
X110254219Y-81319023D01*
X110097023Y-81476219D01*
X110093866Y-81480727D01*
X110093864Y-81480730D01*
X109974178Y-81651660D01*
X109969512Y-81658324D01*
X109967189Y-81663306D01*
X109967186Y-81663311D01*
X109942466Y-81716324D01*
X109875560Y-81859804D01*
X109818022Y-82074537D01*
X109798647Y-82296000D01*
X109818022Y-82517463D01*
X109875560Y-82732196D01*
X109877882Y-82737177D01*
X109877883Y-82737178D01*
X109967186Y-82928689D01*
X109967189Y-82928694D01*
X109969512Y-82933676D01*
X109972668Y-82938183D01*
X109972669Y-82938185D01*
X110063134Y-83067382D01*
X110097023Y-83115781D01*
X110254219Y-83272977D01*
X110258727Y-83276134D01*
X110258730Y-83276136D01*
X110301642Y-83306183D01*
X110436323Y-83400488D01*
X110441305Y-83402811D01*
X110441310Y-83402814D01*
X110631810Y-83491645D01*
X110637804Y-83494440D01*
X110643112Y-83495862D01*
X110643114Y-83495863D01*
X110662286Y-83501000D01*
X110852537Y-83551978D01*
X111074000Y-83571353D01*
X111079475Y-83570874D01*
X111079476Y-83570874D01*
X111201838Y-83560169D01*
X111271442Y-83574158D01*
X111301914Y-83596595D01*
X112060724Y-84355405D01*
X112094750Y-84417717D01*
X112089685Y-84488532D01*
X112047138Y-84545368D01*
X111980618Y-84570179D01*
X111971629Y-84570500D01*
X111258600Y-84570500D01*
X111255354Y-84570837D01*
X111255350Y-84570837D01*
X111159692Y-84580762D01*
X111159688Y-84580763D01*
X111152834Y-84581474D01*
X111146298Y-84583655D01*
X111146296Y-84583655D01*
X111045295Y-84617352D01*
X110985054Y-84637450D01*
X110834652Y-84730522D01*
X110709695Y-84855697D01*
X110705855Y-84861927D01*
X110705854Y-84861928D01*
X110635244Y-84976479D01*
X110616885Y-85006262D01*
X110614581Y-85013209D01*
X110576828Y-85127032D01*
X110561203Y-85174139D01*
X110560503Y-85180975D01*
X110560502Y-85180978D01*
X110556091Y-85224031D01*
X110550500Y-85278600D01*
X110550500Y-86679400D01*
X110561474Y-86785166D01*
X110563655Y-86791702D01*
X110563655Y-86791704D01*
X110584511Y-86854217D01*
X110617450Y-86952946D01*
X110710522Y-87103348D01*
X110835697Y-87228305D01*
X110841927Y-87232145D01*
X110841928Y-87232146D01*
X110976376Y-87315021D01*
X111023869Y-87367793D01*
X111036260Y-87422281D01*
X111036260Y-88440871D01*
X111016258Y-88508992D01*
X110976567Y-88548012D01*
X110920412Y-88582762D01*
X110795455Y-88707937D01*
X110791615Y-88714167D01*
X110791614Y-88714168D01*
X110713978Y-88840116D01*
X110661205Y-88887610D01*
X110606718Y-88900000D01*
X109882940Y-88900000D01*
X109814819Y-88879998D01*
X109775796Y-88840303D01*
X109697092Y-88713120D01*
X109693238Y-88706892D01*
X109568063Y-88581935D01*
X109513142Y-88548081D01*
X109423728Y-88492965D01*
X109423726Y-88492964D01*
X109417498Y-88489125D01*
X109272016Y-88440871D01*
X109256149Y-88435608D01*
X109256147Y-88435608D01*
X109249621Y-88433443D01*
X109242785Y-88432743D01*
X109242782Y-88432742D01*
X109199729Y-88428331D01*
X109145160Y-88422740D01*
X108244360Y-88422740D01*
X108241114Y-88423077D01*
X108241110Y-88423077D01*
X108145452Y-88433002D01*
X108145448Y-88433003D01*
X108138594Y-88433714D01*
X108132058Y-88435895D01*
X108132056Y-88435895D01*
X108012016Y-88475944D01*
X107970814Y-88489690D01*
X107820412Y-88582762D01*
X107764421Y-88638851D01*
X107763056Y-88640218D01*
X107700773Y-88674297D01*
X107673883Y-88677200D01*
X105528652Y-88677200D01*
X105460531Y-88657198D01*
X105414038Y-88603542D01*
X105412529Y-88599479D01*
X105412506Y-88599489D01*
X105409357Y-88592212D01*
X105407145Y-88584599D01*
X105383371Y-88544400D01*
X105326491Y-88448220D01*
X105326489Y-88448217D01*
X105322453Y-88441393D01*
X105204807Y-88323747D01*
X105197983Y-88319711D01*
X105197980Y-88319709D01*
X105068427Y-88243092D01*
X105068428Y-88243092D01*
X105061601Y-88239055D01*
X105053990Y-88236844D01*
X105053988Y-88236843D01*
X105001769Y-88221672D01*
X104901831Y-88192638D01*
X104895426Y-88192134D01*
X104895421Y-88192133D01*
X104866958Y-88189893D01*
X104866950Y-88189893D01*
X104864502Y-88189700D01*
X104431498Y-88189700D01*
X104429050Y-88189893D01*
X104429042Y-88189893D01*
X104400579Y-88192133D01*
X104400574Y-88192134D01*
X104394169Y-88192638D01*
X104294231Y-88221672D01*
X104242012Y-88236843D01*
X104242010Y-88236844D01*
X104234399Y-88239055D01*
X104227572Y-88243092D01*
X104227573Y-88243092D01*
X104098020Y-88319709D01*
X104098017Y-88319711D01*
X104091193Y-88323747D01*
X103973547Y-88441393D01*
X103969511Y-88448217D01*
X103969509Y-88448220D01*
X103912629Y-88544400D01*
X103888855Y-88584599D01*
X103886643Y-88592212D01*
X103883494Y-88599489D01*
X103880726Y-88598291D01*
X103850111Y-88646207D01*
X103785609Y-88675870D01*
X103767348Y-88677200D01*
X101995128Y-88677200D01*
X101927007Y-88657198D01*
X101880514Y-88603542D01*
X101875604Y-88591076D01*
X101873444Y-88584599D01*
X101837310Y-88476294D01*
X101744238Y-88325892D01*
X101619063Y-88200935D01*
X101564142Y-88167081D01*
X101474728Y-88111965D01*
X101474726Y-88111964D01*
X101468498Y-88108125D01*
X101388755Y-88081676D01*
X101307149Y-88054608D01*
X101307147Y-88054608D01*
X101300621Y-88052443D01*
X101293785Y-88051743D01*
X101293782Y-88051742D01*
X101250729Y-88047331D01*
X101196160Y-88041740D01*
X100295360Y-88041740D01*
X100292114Y-88042077D01*
X100292110Y-88042077D01*
X100196452Y-88052002D01*
X100196448Y-88052003D01*
X100189594Y-88052714D01*
X100183058Y-88054895D01*
X100183056Y-88054895D01*
X100050954Y-88098968D01*
X100021814Y-88108690D01*
X99871412Y-88201762D01*
X99746455Y-88326937D01*
X99653645Y-88477502D01*
X99652681Y-88476908D01*
X99610388Y-88524938D01*
X99543114Y-88544400D01*
X98848393Y-88544400D01*
X98780272Y-88524398D01*
X98737875Y-88475944D01*
X98737310Y-88476294D01*
X98735205Y-88472893D01*
X98644238Y-88325892D01*
X98519063Y-88200935D01*
X98512835Y-88197096D01*
X98512830Y-88197092D01*
X98464143Y-88167081D01*
X98416650Y-88114309D01*
X98404260Y-88059822D01*
X98404260Y-87490948D01*
X98424262Y-87422827D01*
X98463956Y-87383805D01*
X98511348Y-87354478D01*
X98636305Y-87229303D01*
X98728162Y-87080284D01*
X98780934Y-87032791D01*
X98835422Y-87020400D01*
X99538399Y-87020400D01*
X99606520Y-87040402D01*
X99645543Y-87080097D01*
X99698443Y-87165581D01*
X99738522Y-87230348D01*
X99863697Y-87355305D01*
X99869927Y-87359145D01*
X99869928Y-87359146D01*
X100007090Y-87443694D01*
X100014262Y-87448115D01*
X100094005Y-87474564D01*
X100175611Y-87501632D01*
X100175613Y-87501632D01*
X100182139Y-87503797D01*
X100188975Y-87504497D01*
X100188978Y-87504498D01*
X100232031Y-87508909D01*
X100286600Y-87514500D01*
X101212400Y-87514500D01*
X101215646Y-87514163D01*
X101215650Y-87514163D01*
X101311308Y-87504238D01*
X101311312Y-87504237D01*
X101318166Y-87503526D01*
X101324702Y-87501345D01*
X101324704Y-87501345D01*
X101456806Y-87457272D01*
X101485946Y-87447550D01*
X101636348Y-87354478D01*
X101761305Y-87229303D01*
X101800584Y-87165581D01*
X101850275Y-87084968D01*
X101850276Y-87084966D01*
X101854115Y-87078738D01*
X101893772Y-86959176D01*
X101907632Y-86917389D01*
X101907632Y-86917387D01*
X101909797Y-86910861D01*
X101920500Y-86806400D01*
X101920500Y-86059871D01*
X101940502Y-85991750D01*
X101957405Y-85970776D01*
X104826773Y-83101408D01*
X104889085Y-83067382D01*
X104959900Y-83072447D01*
X105012391Y-83109513D01*
X105013860Y-83111264D01*
X105017023Y-83115781D01*
X105174219Y-83272977D01*
X105178727Y-83276134D01*
X105178730Y-83276136D01*
X105221642Y-83306183D01*
X105356323Y-83400488D01*
X105361305Y-83402811D01*
X105361310Y-83402814D01*
X105551810Y-83491645D01*
X105557804Y-83494440D01*
X105563112Y-83495862D01*
X105563114Y-83495863D01*
X105582286Y-83501000D01*
X105772537Y-83551978D01*
X105994000Y-83571353D01*
X106215463Y-83551978D01*
X106405714Y-83501000D01*
X106424886Y-83495863D01*
X106424888Y-83495862D01*
X106430196Y-83494440D01*
X106436190Y-83491645D01*
X106626690Y-83402814D01*
X106626695Y-83402811D01*
X106631677Y-83400488D01*
X106766358Y-83306183D01*
X106809270Y-83276136D01*
X106809273Y-83276134D01*
X106813781Y-83272977D01*
X106970977Y-83115781D01*
X107004867Y-83067382D01*
X107095331Y-82938185D01*
X107095332Y-82938183D01*
X107098488Y-82933676D01*
X107100811Y-82928694D01*
X107100814Y-82928689D01*
X107190117Y-82737178D01*
X107190118Y-82737177D01*
X107192440Y-82732196D01*
X107249978Y-82517463D01*
X107269353Y-82296000D01*
X107249978Y-82074537D01*
X107192440Y-81859804D01*
X107125534Y-81716324D01*
X107100814Y-81663311D01*
X107100811Y-81663306D01*
X107098488Y-81658324D01*
X107093822Y-81651660D01*
X106974136Y-81480730D01*
X106974134Y-81480727D01*
X106970977Y-81476219D01*
X106813781Y-81319023D01*
X106809273Y-81315866D01*
X106809270Y-81315864D01*
X106733505Y-81262813D01*
X106631677Y-81191512D01*
X106626695Y-81189189D01*
X106626690Y-81189186D01*
X106435178Y-81099883D01*
X106435177Y-81099882D01*
X106430196Y-81097560D01*
X106424888Y-81096138D01*
X106424886Y-81096137D01*
X106359051Y-81078497D01*
X106215463Y-81040022D01*
X105994000Y-81020647D01*
X105772537Y-81040022D01*
X105628949Y-81078497D01*
X105563114Y-81096137D01*
X105563112Y-81096138D01*
X105557804Y-81097560D01*
X105552823Y-81099882D01*
X105552822Y-81099883D01*
X105361311Y-81189186D01*
X105361306Y-81189189D01*
X105356324Y-81191512D01*
X105351817Y-81194668D01*
X105351815Y-81194669D01*
X105178730Y-81315864D01*
X105178727Y-81315866D01*
X105174219Y-81319023D01*
X105017023Y-81476219D01*
X105013860Y-81480736D01*
X105012391Y-81482487D01*
X104953282Y-81521814D01*
X104882294Y-81522942D01*
X104826773Y-81490592D01*
X103931270Y-80595089D01*
X103918884Y-80580677D01*
X103910351Y-80569082D01*
X103910346Y-80569077D01*
X103906008Y-80563182D01*
X103900430Y-80558443D01*
X103900427Y-80558440D01*
X103865732Y-80528965D01*
X103858216Y-80522035D01*
X103852521Y-80516340D01*
X103836236Y-80503456D01*
X103830249Y-80498719D01*
X103826845Y-80495928D01*
X103778647Y-80454980D01*
X103771132Y-80448051D01*
X103402970Y-80079889D01*
X103390584Y-80065477D01*
X103382051Y-80053882D01*
X103382046Y-80053877D01*
X103377708Y-80047982D01*
X103372130Y-80043243D01*
X103372127Y-80043240D01*
X103337432Y-80013765D01*
X103329916Y-80006835D01*
X103324221Y-80001140D01*
X103317423Y-79995762D01*
X103301949Y-79983519D01*
X103298545Y-79980728D01*
X103248497Y-79938209D01*
X103248495Y-79938208D01*
X103242915Y-79933467D01*
X103236399Y-79930139D01*
X103231350Y-79926772D01*
X103226221Y-79923605D01*
X103220484Y-79919066D01*
X103154325Y-79888145D01*
X103150425Y-79886239D01*
X103085392Y-79853031D01*
X103078284Y-79851292D01*
X103072641Y-79849193D01*
X103066878Y-79847276D01*
X103060250Y-79844178D01*
X102988783Y-79829313D01*
X102984499Y-79828343D01*
X102913590Y-79810992D01*
X102907988Y-79810644D01*
X102907985Y-79810644D01*
X102902436Y-79810300D01*
X102902438Y-79810264D01*
X102898445Y-79810025D01*
X102894253Y-79809651D01*
X102887085Y-79808160D01*
X102823320Y-79809885D01*
X102809679Y-79810254D01*
X102806272Y-79810300D01*
X95671389Y-79810300D01*
X95603268Y-79790298D01*
X95556775Y-79736642D01*
X95546671Y-79666368D01*
X95576165Y-79601788D01*
X95627157Y-79566318D01*
X95643705Y-79560115D01*
X95760261Y-79472761D01*
X95847615Y-79356205D01*
X95898745Y-79219816D01*
X95905500Y-79157634D01*
X95905500Y-79144000D01*
X95925502Y-79075879D01*
X95979158Y-79029386D01*
X96031500Y-79018000D01*
X102598657Y-79018000D01*
X102612264Y-79018737D01*
X102643762Y-79022159D01*
X102643767Y-79022159D01*
X102649888Y-79022824D01*
X102676138Y-79020527D01*
X102699888Y-79018450D01*
X102704714Y-79018121D01*
X102707186Y-79018000D01*
X102710269Y-79018000D01*
X102722238Y-79016826D01*
X102753006Y-79013810D01*
X102754319Y-79013688D01*
X102798584Y-79009815D01*
X102846913Y-79005587D01*
X102852032Y-79004100D01*
X102857333Y-79003580D01*
X102946334Y-78976709D01*
X102947467Y-78976374D01*
X103030914Y-78952130D01*
X103030918Y-78952128D01*
X103036836Y-78950409D01*
X103041568Y-78947956D01*
X103046669Y-78946416D01*
X103052112Y-78943522D01*
X103128760Y-78902769D01*
X103129926Y-78902157D01*
X103206953Y-78862229D01*
X103212426Y-78859392D01*
X103216589Y-78856069D01*
X103221296Y-78853566D01*
X103293418Y-78794745D01*
X103294274Y-78794054D01*
X103333473Y-78762762D01*
X103335977Y-78760258D01*
X103336695Y-78759616D01*
X103341028Y-78755915D01*
X103374562Y-78728565D01*
X103403788Y-78693237D01*
X103411777Y-78684458D01*
X106126918Y-75969316D01*
X106189230Y-75935290D01*
X106205036Y-75932890D01*
X106205487Y-75932851D01*
X106209983Y-75932458D01*
X106209990Y-75932457D01*
X106215463Y-75931978D01*
X106220771Y-75930556D01*
X106220775Y-75930555D01*
X106424886Y-75875863D01*
X106424888Y-75875862D01*
X106430196Y-75874440D01*
X106435804Y-75871825D01*
X106626690Y-75782814D01*
X106626695Y-75782811D01*
X106631677Y-75780488D01*
X106733505Y-75709187D01*
X106809270Y-75656136D01*
X106809273Y-75656134D01*
X106813781Y-75652977D01*
X106970977Y-75495781D01*
X107098488Y-75313676D01*
X107100811Y-75308694D01*
X107100814Y-75308689D01*
X107190117Y-75117178D01*
X107190118Y-75117177D01*
X107192440Y-75112196D01*
X107249978Y-74897463D01*
X107269353Y-74676000D01*
X109798647Y-74676000D01*
X109818022Y-74897463D01*
X109875560Y-75112196D01*
X109877882Y-75117177D01*
X109877883Y-75117178D01*
X109967186Y-75308689D01*
X109967189Y-75308694D01*
X109969512Y-75313676D01*
X110097023Y-75495781D01*
X110254219Y-75652977D01*
X110258727Y-75656134D01*
X110258730Y-75656136D01*
X110334495Y-75709187D01*
X110436323Y-75780488D01*
X110441305Y-75782811D01*
X110441310Y-75782814D01*
X110632196Y-75871825D01*
X110637804Y-75874440D01*
X110643112Y-75875862D01*
X110643114Y-75875863D01*
X110708949Y-75893503D01*
X110852537Y-75931978D01*
X110858014Y-75932457D01*
X110858019Y-75932458D01*
X110862962Y-75932890D01*
X110929081Y-75958750D01*
X110941081Y-75969316D01*
X114787545Y-79815779D01*
X114796647Y-79825922D01*
X114820368Y-79855425D01*
X114858856Y-79887720D01*
X114862475Y-79890878D01*
X114864290Y-79892524D01*
X114866475Y-79894709D01*
X114868855Y-79896664D01*
X114868865Y-79896673D01*
X114899636Y-79921949D01*
X114900651Y-79922791D01*
X114919026Y-79938209D01*
X114971874Y-79982554D01*
X114976548Y-79985123D01*
X114980661Y-79988502D01*
X114986098Y-79991417D01*
X114986099Y-79991418D01*
X115062447Y-80032355D01*
X115063577Y-80032968D01*
X115075767Y-80039669D01*
X115136660Y-80073145D01*
X115145187Y-80077833D01*
X115150269Y-80079445D01*
X115154963Y-80081962D01*
X115243931Y-80109162D01*
X115244959Y-80109482D01*
X115333706Y-80137635D01*
X115339002Y-80138229D01*
X115344098Y-80139787D01*
X115436657Y-80149190D01*
X115437793Y-80149311D01*
X115471408Y-80153081D01*
X115484130Y-80154508D01*
X115484134Y-80154508D01*
X115487627Y-80154900D01*
X115491154Y-80154900D01*
X115492139Y-80154955D01*
X115497819Y-80155402D01*
X115527225Y-80158389D01*
X115534737Y-80159152D01*
X115534739Y-80159152D01*
X115540862Y-80159774D01*
X115586508Y-80155459D01*
X115598367Y-80154900D01*
X126707257Y-80154900D01*
X126720864Y-80155637D01*
X126752362Y-80159059D01*
X126752367Y-80159059D01*
X126758488Y-80159724D01*
X126784738Y-80157427D01*
X126808488Y-80155350D01*
X126813314Y-80155021D01*
X126815786Y-80154900D01*
X126818869Y-80154900D01*
X126830838Y-80153726D01*
X126861606Y-80150710D01*
X126862919Y-80150588D01*
X126907184Y-80146715D01*
X126955513Y-80142487D01*
X126960632Y-80141000D01*
X126965933Y-80140480D01*
X127054934Y-80113609D01*
X127056067Y-80113274D01*
X127139514Y-80089030D01*
X127139518Y-80089028D01*
X127145436Y-80087309D01*
X127150168Y-80084856D01*
X127155269Y-80083316D01*
X127162273Y-80079592D01*
X127237360Y-80039669D01*
X127238526Y-80039057D01*
X127315553Y-79999129D01*
X127321026Y-79996292D01*
X127325189Y-79992969D01*
X127329896Y-79990466D01*
X127402018Y-79931645D01*
X127402874Y-79930954D01*
X127442073Y-79899662D01*
X127444577Y-79897158D01*
X127445295Y-79896516D01*
X127449628Y-79892815D01*
X127483162Y-79865465D01*
X127490695Y-79856360D01*
X127512387Y-79830138D01*
X127520377Y-79821358D01*
X127686830Y-79654905D01*
X127749142Y-79620879D01*
X127775925Y-79618000D01*
X129354134Y-79618000D01*
X129416316Y-79611245D01*
X129552705Y-79560115D01*
X129669261Y-79472761D01*
X129756615Y-79356205D01*
X129807745Y-79219816D01*
X129814500Y-79157634D01*
X129814500Y-78740000D01*
X134896654Y-78740000D01*
X134896924Y-78744119D01*
X134915156Y-79022287D01*
X134916017Y-79035426D01*
X134916819Y-79039459D01*
X134916820Y-79039465D01*
X134972970Y-79321747D01*
X134973776Y-79325797D01*
X134975103Y-79329706D01*
X134975104Y-79329710D01*
X135067462Y-79601788D01*
X135068941Y-79606145D01*
X135076207Y-79620879D01*
X135196824Y-79865465D01*
X135199885Y-79871673D01*
X135218587Y-79899662D01*
X135343599Y-80086756D01*
X135364367Y-80117838D01*
X135367081Y-80120932D01*
X135367085Y-80120938D01*
X135556864Y-80337338D01*
X135559573Y-80340427D01*
X135562662Y-80343136D01*
X135779062Y-80532915D01*
X135779068Y-80532919D01*
X135782162Y-80535633D01*
X135785588Y-80537922D01*
X135785593Y-80537926D01*
X135849575Y-80580677D01*
X136028327Y-80700115D01*
X136032026Y-80701939D01*
X136032031Y-80701942D01*
X136168313Y-80769148D01*
X136293855Y-80831059D01*
X136297760Y-80832384D01*
X136297761Y-80832385D01*
X136570290Y-80924896D01*
X136570294Y-80924897D01*
X136574203Y-80926224D01*
X136578247Y-80927028D01*
X136578253Y-80927030D01*
X136860535Y-80983180D01*
X136860541Y-80983181D01*
X136864574Y-80983983D01*
X136868679Y-80984252D01*
X136868686Y-80984253D01*
X137155881Y-81003076D01*
X137160000Y-81003346D01*
X137164119Y-81003076D01*
X137451314Y-80984253D01*
X137451321Y-80984252D01*
X137455426Y-80983983D01*
X137459459Y-80983181D01*
X137459465Y-80983180D01*
X137741747Y-80927030D01*
X137741753Y-80927028D01*
X137745797Y-80926224D01*
X137749706Y-80924897D01*
X137749710Y-80924896D01*
X138022239Y-80832385D01*
X138022240Y-80832384D01*
X138026145Y-80831059D01*
X138151687Y-80769148D01*
X138287969Y-80701942D01*
X138287974Y-80701939D01*
X138291673Y-80700115D01*
X138470425Y-80580677D01*
X138534407Y-80537926D01*
X138534412Y-80537922D01*
X138537838Y-80535633D01*
X138540932Y-80532919D01*
X138540938Y-80532915D01*
X138757338Y-80343136D01*
X138760427Y-80340427D01*
X138763136Y-80337338D01*
X138952915Y-80120938D01*
X138952919Y-80120932D01*
X138955633Y-80117838D01*
X138976402Y-80086756D01*
X139101413Y-79899662D01*
X139120115Y-79871673D01*
X139123177Y-79865465D01*
X139243793Y-79620879D01*
X139251059Y-79606145D01*
X139252538Y-79601788D01*
X139344896Y-79329710D01*
X139344897Y-79329706D01*
X139346224Y-79325797D01*
X139347030Y-79321747D01*
X139403180Y-79039465D01*
X139403181Y-79039459D01*
X139403983Y-79035426D01*
X139404845Y-79022287D01*
X139423076Y-78744119D01*
X139423346Y-78740000D01*
X139409216Y-78524416D01*
X139404253Y-78448686D01*
X139404252Y-78448679D01*
X139403983Y-78444574D01*
X139393786Y-78393308D01*
X139347030Y-78158253D01*
X139347028Y-78158247D01*
X139346224Y-78154203D01*
X139328163Y-78100995D01*
X139252385Y-77877761D01*
X139252384Y-77877760D01*
X139251059Y-77873855D01*
X139173076Y-77715721D01*
X139121942Y-77612031D01*
X139121939Y-77612026D01*
X139120115Y-77608327D01*
X138985841Y-77407371D01*
X138957926Y-77365593D01*
X138957922Y-77365588D01*
X138955633Y-77362162D01*
X138952919Y-77359068D01*
X138952915Y-77359062D01*
X138763136Y-77142662D01*
X138760427Y-77139573D01*
X138646874Y-77039989D01*
X138540938Y-76947085D01*
X138540932Y-76947081D01*
X138537838Y-76944367D01*
X138534412Y-76942078D01*
X138534407Y-76942074D01*
X138320556Y-76799184D01*
X138291673Y-76779885D01*
X138287974Y-76778061D01*
X138287969Y-76778058D01*
X138151687Y-76710852D01*
X138026145Y-76648941D01*
X137857801Y-76591796D01*
X137749710Y-76555104D01*
X137749706Y-76555103D01*
X137745797Y-76553776D01*
X137741753Y-76552972D01*
X137741747Y-76552970D01*
X137459465Y-76496820D01*
X137459459Y-76496819D01*
X137455426Y-76496017D01*
X137451321Y-76495748D01*
X137451314Y-76495747D01*
X137164119Y-76476924D01*
X137160000Y-76476654D01*
X137155881Y-76476924D01*
X136868686Y-76495747D01*
X136868679Y-76495748D01*
X136864574Y-76496017D01*
X136860541Y-76496819D01*
X136860535Y-76496820D01*
X136578253Y-76552970D01*
X136578247Y-76552972D01*
X136574203Y-76553776D01*
X136570294Y-76555103D01*
X136570290Y-76555104D01*
X136462199Y-76591796D01*
X136293855Y-76648941D01*
X136168313Y-76710852D01*
X136032031Y-76778058D01*
X136032026Y-76778061D01*
X136028327Y-76779885D01*
X135999444Y-76799184D01*
X135785593Y-76942074D01*
X135785588Y-76942078D01*
X135782162Y-76944367D01*
X135779068Y-76947081D01*
X135779062Y-76947085D01*
X135673126Y-77039989D01*
X135559573Y-77139573D01*
X135556864Y-77142662D01*
X135367085Y-77359062D01*
X135367081Y-77359068D01*
X135364367Y-77362162D01*
X135362078Y-77365588D01*
X135362074Y-77365593D01*
X135334159Y-77407371D01*
X135199885Y-77608327D01*
X135198061Y-77612026D01*
X135198058Y-77612031D01*
X135146924Y-77715721D01*
X135068941Y-77873855D01*
X135067616Y-77877760D01*
X135067615Y-77877761D01*
X134991838Y-78100995D01*
X134973776Y-78154203D01*
X134972972Y-78158247D01*
X134972970Y-78158253D01*
X134926215Y-78393308D01*
X134916017Y-78444574D01*
X134915748Y-78448679D01*
X134915747Y-78448686D01*
X134910784Y-78524416D01*
X134896654Y-78740000D01*
X129814500Y-78740000D01*
X129814500Y-76861366D01*
X129807745Y-76799184D01*
X129756615Y-76662795D01*
X129669261Y-76546239D01*
X129552705Y-76458885D01*
X129416316Y-76407755D01*
X129354134Y-76401000D01*
X126457866Y-76401000D01*
X126395684Y-76407755D01*
X126259295Y-76458885D01*
X126142739Y-76546239D01*
X126055385Y-76662795D01*
X126004255Y-76799184D01*
X125997500Y-76861366D01*
X125997500Y-78011900D01*
X125977498Y-78080021D01*
X125923842Y-78126514D01*
X125871500Y-78137900D01*
X125384946Y-78137900D01*
X125316825Y-78117898D01*
X125270332Y-78064242D01*
X125260228Y-77993968D01*
X125283857Y-77936687D01*
X125298619Y-77916847D01*
X125364754Y-77827958D01*
X125469240Y-77622449D01*
X125470892Y-77617131D01*
X125536024Y-77407371D01*
X125537607Y-77402273D01*
X125538308Y-77396984D01*
X125567198Y-77179011D01*
X125567198Y-77179006D01*
X125567898Y-77173726D01*
X125559249Y-76943342D01*
X125511907Y-76717709D01*
X125490220Y-76662795D01*
X125429185Y-76508244D01*
X125429184Y-76508242D01*
X125427224Y-76503279D01*
X125422818Y-76496017D01*
X125310390Y-76310743D01*
X125307623Y-76306183D01*
X125220755Y-76206076D01*
X125160023Y-76136088D01*
X125160021Y-76136086D01*
X125156523Y-76132055D01*
X125114970Y-76097984D01*
X124982373Y-75989260D01*
X124982367Y-75989256D01*
X124978245Y-75985876D01*
X124973609Y-75983237D01*
X124973606Y-75983235D01*
X124782529Y-75874468D01*
X124777886Y-75871825D01*
X124561175Y-75793163D01*
X124555926Y-75792214D01*
X124555923Y-75792213D01*
X124338392Y-75752877D01*
X124338385Y-75752876D01*
X124334308Y-75752139D01*
X124316586Y-75751303D01*
X124311644Y-75751070D01*
X124311637Y-75751070D01*
X124310156Y-75751000D01*
X124148110Y-75751000D01*
X124081191Y-75756678D01*
X123981591Y-75765129D01*
X123981587Y-75765130D01*
X123976280Y-75765580D01*
X123971125Y-75766918D01*
X123971119Y-75766919D01*
X123758297Y-75822157D01*
X123758293Y-75822158D01*
X123753128Y-75823499D01*
X123748262Y-75825691D01*
X123748259Y-75825692D01*
X123601371Y-75891860D01*
X123542925Y-75918188D01*
X123351681Y-76046941D01*
X123184865Y-76206076D01*
X123181682Y-76210354D01*
X123132060Y-76277048D01*
X123047246Y-76391042D01*
X123044830Y-76395793D01*
X123044828Y-76395797D01*
X123003719Y-76476654D01*
X122942760Y-76596551D01*
X122941178Y-76601645D01*
X122941177Y-76601648D01*
X122882138Y-76791785D01*
X122874393Y-76816727D01*
X122873692Y-76822016D01*
X122850352Y-76998121D01*
X122844102Y-77045274D01*
X122852751Y-77275658D01*
X122900093Y-77501291D01*
X122902051Y-77506250D01*
X122902052Y-77506252D01*
X122964678Y-77664829D01*
X122984776Y-77715721D01*
X123104377Y-77912817D01*
X123107874Y-77916847D01*
X123107875Y-77916848D01*
X123118696Y-77929318D01*
X123148236Y-77993877D01*
X123138184Y-78064159D01*
X123091730Y-78117848D01*
X123023532Y-78137900D01*
X116014325Y-78137900D01*
X115946204Y-78117898D01*
X115925230Y-78100995D01*
X114978404Y-77154169D01*
X118598001Y-77154169D01*
X118598371Y-77160990D01*
X118603895Y-77211852D01*
X118607521Y-77227104D01*
X118652676Y-77347554D01*
X118661214Y-77363149D01*
X118737715Y-77465224D01*
X118750276Y-77477785D01*
X118852351Y-77554286D01*
X118867946Y-77562824D01*
X118988394Y-77607978D01*
X119003649Y-77611605D01*
X119054514Y-77617131D01*
X119061328Y-77617500D01*
X120233885Y-77617500D01*
X120249124Y-77613025D01*
X120250329Y-77611635D01*
X120252000Y-77603952D01*
X120252000Y-77599384D01*
X120760000Y-77599384D01*
X120764475Y-77614623D01*
X120765865Y-77615828D01*
X120773548Y-77617499D01*
X121950669Y-77617499D01*
X121957490Y-77617129D01*
X122008352Y-77611605D01*
X122023604Y-77607979D01*
X122144054Y-77562824D01*
X122159649Y-77554286D01*
X122261724Y-77477785D01*
X122274285Y-77465224D01*
X122350786Y-77363149D01*
X122359324Y-77347554D01*
X122404478Y-77227106D01*
X122408105Y-77211851D01*
X122413631Y-77160986D01*
X122414000Y-77154172D01*
X122414000Y-76281615D01*
X122409525Y-76266376D01*
X122408135Y-76265171D01*
X122400452Y-76263500D01*
X120778115Y-76263500D01*
X120762876Y-76267975D01*
X120761671Y-76269365D01*
X120760000Y-76277048D01*
X120760000Y-77599384D01*
X120252000Y-77599384D01*
X120252000Y-76281615D01*
X120247525Y-76266376D01*
X120246135Y-76265171D01*
X120238452Y-76263500D01*
X118616116Y-76263500D01*
X118600877Y-76267975D01*
X118599672Y-76269365D01*
X118598001Y-76277048D01*
X118598001Y-77154169D01*
X114978404Y-77154169D01*
X112500234Y-74676000D01*
X114878647Y-74676000D01*
X114898022Y-74897463D01*
X114955560Y-75112196D01*
X114957882Y-75117177D01*
X114957883Y-75117178D01*
X115047186Y-75308689D01*
X115047189Y-75308694D01*
X115049512Y-75313676D01*
X115177023Y-75495781D01*
X115334219Y-75652977D01*
X115338727Y-75656134D01*
X115338730Y-75656136D01*
X115414495Y-75709187D01*
X115516323Y-75780488D01*
X115521305Y-75782811D01*
X115521310Y-75782814D01*
X115712196Y-75871825D01*
X115717804Y-75874440D01*
X115723112Y-75875862D01*
X115723114Y-75875863D01*
X115788949Y-75893503D01*
X115932537Y-75931978D01*
X116154000Y-75951353D01*
X116375463Y-75931978D01*
X116519051Y-75893503D01*
X116584886Y-75875863D01*
X116584888Y-75875862D01*
X116590196Y-75874440D01*
X116595804Y-75871825D01*
X116786690Y-75782814D01*
X116786695Y-75782811D01*
X116791677Y-75780488D01*
X116853234Y-75737385D01*
X118598000Y-75737385D01*
X118602475Y-75752624D01*
X118603865Y-75753829D01*
X118611548Y-75755500D01*
X120233885Y-75755500D01*
X120249124Y-75751025D01*
X120250329Y-75749635D01*
X120252000Y-75741952D01*
X120252000Y-75737385D01*
X120760000Y-75737385D01*
X120764475Y-75752624D01*
X120765865Y-75753829D01*
X120773548Y-75755500D01*
X122395884Y-75755500D01*
X122411123Y-75751025D01*
X122412328Y-75749635D01*
X122413999Y-75741952D01*
X122413999Y-74864831D01*
X122413629Y-74858010D01*
X122408105Y-74807148D01*
X122404479Y-74791896D01*
X122359324Y-74671446D01*
X122350786Y-74655851D01*
X122274285Y-74553776D01*
X122261724Y-74541215D01*
X122159649Y-74464714D01*
X122144054Y-74456176D01*
X122023606Y-74411022D01*
X122008351Y-74407395D01*
X121957486Y-74401869D01*
X121950672Y-74401500D01*
X120778115Y-74401500D01*
X120762876Y-74405975D01*
X120761671Y-74407365D01*
X120760000Y-74415048D01*
X120760000Y-75737385D01*
X120252000Y-75737385D01*
X120252000Y-74419616D01*
X120247525Y-74404377D01*
X120246135Y-74403172D01*
X120238452Y-74401501D01*
X119061331Y-74401501D01*
X119054510Y-74401871D01*
X119003648Y-74407395D01*
X118988396Y-74411021D01*
X118867946Y-74456176D01*
X118852351Y-74464714D01*
X118750276Y-74541215D01*
X118737715Y-74553776D01*
X118661214Y-74655851D01*
X118652676Y-74671446D01*
X118607522Y-74791894D01*
X118603895Y-74807149D01*
X118598369Y-74858014D01*
X118598000Y-74864828D01*
X118598000Y-75737385D01*
X116853234Y-75737385D01*
X116893505Y-75709187D01*
X116969270Y-75656136D01*
X116969273Y-75656134D01*
X116973781Y-75652977D01*
X117130977Y-75495781D01*
X117258488Y-75313676D01*
X117260811Y-75308694D01*
X117260814Y-75308689D01*
X117350117Y-75117178D01*
X117350118Y-75117177D01*
X117352440Y-75112196D01*
X117409978Y-74897463D01*
X117429353Y-74676000D01*
X117409978Y-74454537D01*
X117352440Y-74239804D01*
X117350117Y-74234822D01*
X117260814Y-74043311D01*
X117260811Y-74043306D01*
X117258488Y-74038324D01*
X117130977Y-73856219D01*
X116973781Y-73699023D01*
X116969273Y-73695866D01*
X116969270Y-73695864D01*
X116893505Y-73642813D01*
X116791677Y-73571512D01*
X116786695Y-73569189D01*
X116786690Y-73569186D01*
X116595178Y-73479883D01*
X116595177Y-73479882D01*
X116590196Y-73477560D01*
X116584888Y-73476138D01*
X116584886Y-73476137D01*
X116519051Y-73458497D01*
X116375463Y-73420022D01*
X116154000Y-73400647D01*
X115932537Y-73420022D01*
X115788949Y-73458497D01*
X115723114Y-73476137D01*
X115723112Y-73476138D01*
X115717804Y-73477560D01*
X115712823Y-73479882D01*
X115712822Y-73479883D01*
X115521311Y-73569186D01*
X115521306Y-73569189D01*
X115516324Y-73571512D01*
X115511817Y-73574668D01*
X115511815Y-73574669D01*
X115338730Y-73695864D01*
X115338727Y-73695866D01*
X115334219Y-73699023D01*
X115177023Y-73856219D01*
X115049512Y-74038324D01*
X115047189Y-74043306D01*
X115047186Y-74043311D01*
X114957883Y-74234822D01*
X114955560Y-74239804D01*
X114898022Y-74454537D01*
X114878647Y-74676000D01*
X112500234Y-74676000D01*
X112367316Y-74543082D01*
X112333290Y-74480770D01*
X112330890Y-74464963D01*
X112330458Y-74460017D01*
X112330457Y-74460010D01*
X112329978Y-74454537D01*
X112328555Y-74449224D01*
X112273863Y-74245114D01*
X112273862Y-74245112D01*
X112272440Y-74239804D01*
X112270117Y-74234822D01*
X112180814Y-74043311D01*
X112180811Y-74043306D01*
X112178488Y-74038324D01*
X112050977Y-73856219D01*
X111893781Y-73699023D01*
X111889273Y-73695866D01*
X111889270Y-73695864D01*
X111813505Y-73642813D01*
X111711677Y-73571512D01*
X111706695Y-73569189D01*
X111706690Y-73569186D01*
X111515178Y-73479883D01*
X111515177Y-73479882D01*
X111510196Y-73477560D01*
X111504888Y-73476138D01*
X111504886Y-73476137D01*
X111439051Y-73458497D01*
X111295463Y-73420022D01*
X111074000Y-73400647D01*
X110852537Y-73420022D01*
X110708949Y-73458497D01*
X110643114Y-73476137D01*
X110643112Y-73476138D01*
X110637804Y-73477560D01*
X110632823Y-73479882D01*
X110632822Y-73479883D01*
X110441311Y-73569186D01*
X110441306Y-73569189D01*
X110436324Y-73571512D01*
X110431817Y-73574668D01*
X110431815Y-73574669D01*
X110258730Y-73695864D01*
X110258727Y-73695866D01*
X110254219Y-73699023D01*
X110097023Y-73856219D01*
X109969512Y-74038324D01*
X109967189Y-74043306D01*
X109967186Y-74043311D01*
X109877883Y-74234822D01*
X109875560Y-74239804D01*
X109818022Y-74454537D01*
X109798647Y-74676000D01*
X107269353Y-74676000D01*
X107249978Y-74454537D01*
X107192440Y-74239804D01*
X107190117Y-74234822D01*
X107100814Y-74043311D01*
X107100811Y-74043306D01*
X107098488Y-74038324D01*
X106970977Y-73856219D01*
X106813781Y-73699023D01*
X106809273Y-73695866D01*
X106809270Y-73695864D01*
X106733505Y-73642813D01*
X106631677Y-73571512D01*
X106626695Y-73569189D01*
X106626690Y-73569186D01*
X106435178Y-73479883D01*
X106435177Y-73479882D01*
X106430196Y-73477560D01*
X106424888Y-73476138D01*
X106424886Y-73476137D01*
X106359051Y-73458497D01*
X106215463Y-73420022D01*
X105994000Y-73400647D01*
X105772537Y-73420022D01*
X105628949Y-73458497D01*
X105563114Y-73476137D01*
X105563112Y-73476138D01*
X105557804Y-73477560D01*
X105552823Y-73479882D01*
X105552822Y-73479883D01*
X105361311Y-73569186D01*
X105361306Y-73569189D01*
X105356324Y-73571512D01*
X105351817Y-73574668D01*
X105351815Y-73574669D01*
X105178730Y-73695864D01*
X105178727Y-73695866D01*
X105174219Y-73699023D01*
X105017023Y-73856219D01*
X104889512Y-74038324D01*
X104887189Y-74043306D01*
X104887186Y-74043311D01*
X104797883Y-74234822D01*
X104795560Y-74239804D01*
X104794138Y-74245112D01*
X104794137Y-74245114D01*
X104739446Y-74449224D01*
X104738022Y-74454537D01*
X104737543Y-74460010D01*
X104737542Y-74460017D01*
X104737110Y-74464963D01*
X104711250Y-74531082D01*
X104700684Y-74543082D01*
X102279671Y-76964095D01*
X102217359Y-76998121D01*
X102190576Y-77001000D01*
X96031500Y-77001000D01*
X95963379Y-76980998D01*
X95916886Y-76927342D01*
X95905500Y-76875000D01*
X95905500Y-76861366D01*
X95898745Y-76799184D01*
X95847615Y-76662795D01*
X95760261Y-76546239D01*
X95643705Y-76458885D01*
X95507316Y-76407755D01*
X95445134Y-76401000D01*
X92548866Y-76401000D01*
X92486684Y-76407755D01*
X92350295Y-76458885D01*
X92233739Y-76546239D01*
X92146385Y-76662795D01*
X92095255Y-76799184D01*
X92088500Y-76861366D01*
X92088500Y-79157634D01*
X92095255Y-79219816D01*
X92146385Y-79356205D01*
X92233739Y-79472761D01*
X92350295Y-79560115D01*
X92366843Y-79566318D01*
X92423606Y-79608960D01*
X92448305Y-79675522D01*
X92433097Y-79744871D01*
X92382811Y-79794989D01*
X92322611Y-79810300D01*
X91507070Y-79810300D01*
X91488120Y-79808867D01*
X91473885Y-79806701D01*
X91473881Y-79806701D01*
X91466651Y-79805601D01*
X91459359Y-79806194D01*
X91459356Y-79806194D01*
X91413982Y-79809885D01*
X91403767Y-79810300D01*
X91395707Y-79810300D01*
X91392073Y-79810724D01*
X91392067Y-79810724D01*
X91379042Y-79812243D01*
X91367480Y-79813591D01*
X91363132Y-79814021D01*
X91290364Y-79819940D01*
X91283403Y-79822195D01*
X91277463Y-79823382D01*
X91271588Y-79824771D01*
X91264319Y-79825618D01*
X91195670Y-79850536D01*
X91191542Y-79851953D01*
X91129064Y-79872193D01*
X91129062Y-79872194D01*
X91122101Y-79874449D01*
X91115846Y-79878245D01*
X91110372Y-79880751D01*
X91104942Y-79883470D01*
X91098063Y-79885967D01*
X91091943Y-79889980D01*
X91091942Y-79889980D01*
X91037024Y-79925986D01*
X91033320Y-79928323D01*
X90970893Y-79966205D01*
X90962516Y-79973603D01*
X90962492Y-79973576D01*
X90959500Y-79976229D01*
X90956267Y-79978932D01*
X90950148Y-79982944D01*
X90920951Y-80013765D01*
X90896872Y-80039183D01*
X90894494Y-80041625D01*
X90462793Y-80473326D01*
X90453393Y-80481405D01*
X90445016Y-80488803D01*
X90444992Y-80488776D01*
X90442000Y-80491429D01*
X90438767Y-80494132D01*
X90432648Y-80498144D01*
X90403451Y-80528965D01*
X90379372Y-80554383D01*
X90376994Y-80556825D01*
X87469724Y-83464095D01*
X87407412Y-83498121D01*
X87380629Y-83501000D01*
X85148866Y-83501000D01*
X85086684Y-83507755D01*
X84950295Y-83558885D01*
X84833739Y-83646239D01*
X84746385Y-83762795D01*
X84695255Y-83899184D01*
X84688500Y-83961366D01*
X84688500Y-86857634D01*
X71247500Y-86857634D01*
X71247500Y-78740000D01*
X75206654Y-78740000D01*
X75206924Y-78744119D01*
X75225156Y-79022287D01*
X75226017Y-79035426D01*
X75226819Y-79039459D01*
X75226820Y-79039465D01*
X75282970Y-79321747D01*
X75283776Y-79325797D01*
X75285103Y-79329706D01*
X75285104Y-79329710D01*
X75377462Y-79601788D01*
X75378941Y-79606145D01*
X75386207Y-79620879D01*
X75506824Y-79865465D01*
X75509885Y-79871673D01*
X75528587Y-79899662D01*
X75653599Y-80086756D01*
X75674367Y-80117838D01*
X75677081Y-80120932D01*
X75677085Y-80120938D01*
X75866864Y-80337338D01*
X75869573Y-80340427D01*
X75872662Y-80343136D01*
X76089062Y-80532915D01*
X76089068Y-80532919D01*
X76092162Y-80535633D01*
X76095588Y-80537922D01*
X76095593Y-80537926D01*
X76159575Y-80580677D01*
X76338327Y-80700115D01*
X76342026Y-80701939D01*
X76342031Y-80701942D01*
X76478313Y-80769148D01*
X76603855Y-80831059D01*
X76607760Y-80832384D01*
X76607761Y-80832385D01*
X76880290Y-80924896D01*
X76880294Y-80924897D01*
X76884203Y-80926224D01*
X76888247Y-80927028D01*
X76888253Y-80927030D01*
X77170535Y-80983180D01*
X77170541Y-80983181D01*
X77174574Y-80983983D01*
X77178679Y-80984252D01*
X77178686Y-80984253D01*
X77465881Y-81003076D01*
X77470000Y-81003346D01*
X77474119Y-81003076D01*
X77761314Y-80984253D01*
X77761321Y-80984252D01*
X77765426Y-80983983D01*
X77769459Y-80983181D01*
X77769465Y-80983180D01*
X78051747Y-80927030D01*
X78051753Y-80927028D01*
X78055797Y-80926224D01*
X78059706Y-80924897D01*
X78059710Y-80924896D01*
X78332239Y-80832385D01*
X78332240Y-80832384D01*
X78336145Y-80831059D01*
X78461687Y-80769148D01*
X78597969Y-80701942D01*
X78597974Y-80701939D01*
X78601673Y-80700115D01*
X78780425Y-80580677D01*
X78844407Y-80537926D01*
X78844412Y-80537922D01*
X78847838Y-80535633D01*
X78850932Y-80532919D01*
X78850938Y-80532915D01*
X79067338Y-80343136D01*
X79070427Y-80340427D01*
X79073136Y-80337338D01*
X79262915Y-80120938D01*
X79262919Y-80120932D01*
X79265633Y-80117838D01*
X79286402Y-80086756D01*
X79411413Y-79899662D01*
X79430115Y-79871673D01*
X79433177Y-79865465D01*
X79553793Y-79620879D01*
X79561059Y-79606145D01*
X79562538Y-79601788D01*
X79654896Y-79329710D01*
X79654897Y-79329706D01*
X79656224Y-79325797D01*
X79657030Y-79321747D01*
X79713180Y-79039465D01*
X79713181Y-79039459D01*
X79713983Y-79035426D01*
X79714845Y-79022287D01*
X79733076Y-78744119D01*
X79733346Y-78740000D01*
X79719216Y-78524416D01*
X79714253Y-78448686D01*
X79714252Y-78448679D01*
X79713983Y-78444574D01*
X79703786Y-78393308D01*
X79657030Y-78158253D01*
X79657028Y-78158247D01*
X79656224Y-78154203D01*
X79638163Y-78100995D01*
X79562385Y-77877761D01*
X79562384Y-77877760D01*
X79561059Y-77873855D01*
X79483076Y-77715721D01*
X79431942Y-77612031D01*
X79431939Y-77612026D01*
X79430115Y-77608327D01*
X79295841Y-77407371D01*
X79267926Y-77365593D01*
X79267922Y-77365588D01*
X79265633Y-77362162D01*
X79262919Y-77359068D01*
X79262915Y-77359062D01*
X79083227Y-77154169D01*
X84689001Y-77154169D01*
X84689371Y-77160990D01*
X84694895Y-77211852D01*
X84698521Y-77227104D01*
X84743676Y-77347554D01*
X84752214Y-77363149D01*
X84828715Y-77465224D01*
X84841276Y-77477785D01*
X84943351Y-77554286D01*
X84958946Y-77562824D01*
X85079394Y-77607978D01*
X85094649Y-77611605D01*
X85145514Y-77617131D01*
X85152328Y-77617500D01*
X86324885Y-77617500D01*
X86340124Y-77613025D01*
X86341329Y-77611635D01*
X86343000Y-77603952D01*
X86343000Y-77599384D01*
X86851000Y-77599384D01*
X86855475Y-77614623D01*
X86856865Y-77615828D01*
X86864548Y-77617499D01*
X88041669Y-77617499D01*
X88048490Y-77617129D01*
X88099352Y-77611605D01*
X88114604Y-77607979D01*
X88235054Y-77562824D01*
X88250649Y-77554286D01*
X88352724Y-77477785D01*
X88365285Y-77465224D01*
X88441786Y-77363149D01*
X88450324Y-77347554D01*
X88495478Y-77227106D01*
X88499105Y-77211851D01*
X88504631Y-77160986D01*
X88505000Y-77154172D01*
X88505000Y-77045274D01*
X88935102Y-77045274D01*
X88943751Y-77275658D01*
X88991093Y-77501291D01*
X88993051Y-77506250D01*
X88993052Y-77506252D01*
X89055678Y-77664829D01*
X89075776Y-77715721D01*
X89195377Y-77912817D01*
X89198874Y-77916847D01*
X89340469Y-78080021D01*
X89346477Y-78086945D01*
X89350608Y-78090332D01*
X89520627Y-78229740D01*
X89520633Y-78229744D01*
X89524755Y-78233124D01*
X89529391Y-78235763D01*
X89529394Y-78235765D01*
X89638422Y-78297827D01*
X89725114Y-78347175D01*
X89941825Y-78425837D01*
X89947074Y-78426786D01*
X89947077Y-78426787D01*
X90164608Y-78466123D01*
X90164615Y-78466124D01*
X90168692Y-78466861D01*
X90186414Y-78467697D01*
X90191356Y-78467930D01*
X90191363Y-78467930D01*
X90192844Y-78468000D01*
X90354890Y-78468000D01*
X90421809Y-78462322D01*
X90521409Y-78453871D01*
X90521413Y-78453870D01*
X90526720Y-78453420D01*
X90531875Y-78452082D01*
X90531881Y-78452081D01*
X90744703Y-78396843D01*
X90744707Y-78396842D01*
X90749872Y-78395501D01*
X90754738Y-78393309D01*
X90754741Y-78393308D01*
X90901629Y-78327140D01*
X90960075Y-78300812D01*
X91151319Y-78172059D01*
X91165792Y-78158253D01*
X91314278Y-78016603D01*
X91318135Y-78012924D01*
X91455754Y-77827958D01*
X91560240Y-77622449D01*
X91561892Y-77617131D01*
X91627024Y-77407371D01*
X91628607Y-77402273D01*
X91629308Y-77396984D01*
X91658198Y-77179011D01*
X91658198Y-77179006D01*
X91658898Y-77173726D01*
X91650249Y-76943342D01*
X91602907Y-76717709D01*
X91581220Y-76662795D01*
X91520185Y-76508244D01*
X91520184Y-76508242D01*
X91518224Y-76503279D01*
X91513818Y-76496017D01*
X91401390Y-76310743D01*
X91398623Y-76306183D01*
X91311755Y-76206076D01*
X91251023Y-76136088D01*
X91251021Y-76136086D01*
X91247523Y-76132055D01*
X91205970Y-76097984D01*
X91073373Y-75989260D01*
X91073367Y-75989256D01*
X91069245Y-75985876D01*
X91064609Y-75983237D01*
X91064606Y-75983235D01*
X90873529Y-75874468D01*
X90868886Y-75871825D01*
X90652175Y-75793163D01*
X90646926Y-75792214D01*
X90646923Y-75792213D01*
X90429392Y-75752877D01*
X90429385Y-75752876D01*
X90425308Y-75752139D01*
X90407586Y-75751303D01*
X90402644Y-75751070D01*
X90402637Y-75751070D01*
X90401156Y-75751000D01*
X90239110Y-75751000D01*
X90172191Y-75756678D01*
X90072591Y-75765129D01*
X90072587Y-75765130D01*
X90067280Y-75765580D01*
X90062125Y-75766918D01*
X90062119Y-75766919D01*
X89849297Y-75822157D01*
X89849293Y-75822158D01*
X89844128Y-75823499D01*
X89839262Y-75825691D01*
X89839259Y-75825692D01*
X89692371Y-75891860D01*
X89633925Y-75918188D01*
X89442681Y-76046941D01*
X89275865Y-76206076D01*
X89272682Y-76210354D01*
X89223060Y-76277048D01*
X89138246Y-76391042D01*
X89135830Y-76395793D01*
X89135828Y-76395797D01*
X89094719Y-76476654D01*
X89033760Y-76596551D01*
X89032178Y-76601645D01*
X89032177Y-76601648D01*
X88973138Y-76791785D01*
X88965393Y-76816727D01*
X88964692Y-76822016D01*
X88941352Y-76998121D01*
X88935102Y-77045274D01*
X88505000Y-77045274D01*
X88505000Y-76281615D01*
X88500525Y-76266376D01*
X88499135Y-76265171D01*
X88491452Y-76263500D01*
X86869115Y-76263500D01*
X86853876Y-76267975D01*
X86852671Y-76269365D01*
X86851000Y-76277048D01*
X86851000Y-77599384D01*
X86343000Y-77599384D01*
X86343000Y-76281615D01*
X86338525Y-76266376D01*
X86337135Y-76265171D01*
X86329452Y-76263500D01*
X84707116Y-76263500D01*
X84691877Y-76267975D01*
X84690672Y-76269365D01*
X84689001Y-76277048D01*
X84689001Y-77154169D01*
X79083227Y-77154169D01*
X79073136Y-77142662D01*
X79070427Y-77139573D01*
X78956874Y-77039989D01*
X78850938Y-76947085D01*
X78850932Y-76947081D01*
X78847838Y-76944367D01*
X78844412Y-76942078D01*
X78844407Y-76942074D01*
X78630556Y-76799184D01*
X78601673Y-76779885D01*
X78597974Y-76778061D01*
X78597969Y-76778058D01*
X78461687Y-76710852D01*
X78336145Y-76648941D01*
X78167801Y-76591796D01*
X78059710Y-76555104D01*
X78059706Y-76555103D01*
X78055797Y-76553776D01*
X78051753Y-76552972D01*
X78051747Y-76552970D01*
X77769465Y-76496820D01*
X77769459Y-76496819D01*
X77765426Y-76496017D01*
X77761321Y-76495748D01*
X77761314Y-76495747D01*
X77474119Y-76476924D01*
X77470000Y-76476654D01*
X77465881Y-76476924D01*
X77178686Y-76495747D01*
X77178679Y-76495748D01*
X77174574Y-76496017D01*
X77170541Y-76496819D01*
X77170535Y-76496820D01*
X76888253Y-76552970D01*
X76888247Y-76552972D01*
X76884203Y-76553776D01*
X76880294Y-76555103D01*
X76880290Y-76555104D01*
X76772199Y-76591796D01*
X76603855Y-76648941D01*
X76478313Y-76710852D01*
X76342031Y-76778058D01*
X76342026Y-76778061D01*
X76338327Y-76779885D01*
X76309444Y-76799184D01*
X76095593Y-76942074D01*
X76095588Y-76942078D01*
X76092162Y-76944367D01*
X76089068Y-76947081D01*
X76089062Y-76947085D01*
X75983126Y-77039989D01*
X75869573Y-77139573D01*
X75866864Y-77142662D01*
X75677085Y-77359062D01*
X75677081Y-77359068D01*
X75674367Y-77362162D01*
X75672078Y-77365588D01*
X75672074Y-77365593D01*
X75644159Y-77407371D01*
X75509885Y-77608327D01*
X75508061Y-77612026D01*
X75508058Y-77612031D01*
X75456924Y-77715721D01*
X75378941Y-77873855D01*
X75377616Y-77877760D01*
X75377615Y-77877761D01*
X75301838Y-78100995D01*
X75283776Y-78154203D01*
X75282972Y-78158247D01*
X75282970Y-78158253D01*
X75236215Y-78393308D01*
X75226017Y-78444574D01*
X75225748Y-78448679D01*
X75225747Y-78448686D01*
X75220784Y-78524416D01*
X75206654Y-78740000D01*
X71247500Y-78740000D01*
X71247500Y-75737385D01*
X84689000Y-75737385D01*
X84693475Y-75752624D01*
X84694865Y-75753829D01*
X84702548Y-75755500D01*
X86324885Y-75755500D01*
X86340124Y-75751025D01*
X86341329Y-75749635D01*
X86343000Y-75741952D01*
X86343000Y-75737385D01*
X86851000Y-75737385D01*
X86855475Y-75752624D01*
X86856865Y-75753829D01*
X86864548Y-75755500D01*
X88486884Y-75755500D01*
X88502123Y-75751025D01*
X88503328Y-75749635D01*
X88504999Y-75741952D01*
X88504999Y-74864831D01*
X88504629Y-74858010D01*
X88499105Y-74807148D01*
X88495479Y-74791896D01*
X88452031Y-74676000D01*
X97098647Y-74676000D01*
X97118022Y-74897463D01*
X97175560Y-75112196D01*
X97177882Y-75117177D01*
X97177883Y-75117178D01*
X97267186Y-75308689D01*
X97267189Y-75308694D01*
X97269512Y-75313676D01*
X97397023Y-75495781D01*
X97554219Y-75652977D01*
X97558727Y-75656134D01*
X97558730Y-75656136D01*
X97634495Y-75709187D01*
X97736323Y-75780488D01*
X97741305Y-75782811D01*
X97741310Y-75782814D01*
X97932196Y-75871825D01*
X97937804Y-75874440D01*
X97943112Y-75875862D01*
X97943114Y-75875863D01*
X98008949Y-75893503D01*
X98152537Y-75931978D01*
X98374000Y-75951353D01*
X98595463Y-75931978D01*
X98739051Y-75893503D01*
X98804886Y-75875863D01*
X98804888Y-75875862D01*
X98810196Y-75874440D01*
X98815804Y-75871825D01*
X99006690Y-75782814D01*
X99006695Y-75782811D01*
X99011677Y-75780488D01*
X99113505Y-75709187D01*
X99189270Y-75656136D01*
X99189273Y-75656134D01*
X99193781Y-75652977D01*
X99350977Y-75495781D01*
X99478488Y-75313676D01*
X99480811Y-75308694D01*
X99480814Y-75308689D01*
X99570117Y-75117178D01*
X99570118Y-75117177D01*
X99572440Y-75112196D01*
X99629978Y-74897463D01*
X99649353Y-74676000D01*
X99629978Y-74454537D01*
X99572440Y-74239804D01*
X99570117Y-74234822D01*
X99480814Y-74043311D01*
X99480811Y-74043306D01*
X99478488Y-74038324D01*
X99350977Y-73856219D01*
X99193781Y-73699023D01*
X99189273Y-73695866D01*
X99189270Y-73695864D01*
X99113505Y-73642813D01*
X99011677Y-73571512D01*
X99006695Y-73569189D01*
X99006690Y-73569186D01*
X98815178Y-73479883D01*
X98815177Y-73479882D01*
X98810196Y-73477560D01*
X98804888Y-73476138D01*
X98804886Y-73476137D01*
X98739051Y-73458497D01*
X98595463Y-73420022D01*
X98374000Y-73400647D01*
X98152537Y-73420022D01*
X98008949Y-73458497D01*
X97943114Y-73476137D01*
X97943112Y-73476138D01*
X97937804Y-73477560D01*
X97932823Y-73479882D01*
X97932822Y-73479883D01*
X97741311Y-73569186D01*
X97741306Y-73569189D01*
X97736324Y-73571512D01*
X97731817Y-73574668D01*
X97731815Y-73574669D01*
X97558730Y-73695864D01*
X97558727Y-73695866D01*
X97554219Y-73699023D01*
X97397023Y-73856219D01*
X97269512Y-74038324D01*
X97267189Y-74043306D01*
X97267186Y-74043311D01*
X97177883Y-74234822D01*
X97175560Y-74239804D01*
X97118022Y-74454537D01*
X97098647Y-74676000D01*
X88452031Y-74676000D01*
X88450324Y-74671446D01*
X88441786Y-74655851D01*
X88365285Y-74553776D01*
X88352724Y-74541215D01*
X88250649Y-74464714D01*
X88235054Y-74456176D01*
X88114606Y-74411022D01*
X88099351Y-74407395D01*
X88048486Y-74401869D01*
X88041672Y-74401500D01*
X86869115Y-74401500D01*
X86853876Y-74405975D01*
X86852671Y-74407365D01*
X86851000Y-74415048D01*
X86851000Y-75737385D01*
X86343000Y-75737385D01*
X86343000Y-74419616D01*
X86338525Y-74404377D01*
X86337135Y-74403172D01*
X86329452Y-74401501D01*
X85152331Y-74401501D01*
X85145510Y-74401871D01*
X85094648Y-74407395D01*
X85079396Y-74411021D01*
X84958946Y-74456176D01*
X84943351Y-74464714D01*
X84841276Y-74541215D01*
X84828715Y-74553776D01*
X84752214Y-74655851D01*
X84743676Y-74671446D01*
X84698522Y-74791894D01*
X84694895Y-74807149D01*
X84689369Y-74858014D01*
X84689000Y-74864828D01*
X84689000Y-75737385D01*
X71247500Y-75737385D01*
X71247500Y-73024500D01*
X71267502Y-72956379D01*
X71321158Y-72909886D01*
X71373500Y-72898500D01*
X142875500Y-72898500D01*
X142943621Y-72918502D01*
G37*
G04 #@! TD.AperFunction*
G04 #@! TA.AperFunction,Conductor*
G36*
X107478381Y-90214202D02*
G01*
X107524874Y-90267858D01*
X107536260Y-90320200D01*
X107536260Y-90481640D01*
X107536597Y-90484886D01*
X107536597Y-90484890D01*
X107544959Y-90565476D01*
X107547234Y-90587406D01*
X107549415Y-90593942D01*
X107549415Y-90593944D01*
X107581709Y-90690740D01*
X107603210Y-90755186D01*
X107696282Y-90905588D01*
X107821457Y-91030545D01*
X107827687Y-91034385D01*
X107827688Y-91034386D01*
X107964850Y-91118934D01*
X107972022Y-91123355D01*
X107979873Y-91125959D01*
X108133371Y-91176872D01*
X108133373Y-91176872D01*
X108139899Y-91179037D01*
X108146735Y-91179737D01*
X108146738Y-91179738D01*
X108189791Y-91184149D01*
X108244360Y-91189740D01*
X109145160Y-91189740D01*
X109148406Y-91189403D01*
X109148410Y-91189403D01*
X109244068Y-91179478D01*
X109244072Y-91179477D01*
X109250926Y-91178766D01*
X109257462Y-91176585D01*
X109257464Y-91176585D01*
X109409207Y-91125959D01*
X109418706Y-91122790D01*
X109569108Y-91029718D01*
X109694065Y-90904543D01*
X109710830Y-90877346D01*
X109765482Y-90788684D01*
X109818255Y-90741190D01*
X109872742Y-90728800D01*
X110616680Y-90728800D01*
X110684801Y-90748802D01*
X110723823Y-90788496D01*
X110796282Y-90905588D01*
X110921457Y-91030545D01*
X110927687Y-91034385D01*
X110927688Y-91034386D01*
X111064850Y-91118934D01*
X111072022Y-91123355D01*
X111079873Y-91125959D01*
X111233371Y-91176872D01*
X111233373Y-91176872D01*
X111239899Y-91179037D01*
X111246735Y-91179737D01*
X111246738Y-91179738D01*
X111289791Y-91184149D01*
X111344360Y-91189740D01*
X112245160Y-91189740D01*
X112248406Y-91189403D01*
X112248410Y-91189403D01*
X112344068Y-91179478D01*
X112344072Y-91179477D01*
X112350926Y-91178766D01*
X112357462Y-91176585D01*
X112357464Y-91176585D01*
X112509207Y-91125959D01*
X112518706Y-91122790D01*
X112669108Y-91029718D01*
X112737596Y-90961111D01*
X113656216Y-90961111D01*
X113696867Y-91101030D01*
X113703112Y-91115461D01*
X113779671Y-91244918D01*
X113789311Y-91257344D01*
X113895656Y-91363689D01*
X113908082Y-91373329D01*
X114037539Y-91449888D01*
X114051970Y-91456133D01*
X114197825Y-91498509D01*
X114210427Y-91500810D01*
X114238844Y-91503047D01*
X114243774Y-91503240D01*
X114623145Y-91503240D01*
X114638384Y-91498765D01*
X114639589Y-91497375D01*
X114641260Y-91489692D01*
X114641260Y-90967355D01*
X114636785Y-90952116D01*
X114635395Y-90950911D01*
X114627712Y-90949240D01*
X113670882Y-90949240D01*
X113657351Y-90953213D01*
X113656216Y-90961111D01*
X112737596Y-90961111D01*
X112794065Y-90904543D01*
X112810830Y-90877346D01*
X112883035Y-90760208D01*
X112883036Y-90760206D01*
X112886875Y-90753978D01*
X112921007Y-90651073D01*
X112961438Y-90592713D01*
X113027002Y-90565476D01*
X113040600Y-90564740D01*
X115023260Y-90564740D01*
X115091381Y-90584742D01*
X115137874Y-90638398D01*
X115149260Y-90690740D01*
X115149260Y-91485124D01*
X115153735Y-91500363D01*
X115155125Y-91501568D01*
X115162808Y-91503239D01*
X115398260Y-91503239D01*
X115466381Y-91523241D01*
X115512874Y-91576897D01*
X115524260Y-91629239D01*
X115524260Y-91861742D01*
X115524453Y-91864190D01*
X115524453Y-91864198D01*
X115526480Y-91889944D01*
X115527198Y-91899071D01*
X115546967Y-91967116D01*
X115561966Y-92018743D01*
X115573615Y-92058841D01*
X115577652Y-92065667D01*
X115654269Y-92195220D01*
X115654271Y-92195223D01*
X115658307Y-92202047D01*
X115775953Y-92319693D01*
X115782777Y-92323729D01*
X115782780Y-92323731D01*
X115838868Y-92356901D01*
X115919159Y-92404385D01*
X115926770Y-92406596D01*
X115926772Y-92406597D01*
X115978991Y-92421768D01*
X116078929Y-92450802D01*
X116085334Y-92451306D01*
X116085339Y-92451307D01*
X116113802Y-92453547D01*
X116113810Y-92453547D01*
X116116258Y-92453740D01*
X116664119Y-92453740D01*
X116694067Y-92457351D01*
X116701178Y-92459091D01*
X116741870Y-92469048D01*
X116747472Y-92469396D01*
X116747475Y-92469396D01*
X116753024Y-92469740D01*
X116753022Y-92469776D01*
X116757015Y-92470015D01*
X116761207Y-92470389D01*
X116768375Y-92471880D01*
X116845780Y-92469786D01*
X116849188Y-92469740D01*
X117244389Y-92469740D01*
X117312510Y-92489742D01*
X117333484Y-92506645D01*
X117603355Y-92776516D01*
X117637381Y-92838828D01*
X117640260Y-92865611D01*
X117640260Y-93012871D01*
X117620258Y-93080992D01*
X117580567Y-93120012D01*
X117524412Y-93154762D01*
X117399455Y-93279937D01*
X117395615Y-93286167D01*
X117395614Y-93286168D01*
X117317978Y-93412116D01*
X117265205Y-93459610D01*
X117210718Y-93472000D01*
X116486940Y-93472000D01*
X116418819Y-93451998D01*
X116379796Y-93412303D01*
X116301092Y-93285120D01*
X116297238Y-93278892D01*
X116172063Y-93153935D01*
X116137541Y-93132655D01*
X116027728Y-93064965D01*
X116027726Y-93064964D01*
X116021498Y-93061125D01*
X115927990Y-93030110D01*
X115860149Y-93007608D01*
X115860147Y-93007608D01*
X115853621Y-93005443D01*
X115846785Y-93004743D01*
X115846782Y-93004742D01*
X115803729Y-93000331D01*
X115749160Y-92994740D01*
X114848360Y-92994740D01*
X114845114Y-92995077D01*
X114845110Y-92995077D01*
X114749452Y-93005002D01*
X114749448Y-93005003D01*
X114742594Y-93005714D01*
X114736058Y-93007895D01*
X114736056Y-93007895D01*
X114657694Y-93034039D01*
X114574814Y-93061690D01*
X114424412Y-93154762D01*
X114299455Y-93279937D01*
X114295615Y-93286167D01*
X114295614Y-93286168D01*
X114254779Y-93352415D01*
X114202007Y-93399908D01*
X114131935Y-93411332D01*
X114087590Y-93397135D01*
X113999076Y-93349276D01*
X113939461Y-93317042D01*
X113750528Y-93258558D01*
X113744403Y-93257914D01*
X113744402Y-93257914D01*
X113559964Y-93238529D01*
X113559962Y-93238529D01*
X113553835Y-93237885D01*
X113356872Y-93255810D01*
X113355307Y-93256271D01*
X113286210Y-93249541D01*
X113230486Y-93205549D01*
X113207260Y-93132655D01*
X113207260Y-92432840D01*
X113206731Y-92427740D01*
X113196998Y-92333932D01*
X113196997Y-92333928D01*
X113196286Y-92327074D01*
X113193824Y-92319693D01*
X113142628Y-92166242D01*
X113140310Y-92159294D01*
X113047238Y-92008892D01*
X112922063Y-91883935D01*
X112886900Y-91862260D01*
X112777728Y-91794965D01*
X112777726Y-91794964D01*
X112771498Y-91791125D01*
X112659364Y-91753932D01*
X112610149Y-91737608D01*
X112610147Y-91737608D01*
X112603621Y-91735443D01*
X112596785Y-91734743D01*
X112596782Y-91734742D01*
X112553729Y-91730331D01*
X112499160Y-91724740D01*
X111598360Y-91724740D01*
X111595114Y-91725077D01*
X111595110Y-91725077D01*
X111499452Y-91735002D01*
X111499448Y-91735003D01*
X111492594Y-91735714D01*
X111486058Y-91737895D01*
X111486056Y-91737895D01*
X111437988Y-91753932D01*
X111324814Y-91791690D01*
X111174412Y-91884762D01*
X111049455Y-92009937D01*
X111045615Y-92016167D01*
X111045614Y-92016168D01*
X110967978Y-92142116D01*
X110915205Y-92189610D01*
X110860718Y-92202000D01*
X110136940Y-92202000D01*
X110068819Y-92181998D01*
X110029796Y-92142303D01*
X109951092Y-92015120D01*
X109947238Y-92008892D01*
X109822063Y-91883935D01*
X109786900Y-91862260D01*
X109677728Y-91794965D01*
X109677726Y-91794964D01*
X109671498Y-91791125D01*
X109559364Y-91753932D01*
X109510149Y-91737608D01*
X109510147Y-91737608D01*
X109503621Y-91735443D01*
X109496785Y-91734743D01*
X109496782Y-91734742D01*
X109453729Y-91730331D01*
X109399160Y-91724740D01*
X108498360Y-91724740D01*
X108495114Y-91725077D01*
X108495110Y-91725077D01*
X108399452Y-91735002D01*
X108399448Y-91735003D01*
X108392594Y-91735714D01*
X108386058Y-91737895D01*
X108386056Y-91737895D01*
X108337988Y-91753932D01*
X108224814Y-91791690D01*
X108074412Y-91884762D01*
X107949455Y-92009937D01*
X107945615Y-92016167D01*
X107945614Y-92016168D01*
X107861743Y-92152232D01*
X107856645Y-92160502D01*
X107841618Y-92205808D01*
X107822513Y-92263407D01*
X107782082Y-92321767D01*
X107716518Y-92349004D01*
X107702920Y-92349740D01*
X106466001Y-92349740D01*
X106397880Y-92329738D01*
X106351387Y-92276082D01*
X106341283Y-92205808D01*
X106350364Y-92173699D01*
X106358893Y-92153990D01*
X106401269Y-92008135D01*
X106403570Y-91995533D01*
X106405807Y-91967116D01*
X106406000Y-91962186D01*
X106406000Y-91582815D01*
X106401525Y-91567576D01*
X106400135Y-91566371D01*
X106392452Y-91564700D01*
X105470000Y-91564700D01*
X105401879Y-91544698D01*
X105355386Y-91491042D01*
X105344000Y-91438700D01*
X105344000Y-91182700D01*
X105364002Y-91114579D01*
X105417658Y-91068086D01*
X105470000Y-91056700D01*
X106387884Y-91056700D01*
X106403123Y-91052225D01*
X106404328Y-91050835D01*
X106405999Y-91043152D01*
X106405999Y-90659217D01*
X106405805Y-90654280D01*
X106403570Y-90625864D01*
X106401270Y-90613269D01*
X106358893Y-90467410D01*
X106352648Y-90452979D01*
X106312055Y-90384339D01*
X106294596Y-90315522D01*
X106317113Y-90248191D01*
X106372458Y-90203722D01*
X106420509Y-90194200D01*
X107410260Y-90194200D01*
X107478381Y-90214202D01*
G37*
G04 #@! TD.AperFunction*
M02*
