G04 #@! TF.GenerationSoftware,KiCad,Pcbnew,6.0.9-8da3e8f707~116~ubuntu20.04.1*
G04 #@! TF.CreationDate,2022-11-10T07:19:39-05:00*
G04 #@! TF.ProjectId,audiomute,61756469-6f6d-4757-9465-2e6b69636164,rev?*
G04 #@! TF.SameCoordinates,Original*
G04 #@! TF.FileFunction,Legend,Top*
G04 #@! TF.FilePolarity,Positive*
%FSLAX46Y46*%
G04 Gerber Fmt 4.6, Leading zero omitted, Abs format (unit mm)*
G04 Created by KiCad (PCBNEW 6.0.9-8da3e8f707~116~ubuntu20.04.1) date 2022-11-10 07:19:39*
%MOMM*%
%LPD*%
G01*
G04 APERTURE LIST*
%ADD10C,0.150000*%
%ADD11C,0.127000*%
%ADD12C,0.120000*%
%ADD13C,0.100000*%
G04 APERTURE END LIST*
D10*
X120579000Y-100592000D02*
X120483761Y-100544380D01*
X120340904Y-100544380D01*
X120198047Y-100592000D01*
X120102809Y-100687238D01*
X120055190Y-100782476D01*
X120007571Y-100972952D01*
X120007571Y-101115809D01*
X120055190Y-101306285D01*
X120102809Y-101401523D01*
X120198047Y-101496761D01*
X120340904Y-101544380D01*
X120436142Y-101544380D01*
X120579000Y-101496761D01*
X120626619Y-101449142D01*
X120626619Y-101115809D01*
X120436142Y-101115809D01*
X121626619Y-101544380D02*
X121293285Y-101068190D01*
X121055190Y-101544380D02*
X121055190Y-100544380D01*
X121436142Y-100544380D01*
X121531380Y-100592000D01*
X121579000Y-100639619D01*
X121626619Y-100734857D01*
X121626619Y-100877714D01*
X121579000Y-100972952D01*
X121531380Y-101020571D01*
X121436142Y-101068190D01*
X121055190Y-101068190D01*
X122055190Y-101020571D02*
X122388523Y-101020571D01*
X122531380Y-101544380D02*
X122055190Y-101544380D01*
X122055190Y-100544380D01*
X122531380Y-100544380D01*
X123483761Y-100592000D02*
X123388523Y-100544380D01*
X123245666Y-100544380D01*
X123102809Y-100592000D01*
X123007571Y-100687238D01*
X122959952Y-100782476D01*
X122912333Y-100972952D01*
X122912333Y-101115809D01*
X122959952Y-101306285D01*
X123007571Y-101401523D01*
X123102809Y-101496761D01*
X123245666Y-101544380D01*
X123340904Y-101544380D01*
X123483761Y-101496761D01*
X123531380Y-101449142D01*
X123531380Y-101115809D01*
X123340904Y-101115809D01*
X124721857Y-101544380D02*
X124721857Y-100544380D01*
X125293285Y-101544380D02*
X124864714Y-100972952D01*
X125293285Y-100544380D02*
X124721857Y-101115809D01*
X126055190Y-101020571D02*
X125721857Y-101020571D01*
X125721857Y-101544380D02*
X125721857Y-100544380D01*
X126198047Y-100544380D01*
X127055190Y-100544380D02*
X126579000Y-100544380D01*
X126531380Y-101020571D01*
X126579000Y-100972952D01*
X126674238Y-100925333D01*
X126912333Y-100925333D01*
X127007571Y-100972952D01*
X127055190Y-101020571D01*
X127102809Y-101115809D01*
X127102809Y-101353904D01*
X127055190Y-101449142D01*
X127007571Y-101496761D01*
X126912333Y-101544380D01*
X126674238Y-101544380D01*
X126579000Y-101496761D01*
X126531380Y-101449142D01*
X127531380Y-101544380D02*
X127531380Y-100544380D01*
X128102809Y-101544380D01*
X128102809Y-100544380D01*
X81829352Y-104084380D02*
X81257923Y-104084380D01*
X81543638Y-104084380D02*
X81543638Y-103084380D01*
X81448400Y-103227238D01*
X81353161Y-103322476D01*
X81257923Y-103370095D01*
X82210304Y-103179619D02*
X82257923Y-103132000D01*
X82353161Y-103084380D01*
X82591257Y-103084380D01*
X82686495Y-103132000D01*
X82734114Y-103179619D01*
X82781733Y-103274857D01*
X82781733Y-103370095D01*
X82734114Y-103512952D01*
X82162685Y-104084380D01*
X82781733Y-104084380D01*
X83067447Y-103084380D02*
X83400780Y-104084380D01*
X83734114Y-103084380D01*
X100647523Y-106081580D02*
X100171333Y-106081580D01*
X100123714Y-106557771D01*
X100171333Y-106510152D01*
X100266571Y-106462533D01*
X100504666Y-106462533D01*
X100599904Y-106510152D01*
X100647523Y-106557771D01*
X100695142Y-106653009D01*
X100695142Y-106891104D01*
X100647523Y-106986342D01*
X100599904Y-107033961D01*
X100504666Y-107081580D01*
X100266571Y-107081580D01*
X100171333Y-107033961D01*
X100123714Y-106986342D01*
X100980857Y-106081580D02*
X101314190Y-107081580D01*
X101647523Y-106081580D01*
X118174238Y-99480666D02*
X118650428Y-99480666D01*
X118079000Y-99766380D02*
X118412333Y-98766380D01*
X118745666Y-99766380D01*
X119079000Y-98766380D02*
X119079000Y-99575904D01*
X119126619Y-99671142D01*
X119174238Y-99718761D01*
X119269476Y-99766380D01*
X119459952Y-99766380D01*
X119555190Y-99718761D01*
X119602809Y-99671142D01*
X119650428Y-99575904D01*
X119650428Y-98766380D01*
X120126619Y-99766380D02*
X120126619Y-98766380D01*
X120364714Y-98766380D01*
X120507571Y-98814000D01*
X120602809Y-98909238D01*
X120650428Y-99004476D01*
X120698047Y-99194952D01*
X120698047Y-99337809D01*
X120650428Y-99528285D01*
X120602809Y-99623523D01*
X120507571Y-99718761D01*
X120364714Y-99766380D01*
X120126619Y-99766380D01*
X121126619Y-99766380D02*
X121126619Y-98766380D01*
X121793285Y-98766380D02*
X121983761Y-98766380D01*
X122079000Y-98814000D01*
X122174238Y-98909238D01*
X122221857Y-99099714D01*
X122221857Y-99433047D01*
X122174238Y-99623523D01*
X122079000Y-99718761D01*
X121983761Y-99766380D01*
X121793285Y-99766380D01*
X121698047Y-99718761D01*
X121602809Y-99623523D01*
X121555190Y-99433047D01*
X121555190Y-99099714D01*
X121602809Y-98909238D01*
X121698047Y-98814000D01*
X121793285Y-98766380D01*
X123412333Y-99766380D02*
X123412333Y-98766380D01*
X123745666Y-99480666D01*
X124079000Y-98766380D01*
X124079000Y-99766380D01*
X124555190Y-98766380D02*
X124555190Y-99575904D01*
X124602809Y-99671142D01*
X124650428Y-99718761D01*
X124745666Y-99766380D01*
X124936142Y-99766380D01*
X125031380Y-99718761D01*
X125079000Y-99671142D01*
X125126619Y-99575904D01*
X125126619Y-98766380D01*
X125459952Y-98766380D02*
X126031380Y-98766380D01*
X125745666Y-99766380D02*
X125745666Y-98766380D01*
X126364714Y-99242571D02*
X126698047Y-99242571D01*
X126840904Y-99766380D02*
X126364714Y-99766380D01*
X126364714Y-98766380D01*
X126840904Y-98766380D01*
X128555190Y-99766380D02*
X127983761Y-99766380D01*
X128269476Y-99766380D02*
X128269476Y-98766380D01*
X128174238Y-98909238D01*
X128079000Y-99004476D01*
X127983761Y-99052095D01*
X128983761Y-99671142D02*
X129031380Y-99718761D01*
X128983761Y-99766380D01*
X128936142Y-99718761D01*
X128983761Y-99671142D01*
X128983761Y-99766380D01*
X129650428Y-98766380D02*
X129745666Y-98766380D01*
X129840904Y-98814000D01*
X129888523Y-98861619D01*
X129936142Y-98956857D01*
X129983761Y-99147333D01*
X129983761Y-99385428D01*
X129936142Y-99575904D01*
X129888523Y-99671142D01*
X129840904Y-99718761D01*
X129745666Y-99766380D01*
X129650428Y-99766380D01*
X129555190Y-99718761D01*
X129507571Y-99671142D01*
X129459952Y-99575904D01*
X129412333Y-99385428D01*
X129412333Y-99147333D01*
X129459952Y-98956857D01*
X129507571Y-98861619D01*
X129555190Y-98814000D01*
X129650428Y-98766380D01*
X83181302Y-80375853D02*
X83181302Y-81091348D01*
X83133602Y-81234447D01*
X83038203Y-81329847D01*
X82895104Y-81377546D01*
X82799705Y-81377546D01*
X84182995Y-81377546D02*
X83610599Y-81377546D01*
X83896797Y-81377546D02*
X83896797Y-80375853D01*
X83801398Y-80518952D01*
X83705998Y-80614352D01*
X83610599Y-80662051D01*
X130577702Y-80731453D02*
X130577702Y-81446948D01*
X130530002Y-81590047D01*
X130434603Y-81685447D01*
X130291504Y-81733146D01*
X130196105Y-81733146D01*
X131483996Y-81065351D02*
X131483996Y-81733146D01*
X131245497Y-80683754D02*
X131006999Y-81399249D01*
X131627095Y-81399249D01*
X115301733Y-99563180D02*
X114968400Y-99086990D01*
X114730304Y-99563180D02*
X114730304Y-98563180D01*
X115111257Y-98563180D01*
X115206495Y-98610800D01*
X115254114Y-98658419D01*
X115301733Y-98753657D01*
X115301733Y-98896514D01*
X115254114Y-98991752D01*
X115206495Y-99039371D01*
X115111257Y-99086990D01*
X114730304Y-99086990D01*
X115682685Y-98658419D02*
X115730304Y-98610800D01*
X115825542Y-98563180D01*
X116063638Y-98563180D01*
X116158876Y-98610800D01*
X116206495Y-98658419D01*
X116254114Y-98753657D01*
X116254114Y-98848895D01*
X116206495Y-98991752D01*
X115635066Y-99563180D01*
X116254114Y-99563180D01*
X113501561Y-103830380D02*
X112930133Y-103830380D01*
X113215847Y-103830380D02*
X113215847Y-102830380D01*
X113120609Y-102973238D01*
X113025371Y-103068476D01*
X112930133Y-103116095D01*
X114120609Y-102830380D02*
X114215847Y-102830380D01*
X114311085Y-102878000D01*
X114358704Y-102925619D01*
X114406323Y-103020857D01*
X114453942Y-103211333D01*
X114453942Y-103449428D01*
X114406323Y-103639904D01*
X114358704Y-103735142D01*
X114311085Y-103782761D01*
X114215847Y-103830380D01*
X114120609Y-103830380D01*
X114025371Y-103782761D01*
X113977752Y-103735142D01*
X113930133Y-103639904D01*
X113882514Y-103449428D01*
X113882514Y-103211333D01*
X113930133Y-103020857D01*
X113977752Y-102925619D01*
X114025371Y-102878000D01*
X114120609Y-102830380D01*
X114882514Y-103830380D02*
X114882514Y-102830380D01*
X114977752Y-103449428D02*
X115263466Y-103830380D01*
X115263466Y-103163714D02*
X114882514Y-103544666D01*
X108802419Y-97377238D02*
X108754800Y-97472476D01*
X108659561Y-97567714D01*
X108516704Y-97710571D01*
X108469085Y-97805809D01*
X108469085Y-97901047D01*
X108707180Y-97853428D02*
X108659561Y-97948666D01*
X108564323Y-98043904D01*
X108373847Y-98091523D01*
X108040514Y-98091523D01*
X107850038Y-98043904D01*
X107754800Y-97948666D01*
X107707180Y-97853428D01*
X107707180Y-97662952D01*
X107754800Y-97567714D01*
X107850038Y-97472476D01*
X108040514Y-97424857D01*
X108373847Y-97424857D01*
X108564323Y-97472476D01*
X108659561Y-97567714D01*
X108707180Y-97662952D01*
X108707180Y-97853428D01*
X108707180Y-96472476D02*
X108707180Y-97043904D01*
X108707180Y-96758190D02*
X107707180Y-96758190D01*
X107850038Y-96853428D01*
X107945276Y-96948666D01*
X107992895Y-97043904D01*
X113685580Y-98997923D02*
X112685580Y-98997923D01*
X113685580Y-98426495D01*
X112685580Y-98426495D01*
X113685580Y-97950304D02*
X112685580Y-97950304D01*
X112685580Y-97569352D01*
X112733200Y-97474114D01*
X112780819Y-97426495D01*
X112876057Y-97378876D01*
X113018914Y-97378876D01*
X113114152Y-97426495D01*
X113161771Y-97474114D01*
X113209390Y-97569352D01*
X113209390Y-97950304D01*
X113685580Y-96950304D02*
X112685580Y-96950304D01*
X113685580Y-96378876D01*
X112685580Y-96378876D01*
X102673161Y-88228419D02*
X102577923Y-88180800D01*
X102482685Y-88085561D01*
X102339828Y-87942704D01*
X102244590Y-87895085D01*
X102149352Y-87895085D01*
X102196971Y-88133180D02*
X102101733Y-88085561D01*
X102006495Y-87990323D01*
X101958876Y-87799847D01*
X101958876Y-87466514D01*
X102006495Y-87276038D01*
X102101733Y-87180800D01*
X102196971Y-87133180D01*
X102387447Y-87133180D01*
X102482685Y-87180800D01*
X102577923Y-87276038D01*
X102625542Y-87466514D01*
X102625542Y-87799847D01*
X102577923Y-87990323D01*
X102482685Y-88085561D01*
X102387447Y-88133180D01*
X102196971Y-88133180D01*
X102958876Y-87133180D02*
X103577923Y-87133180D01*
X103244590Y-87514133D01*
X103387447Y-87514133D01*
X103482685Y-87561752D01*
X103530304Y-87609371D01*
X103577923Y-87704609D01*
X103577923Y-87942704D01*
X103530304Y-88037942D01*
X103482685Y-88085561D01*
X103387447Y-88133180D01*
X103101733Y-88133180D01*
X103006495Y-88085561D01*
X102958876Y-88037942D01*
X104252876Y-88133180D02*
X104252876Y-87133180D01*
X104824304Y-88133180D01*
X104824304Y-87133180D01*
X105300495Y-88133180D02*
X105300495Y-87133180D01*
X105681447Y-87133180D01*
X105776685Y-87180800D01*
X105824304Y-87228419D01*
X105871923Y-87323657D01*
X105871923Y-87466514D01*
X105824304Y-87561752D01*
X105776685Y-87609371D01*
X105681447Y-87656990D01*
X105300495Y-87656990D01*
X106300495Y-88133180D02*
X106300495Y-87133180D01*
X106871923Y-88133180D01*
X106871923Y-87133180D01*
X107681733Y-106986342D02*
X107634114Y-107033961D01*
X107491257Y-107081580D01*
X107396019Y-107081580D01*
X107253161Y-107033961D01*
X107157923Y-106938723D01*
X107110304Y-106843485D01*
X107062685Y-106653009D01*
X107062685Y-106510152D01*
X107110304Y-106319676D01*
X107157923Y-106224438D01*
X107253161Y-106129200D01*
X107396019Y-106081580D01*
X107491257Y-106081580D01*
X107634114Y-106129200D01*
X107681733Y-106176819D01*
X108062685Y-106176819D02*
X108110304Y-106129200D01*
X108205542Y-106081580D01*
X108443638Y-106081580D01*
X108538876Y-106129200D01*
X108586495Y-106176819D01*
X108634114Y-106272057D01*
X108634114Y-106367295D01*
X108586495Y-106510152D01*
X108015066Y-107081580D01*
X108634114Y-107081580D01*
X110066342Y-106081580D02*
X110161580Y-106081580D01*
X110256819Y-106129200D01*
X110304438Y-106176819D01*
X110352057Y-106272057D01*
X110399676Y-106462533D01*
X110399676Y-106700628D01*
X110352057Y-106891104D01*
X110304438Y-106986342D01*
X110256819Y-107033961D01*
X110161580Y-107081580D01*
X110066342Y-107081580D01*
X109971104Y-107033961D01*
X109923485Y-106986342D01*
X109875866Y-106891104D01*
X109828247Y-106700628D01*
X109828247Y-106462533D01*
X109875866Y-106272057D01*
X109923485Y-106176819D01*
X109971104Y-106129200D01*
X110066342Y-106081580D01*
X110828247Y-106986342D02*
X110875866Y-107033961D01*
X110828247Y-107081580D01*
X110780628Y-107033961D01*
X110828247Y-106986342D01*
X110828247Y-107081580D01*
X111828247Y-107081580D02*
X111256819Y-107081580D01*
X111542533Y-107081580D02*
X111542533Y-106081580D01*
X111447295Y-106224438D01*
X111352057Y-106319676D01*
X111256819Y-106367295D01*
X112685390Y-106414914D02*
X112685390Y-107081580D01*
X112256819Y-106414914D02*
X112256819Y-106938723D01*
X112304438Y-107033961D01*
X112399676Y-107081580D01*
X112542533Y-107081580D01*
X112637771Y-107033961D01*
X112685390Y-106986342D01*
X113494914Y-106557771D02*
X113161580Y-106557771D01*
X113161580Y-107081580D02*
X113161580Y-106081580D01*
X113637771Y-106081580D01*
X97050266Y-106068380D02*
X97050266Y-106782666D01*
X97002647Y-106925523D01*
X96907409Y-107020761D01*
X96764552Y-107068380D01*
X96669314Y-107068380D01*
X97478838Y-106163619D02*
X97526457Y-106116000D01*
X97621695Y-106068380D01*
X97859790Y-106068380D01*
X97955028Y-106116000D01*
X98002647Y-106163619D01*
X98050266Y-106258857D01*
X98050266Y-106354095D01*
X98002647Y-106496952D01*
X97431219Y-107068380D01*
X98050266Y-107068380D01*
X108173093Y-88353620D02*
X107839760Y-87877430D01*
X107601664Y-88353620D02*
X107601664Y-87353620D01*
X107982617Y-87353620D01*
X108077855Y-87401240D01*
X108125474Y-87448859D01*
X108173093Y-87544097D01*
X108173093Y-87686954D01*
X108125474Y-87782192D01*
X108077855Y-87829811D01*
X107982617Y-87877430D01*
X107601664Y-87877430D01*
X108744521Y-87782192D02*
X108649283Y-87734573D01*
X108601664Y-87686954D01*
X108554045Y-87591716D01*
X108554045Y-87544097D01*
X108601664Y-87448859D01*
X108649283Y-87401240D01*
X108744521Y-87353620D01*
X108934998Y-87353620D01*
X109030236Y-87401240D01*
X109077855Y-87448859D01*
X109125474Y-87544097D01*
X109125474Y-87591716D01*
X109077855Y-87686954D01*
X109030236Y-87734573D01*
X108934998Y-87782192D01*
X108744521Y-87782192D01*
X108649283Y-87829811D01*
X108601664Y-87877430D01*
X108554045Y-87972668D01*
X108554045Y-88163144D01*
X108601664Y-88258382D01*
X108649283Y-88306001D01*
X108744521Y-88353620D01*
X108934998Y-88353620D01*
X109030236Y-88306001D01*
X109077855Y-88258382D01*
X109125474Y-88163144D01*
X109125474Y-87972668D01*
X109077855Y-87877430D01*
X109030236Y-87829811D01*
X108934998Y-87782192D01*
X110529714Y-88336380D02*
X109958285Y-88336380D01*
X110244000Y-88336380D02*
X110244000Y-87336380D01*
X110148761Y-87479238D01*
X110053523Y-87574476D01*
X109958285Y-87622095D01*
X110958285Y-88336380D02*
X110958285Y-87336380D01*
X111529714Y-88336380D02*
X111101142Y-87764952D01*
X111529714Y-87336380D02*
X110958285Y-87907809D01*
X102652533Y-85193142D02*
X102604914Y-85240761D01*
X102462057Y-85288380D01*
X102366819Y-85288380D01*
X102223961Y-85240761D01*
X102128723Y-85145523D01*
X102081104Y-85050285D01*
X102033485Y-84859809D01*
X102033485Y-84716952D01*
X102081104Y-84526476D01*
X102128723Y-84431238D01*
X102223961Y-84336000D01*
X102366819Y-84288380D01*
X102462057Y-84288380D01*
X102604914Y-84336000D01*
X102652533Y-84383619D01*
X103604914Y-85288380D02*
X103033485Y-85288380D01*
X103319200Y-85288380D02*
X103319200Y-84288380D01*
X103223961Y-84431238D01*
X103128723Y-84526476D01*
X103033485Y-84574095D01*
X102246323Y-85710780D02*
X102341561Y-85710780D01*
X102436800Y-85758400D01*
X102484419Y-85806019D01*
X102532038Y-85901257D01*
X102579657Y-86091733D01*
X102579657Y-86329828D01*
X102532038Y-86520304D01*
X102484419Y-86615542D01*
X102436800Y-86663161D01*
X102341561Y-86710780D01*
X102246323Y-86710780D01*
X102151085Y-86663161D01*
X102103466Y-86615542D01*
X102055847Y-86520304D01*
X102008228Y-86329828D01*
X102008228Y-86091733D01*
X102055847Y-85901257D01*
X102103466Y-85806019D01*
X102151085Y-85758400D01*
X102246323Y-85710780D01*
X103008228Y-86615542D02*
X103055847Y-86663161D01*
X103008228Y-86710780D01*
X102960609Y-86663161D01*
X103008228Y-86615542D01*
X103008228Y-86710780D01*
X103436800Y-85806019D02*
X103484419Y-85758400D01*
X103579657Y-85710780D01*
X103817752Y-85710780D01*
X103912990Y-85758400D01*
X103960609Y-85806019D01*
X104008228Y-85901257D01*
X104008228Y-85996495D01*
X103960609Y-86139352D01*
X103389180Y-86710780D01*
X104008228Y-86710780D01*
X104389180Y-85806019D02*
X104436800Y-85758400D01*
X104532038Y-85710780D01*
X104770133Y-85710780D01*
X104865371Y-85758400D01*
X104912990Y-85806019D01*
X104960609Y-85901257D01*
X104960609Y-85996495D01*
X104912990Y-86139352D01*
X104341561Y-86710780D01*
X104960609Y-86710780D01*
X105817752Y-86044114D02*
X105817752Y-86710780D01*
X105389180Y-86044114D02*
X105389180Y-86567923D01*
X105436800Y-86663161D01*
X105532038Y-86710780D01*
X105674895Y-86710780D01*
X105770133Y-86663161D01*
X105817752Y-86615542D01*
X86447333Y-97029542D02*
X86399714Y-97077161D01*
X86256857Y-97124780D01*
X86161619Y-97124780D01*
X86018761Y-97077161D01*
X85923523Y-96981923D01*
X85875904Y-96886685D01*
X85828285Y-96696209D01*
X85828285Y-96553352D01*
X85875904Y-96362876D01*
X85923523Y-96267638D01*
X86018761Y-96172400D01*
X86161619Y-96124780D01*
X86256857Y-96124780D01*
X86399714Y-96172400D01*
X86447333Y-96220019D01*
X86780666Y-96124780D02*
X87399714Y-96124780D01*
X87066380Y-96505733D01*
X87209238Y-96505733D01*
X87304476Y-96553352D01*
X87352095Y-96600971D01*
X87399714Y-96696209D01*
X87399714Y-96934304D01*
X87352095Y-97029542D01*
X87304476Y-97077161D01*
X87209238Y-97124780D01*
X86923523Y-97124780D01*
X86828285Y-97077161D01*
X86780666Y-97029542D01*
X84725902Y-97496380D02*
X84821140Y-97496380D01*
X84916379Y-97544000D01*
X84963998Y-97591619D01*
X85011617Y-97686857D01*
X85059236Y-97877333D01*
X85059236Y-98115428D01*
X85011617Y-98305904D01*
X84963998Y-98401142D01*
X84916379Y-98448761D01*
X84821140Y-98496380D01*
X84725902Y-98496380D01*
X84630664Y-98448761D01*
X84583045Y-98401142D01*
X84535426Y-98305904D01*
X84487807Y-98115428D01*
X84487807Y-97877333D01*
X84535426Y-97686857D01*
X84583045Y-97591619D01*
X84630664Y-97544000D01*
X84725902Y-97496380D01*
X85487807Y-98401142D02*
X85535426Y-98448761D01*
X85487807Y-98496380D01*
X85440188Y-98448761D01*
X85487807Y-98401142D01*
X85487807Y-98496380D01*
X86487807Y-98496380D02*
X85916379Y-98496380D01*
X86202093Y-98496380D02*
X86202093Y-97496380D01*
X86106855Y-97639238D01*
X86011617Y-97734476D01*
X85916379Y-97782095D01*
X87344950Y-97829714D02*
X87344950Y-98496380D01*
X86916379Y-97829714D02*
X86916379Y-98353523D01*
X86963998Y-98448761D01*
X87059236Y-98496380D01*
X87202093Y-98496380D01*
X87297331Y-98448761D01*
X87344950Y-98401142D01*
X88154474Y-97972571D02*
X87821140Y-97972571D01*
X87821140Y-98496380D02*
X87821140Y-97496380D01*
X88297331Y-97496380D01*
X93610133Y-95905580D02*
X93276800Y-95429390D01*
X93038704Y-95905580D02*
X93038704Y-94905580D01*
X93419657Y-94905580D01*
X93514895Y-94953200D01*
X93562514Y-95000819D01*
X93610133Y-95096057D01*
X93610133Y-95238914D01*
X93562514Y-95334152D01*
X93514895Y-95381771D01*
X93419657Y-95429390D01*
X93038704Y-95429390D01*
X93943466Y-94905580D02*
X94562514Y-94905580D01*
X94229180Y-95286533D01*
X94372038Y-95286533D01*
X94467276Y-95334152D01*
X94514895Y-95381771D01*
X94562514Y-95477009D01*
X94562514Y-95715104D01*
X94514895Y-95810342D01*
X94467276Y-95857961D01*
X94372038Y-95905580D01*
X94086323Y-95905580D01*
X93991085Y-95857961D01*
X93943466Y-95810342D01*
X95772361Y-95905580D02*
X95200933Y-95905580D01*
X95486647Y-95905580D02*
X95486647Y-94905580D01*
X95391409Y-95048438D01*
X95296171Y-95143676D01*
X95200933Y-95191295D01*
X96391409Y-94905580D02*
X96486647Y-94905580D01*
X96581885Y-94953200D01*
X96629504Y-95000819D01*
X96677123Y-95096057D01*
X96724742Y-95286533D01*
X96724742Y-95524628D01*
X96677123Y-95715104D01*
X96629504Y-95810342D01*
X96581885Y-95857961D01*
X96486647Y-95905580D01*
X96391409Y-95905580D01*
X96296171Y-95857961D01*
X96248552Y-95810342D01*
X96200933Y-95715104D01*
X96153314Y-95524628D01*
X96153314Y-95286533D01*
X96200933Y-95096057D01*
X96248552Y-95000819D01*
X96296171Y-94953200D01*
X96391409Y-94905580D01*
X97153314Y-95905580D02*
X97153314Y-94905580D01*
X97248552Y-95524628D02*
X97534266Y-95905580D01*
X97534266Y-95238914D02*
X97153314Y-95619866D01*
X95286533Y-89707980D02*
X94953200Y-89231790D01*
X94715104Y-89707980D02*
X94715104Y-88707980D01*
X95096057Y-88707980D01*
X95191295Y-88755600D01*
X95238914Y-88803219D01*
X95286533Y-88898457D01*
X95286533Y-89041314D01*
X95238914Y-89136552D01*
X95191295Y-89184171D01*
X95096057Y-89231790D01*
X94715104Y-89231790D01*
X96143676Y-88707980D02*
X95953200Y-88707980D01*
X95857961Y-88755600D01*
X95810342Y-88803219D01*
X95715104Y-88946076D01*
X95667485Y-89136552D01*
X95667485Y-89517504D01*
X95715104Y-89612742D01*
X95762723Y-89660361D01*
X95857961Y-89707980D01*
X96048438Y-89707980D01*
X96143676Y-89660361D01*
X96191295Y-89612742D01*
X96238914Y-89517504D01*
X96238914Y-89279409D01*
X96191295Y-89184171D01*
X96143676Y-89136552D01*
X96048438Y-89088933D01*
X95857961Y-89088933D01*
X95762723Y-89136552D01*
X95715104Y-89184171D01*
X95667485Y-89279409D01*
X95188114Y-91181180D02*
X94616685Y-91181180D01*
X94902400Y-91181180D02*
X94902400Y-90181180D01*
X94807161Y-90324038D01*
X94711923Y-90419276D01*
X94616685Y-90466895D01*
X95616685Y-91181180D02*
X95616685Y-90181180D01*
X96188114Y-91181180D02*
X95759542Y-90609752D01*
X96188114Y-90181180D02*
X95616685Y-90752609D01*
X106121295Y-77328780D02*
X106121295Y-78138304D01*
X106168914Y-78233542D01*
X106216533Y-78281161D01*
X106311771Y-78328780D01*
X106502247Y-78328780D01*
X106597485Y-78281161D01*
X106645104Y-78233542D01*
X106692723Y-78138304D01*
X106692723Y-77328780D01*
X107692723Y-78328780D02*
X107121295Y-78328780D01*
X107407009Y-78328780D02*
X107407009Y-77328780D01*
X107311771Y-77471638D01*
X107216533Y-77566876D01*
X107121295Y-77614495D01*
X101007066Y-79106780D02*
X101007066Y-79821066D01*
X100959447Y-79963923D01*
X100864209Y-80059161D01*
X100721352Y-80106780D01*
X100626114Y-80106780D01*
X102007066Y-80106780D02*
X101435638Y-80106780D01*
X101721352Y-80106780D02*
X101721352Y-79106780D01*
X101626114Y-79249638D01*
X101530876Y-79344876D01*
X101435638Y-79392495D01*
X102626114Y-79106780D02*
X102721352Y-79106780D01*
X102816590Y-79154400D01*
X102864209Y-79202019D01*
X102911828Y-79297257D01*
X102959447Y-79487733D01*
X102959447Y-79725828D01*
X102911828Y-79916304D01*
X102864209Y-80011542D01*
X102816590Y-80059161D01*
X102721352Y-80106780D01*
X102626114Y-80106780D01*
X102530876Y-80059161D01*
X102483257Y-80011542D01*
X102435638Y-79916304D01*
X102388019Y-79725828D01*
X102388019Y-79487733D01*
X102435638Y-79297257D01*
X102483257Y-79202019D01*
X102530876Y-79154400D01*
X102626114Y-79106780D01*
X103816590Y-79440114D02*
X103816590Y-80106780D01*
X103578495Y-79059161D02*
X103340400Y-79773447D01*
X103959447Y-79773447D01*
X104340400Y-80106780D02*
X104340400Y-79106780D01*
X104578495Y-79106780D01*
X104721352Y-79154400D01*
X104816590Y-79249638D01*
X104864209Y-79344876D01*
X104911828Y-79535352D01*
X104911828Y-79678209D01*
X104864209Y-79868685D01*
X104816590Y-79963923D01*
X104721352Y-80059161D01*
X104578495Y-80106780D01*
X104340400Y-80106780D01*
X105292780Y-79202019D02*
X105340400Y-79154400D01*
X105435638Y-79106780D01*
X105673733Y-79106780D01*
X105768971Y-79154400D01*
X105816590Y-79202019D01*
X105864209Y-79297257D01*
X105864209Y-79392495D01*
X105816590Y-79535352D01*
X105245161Y-80106780D01*
X105864209Y-80106780D01*
X106864209Y-80011542D02*
X106816590Y-80059161D01*
X106673733Y-80106780D01*
X106578495Y-80106780D01*
X106435638Y-80059161D01*
X106340400Y-79963923D01*
X106292780Y-79868685D01*
X106245161Y-79678209D01*
X106245161Y-79535352D01*
X106292780Y-79344876D01*
X106340400Y-79249638D01*
X106435638Y-79154400D01*
X106578495Y-79106780D01*
X106673733Y-79106780D01*
X106816590Y-79154400D01*
X106864209Y-79202019D01*
X107768971Y-79106780D02*
X107292780Y-79106780D01*
X107245161Y-79582971D01*
X107292780Y-79535352D01*
X107388019Y-79487733D01*
X107626114Y-79487733D01*
X107721352Y-79535352D01*
X107768971Y-79582971D01*
X107816590Y-79678209D01*
X107816590Y-79916304D01*
X107768971Y-80011542D01*
X107721352Y-80059161D01*
X107626114Y-80106780D01*
X107388019Y-80106780D01*
X107292780Y-80059161D01*
X107245161Y-80011542D01*
X108102304Y-79106780D02*
X108435638Y-80106780D01*
X108768971Y-79106780D01*
X109102304Y-80106780D02*
X109102304Y-79106780D01*
X109340400Y-79106780D01*
X109483257Y-79154400D01*
X109578495Y-79249638D01*
X109626114Y-79344876D01*
X109673733Y-79535352D01*
X109673733Y-79678209D01*
X109626114Y-79868685D01*
X109578495Y-79963923D01*
X109483257Y-80059161D01*
X109340400Y-80106780D01*
X109102304Y-80106780D01*
X110673733Y-80011542D02*
X110626114Y-80059161D01*
X110483257Y-80106780D01*
X110388019Y-80106780D01*
X110245161Y-80059161D01*
X110149923Y-79963923D01*
X110102304Y-79868685D01*
X110054685Y-79678209D01*
X110054685Y-79535352D01*
X110102304Y-79344876D01*
X110149923Y-79249638D01*
X110245161Y-79154400D01*
X110388019Y-79106780D01*
X110483257Y-79106780D01*
X110626114Y-79154400D01*
X110673733Y-79202019D01*
X111102304Y-80011542D02*
X111149923Y-80059161D01*
X111102304Y-80106780D01*
X111054685Y-80059161D01*
X111102304Y-80011542D01*
X111102304Y-80106780D01*
X111530876Y-79202019D02*
X111578495Y-79154400D01*
X111673733Y-79106780D01*
X111911828Y-79106780D01*
X112007066Y-79154400D01*
X112054685Y-79202019D01*
X112102304Y-79297257D01*
X112102304Y-79392495D01*
X112054685Y-79535352D01*
X111483257Y-80106780D01*
X112102304Y-80106780D01*
X112721352Y-79106780D02*
X112816590Y-79106780D01*
X112911828Y-79154400D01*
X112959447Y-79202019D01*
X113007066Y-79297257D01*
X113054685Y-79487733D01*
X113054685Y-79725828D01*
X113007066Y-79916304D01*
X112959447Y-80011542D01*
X112911828Y-80059161D01*
X112816590Y-80106780D01*
X112721352Y-80106780D01*
X112626114Y-80059161D01*
X112578495Y-80011542D01*
X112530876Y-79916304D01*
X112483257Y-79725828D01*
X112483257Y-79487733D01*
X112530876Y-79297257D01*
X112578495Y-79202019D01*
X112626114Y-79154400D01*
X112721352Y-79106780D01*
X113435638Y-80059161D02*
X113578495Y-80106780D01*
X113816590Y-80106780D01*
X113911828Y-80059161D01*
X113959447Y-80011542D01*
X114007066Y-79916304D01*
X114007066Y-79821066D01*
X113959447Y-79725828D01*
X113911828Y-79678209D01*
X113816590Y-79630590D01*
X113626114Y-79582971D01*
X113530876Y-79535352D01*
X113483257Y-79487733D01*
X113435638Y-79392495D01*
X113435638Y-79297257D01*
X113483257Y-79202019D01*
X113530876Y-79154400D01*
X113626114Y-79106780D01*
X113864209Y-79106780D01*
X114007066Y-79154400D01*
X120238093Y-95084620D02*
X119904760Y-94608430D01*
X119666664Y-95084620D02*
X119666664Y-94084620D01*
X120047617Y-94084620D01*
X120142855Y-94132240D01*
X120190474Y-94179859D01*
X120238093Y-94275097D01*
X120238093Y-94417954D01*
X120190474Y-94513192D01*
X120142855Y-94560811D01*
X120047617Y-94608430D01*
X119666664Y-94608430D01*
X120571426Y-94084620D02*
X121238093Y-94084620D01*
X120809521Y-95084620D01*
X116936188Y-96322954D02*
X116936188Y-96989620D01*
X116698093Y-95942001D02*
X116459998Y-96656287D01*
X117079045Y-96656287D01*
X117459998Y-96894382D02*
X117507617Y-96942001D01*
X117459998Y-96989620D01*
X117412379Y-96942001D01*
X117459998Y-96894382D01*
X117459998Y-96989620D01*
X117840950Y-95989620D02*
X118507617Y-95989620D01*
X118079045Y-96989620D01*
X118888569Y-96989620D02*
X118888569Y-95989620D01*
X118983807Y-96608668D02*
X119269521Y-96989620D01*
X119269521Y-96322954D02*
X118888569Y-96703906D01*
X104490093Y-94534620D02*
X104156760Y-94058430D01*
X103918664Y-94534620D02*
X103918664Y-93534620D01*
X104299617Y-93534620D01*
X104394855Y-93582240D01*
X104442474Y-93629859D01*
X104490093Y-93725097D01*
X104490093Y-93867954D01*
X104442474Y-93963192D01*
X104394855Y-94010811D01*
X104299617Y-94058430D01*
X103918664Y-94058430D01*
X105347236Y-93867954D02*
X105347236Y-94534620D01*
X105109140Y-93487001D02*
X104871045Y-94201287D01*
X105490093Y-94201287D01*
X102029521Y-98259620D02*
X101458093Y-98259620D01*
X101743807Y-98259620D02*
X101743807Y-97259620D01*
X101648569Y-97402478D01*
X101553331Y-97497716D01*
X101458093Y-97545335D01*
X102648569Y-97259620D02*
X102743807Y-97259620D01*
X102839045Y-97307240D01*
X102886664Y-97354859D01*
X102934283Y-97450097D01*
X102981902Y-97640573D01*
X102981902Y-97878668D01*
X102934283Y-98069144D01*
X102886664Y-98164382D01*
X102839045Y-98212001D01*
X102743807Y-98259620D01*
X102648569Y-98259620D01*
X102553331Y-98212001D01*
X102505712Y-98164382D01*
X102458093Y-98069144D01*
X102410474Y-97878668D01*
X102410474Y-97640573D01*
X102458093Y-97450097D01*
X102505712Y-97354859D01*
X102553331Y-97307240D01*
X102648569Y-97259620D01*
X103410474Y-98259620D02*
X103410474Y-97259620D01*
X103505712Y-97878668D02*
X103791426Y-98259620D01*
X103791426Y-97592954D02*
X103410474Y-97973906D01*
X94138761Y-93003619D02*
X94043523Y-92956000D01*
X93948285Y-92860761D01*
X93805428Y-92717904D01*
X93710190Y-92670285D01*
X93614952Y-92670285D01*
X93662571Y-92908380D02*
X93567333Y-92860761D01*
X93472095Y-92765523D01*
X93424476Y-92575047D01*
X93424476Y-92241714D01*
X93472095Y-92051238D01*
X93567333Y-91956000D01*
X93662571Y-91908380D01*
X93853047Y-91908380D01*
X93948285Y-91956000D01*
X94043523Y-92051238D01*
X94091142Y-92241714D01*
X94091142Y-92575047D01*
X94043523Y-92765523D01*
X93948285Y-92860761D01*
X93853047Y-92908380D01*
X93662571Y-92908380D01*
X94472095Y-92003619D02*
X94519714Y-91956000D01*
X94614952Y-91908380D01*
X94853047Y-91908380D01*
X94948285Y-91956000D01*
X94995904Y-92003619D01*
X95043523Y-92098857D01*
X95043523Y-92194095D01*
X94995904Y-92336952D01*
X94424476Y-92908380D01*
X95043523Y-92908380D01*
X93456285Y-94432380D02*
X93456285Y-93432380D01*
X93837238Y-93432380D01*
X93932476Y-93480000D01*
X93980095Y-93527619D01*
X94027714Y-93622857D01*
X94027714Y-93765714D01*
X93980095Y-93860952D01*
X93932476Y-93908571D01*
X93837238Y-93956190D01*
X93456285Y-93956190D01*
X94456285Y-94432380D02*
X94456285Y-93432380D01*
X95027714Y-94432380D01*
X95027714Y-93432380D01*
X95503904Y-94432380D02*
X95503904Y-93432380D01*
X95884857Y-93432380D01*
X95980095Y-93480000D01*
X96027714Y-93527619D01*
X96075333Y-93622857D01*
X96075333Y-93765714D01*
X96027714Y-93860952D01*
X95980095Y-93908571D01*
X95884857Y-93956190D01*
X95503904Y-93956190D01*
X104735333Y-99639380D02*
X104402000Y-99163190D01*
X104163904Y-99639380D02*
X104163904Y-98639380D01*
X104544857Y-98639380D01*
X104640095Y-98687000D01*
X104687714Y-98734619D01*
X104735333Y-98829857D01*
X104735333Y-98972714D01*
X104687714Y-99067952D01*
X104640095Y-99115571D01*
X104544857Y-99163190D01*
X104163904Y-99163190D01*
X105687714Y-99639380D02*
X105116285Y-99639380D01*
X105402000Y-99639380D02*
X105402000Y-98639380D01*
X105306761Y-98782238D01*
X105211523Y-98877476D01*
X105116285Y-98925095D01*
X106846761Y-99639380D02*
X106275333Y-99639380D01*
X106561047Y-99639380D02*
X106561047Y-98639380D01*
X106465809Y-98782238D01*
X106370571Y-98877476D01*
X106275333Y-98925095D01*
X107465809Y-98639380D02*
X107561047Y-98639380D01*
X107656285Y-98687000D01*
X107703904Y-98734619D01*
X107751523Y-98829857D01*
X107799142Y-99020333D01*
X107799142Y-99258428D01*
X107751523Y-99448904D01*
X107703904Y-99544142D01*
X107656285Y-99591761D01*
X107561047Y-99639380D01*
X107465809Y-99639380D01*
X107370571Y-99591761D01*
X107322952Y-99544142D01*
X107275333Y-99448904D01*
X107227714Y-99258428D01*
X107227714Y-99020333D01*
X107275333Y-98829857D01*
X107322952Y-98734619D01*
X107370571Y-98687000D01*
X107465809Y-98639380D01*
X108227714Y-99639380D02*
X108227714Y-98639380D01*
X108322952Y-99258428D02*
X108608666Y-99639380D01*
X108608666Y-98972714D02*
X108227714Y-99353666D01*
X118979961Y-90412819D02*
X118884723Y-90365200D01*
X118789485Y-90269961D01*
X118646628Y-90127104D01*
X118551390Y-90079485D01*
X118456152Y-90079485D01*
X118503771Y-90317580D02*
X118408533Y-90269961D01*
X118313295Y-90174723D01*
X118265676Y-89984247D01*
X118265676Y-89650914D01*
X118313295Y-89460438D01*
X118408533Y-89365200D01*
X118503771Y-89317580D01*
X118694247Y-89317580D01*
X118789485Y-89365200D01*
X118884723Y-89460438D01*
X118932342Y-89650914D01*
X118932342Y-89984247D01*
X118884723Y-90174723D01*
X118789485Y-90269961D01*
X118694247Y-90317580D01*
X118503771Y-90317580D01*
X119789485Y-89650914D02*
X119789485Y-90317580D01*
X119551390Y-89269961D02*
X119313295Y-89984247D01*
X119932342Y-89984247D01*
X118121276Y-91943180D02*
X118121276Y-90943180D01*
X118692704Y-91943180D01*
X118692704Y-90943180D01*
X119168895Y-91943180D02*
X119168895Y-90943180D01*
X119549847Y-90943180D01*
X119645085Y-90990800D01*
X119692704Y-91038419D01*
X119740323Y-91133657D01*
X119740323Y-91276514D01*
X119692704Y-91371752D01*
X119645085Y-91419371D01*
X119549847Y-91466990D01*
X119168895Y-91466990D01*
X120168895Y-91943180D02*
X120168895Y-90943180D01*
X120740323Y-91943180D01*
X120740323Y-90943180D01*
X82419866Y-101103180D02*
X82419866Y-101817466D01*
X82372247Y-101960323D01*
X82277009Y-102055561D01*
X82134152Y-102103180D01*
X82038914Y-102103180D01*
X82800819Y-101103180D02*
X83419866Y-101103180D01*
X83086533Y-101484133D01*
X83229390Y-101484133D01*
X83324628Y-101531752D01*
X83372247Y-101579371D01*
X83419866Y-101674609D01*
X83419866Y-101912704D01*
X83372247Y-102007942D01*
X83324628Y-102055561D01*
X83229390Y-102103180D01*
X82943676Y-102103180D01*
X82848438Y-102055561D01*
X82800819Y-102007942D01*
X113472933Y-88342742D02*
X113425314Y-88390361D01*
X113282457Y-88437980D01*
X113187219Y-88437980D01*
X113044361Y-88390361D01*
X112949123Y-88295123D01*
X112901504Y-88199885D01*
X112853885Y-88009409D01*
X112853885Y-87866552D01*
X112901504Y-87676076D01*
X112949123Y-87580838D01*
X113044361Y-87485600D01*
X113187219Y-87437980D01*
X113282457Y-87437980D01*
X113425314Y-87485600D01*
X113472933Y-87533219D01*
X114330076Y-87771314D02*
X114330076Y-88437980D01*
X114091980Y-87390361D02*
X113853885Y-88104647D01*
X114472933Y-88104647D01*
X115301923Y-87437980D02*
X115397161Y-87437980D01*
X115492400Y-87485600D01*
X115540019Y-87533219D01*
X115587638Y-87628457D01*
X115635257Y-87818933D01*
X115635257Y-88057028D01*
X115587638Y-88247504D01*
X115540019Y-88342742D01*
X115492400Y-88390361D01*
X115397161Y-88437980D01*
X115301923Y-88437980D01*
X115206685Y-88390361D01*
X115159066Y-88342742D01*
X115111447Y-88247504D01*
X115063828Y-88057028D01*
X115063828Y-87818933D01*
X115111447Y-87628457D01*
X115159066Y-87533219D01*
X115206685Y-87485600D01*
X115301923Y-87437980D01*
X116063828Y-88342742D02*
X116111447Y-88390361D01*
X116063828Y-88437980D01*
X116016209Y-88390361D01*
X116063828Y-88342742D01*
X116063828Y-88437980D01*
X116492400Y-87533219D02*
X116540019Y-87485600D01*
X116635257Y-87437980D01*
X116873352Y-87437980D01*
X116968590Y-87485600D01*
X117016209Y-87533219D01*
X117063828Y-87628457D01*
X117063828Y-87723695D01*
X117016209Y-87866552D01*
X116444780Y-88437980D01*
X117063828Y-88437980D01*
X117444780Y-87533219D02*
X117492400Y-87485600D01*
X117587638Y-87437980D01*
X117825733Y-87437980D01*
X117920971Y-87485600D01*
X117968590Y-87533219D01*
X118016209Y-87628457D01*
X118016209Y-87723695D01*
X117968590Y-87866552D01*
X117397161Y-88437980D01*
X118016209Y-88437980D01*
X118873352Y-87771314D02*
X118873352Y-88437980D01*
X118444780Y-87771314D02*
X118444780Y-88295123D01*
X118492400Y-88390361D01*
X118587638Y-88437980D01*
X118730495Y-88437980D01*
X118825733Y-88390361D01*
X118873352Y-88342742D01*
X110332093Y-95380620D02*
X109998760Y-94904430D01*
X109760664Y-95380620D02*
X109760664Y-94380620D01*
X110141617Y-94380620D01*
X110236855Y-94428240D01*
X110284474Y-94475859D01*
X110332093Y-94571097D01*
X110332093Y-94713954D01*
X110284474Y-94809192D01*
X110236855Y-94856811D01*
X110141617Y-94904430D01*
X109760664Y-94904430D01*
X111236855Y-94380620D02*
X110760664Y-94380620D01*
X110713045Y-94856811D01*
X110760664Y-94809192D01*
X110855902Y-94761573D01*
X111093998Y-94761573D01*
X111189236Y-94809192D01*
X111236855Y-94856811D01*
X111284474Y-94952049D01*
X111284474Y-95190144D01*
X111236855Y-95285382D01*
X111189236Y-95333001D01*
X111093998Y-95380620D01*
X110855902Y-95380620D01*
X110760664Y-95333001D01*
X110713045Y-95285382D01*
X106982474Y-93909811D02*
X107649140Y-93909811D01*
X106601521Y-94147906D02*
X107315807Y-94386001D01*
X107315807Y-93766954D01*
X107553902Y-93386001D02*
X107601521Y-93338382D01*
X107649140Y-93386001D01*
X107601521Y-93433620D01*
X107553902Y-93386001D01*
X107649140Y-93386001D01*
X106649140Y-93005049D02*
X106649140Y-92338382D01*
X107649140Y-92766954D01*
X107649140Y-91957430D02*
X106649140Y-91957430D01*
X107268188Y-91862192D02*
X107649140Y-91576478D01*
X106982474Y-91576478D02*
X107363426Y-91957430D01*
D11*
X87797000Y-73609500D02*
X92797000Y-73609500D01*
X87297000Y-87009500D02*
X87297000Y-88109500D01*
X92797000Y-73609500D02*
X93297000Y-73609500D01*
X93297000Y-79309500D02*
X93297000Y-88109500D01*
X93297000Y-73609500D02*
X93297000Y-76709500D01*
D12*
X93297000Y-88109500D02*
X92633800Y-88107700D01*
D11*
X87297000Y-77309500D02*
X87297000Y-83809500D01*
X87297000Y-73609500D02*
X87297000Y-74709500D01*
D12*
X87297000Y-88109500D02*
X89433400Y-88107700D01*
D11*
X87297000Y-73609500D02*
X87797000Y-73609500D01*
X121706000Y-73609500D02*
X126706000Y-73609500D01*
X121206000Y-87009500D02*
X121206000Y-88109500D01*
X126706000Y-73609500D02*
X127206000Y-73609500D01*
X127206000Y-79309500D02*
X127206000Y-88109500D01*
X127206000Y-73609500D02*
X127206000Y-76709500D01*
D12*
X127206000Y-88109500D02*
X126542800Y-88107700D01*
D11*
X121206000Y-77309500D02*
X121206000Y-83809500D01*
X121206000Y-73609500D02*
X121206000Y-74709500D01*
D12*
X121206000Y-88109500D02*
X123342400Y-88107700D01*
D11*
X121206000Y-73609500D02*
X121706000Y-73609500D01*
D12*
X113318936Y-102129000D02*
X114773064Y-102129000D01*
X113318936Y-100309000D02*
X114773064Y-100309000D01*
X109184000Y-97409000D02*
X109184000Y-96759000D01*
X112304000Y-97409000D02*
X112304000Y-98059000D01*
X112304000Y-97409000D02*
X112304000Y-96759000D01*
X109184000Y-97409000D02*
X109184000Y-99084000D01*
X103088000Y-90373200D02*
X103088000Y-89723200D01*
X103088000Y-90373200D02*
X103088000Y-92048200D01*
X106208000Y-90373200D02*
X106208000Y-89723200D01*
X106208000Y-90373200D02*
X106208000Y-91023200D01*
X108534252Y-105431000D02*
X107111748Y-105431000D01*
X108534252Y-103611000D02*
X107111748Y-103611000D01*
D13*
X103541000Y-99616000D02*
X103041000Y-99616000D01*
X103541000Y-105616000D02*
X103041000Y-105616000D01*
X103541000Y-105616000D02*
X103541000Y-105116000D01*
X95341000Y-105616000D02*
X95341000Y-105116000D01*
X103541000Y-99616000D02*
X103541000Y-100116000D01*
X95341000Y-99616000D02*
X95341000Y-100116000D01*
X95341000Y-99616000D02*
X95841000Y-99616000D01*
X95341000Y-105616000D02*
X95841000Y-105616000D01*
D12*
X109517696Y-90716240D02*
X110971824Y-90716240D01*
X109517696Y-88896240D02*
X110971824Y-88896240D01*
X99898252Y-87016000D02*
X98475748Y-87016000D01*
X99898252Y-85196000D02*
X98475748Y-85196000D01*
X90356508Y-98336240D02*
X91779012Y-98336240D01*
X90356508Y-96516240D02*
X91779012Y-96516240D01*
X96817696Y-98336240D02*
X98271824Y-98336240D01*
X96817696Y-96516240D02*
X98271824Y-96516240D01*
X98468696Y-88515240D02*
X99922824Y-88515240D01*
X98468696Y-90335240D02*
X99922824Y-90335240D01*
X117551000Y-73406000D02*
X96977000Y-73406000D01*
X96977000Y-83566000D02*
X117551000Y-83566000D01*
X117551000Y-83566000D02*
X117551000Y-73406000D01*
X96977000Y-73406000D02*
X96977000Y-83566000D01*
X116121696Y-95288240D02*
X117575824Y-95288240D01*
X116121696Y-93468240D02*
X117575824Y-93468240D01*
X103929696Y-96812240D02*
X105383824Y-96812240D01*
X103929696Y-94992240D02*
X105383824Y-94992240D01*
X99068760Y-94922240D02*
X99718760Y-94922240D01*
X99068760Y-91802240D02*
X99718760Y-91802240D01*
X99068760Y-91802240D02*
X97393760Y-91802240D01*
X99068760Y-94922240D02*
X98418760Y-94922240D01*
X107095936Y-102129000D02*
X108550064Y-102129000D01*
X107095936Y-100309000D02*
X108550064Y-100309000D01*
X115832760Y-92255240D02*
X117507760Y-92255240D01*
X115832760Y-89135240D02*
X115182760Y-89135240D01*
X115832760Y-89135240D02*
X116482760Y-89135240D01*
X115832760Y-92255240D02*
X115182760Y-92255240D01*
D13*
X84316000Y-99616000D02*
X84316000Y-100116000D01*
X84316000Y-105616000D02*
X84816000Y-105616000D01*
X84316000Y-105616000D02*
X84316000Y-105116000D01*
X92516000Y-99616000D02*
X92516000Y-100116000D01*
X92516000Y-99616000D02*
X92016000Y-99616000D01*
X92516000Y-105616000D02*
X92016000Y-105616000D01*
X84316000Y-99616000D02*
X84816000Y-99616000D01*
X92516000Y-105616000D02*
X92516000Y-105116000D01*
D12*
X112572748Y-86889000D02*
X113995252Y-86889000D01*
X112572748Y-85069000D02*
X113995252Y-85069000D01*
X111225824Y-94018240D02*
X109771696Y-94018240D01*
X111225824Y-92198240D02*
X109771696Y-92198240D01*
M02*
