G04 #@! TF.GenerationSoftware,KiCad,Pcbnew,6.0.5-a6ca702e91~116~ubuntu20.04.1*
G04 #@! TF.CreationDate,2022-05-28T13:47:51-04:00*
G04 #@! TF.ProjectId,audiomute,61756469-6f6d-4757-9465-2e6b69636164,rev?*
G04 #@! TF.SameCoordinates,Original*
G04 #@! TF.FileFunction,Copper,L2,Bot*
G04 #@! TF.FilePolarity,Positive*
%FSLAX46Y46*%
G04 Gerber Fmt 4.6, Leading zero omitted, Abs format (unit mm)*
G04 Created by KiCad (PCBNEW 6.0.5-a6ca702e91~116~ubuntu20.04.1) date 2022-05-28 13:47:51*
%MOMM*%
%LPD*%
G01*
G04 APERTURE LIST*
G04 #@! TA.AperFunction,ComponentPad*
%ADD10C,2.100000*%
G04 #@! TD*
G04 #@! TA.AperFunction,ComponentPad*
%ADD11R,1.800000X1.800000*%
G04 #@! TD*
G04 #@! TA.AperFunction,ComponentPad*
%ADD12C,1.800000*%
G04 #@! TD*
G04 #@! TA.AperFunction,ViaPad*
%ADD13C,1.000000*%
G04 #@! TD*
G04 #@! TA.AperFunction,Conductor*
%ADD14C,1.000000*%
G04 #@! TD*
G04 #@! TA.AperFunction,Conductor*
%ADD15C,0.500000*%
G04 #@! TD*
G04 APERTURE END LIST*
D10*
X100941000Y-101219000D03*
X98441000Y-101219000D03*
D11*
X100865000Y-83185000D03*
D12*
X105945000Y-83185000D03*
X108485000Y-83185000D03*
X111025000Y-83185000D03*
X111025000Y-78105000D03*
X108485000Y-78105000D03*
X105945000Y-78105000D03*
X100865000Y-78105000D03*
D10*
X89916000Y-101219000D03*
X87416000Y-101219000D03*
D13*
X110236000Y-89916000D03*
X72644000Y-74422000D03*
X141478000Y-74168000D03*
X141224000Y-105664000D03*
X73152000Y-105410000D03*
X113030000Y-103124000D03*
X106934000Y-96520000D03*
X101854000Y-90551000D03*
X107188000Y-74168000D03*
X119761000Y-75311000D03*
X114554000Y-85471000D03*
X112776000Y-80518000D03*
X120396000Y-105664000D03*
X73406000Y-89662000D03*
X114427000Y-95504000D03*
X82423000Y-82677000D03*
X121539000Y-91567000D03*
X131064000Y-78740000D03*
X85725000Y-75565000D03*
X131445000Y-97409000D03*
X140081000Y-88900000D03*
X96139000Y-91059000D03*
X102108000Y-92456000D03*
X100457000Y-93726000D03*
X113538000Y-92837000D03*
D14*
X100865000Y-83185000D02*
X98171000Y-83185000D01*
X98171000Y-83185000D02*
X89911000Y-91445000D01*
X89911000Y-91445000D02*
X89911000Y-94139000D01*
X89911000Y-101219000D02*
X89911000Y-94139000D01*
D15*
X100711000Y-91059000D02*
X102108000Y-92456000D01*
X96139000Y-91059000D02*
X100711000Y-91059000D01*
X112649000Y-93726000D02*
X113538000Y-92837000D01*
X100457000Y-93726000D02*
X112649000Y-93726000D01*
G04 #@! TA.AperFunction,Conductor*
G36*
X142943621Y-72918502D02*
G01*
X142990114Y-72972158D01*
X143001500Y-73024500D01*
X143001500Y-107188500D01*
X142981498Y-107256621D01*
X142927842Y-107303114D01*
X142875500Y-107314500D01*
X71373500Y-107314500D01*
X71305379Y-107294498D01*
X71258886Y-107240842D01*
X71247500Y-107188500D01*
X71247500Y-101600000D01*
X74924477Y-101600000D01*
X74944549Y-101919039D01*
X75004449Y-102233046D01*
X75103233Y-102537070D01*
X75104920Y-102540656D01*
X75104922Y-102540660D01*
X75237653Y-102822729D01*
X75237657Y-102822736D01*
X75239341Y-102826315D01*
X75410629Y-103096221D01*
X75614394Y-103342530D01*
X75847423Y-103561359D01*
X76106041Y-103749256D01*
X76386169Y-103903258D01*
X76548083Y-103967364D01*
X76679707Y-104019478D01*
X76679710Y-104019479D01*
X76683390Y-104020936D01*
X76687224Y-104021920D01*
X76687232Y-104021923D01*
X76879153Y-104071200D01*
X76993017Y-104100435D01*
X76996945Y-104100931D01*
X76996949Y-104100932D01*
X77122642Y-104116810D01*
X77310165Y-104140500D01*
X77629835Y-104140500D01*
X77817358Y-104116810D01*
X77943051Y-104100932D01*
X77943055Y-104100931D01*
X77946983Y-104100435D01*
X78060847Y-104071200D01*
X78252768Y-104021923D01*
X78252776Y-104021920D01*
X78256610Y-104020936D01*
X78260290Y-104019479D01*
X78260293Y-104019478D01*
X78391917Y-103967364D01*
X78553831Y-103903258D01*
X78833959Y-103749256D01*
X79092577Y-103561359D01*
X79325606Y-103342530D01*
X79529371Y-103096221D01*
X79700659Y-102826315D01*
X79702343Y-102822736D01*
X79702347Y-102822729D01*
X79835078Y-102540660D01*
X79835080Y-102540656D01*
X79836767Y-102537070D01*
X79852701Y-102488030D01*
X86511800Y-102488030D01*
X86517527Y-102495680D01*
X86702272Y-102608893D01*
X86711067Y-102613375D01*
X86928490Y-102703434D01*
X86937875Y-102706483D01*
X87166708Y-102761422D01*
X87176455Y-102762965D01*
X87411070Y-102781430D01*
X87420930Y-102781430D01*
X87655545Y-102762965D01*
X87665292Y-102761422D01*
X87894125Y-102706483D01*
X87903510Y-102703434D01*
X88120933Y-102613375D01*
X88129728Y-102608893D01*
X88310805Y-102497928D01*
X88320267Y-102487470D01*
X88316484Y-102478694D01*
X87428812Y-101591022D01*
X87414868Y-101583408D01*
X87413035Y-101583539D01*
X87406420Y-101587790D01*
X86518560Y-102475650D01*
X86511800Y-102488030D01*
X79852701Y-102488030D01*
X79935551Y-102233046D01*
X79995451Y-101919039D01*
X80015523Y-101600000D01*
X79995451Y-101280961D01*
X79984572Y-101223930D01*
X85853570Y-101223930D01*
X85872035Y-101458545D01*
X85873578Y-101468292D01*
X85928517Y-101697125D01*
X85931566Y-101706510D01*
X86021625Y-101923933D01*
X86026107Y-101932728D01*
X86137072Y-102113805D01*
X86147530Y-102123267D01*
X86156306Y-102119484D01*
X87043978Y-101231812D01*
X87050356Y-101220132D01*
X87780408Y-101220132D01*
X87780539Y-101221965D01*
X87784790Y-101228580D01*
X88572873Y-102016663D01*
X88591209Y-102039920D01*
X88651248Y-102137896D01*
X88654463Y-102141660D01*
X88654465Y-102141663D01*
X88782572Y-102291655D01*
X88810567Y-102324433D01*
X88814323Y-102327641D01*
X88991182Y-102478694D01*
X88997104Y-102483752D01*
X89001327Y-102486340D01*
X89001330Y-102486342D01*
X89020237Y-102497928D01*
X89206268Y-102611927D01*
X89350967Y-102671864D01*
X89428335Y-102703911D01*
X89428337Y-102703912D01*
X89432908Y-102705805D01*
X89515563Y-102725649D01*
X89666630Y-102761917D01*
X89666636Y-102761918D01*
X89671443Y-102763072D01*
X89916000Y-102782319D01*
X90160557Y-102763072D01*
X90165364Y-102761918D01*
X90165370Y-102761917D01*
X90316437Y-102725649D01*
X90399092Y-102705805D01*
X90403663Y-102703912D01*
X90403665Y-102703911D01*
X90481033Y-102671864D01*
X90625732Y-102611927D01*
X90811763Y-102497928D01*
X90827915Y-102488030D01*
X97536800Y-102488030D01*
X97542527Y-102495680D01*
X97727272Y-102608893D01*
X97736067Y-102613375D01*
X97953490Y-102703434D01*
X97962875Y-102706483D01*
X98191708Y-102761422D01*
X98201455Y-102762965D01*
X98436070Y-102781430D01*
X98445930Y-102781430D01*
X98680545Y-102762965D01*
X98690292Y-102761422D01*
X98919125Y-102706483D01*
X98928510Y-102703434D01*
X99145933Y-102613375D01*
X99154728Y-102608893D01*
X99335805Y-102497928D01*
X99345267Y-102487470D01*
X99341484Y-102478694D01*
X98453812Y-101591022D01*
X98439868Y-101583408D01*
X98438035Y-101583539D01*
X98431420Y-101587790D01*
X97543560Y-102475650D01*
X97536800Y-102488030D01*
X90827915Y-102488030D01*
X90830670Y-102486342D01*
X90830673Y-102486340D01*
X90834896Y-102483752D01*
X90840819Y-102478694D01*
X91017677Y-102327641D01*
X91021433Y-102324433D01*
X91049428Y-102291655D01*
X91177535Y-102141663D01*
X91177537Y-102141660D01*
X91180752Y-102137896D01*
X91308927Y-101928732D01*
X91402805Y-101702092D01*
X91428265Y-101596042D01*
X91458917Y-101468370D01*
X91458918Y-101468364D01*
X91460072Y-101463557D01*
X91478931Y-101223930D01*
X96878570Y-101223930D01*
X96897035Y-101458545D01*
X96898578Y-101468292D01*
X96953517Y-101697125D01*
X96956566Y-101706510D01*
X97046625Y-101923933D01*
X97051107Y-101932728D01*
X97162072Y-102113805D01*
X97172530Y-102123267D01*
X97181306Y-102119484D01*
X98068978Y-101231812D01*
X98075356Y-101220132D01*
X98805408Y-101220132D01*
X98805539Y-101221965D01*
X98809790Y-101228580D01*
X99597873Y-102016663D01*
X99616209Y-102039920D01*
X99676248Y-102137896D01*
X99679463Y-102141660D01*
X99679465Y-102141663D01*
X99807572Y-102291655D01*
X99835567Y-102324433D01*
X99839323Y-102327641D01*
X100016182Y-102478694D01*
X100022104Y-102483752D01*
X100026327Y-102486340D01*
X100026330Y-102486342D01*
X100045237Y-102497928D01*
X100231268Y-102611927D01*
X100375967Y-102671864D01*
X100453335Y-102703911D01*
X100453337Y-102703912D01*
X100457908Y-102705805D01*
X100540563Y-102725649D01*
X100691630Y-102761917D01*
X100691636Y-102761918D01*
X100696443Y-102763072D01*
X100941000Y-102782319D01*
X101185557Y-102763072D01*
X101190364Y-102761918D01*
X101190370Y-102761917D01*
X101341437Y-102725649D01*
X101424092Y-102705805D01*
X101428663Y-102703912D01*
X101428665Y-102703911D01*
X101506033Y-102671864D01*
X101650732Y-102611927D01*
X101836763Y-102497928D01*
X101855670Y-102486342D01*
X101855673Y-102486340D01*
X101859896Y-102483752D01*
X101865819Y-102478694D01*
X102042677Y-102327641D01*
X102046433Y-102324433D01*
X102074428Y-102291655D01*
X102202535Y-102141663D01*
X102202537Y-102141660D01*
X102205752Y-102137896D01*
X102333927Y-101928732D01*
X102427805Y-101702092D01*
X102452315Y-101600000D01*
X134614477Y-101600000D01*
X134634549Y-101919039D01*
X134694449Y-102233046D01*
X134793233Y-102537070D01*
X134794920Y-102540656D01*
X134794922Y-102540660D01*
X134927653Y-102822729D01*
X134927657Y-102822736D01*
X134929341Y-102826315D01*
X135100629Y-103096221D01*
X135304394Y-103342530D01*
X135537423Y-103561359D01*
X135796041Y-103749256D01*
X136076169Y-103903258D01*
X136238083Y-103967364D01*
X136369707Y-104019478D01*
X136369710Y-104019479D01*
X136373390Y-104020936D01*
X136377224Y-104021920D01*
X136377232Y-104021923D01*
X136569153Y-104071200D01*
X136683017Y-104100435D01*
X136686945Y-104100931D01*
X136686949Y-104100932D01*
X136812642Y-104116810D01*
X137000165Y-104140500D01*
X137319835Y-104140500D01*
X137507358Y-104116810D01*
X137633051Y-104100932D01*
X137633055Y-104100931D01*
X137636983Y-104100435D01*
X137750847Y-104071200D01*
X137942768Y-104021923D01*
X137942776Y-104021920D01*
X137946610Y-104020936D01*
X137950290Y-104019479D01*
X137950293Y-104019478D01*
X138081917Y-103967364D01*
X138243831Y-103903258D01*
X138523959Y-103749256D01*
X138782577Y-103561359D01*
X139015606Y-103342530D01*
X139219371Y-103096221D01*
X139390659Y-102826315D01*
X139392343Y-102822736D01*
X139392347Y-102822729D01*
X139525078Y-102540660D01*
X139525080Y-102540656D01*
X139526767Y-102537070D01*
X139625551Y-102233046D01*
X139685451Y-101919039D01*
X139705523Y-101600000D01*
X139685451Y-101280961D01*
X139625551Y-100966954D01*
X139526767Y-100662930D01*
X139456718Y-100514067D01*
X139392347Y-100377271D01*
X139392343Y-100377264D01*
X139390659Y-100373685D01*
X139386710Y-100367463D01*
X139221498Y-100107130D01*
X139221495Y-100107126D01*
X139219371Y-100103779D01*
X139107392Y-99968420D01*
X139018131Y-99860522D01*
X139018130Y-99860521D01*
X139015606Y-99857470D01*
X138782577Y-99638641D01*
X138523959Y-99450744D01*
X138243831Y-99296742D01*
X138081917Y-99232636D01*
X137950293Y-99180522D01*
X137950290Y-99180521D01*
X137946610Y-99179064D01*
X137942776Y-99178080D01*
X137942768Y-99178077D01*
X137750847Y-99128800D01*
X137636983Y-99099565D01*
X137633055Y-99099069D01*
X137633051Y-99099068D01*
X137507358Y-99083190D01*
X137319835Y-99059500D01*
X137000165Y-99059500D01*
X136812642Y-99083190D01*
X136686949Y-99099068D01*
X136686945Y-99099069D01*
X136683017Y-99099565D01*
X136569153Y-99128800D01*
X136377232Y-99178077D01*
X136377224Y-99178080D01*
X136373390Y-99179064D01*
X136369710Y-99180521D01*
X136369707Y-99180522D01*
X136238083Y-99232636D01*
X136076169Y-99296742D01*
X135796041Y-99450744D01*
X135537423Y-99638641D01*
X135304394Y-99857470D01*
X135301870Y-99860521D01*
X135301869Y-99860522D01*
X135212608Y-99968420D01*
X135100629Y-100103779D01*
X135098505Y-100107126D01*
X135098502Y-100107130D01*
X134933290Y-100367463D01*
X134929341Y-100373685D01*
X134927657Y-100377264D01*
X134927653Y-100377271D01*
X134863282Y-100514067D01*
X134793233Y-100662930D01*
X134694449Y-100966954D01*
X134634549Y-101280961D01*
X134614477Y-101600000D01*
X102452315Y-101600000D01*
X102453265Y-101596042D01*
X102483917Y-101468370D01*
X102483918Y-101468364D01*
X102485072Y-101463557D01*
X102504319Y-101219000D01*
X102485072Y-100974443D01*
X102483275Y-100966954D01*
X102428960Y-100740720D01*
X102427805Y-100735908D01*
X102333927Y-100509268D01*
X102205752Y-100300104D01*
X102046433Y-100113567D01*
X102024995Y-100095257D01*
X101863663Y-99957465D01*
X101863660Y-99957463D01*
X101859896Y-99954248D01*
X101855673Y-99951660D01*
X101855670Y-99951658D01*
X101786485Y-99909262D01*
X101650732Y-99826073D01*
X101506033Y-99766136D01*
X101428665Y-99734089D01*
X101428663Y-99734088D01*
X101424092Y-99732195D01*
X101341437Y-99712351D01*
X101190370Y-99676083D01*
X101190364Y-99676082D01*
X101185557Y-99674928D01*
X100941000Y-99655681D01*
X100696443Y-99674928D01*
X100691636Y-99676082D01*
X100691630Y-99676083D01*
X100540563Y-99712351D01*
X100457908Y-99732195D01*
X100453337Y-99734088D01*
X100453335Y-99734089D01*
X100375967Y-99766136D01*
X100231268Y-99826073D01*
X100095515Y-99909262D01*
X100026330Y-99951658D01*
X100026327Y-99951660D01*
X100022104Y-99954248D01*
X100018340Y-99957463D01*
X100018337Y-99957465D01*
X99857005Y-100095257D01*
X99835567Y-100113567D01*
X99676248Y-100300104D01*
X99616209Y-100398080D01*
X99597873Y-100421337D01*
X98813022Y-101206188D01*
X98805408Y-101220132D01*
X98075356Y-101220132D01*
X98076592Y-101217868D01*
X98076461Y-101216035D01*
X98072210Y-101209420D01*
X97184350Y-100321560D01*
X97171970Y-100314800D01*
X97164320Y-100320527D01*
X97051107Y-100505272D01*
X97046625Y-100514067D01*
X96956566Y-100731490D01*
X96953517Y-100740875D01*
X96898578Y-100969708D01*
X96897035Y-100979455D01*
X96878570Y-101214070D01*
X96878570Y-101223930D01*
X91478931Y-101223930D01*
X91479319Y-101219000D01*
X91460072Y-100974443D01*
X91458275Y-100966954D01*
X91403960Y-100740720D01*
X91402805Y-100735908D01*
X91308927Y-100509268D01*
X91180752Y-100300104D01*
X91021433Y-100113567D01*
X91017677Y-100110359D01*
X91017670Y-100110352D01*
X90963669Y-100064230D01*
X90924860Y-100004780D01*
X90919500Y-99968420D01*
X90919500Y-99950530D01*
X97536733Y-99950530D01*
X97540516Y-99959306D01*
X98428188Y-100846978D01*
X98442132Y-100854592D01*
X98443965Y-100854461D01*
X98450580Y-100850210D01*
X99338440Y-99962350D01*
X99345200Y-99949970D01*
X99339473Y-99942320D01*
X99154728Y-99829107D01*
X99145933Y-99824625D01*
X98928510Y-99734566D01*
X98919125Y-99731517D01*
X98690292Y-99676578D01*
X98680545Y-99675035D01*
X98445930Y-99656570D01*
X98436070Y-99656570D01*
X98201455Y-99675035D01*
X98191708Y-99676578D01*
X97962875Y-99731517D01*
X97953490Y-99734566D01*
X97736067Y-99824625D01*
X97727272Y-99829107D01*
X97546195Y-99940072D01*
X97536733Y-99950530D01*
X90919500Y-99950530D01*
X90919500Y-91914925D01*
X90939502Y-91846804D01*
X90956405Y-91825830D01*
X91737384Y-91044851D01*
X95125719Y-91044851D01*
X95126626Y-91055652D01*
X95141546Y-91233331D01*
X95142268Y-91241934D01*
X95143967Y-91247858D01*
X95192534Y-91417231D01*
X95196783Y-91432050D01*
X95287187Y-91607956D01*
X95410035Y-91762953D01*
X95560650Y-91891136D01*
X95733294Y-91987624D01*
X95921392Y-92048740D01*
X96117777Y-92072158D01*
X96123912Y-92071686D01*
X96123914Y-92071686D01*
X96308830Y-92057457D01*
X96308834Y-92057456D01*
X96314972Y-92056984D01*
X96505463Y-92003798D01*
X96510967Y-92001018D01*
X96510969Y-92001017D01*
X96676495Y-91917404D01*
X96676497Y-91917403D01*
X96681996Y-91914625D01*
X96772121Y-91844211D01*
X96838116Y-91818033D01*
X96849695Y-91817500D01*
X100344629Y-91817500D01*
X100412750Y-91837502D01*
X100433724Y-91854405D01*
X101068856Y-92489537D01*
X101102882Y-92551849D01*
X101105319Y-92568089D01*
X101110208Y-92626306D01*
X101111268Y-92638934D01*
X101128521Y-92699102D01*
X101128071Y-92770095D01*
X101089309Y-92829577D01*
X101024543Y-92858660D01*
X100954334Y-92848110D01*
X100947473Y-92844667D01*
X100870568Y-92803085D01*
X100849701Y-92791802D01*
X100660768Y-92733318D01*
X100654643Y-92732674D01*
X100654642Y-92732674D01*
X100470204Y-92713289D01*
X100470202Y-92713289D01*
X100464075Y-92712645D01*
X100381576Y-92720153D01*
X100273251Y-92730011D01*
X100273248Y-92730012D01*
X100267112Y-92730570D01*
X100261206Y-92732308D01*
X100261202Y-92732309D01*
X100156076Y-92763249D01*
X100077381Y-92786410D01*
X100071923Y-92789263D01*
X100071919Y-92789265D01*
X99987316Y-92833495D01*
X99902110Y-92878040D01*
X99747975Y-93001968D01*
X99620846Y-93153474D01*
X99617879Y-93158872D01*
X99617875Y-93158877D01*
X99568232Y-93249179D01*
X99525567Y-93326787D01*
X99465765Y-93515306D01*
X99443719Y-93711851D01*
X99460268Y-93908934D01*
X99514783Y-94099050D01*
X99517602Y-94104535D01*
X99594624Y-94254402D01*
X99605187Y-94274956D01*
X99728035Y-94429953D01*
X99732728Y-94433947D01*
X99732729Y-94433948D01*
X99796357Y-94488099D01*
X99878650Y-94558136D01*
X100051294Y-94654624D01*
X100239392Y-94715740D01*
X100435777Y-94739158D01*
X100441912Y-94738686D01*
X100441914Y-94738686D01*
X100626830Y-94724457D01*
X100626834Y-94724456D01*
X100632972Y-94723984D01*
X100823463Y-94670798D01*
X100828967Y-94668018D01*
X100828969Y-94668017D01*
X100994495Y-94584404D01*
X100994497Y-94584403D01*
X100999996Y-94581625D01*
X101090121Y-94511211D01*
X101156116Y-94485033D01*
X101167695Y-94484500D01*
X112581930Y-94484500D01*
X112600880Y-94485933D01*
X112615115Y-94488099D01*
X112615119Y-94488099D01*
X112622349Y-94489199D01*
X112629641Y-94488606D01*
X112629644Y-94488606D01*
X112675018Y-94484915D01*
X112685233Y-94484500D01*
X112693293Y-94484500D01*
X112706583Y-94482951D01*
X112721507Y-94481211D01*
X112725882Y-94480778D01*
X112791339Y-94475454D01*
X112791342Y-94475453D01*
X112798637Y-94474860D01*
X112805601Y-94472604D01*
X112811560Y-94471413D01*
X112817415Y-94470029D01*
X112824681Y-94469182D01*
X112893327Y-94444265D01*
X112897455Y-94442848D01*
X112959936Y-94422607D01*
X112959938Y-94422606D01*
X112966899Y-94420351D01*
X112973154Y-94416555D01*
X112978628Y-94414049D01*
X112984058Y-94411330D01*
X112990937Y-94408833D01*
X113051976Y-94368814D01*
X113055680Y-94366477D01*
X113118107Y-94328595D01*
X113126484Y-94321197D01*
X113126508Y-94321224D01*
X113129500Y-94318571D01*
X113132733Y-94315868D01*
X113138852Y-94311856D01*
X113192128Y-94255617D01*
X113194506Y-94253175D01*
X113571296Y-93876385D01*
X113633608Y-93842359D01*
X113650723Y-93839851D01*
X113657513Y-93839329D01*
X113707830Y-93835457D01*
X113707834Y-93835456D01*
X113713972Y-93834984D01*
X113904463Y-93781798D01*
X113909967Y-93779018D01*
X113909969Y-93779017D01*
X114075495Y-93695404D01*
X114075497Y-93695403D01*
X114080996Y-93692625D01*
X114236847Y-93570861D01*
X114366078Y-93421145D01*
X114463769Y-93249179D01*
X114526197Y-93061513D01*
X114550985Y-92865295D01*
X114551380Y-92837000D01*
X114532080Y-92640167D01*
X114474916Y-92450831D01*
X114382066Y-92276204D01*
X114311709Y-92189938D01*
X114260960Y-92127713D01*
X114260957Y-92127710D01*
X114257065Y-92122938D01*
X114250724Y-92117692D01*
X114109425Y-92000799D01*
X114109421Y-92000797D01*
X114104675Y-91996870D01*
X113930701Y-91902802D01*
X113741768Y-91844318D01*
X113735643Y-91843674D01*
X113735642Y-91843674D01*
X113551204Y-91824289D01*
X113551202Y-91824289D01*
X113545075Y-91823645D01*
X113462576Y-91831153D01*
X113354251Y-91841011D01*
X113354248Y-91841012D01*
X113348112Y-91841570D01*
X113342206Y-91843308D01*
X113342202Y-91843309D01*
X113276198Y-91862735D01*
X113158381Y-91897410D01*
X113152923Y-91900263D01*
X113152919Y-91900265D01*
X113120136Y-91917404D01*
X112983110Y-91989040D01*
X112828975Y-92112968D01*
X112701846Y-92264474D01*
X112698879Y-92269872D01*
X112698875Y-92269877D01*
X112695397Y-92276204D01*
X112606567Y-92437787D01*
X112604706Y-92443654D01*
X112604705Y-92443656D01*
X112548627Y-92620436D01*
X112546765Y-92626306D01*
X112544685Y-92644854D01*
X112535354Y-92728035D01*
X112507883Y-92793502D01*
X112499234Y-92803085D01*
X112371724Y-92930595D01*
X112309412Y-92964621D01*
X112282629Y-92967500D01*
X103175432Y-92967500D01*
X103107311Y-92947498D01*
X103060818Y-92893842D01*
X103050714Y-92823568D01*
X103055874Y-92801728D01*
X103058201Y-92794732D01*
X103096197Y-92680513D01*
X103120985Y-92484295D01*
X103121380Y-92456000D01*
X103102080Y-92259167D01*
X103044916Y-92069831D01*
X102952066Y-91895204D01*
X102847463Y-91766948D01*
X102830960Y-91746713D01*
X102830957Y-91746710D01*
X102827065Y-91741938D01*
X102822316Y-91738009D01*
X102679425Y-91619799D01*
X102679421Y-91619797D01*
X102674675Y-91615870D01*
X102500701Y-91521802D01*
X102311768Y-91463318D01*
X102305646Y-91462675D01*
X102305643Y-91462674D01*
X102260878Y-91457969D01*
X102217836Y-91453446D01*
X102152180Y-91426433D01*
X102141912Y-91417231D01*
X101294770Y-90570089D01*
X101282384Y-90555677D01*
X101273851Y-90544082D01*
X101273846Y-90544077D01*
X101269508Y-90538182D01*
X101263930Y-90533443D01*
X101263927Y-90533440D01*
X101229232Y-90503965D01*
X101221716Y-90497035D01*
X101216021Y-90491340D01*
X101203896Y-90481747D01*
X101193749Y-90473719D01*
X101190345Y-90470928D01*
X101140297Y-90428409D01*
X101140295Y-90428408D01*
X101134715Y-90423667D01*
X101128199Y-90420339D01*
X101123150Y-90416972D01*
X101118021Y-90413805D01*
X101112284Y-90409266D01*
X101046125Y-90378345D01*
X101042225Y-90376439D01*
X100977192Y-90343231D01*
X100970084Y-90341492D01*
X100964441Y-90339393D01*
X100958678Y-90337476D01*
X100952050Y-90334378D01*
X100880583Y-90319513D01*
X100876299Y-90318543D01*
X100805390Y-90301192D01*
X100799788Y-90300844D01*
X100799785Y-90300844D01*
X100794236Y-90300500D01*
X100794238Y-90300464D01*
X100790245Y-90300225D01*
X100786053Y-90299851D01*
X100778885Y-90298360D01*
X100712675Y-90300151D01*
X100701479Y-90300454D01*
X100698072Y-90300500D01*
X96849712Y-90300500D01*
X96781591Y-90280498D01*
X96769397Y-90271585D01*
X96747706Y-90253641D01*
X96705675Y-90218870D01*
X96531701Y-90124802D01*
X96342768Y-90066318D01*
X96336643Y-90065674D01*
X96336642Y-90065674D01*
X96152204Y-90046289D01*
X96152202Y-90046289D01*
X96146075Y-90045645D01*
X96063576Y-90053153D01*
X95955251Y-90063011D01*
X95955248Y-90063012D01*
X95949112Y-90063570D01*
X95943206Y-90065308D01*
X95943202Y-90065309D01*
X95838076Y-90096249D01*
X95759381Y-90119410D01*
X95753923Y-90122263D01*
X95753919Y-90122265D01*
X95663147Y-90169720D01*
X95584110Y-90211040D01*
X95429975Y-90334968D01*
X95302846Y-90486474D01*
X95299879Y-90491872D01*
X95299875Y-90491877D01*
X95221095Y-90635180D01*
X95207567Y-90659787D01*
X95147765Y-90848306D01*
X95125719Y-91044851D01*
X91737384Y-91044851D01*
X96536460Y-86245774D01*
X122878102Y-86245774D01*
X122886751Y-86476158D01*
X122934093Y-86701791D01*
X123018776Y-86916221D01*
X123021543Y-86920780D01*
X123021544Y-86920783D01*
X123086883Y-87028458D01*
X123138377Y-87113317D01*
X123141874Y-87117347D01*
X123284242Y-87281412D01*
X123289477Y-87287445D01*
X123293608Y-87290832D01*
X123463627Y-87430240D01*
X123463633Y-87430244D01*
X123467755Y-87433624D01*
X123472391Y-87436263D01*
X123472394Y-87436265D01*
X123577908Y-87496327D01*
X123668114Y-87547675D01*
X123884825Y-87626337D01*
X123890074Y-87627286D01*
X123890077Y-87627287D01*
X124107608Y-87666623D01*
X124107615Y-87666624D01*
X124111692Y-87667361D01*
X124129414Y-87668197D01*
X124134356Y-87668430D01*
X124134363Y-87668430D01*
X124135844Y-87668500D01*
X124297890Y-87668500D01*
X124364809Y-87662822D01*
X124464409Y-87654371D01*
X124464413Y-87654370D01*
X124469720Y-87653920D01*
X124474875Y-87652582D01*
X124474881Y-87652581D01*
X124687703Y-87597343D01*
X124687707Y-87597342D01*
X124692872Y-87596001D01*
X124697738Y-87593809D01*
X124697741Y-87593808D01*
X124898202Y-87503507D01*
X124903075Y-87501312D01*
X125094319Y-87372559D01*
X125100275Y-87366878D01*
X125257278Y-87217103D01*
X125261135Y-87213424D01*
X125398754Y-87028458D01*
X125402189Y-87021703D01*
X125500822Y-86827704D01*
X125503240Y-86822949D01*
X125539321Y-86706752D01*
X125570024Y-86607871D01*
X125571607Y-86602773D01*
X125572573Y-86595484D01*
X125601198Y-86379511D01*
X125601198Y-86379506D01*
X125601898Y-86374226D01*
X125593249Y-86143842D01*
X125545907Y-85918209D01*
X125496181Y-85792296D01*
X125463185Y-85708744D01*
X125463184Y-85708742D01*
X125461224Y-85703779D01*
X125341623Y-85506683D01*
X125254755Y-85406576D01*
X125194023Y-85336588D01*
X125194021Y-85336586D01*
X125190523Y-85332555D01*
X125148970Y-85298484D01*
X125016373Y-85189760D01*
X125016367Y-85189756D01*
X125012245Y-85186376D01*
X125007609Y-85183737D01*
X125007606Y-85183735D01*
X124816529Y-85074968D01*
X124811886Y-85072325D01*
X124595175Y-84993663D01*
X124589926Y-84992714D01*
X124589923Y-84992713D01*
X124372392Y-84953377D01*
X124372385Y-84953376D01*
X124368308Y-84952639D01*
X124350586Y-84951803D01*
X124345644Y-84951570D01*
X124345637Y-84951570D01*
X124344156Y-84951500D01*
X124182110Y-84951500D01*
X124115191Y-84957178D01*
X124015591Y-84965629D01*
X124015587Y-84965630D01*
X124010280Y-84966080D01*
X124005125Y-84967418D01*
X124005119Y-84967419D01*
X123792297Y-85022657D01*
X123792293Y-85022658D01*
X123787128Y-85023999D01*
X123782262Y-85026191D01*
X123782259Y-85026192D01*
X123678420Y-85072968D01*
X123576925Y-85118688D01*
X123385681Y-85247441D01*
X123218865Y-85406576D01*
X123081246Y-85591542D01*
X122976760Y-85797051D01*
X122975178Y-85802145D01*
X122975177Y-85802148D01*
X122913115Y-86002020D01*
X122908393Y-86017227D01*
X122907692Y-86022516D01*
X122879068Y-86238489D01*
X122878102Y-86245774D01*
X96536460Y-86245774D01*
X98551829Y-84230405D01*
X98614141Y-84196379D01*
X98640924Y-84193500D01*
X99375246Y-84193500D01*
X99443367Y-84213502D01*
X99489860Y-84267158D01*
X99493228Y-84275270D01*
X99514385Y-84331705D01*
X99601739Y-84448261D01*
X99718295Y-84535615D01*
X99854684Y-84586745D01*
X99916866Y-84593500D01*
X101813134Y-84593500D01*
X101875316Y-84586745D01*
X102011705Y-84535615D01*
X102128261Y-84448261D01*
X102215615Y-84331705D01*
X102266745Y-84195316D01*
X102273500Y-84133134D01*
X102273500Y-83150469D01*
X104532095Y-83150469D01*
X104532392Y-83155622D01*
X104532392Y-83155625D01*
X104538067Y-83254041D01*
X104545427Y-83381697D01*
X104546564Y-83386743D01*
X104546565Y-83386749D01*
X104578741Y-83529523D01*
X104596346Y-83607642D01*
X104598288Y-83612424D01*
X104598289Y-83612428D01*
X104673467Y-83797568D01*
X104683484Y-83822237D01*
X104804501Y-84019719D01*
X104956147Y-84194784D01*
X105134349Y-84342730D01*
X105334322Y-84459584D01*
X105550694Y-84542209D01*
X105555760Y-84543240D01*
X105555761Y-84543240D01*
X105608846Y-84554040D01*
X105777656Y-84588385D01*
X105907089Y-84593131D01*
X106003949Y-84596683D01*
X106003953Y-84596683D01*
X106009113Y-84596872D01*
X106014233Y-84596216D01*
X106014235Y-84596216D01*
X106088166Y-84586745D01*
X106238847Y-84567442D01*
X106243795Y-84565957D01*
X106243802Y-84565956D01*
X106455747Y-84502369D01*
X106460690Y-84500886D01*
X106541236Y-84461427D01*
X106664049Y-84401262D01*
X106664052Y-84401260D01*
X106668684Y-84398991D01*
X106857243Y-84264494D01*
X107021303Y-84101005D01*
X107024319Y-84096808D01*
X107024326Y-84096800D01*
X107111960Y-83974844D01*
X107167954Y-83931196D01*
X107238658Y-83924750D01*
X107301622Y-83957553D01*
X107321715Y-83982536D01*
X107341800Y-84015313D01*
X107341804Y-84015318D01*
X107344501Y-84019719D01*
X107496147Y-84194784D01*
X107674349Y-84342730D01*
X107874322Y-84459584D01*
X108090694Y-84542209D01*
X108095760Y-84543240D01*
X108095761Y-84543240D01*
X108148846Y-84554040D01*
X108317656Y-84588385D01*
X108447089Y-84593131D01*
X108543949Y-84596683D01*
X108543953Y-84596683D01*
X108549113Y-84596872D01*
X108554233Y-84596216D01*
X108554235Y-84596216D01*
X108628166Y-84586745D01*
X108778847Y-84567442D01*
X108783795Y-84565957D01*
X108783802Y-84565956D01*
X108995747Y-84502369D01*
X109000690Y-84500886D01*
X109081236Y-84461427D01*
X109204049Y-84401262D01*
X109204052Y-84401260D01*
X109208684Y-84398991D01*
X109397243Y-84264494D01*
X109561303Y-84101005D01*
X109564319Y-84096808D01*
X109564326Y-84096800D01*
X109651960Y-83974844D01*
X109707954Y-83931196D01*
X109778658Y-83924750D01*
X109841622Y-83957553D01*
X109861715Y-83982536D01*
X109881800Y-84015313D01*
X109881804Y-84015318D01*
X109884501Y-84019719D01*
X110036147Y-84194784D01*
X110214349Y-84342730D01*
X110414322Y-84459584D01*
X110630694Y-84542209D01*
X110635760Y-84543240D01*
X110635761Y-84543240D01*
X110688846Y-84554040D01*
X110857656Y-84588385D01*
X110987089Y-84593131D01*
X111083949Y-84596683D01*
X111083953Y-84596683D01*
X111089113Y-84596872D01*
X111094233Y-84596216D01*
X111094235Y-84596216D01*
X111168166Y-84586745D01*
X111318847Y-84567442D01*
X111323795Y-84565957D01*
X111323802Y-84565956D01*
X111535747Y-84502369D01*
X111540690Y-84500886D01*
X111621236Y-84461427D01*
X111744049Y-84401262D01*
X111744052Y-84401260D01*
X111748684Y-84398991D01*
X111937243Y-84264494D01*
X112101303Y-84101005D01*
X112236458Y-83912917D01*
X112283641Y-83817450D01*
X112336784Y-83709922D01*
X112336785Y-83709920D01*
X112339078Y-83705280D01*
X112406408Y-83483671D01*
X112436640Y-83254041D01*
X112438327Y-83185000D01*
X112432032Y-83108434D01*
X112419773Y-82959318D01*
X112419772Y-82959312D01*
X112419349Y-82954167D01*
X112362925Y-82729533D01*
X112360866Y-82724797D01*
X112272630Y-82521868D01*
X112272628Y-82521865D01*
X112270570Y-82517131D01*
X112144764Y-82322665D01*
X111988887Y-82151358D01*
X111984836Y-82148159D01*
X111984832Y-82148155D01*
X111811177Y-82011011D01*
X111811172Y-82011008D01*
X111807123Y-82007810D01*
X111802607Y-82005317D01*
X111802604Y-82005315D01*
X111608879Y-81898373D01*
X111608875Y-81898371D01*
X111604355Y-81895876D01*
X111599486Y-81894152D01*
X111599482Y-81894150D01*
X111390903Y-81820288D01*
X111390899Y-81820287D01*
X111386028Y-81818562D01*
X111380935Y-81817655D01*
X111380932Y-81817654D01*
X111163095Y-81778851D01*
X111163089Y-81778850D01*
X111158006Y-81777945D01*
X111085096Y-81777054D01*
X110931581Y-81775179D01*
X110931579Y-81775179D01*
X110926411Y-81775116D01*
X110697464Y-81810150D01*
X110477314Y-81882106D01*
X110472726Y-81884494D01*
X110472722Y-81884496D01*
X110276461Y-81986663D01*
X110271872Y-81989052D01*
X110267739Y-81992155D01*
X110267736Y-81992157D01*
X110195088Y-82046703D01*
X110086655Y-82128117D01*
X110060792Y-82155181D01*
X109973484Y-82246544D01*
X109926639Y-82295564D01*
X109859306Y-82394271D01*
X109804397Y-82439271D01*
X109733872Y-82447442D01*
X109670125Y-82416188D01*
X109649428Y-82391705D01*
X109614964Y-82338431D01*
X109604764Y-82322665D01*
X109448887Y-82151358D01*
X109444836Y-82148159D01*
X109444832Y-82148155D01*
X109271177Y-82011011D01*
X109271172Y-82011008D01*
X109267123Y-82007810D01*
X109262607Y-82005317D01*
X109262604Y-82005315D01*
X109068879Y-81898373D01*
X109068875Y-81898371D01*
X109064355Y-81895876D01*
X109059486Y-81894152D01*
X109059482Y-81894150D01*
X108850903Y-81820288D01*
X108850899Y-81820287D01*
X108846028Y-81818562D01*
X108840935Y-81817655D01*
X108840932Y-81817654D01*
X108623095Y-81778851D01*
X108623089Y-81778850D01*
X108618006Y-81777945D01*
X108545096Y-81777054D01*
X108391581Y-81775179D01*
X108391579Y-81775179D01*
X108386411Y-81775116D01*
X108157464Y-81810150D01*
X107937314Y-81882106D01*
X107932726Y-81884494D01*
X107932722Y-81884496D01*
X107736461Y-81986663D01*
X107731872Y-81989052D01*
X107727739Y-81992155D01*
X107727736Y-81992157D01*
X107655088Y-82046703D01*
X107546655Y-82128117D01*
X107520792Y-82155181D01*
X107433484Y-82246544D01*
X107386639Y-82295564D01*
X107319306Y-82394271D01*
X107264397Y-82439271D01*
X107193872Y-82447442D01*
X107130125Y-82416188D01*
X107109428Y-82391705D01*
X107074964Y-82338431D01*
X107064764Y-82322665D01*
X106908887Y-82151358D01*
X106904836Y-82148159D01*
X106904832Y-82148155D01*
X106731177Y-82011011D01*
X106731172Y-82011008D01*
X106727123Y-82007810D01*
X106722607Y-82005317D01*
X106722604Y-82005315D01*
X106528879Y-81898373D01*
X106528875Y-81898371D01*
X106524355Y-81895876D01*
X106519486Y-81894152D01*
X106519482Y-81894150D01*
X106310903Y-81820288D01*
X106310899Y-81820287D01*
X106306028Y-81818562D01*
X106300935Y-81817655D01*
X106300932Y-81817654D01*
X106083095Y-81778851D01*
X106083089Y-81778850D01*
X106078006Y-81777945D01*
X106005096Y-81777054D01*
X105851581Y-81775179D01*
X105851579Y-81775179D01*
X105846411Y-81775116D01*
X105617464Y-81810150D01*
X105397314Y-81882106D01*
X105392726Y-81884494D01*
X105392722Y-81884496D01*
X105196461Y-81986663D01*
X105191872Y-81989052D01*
X105187739Y-81992155D01*
X105187736Y-81992157D01*
X105115088Y-82046703D01*
X105006655Y-82128117D01*
X104980792Y-82155181D01*
X104893484Y-82246544D01*
X104846639Y-82295564D01*
X104843730Y-82299829D01*
X104843724Y-82299837D01*
X104828152Y-82322665D01*
X104716119Y-82486899D01*
X104618602Y-82696981D01*
X104556707Y-82920169D01*
X104532095Y-83150469D01*
X102273500Y-83150469D01*
X102273500Y-82236866D01*
X102266745Y-82174684D01*
X102215615Y-82038295D01*
X102128261Y-81921739D01*
X102011705Y-81834385D01*
X101875316Y-81783255D01*
X101813134Y-81776500D01*
X99916866Y-81776500D01*
X99854684Y-81783255D01*
X99718295Y-81834385D01*
X99601739Y-81921739D01*
X99514385Y-82038295D01*
X99511233Y-82046703D01*
X99493228Y-82094730D01*
X99450586Y-82151495D01*
X99384024Y-82176194D01*
X99375246Y-82176500D01*
X98232843Y-82176500D01*
X98219236Y-82175763D01*
X98187738Y-82172341D01*
X98187733Y-82172341D01*
X98181612Y-82171676D01*
X98155362Y-82173973D01*
X98131612Y-82176050D01*
X98126786Y-82176379D01*
X98124314Y-82176500D01*
X98121231Y-82176500D01*
X98109262Y-82177674D01*
X98078494Y-82180690D01*
X98077181Y-82180812D01*
X98032916Y-82184685D01*
X97984587Y-82188913D01*
X97979468Y-82190400D01*
X97974167Y-82190920D01*
X97885166Y-82217791D01*
X97884033Y-82218126D01*
X97800586Y-82242370D01*
X97800582Y-82242372D01*
X97794664Y-82244091D01*
X97789932Y-82246544D01*
X97784831Y-82248084D01*
X97779388Y-82250978D01*
X97702740Y-82291731D01*
X97701574Y-82292343D01*
X97634708Y-82327004D01*
X97619074Y-82335108D01*
X97614911Y-82338431D01*
X97610204Y-82340934D01*
X97538082Y-82399755D01*
X97537226Y-82400446D01*
X97498027Y-82431738D01*
X97495523Y-82434242D01*
X97494805Y-82434884D01*
X97490472Y-82438585D01*
X97456938Y-82465935D01*
X97453011Y-82470682D01*
X97453009Y-82470684D01*
X97427713Y-82501262D01*
X97419723Y-82510042D01*
X89241621Y-90688145D01*
X89231478Y-90697247D01*
X89201975Y-90720968D01*
X89198008Y-90725696D01*
X89169709Y-90759421D01*
X89166528Y-90763069D01*
X89164885Y-90764881D01*
X89162691Y-90767075D01*
X89135358Y-90800349D01*
X89134696Y-90801147D01*
X89074846Y-90872474D01*
X89072278Y-90877144D01*
X89068897Y-90881261D01*
X89037860Y-90939145D01*
X89025023Y-90963086D01*
X89024394Y-90964245D01*
X88982538Y-91040381D01*
X88982535Y-91040389D01*
X88979567Y-91045787D01*
X88977955Y-91050869D01*
X88975438Y-91055563D01*
X88948238Y-91144531D01*
X88947918Y-91145559D01*
X88919765Y-91234306D01*
X88919171Y-91239602D01*
X88917613Y-91244698D01*
X88916990Y-91250834D01*
X88908218Y-91337187D01*
X88908089Y-91338393D01*
X88902500Y-91388227D01*
X88902500Y-91391754D01*
X88902445Y-91392739D01*
X88901998Y-91398419D01*
X88897626Y-91441462D01*
X88901623Y-91483741D01*
X88901941Y-91487109D01*
X88902500Y-91498967D01*
X88902500Y-99976961D01*
X88882498Y-100045082D01*
X88858331Y-100072771D01*
X88814330Y-100110352D01*
X88814323Y-100110359D01*
X88810567Y-100113567D01*
X88651248Y-100300104D01*
X88591209Y-100398080D01*
X88572873Y-100421337D01*
X87788022Y-101206188D01*
X87780408Y-101220132D01*
X87050356Y-101220132D01*
X87051592Y-101217868D01*
X87051461Y-101216035D01*
X87047210Y-101209420D01*
X86159350Y-100321560D01*
X86146970Y-100314800D01*
X86139320Y-100320527D01*
X86026107Y-100505272D01*
X86021625Y-100514067D01*
X85931566Y-100731490D01*
X85928517Y-100740875D01*
X85873578Y-100969708D01*
X85872035Y-100979455D01*
X85853570Y-101214070D01*
X85853570Y-101223930D01*
X79984572Y-101223930D01*
X79935551Y-100966954D01*
X79836767Y-100662930D01*
X79766718Y-100514067D01*
X79702347Y-100377271D01*
X79702343Y-100377264D01*
X79700659Y-100373685D01*
X79696710Y-100367463D01*
X79531498Y-100107130D01*
X79531495Y-100107126D01*
X79529371Y-100103779D01*
X79417392Y-99968420D01*
X79402592Y-99950530D01*
X86511733Y-99950530D01*
X86515516Y-99959306D01*
X87403188Y-100846978D01*
X87417132Y-100854592D01*
X87418965Y-100854461D01*
X87425580Y-100850210D01*
X88313440Y-99962350D01*
X88320200Y-99949970D01*
X88314473Y-99942320D01*
X88129728Y-99829107D01*
X88120933Y-99824625D01*
X87903510Y-99734566D01*
X87894125Y-99731517D01*
X87665292Y-99676578D01*
X87655545Y-99675035D01*
X87420930Y-99656570D01*
X87411070Y-99656570D01*
X87176455Y-99675035D01*
X87166708Y-99676578D01*
X86937875Y-99731517D01*
X86928490Y-99734566D01*
X86711067Y-99824625D01*
X86702272Y-99829107D01*
X86521195Y-99940072D01*
X86511733Y-99950530D01*
X79402592Y-99950530D01*
X79328131Y-99860522D01*
X79328130Y-99860521D01*
X79325606Y-99857470D01*
X79092577Y-99638641D01*
X78833959Y-99450744D01*
X78553831Y-99296742D01*
X78391917Y-99232636D01*
X78260293Y-99180522D01*
X78260290Y-99180521D01*
X78256610Y-99179064D01*
X78252776Y-99178080D01*
X78252768Y-99178077D01*
X78060847Y-99128800D01*
X77946983Y-99099565D01*
X77943055Y-99099069D01*
X77943051Y-99099068D01*
X77817358Y-99083190D01*
X77629835Y-99059500D01*
X77310165Y-99059500D01*
X77122642Y-99083190D01*
X76996949Y-99099068D01*
X76996945Y-99099069D01*
X76993017Y-99099565D01*
X76879153Y-99128800D01*
X76687232Y-99178077D01*
X76687224Y-99178080D01*
X76683390Y-99179064D01*
X76679710Y-99180521D01*
X76679707Y-99180522D01*
X76548083Y-99232636D01*
X76386169Y-99296742D01*
X76106041Y-99450744D01*
X75847423Y-99638641D01*
X75614394Y-99857470D01*
X75611870Y-99860521D01*
X75611869Y-99860522D01*
X75522608Y-99968420D01*
X75410629Y-100103779D01*
X75408505Y-100107126D01*
X75408502Y-100107130D01*
X75243290Y-100367463D01*
X75239341Y-100373685D01*
X75237657Y-100377264D01*
X75237653Y-100377271D01*
X75173282Y-100514067D01*
X75103233Y-100662930D01*
X75004449Y-100966954D01*
X74944549Y-101280961D01*
X74924477Y-101600000D01*
X71247500Y-101600000D01*
X71247500Y-86243774D01*
X88935102Y-86243774D01*
X88943751Y-86474158D01*
X88991093Y-86699791D01*
X88993051Y-86704750D01*
X88993052Y-86704752D01*
X89041609Y-86827704D01*
X89075776Y-86914221D01*
X89195377Y-87111317D01*
X89198874Y-87115347D01*
X89285438Y-87215103D01*
X89346477Y-87285445D01*
X89350608Y-87288832D01*
X89520627Y-87428240D01*
X89520633Y-87428244D01*
X89524755Y-87431624D01*
X89529391Y-87434263D01*
X89529394Y-87434265D01*
X89532908Y-87436265D01*
X89725114Y-87545675D01*
X89941825Y-87624337D01*
X89947074Y-87625286D01*
X89947077Y-87625287D01*
X90164608Y-87664623D01*
X90164615Y-87664624D01*
X90168692Y-87665361D01*
X90186414Y-87666197D01*
X90191356Y-87666430D01*
X90191363Y-87666430D01*
X90192844Y-87666500D01*
X90354890Y-87666500D01*
X90421809Y-87660822D01*
X90521409Y-87652371D01*
X90521413Y-87652370D01*
X90526720Y-87651920D01*
X90531875Y-87650582D01*
X90531881Y-87650581D01*
X90744703Y-87595343D01*
X90744707Y-87595342D01*
X90749872Y-87594001D01*
X90754738Y-87591809D01*
X90754741Y-87591808D01*
X90955202Y-87501507D01*
X90960075Y-87499312D01*
X91151319Y-87370559D01*
X91318135Y-87211424D01*
X91455754Y-87026458D01*
X91560240Y-86820949D01*
X91595700Y-86706752D01*
X91627024Y-86605871D01*
X91628607Y-86600773D01*
X91629308Y-86595484D01*
X91658198Y-86377511D01*
X91658198Y-86377506D01*
X91658898Y-86372226D01*
X91650249Y-86141842D01*
X91602907Y-85916209D01*
X91518224Y-85701779D01*
X91451331Y-85591542D01*
X91401390Y-85509243D01*
X91398623Y-85504683D01*
X91315467Y-85408854D01*
X91251023Y-85334588D01*
X91251021Y-85334586D01*
X91247523Y-85330555D01*
X91150648Y-85251122D01*
X91073373Y-85187760D01*
X91073367Y-85187756D01*
X91069245Y-85184376D01*
X91064609Y-85181737D01*
X91064606Y-85181735D01*
X90873529Y-85072968D01*
X90868886Y-85070325D01*
X90652175Y-84991663D01*
X90646926Y-84990714D01*
X90646923Y-84990713D01*
X90429392Y-84951377D01*
X90429385Y-84951376D01*
X90425308Y-84950639D01*
X90407586Y-84949803D01*
X90402644Y-84949570D01*
X90402637Y-84949570D01*
X90401156Y-84949500D01*
X90239110Y-84949500D01*
X90172191Y-84955178D01*
X90072591Y-84963629D01*
X90072587Y-84963630D01*
X90067280Y-84964080D01*
X90062125Y-84965418D01*
X90062119Y-84965419D01*
X89849297Y-85020657D01*
X89849293Y-85020658D01*
X89844128Y-85021999D01*
X89839262Y-85024191D01*
X89839259Y-85024192D01*
X89692371Y-85090360D01*
X89633925Y-85116688D01*
X89442681Y-85245441D01*
X89438824Y-85249120D01*
X89438822Y-85249122D01*
X89369464Y-85315287D01*
X89275865Y-85404576D01*
X89138246Y-85589542D01*
X89135830Y-85594293D01*
X89135828Y-85594297D01*
X89086003Y-85692296D01*
X89033760Y-85795051D01*
X89032178Y-85800145D01*
X89032177Y-85800148D01*
X88970115Y-86000020D01*
X88965393Y-86015227D01*
X88964692Y-86020516D01*
X88948347Y-86143842D01*
X88935102Y-86243774D01*
X71247500Y-86243774D01*
X71247500Y-78740000D01*
X74924477Y-78740000D01*
X74944549Y-79059039D01*
X75004449Y-79373046D01*
X75103233Y-79677070D01*
X75104920Y-79680656D01*
X75104922Y-79680660D01*
X75237653Y-79962729D01*
X75237657Y-79962736D01*
X75239341Y-79966315D01*
X75241465Y-79969661D01*
X75241465Y-79969662D01*
X75396162Y-80213424D01*
X75410629Y-80236221D01*
X75614394Y-80482530D01*
X75847423Y-80701359D01*
X76106041Y-80889256D01*
X76386169Y-81043258D01*
X76548083Y-81107364D01*
X76679707Y-81159478D01*
X76679710Y-81159479D01*
X76683390Y-81160936D01*
X76687224Y-81161920D01*
X76687232Y-81161923D01*
X76879153Y-81211200D01*
X76993017Y-81240435D01*
X76996945Y-81240931D01*
X76996949Y-81240932D01*
X77122642Y-81256810D01*
X77310165Y-81280500D01*
X77629835Y-81280500D01*
X77817358Y-81256810D01*
X77943051Y-81240932D01*
X77943055Y-81240931D01*
X77946983Y-81240435D01*
X78060847Y-81211200D01*
X78252768Y-81161923D01*
X78252776Y-81161920D01*
X78256610Y-81160936D01*
X78260290Y-81159479D01*
X78260293Y-81159478D01*
X78391917Y-81107364D01*
X78553831Y-81043258D01*
X78833959Y-80889256D01*
X79092577Y-80701359D01*
X79325606Y-80482530D01*
X79529371Y-80236221D01*
X79543839Y-80213424D01*
X79698535Y-79969662D01*
X79698535Y-79969661D01*
X79700659Y-79966315D01*
X79702343Y-79962736D01*
X79702347Y-79962729D01*
X79835078Y-79680660D01*
X79835080Y-79680656D01*
X79836767Y-79677070D01*
X79935551Y-79373046D01*
X79960211Y-79243774D01*
X88935102Y-79243774D01*
X88935302Y-79249103D01*
X88935302Y-79249105D01*
X88935912Y-79265340D01*
X88943751Y-79474158D01*
X88991093Y-79699791D01*
X88993051Y-79704750D01*
X88993052Y-79704752D01*
X89041609Y-79827704D01*
X89075776Y-79914221D01*
X89195377Y-80111317D01*
X89198874Y-80115347D01*
X89311158Y-80244743D01*
X89346477Y-80285445D01*
X89350608Y-80288832D01*
X89520627Y-80428240D01*
X89520633Y-80428244D01*
X89524755Y-80431624D01*
X89529391Y-80434263D01*
X89529394Y-80434265D01*
X89638422Y-80496327D01*
X89725114Y-80545675D01*
X89941825Y-80624337D01*
X89947074Y-80625286D01*
X89947077Y-80625287D01*
X90164608Y-80664623D01*
X90164615Y-80664624D01*
X90168692Y-80665361D01*
X90186414Y-80666197D01*
X90191356Y-80666430D01*
X90191363Y-80666430D01*
X90192844Y-80666500D01*
X90354890Y-80666500D01*
X90421809Y-80660822D01*
X90521409Y-80652371D01*
X90521413Y-80652370D01*
X90526720Y-80651920D01*
X90531875Y-80650582D01*
X90531881Y-80650581D01*
X90744703Y-80595343D01*
X90744707Y-80595342D01*
X90749872Y-80594001D01*
X90754738Y-80591809D01*
X90754741Y-80591808D01*
X90955202Y-80501507D01*
X90960075Y-80499312D01*
X91151319Y-80370559D01*
X91318135Y-80211424D01*
X91455754Y-80026458D01*
X91488156Y-79962729D01*
X91515342Y-79909256D01*
X91560240Y-79820949D01*
X91595700Y-79706752D01*
X91627024Y-79605871D01*
X91628607Y-79600773D01*
X91639814Y-79516216D01*
X91658198Y-79377511D01*
X91658198Y-79377506D01*
X91658898Y-79372226D01*
X91656900Y-79318991D01*
X91654926Y-79266406D01*
X100068423Y-79266406D01*
X100073704Y-79273461D01*
X100250080Y-79376527D01*
X100259363Y-79380974D01*
X100466003Y-79459883D01*
X100475901Y-79462759D01*
X100692653Y-79506857D01*
X100702883Y-79508076D01*
X100923914Y-79516182D01*
X100934223Y-79515714D01*
X101153623Y-79487608D01*
X101163688Y-79485468D01*
X101375557Y-79421905D01*
X101385152Y-79418144D01*
X101583778Y-79320838D01*
X101592636Y-79315559D01*
X101650097Y-79274572D01*
X101658497Y-79263874D01*
X101651510Y-79250721D01*
X100877811Y-78477021D01*
X100863868Y-78469408D01*
X100862034Y-78469539D01*
X100855420Y-78473790D01*
X100075180Y-79254031D01*
X100068423Y-79266406D01*
X91654926Y-79266406D01*
X91650449Y-79147173D01*
X91650249Y-79141842D01*
X91602907Y-78916209D01*
X91596601Y-78900242D01*
X91520185Y-78706744D01*
X91520184Y-78706742D01*
X91518224Y-78701779D01*
X91468686Y-78620142D01*
X91401390Y-78509243D01*
X91398623Y-78504683D01*
X91315467Y-78408854D01*
X91251023Y-78334588D01*
X91251021Y-78334586D01*
X91247523Y-78330555D01*
X91150648Y-78251122D01*
X91073373Y-78187760D01*
X91073367Y-78187756D01*
X91069245Y-78184376D01*
X91064609Y-78181737D01*
X91064606Y-78181735D01*
X90878220Y-78075638D01*
X99452893Y-78075638D01*
X99465627Y-78296468D01*
X99467061Y-78306670D01*
X99515685Y-78522439D01*
X99518773Y-78532292D01*
X99601986Y-78737220D01*
X99606634Y-78746421D01*
X99695097Y-78890781D01*
X99705553Y-78900242D01*
X99714331Y-78896458D01*
X100492979Y-78117811D01*
X100499356Y-78106132D01*
X101229408Y-78106132D01*
X101229539Y-78107966D01*
X101233790Y-78114580D01*
X102011307Y-78892096D01*
X102023313Y-78898652D01*
X102035052Y-78889684D01*
X102073010Y-78836859D01*
X102078321Y-78828020D01*
X102176318Y-78629737D01*
X102180117Y-78620142D01*
X102244415Y-78408517D01*
X102246594Y-78398436D01*
X102275702Y-78177338D01*
X102276221Y-78170663D01*
X102277744Y-78108364D01*
X102277550Y-78101646D01*
X102274987Y-78070469D01*
X104532095Y-78070469D01*
X104532392Y-78075622D01*
X104532392Y-78075625D01*
X104545129Y-78296529D01*
X104545427Y-78301697D01*
X104546564Y-78306743D01*
X104546565Y-78306749D01*
X104571425Y-78417061D01*
X104596346Y-78527642D01*
X104598288Y-78532424D01*
X104598289Y-78532428D01*
X104667868Y-78703779D01*
X104683484Y-78742237D01*
X104804501Y-78939719D01*
X104956147Y-79114784D01*
X105134349Y-79262730D01*
X105334322Y-79379584D01*
X105550694Y-79462209D01*
X105555760Y-79463240D01*
X105555761Y-79463240D01*
X105583222Y-79468827D01*
X105777656Y-79508385D01*
X105908324Y-79513176D01*
X106003949Y-79516683D01*
X106003953Y-79516683D01*
X106009113Y-79516872D01*
X106014233Y-79516216D01*
X106014235Y-79516216D01*
X106087291Y-79506857D01*
X106238847Y-79487442D01*
X106243795Y-79485957D01*
X106243802Y-79485956D01*
X106455747Y-79422369D01*
X106460690Y-79420886D01*
X106542161Y-79380974D01*
X106664049Y-79321262D01*
X106664052Y-79321260D01*
X106668684Y-79318991D01*
X106857243Y-79184494D01*
X107021303Y-79021005D01*
X107024319Y-79016808D01*
X107024326Y-79016800D01*
X107111960Y-78894844D01*
X107167954Y-78851196D01*
X107238658Y-78844750D01*
X107301622Y-78877553D01*
X107321715Y-78902536D01*
X107341800Y-78935313D01*
X107341804Y-78935318D01*
X107344501Y-78939719D01*
X107496147Y-79114784D01*
X107674349Y-79262730D01*
X107874322Y-79379584D01*
X108090694Y-79462209D01*
X108095760Y-79463240D01*
X108095761Y-79463240D01*
X108123222Y-79468827D01*
X108317656Y-79508385D01*
X108448324Y-79513176D01*
X108543949Y-79516683D01*
X108543953Y-79516683D01*
X108549113Y-79516872D01*
X108554233Y-79516216D01*
X108554235Y-79516216D01*
X108627291Y-79506857D01*
X108778847Y-79487442D01*
X108783795Y-79485957D01*
X108783802Y-79485956D01*
X108995747Y-79422369D01*
X109000690Y-79420886D01*
X109082161Y-79380974D01*
X109204049Y-79321262D01*
X109204052Y-79321260D01*
X109208684Y-79318991D01*
X109397243Y-79184494D01*
X109561303Y-79021005D01*
X109564319Y-79016808D01*
X109564326Y-79016800D01*
X109651960Y-78894844D01*
X109707954Y-78851196D01*
X109778658Y-78844750D01*
X109841622Y-78877553D01*
X109861715Y-78902536D01*
X109881800Y-78935313D01*
X109881804Y-78935318D01*
X109884501Y-78939719D01*
X110036147Y-79114784D01*
X110214349Y-79262730D01*
X110414322Y-79379584D01*
X110630694Y-79462209D01*
X110635760Y-79463240D01*
X110635761Y-79463240D01*
X110663222Y-79468827D01*
X110857656Y-79508385D01*
X110988324Y-79513176D01*
X111083949Y-79516683D01*
X111083953Y-79516683D01*
X111089113Y-79516872D01*
X111094233Y-79516216D01*
X111094235Y-79516216D01*
X111167291Y-79506857D01*
X111318847Y-79487442D01*
X111323795Y-79485957D01*
X111323802Y-79485956D01*
X111535747Y-79422369D01*
X111540690Y-79420886D01*
X111622161Y-79380974D01*
X111744049Y-79321262D01*
X111744052Y-79321260D01*
X111748684Y-79318991D01*
X111851331Y-79245774D01*
X122878102Y-79245774D01*
X122878302Y-79251103D01*
X122878302Y-79251105D01*
X122879141Y-79273461D01*
X122886751Y-79476158D01*
X122934093Y-79701791D01*
X123018776Y-79916221D01*
X123021543Y-79920780D01*
X123021544Y-79920783D01*
X123086883Y-80028458D01*
X123138377Y-80113317D01*
X123141874Y-80117347D01*
X123284242Y-80281412D01*
X123289477Y-80287445D01*
X123293608Y-80290832D01*
X123463627Y-80430240D01*
X123463633Y-80430244D01*
X123467755Y-80433624D01*
X123472391Y-80436263D01*
X123472394Y-80436265D01*
X123558440Y-80485245D01*
X123668114Y-80547675D01*
X123884825Y-80626337D01*
X123890074Y-80627286D01*
X123890077Y-80627287D01*
X124107608Y-80666623D01*
X124107615Y-80666624D01*
X124111692Y-80667361D01*
X124129414Y-80668197D01*
X124134356Y-80668430D01*
X124134363Y-80668430D01*
X124135844Y-80668500D01*
X124297890Y-80668500D01*
X124364809Y-80662822D01*
X124464409Y-80654371D01*
X124464413Y-80654370D01*
X124469720Y-80653920D01*
X124474875Y-80652582D01*
X124474881Y-80652581D01*
X124687703Y-80597343D01*
X124687707Y-80597342D01*
X124692872Y-80596001D01*
X124697738Y-80593809D01*
X124697741Y-80593808D01*
X124898202Y-80503507D01*
X124903075Y-80501312D01*
X125094319Y-80372559D01*
X125100275Y-80366878D01*
X125234038Y-80239273D01*
X125261135Y-80213424D01*
X125398754Y-80028458D01*
X125402189Y-80021703D01*
X125500822Y-79827704D01*
X125503240Y-79822949D01*
X125505002Y-79817277D01*
X125570024Y-79607871D01*
X125571607Y-79602773D01*
X125584158Y-79508076D01*
X125601198Y-79379511D01*
X125601198Y-79379506D01*
X125601898Y-79374226D01*
X125593249Y-79143842D01*
X125545907Y-78918209D01*
X125543158Y-78911248D01*
X125475529Y-78740000D01*
X134614477Y-78740000D01*
X134634549Y-79059039D01*
X134694449Y-79373046D01*
X134793233Y-79677070D01*
X134794920Y-79680656D01*
X134794922Y-79680660D01*
X134927653Y-79962729D01*
X134927657Y-79962736D01*
X134929341Y-79966315D01*
X134931465Y-79969661D01*
X134931465Y-79969662D01*
X135086162Y-80213424D01*
X135100629Y-80236221D01*
X135304394Y-80482530D01*
X135537423Y-80701359D01*
X135796041Y-80889256D01*
X136076169Y-81043258D01*
X136238083Y-81107364D01*
X136369707Y-81159478D01*
X136369710Y-81159479D01*
X136373390Y-81160936D01*
X136377224Y-81161920D01*
X136377232Y-81161923D01*
X136569153Y-81211200D01*
X136683017Y-81240435D01*
X136686945Y-81240931D01*
X136686949Y-81240932D01*
X136812642Y-81256810D01*
X137000165Y-81280500D01*
X137319835Y-81280500D01*
X137507358Y-81256810D01*
X137633051Y-81240932D01*
X137633055Y-81240931D01*
X137636983Y-81240435D01*
X137750847Y-81211200D01*
X137942768Y-81161923D01*
X137942776Y-81161920D01*
X137946610Y-81160936D01*
X137950290Y-81159479D01*
X137950293Y-81159478D01*
X138081917Y-81107364D01*
X138243831Y-81043258D01*
X138523959Y-80889256D01*
X138782577Y-80701359D01*
X139015606Y-80482530D01*
X139219371Y-80236221D01*
X139233839Y-80213424D01*
X139388535Y-79969662D01*
X139388535Y-79969661D01*
X139390659Y-79966315D01*
X139392343Y-79962736D01*
X139392347Y-79962729D01*
X139525078Y-79680660D01*
X139525080Y-79680656D01*
X139526767Y-79677070D01*
X139625551Y-79373046D01*
X139685451Y-79059039D01*
X139705523Y-78740000D01*
X139685451Y-78420961D01*
X139625551Y-78106954D01*
X139526767Y-77802930D01*
X139497433Y-77740592D01*
X139392347Y-77517271D01*
X139392343Y-77517264D01*
X139390659Y-77513685D01*
X139345241Y-77442118D01*
X139221498Y-77247130D01*
X139221495Y-77247126D01*
X139219371Y-77243779D01*
X139015606Y-76997470D01*
X138782577Y-76778641D01*
X138523959Y-76590744D01*
X138243831Y-76436742D01*
X138081917Y-76372636D01*
X137950293Y-76320522D01*
X137950290Y-76320521D01*
X137946610Y-76319064D01*
X137942776Y-76318080D01*
X137942768Y-76318077D01*
X137750847Y-76268800D01*
X137636983Y-76239565D01*
X137633055Y-76239069D01*
X137633051Y-76239068D01*
X137507358Y-76223190D01*
X137319835Y-76199500D01*
X137000165Y-76199500D01*
X136812642Y-76223190D01*
X136686949Y-76239068D01*
X136686945Y-76239069D01*
X136683017Y-76239565D01*
X136569153Y-76268800D01*
X136377232Y-76318077D01*
X136377224Y-76318080D01*
X136373390Y-76319064D01*
X136369710Y-76320521D01*
X136369707Y-76320522D01*
X136238083Y-76372636D01*
X136076169Y-76436742D01*
X135796041Y-76590744D01*
X135537423Y-76778641D01*
X135304394Y-76997470D01*
X135100629Y-77243779D01*
X135098505Y-77247126D01*
X135098502Y-77247130D01*
X134974759Y-77442118D01*
X134929341Y-77513685D01*
X134927657Y-77517264D01*
X134927653Y-77517271D01*
X134822567Y-77740592D01*
X134793233Y-77802930D01*
X134694449Y-78106954D01*
X134634549Y-78420961D01*
X134614477Y-78740000D01*
X125475529Y-78740000D01*
X125463185Y-78708744D01*
X125463184Y-78708742D01*
X125461224Y-78703779D01*
X125416407Y-78629922D01*
X125344390Y-78511243D01*
X125341623Y-78506683D01*
X125309278Y-78469408D01*
X125194023Y-78336588D01*
X125194021Y-78336586D01*
X125190523Y-78332555D01*
X125113272Y-78269213D01*
X125016373Y-78189760D01*
X125016367Y-78189756D01*
X125012245Y-78186376D01*
X125007609Y-78183737D01*
X125007606Y-78183735D01*
X124816529Y-78074968D01*
X124811886Y-78072325D01*
X124595175Y-77993663D01*
X124589926Y-77992714D01*
X124589923Y-77992713D01*
X124372392Y-77953377D01*
X124372385Y-77953376D01*
X124368308Y-77952639D01*
X124350586Y-77951803D01*
X124345644Y-77951570D01*
X124345637Y-77951570D01*
X124344156Y-77951500D01*
X124182110Y-77951500D01*
X124115191Y-77957178D01*
X124015591Y-77965629D01*
X124015587Y-77965630D01*
X124010280Y-77966080D01*
X124005125Y-77967418D01*
X124005119Y-77967419D01*
X123792297Y-78022657D01*
X123792293Y-78022658D01*
X123787128Y-78023999D01*
X123782262Y-78026191D01*
X123782259Y-78026192D01*
X123678420Y-78072968D01*
X123576925Y-78118688D01*
X123385681Y-78247441D01*
X123218865Y-78406576D01*
X123081246Y-78591542D01*
X123078830Y-78596293D01*
X123078828Y-78596297D01*
X123029003Y-78694296D01*
X122976760Y-78797051D01*
X122975178Y-78802145D01*
X122975177Y-78802148D01*
X122933828Y-78935313D01*
X122908393Y-79017227D01*
X122907692Y-79022516D01*
X122879068Y-79238489D01*
X122878102Y-79245774D01*
X111851331Y-79245774D01*
X111937243Y-79184494D01*
X112101303Y-79021005D01*
X112236458Y-78832917D01*
X112238879Y-78828020D01*
X112336784Y-78629922D01*
X112336785Y-78629920D01*
X112339078Y-78625280D01*
X112406408Y-78403671D01*
X112436640Y-78174041D01*
X112437920Y-78121673D01*
X112438245Y-78108365D01*
X112438245Y-78108361D01*
X112438327Y-78105000D01*
X112429323Y-77995484D01*
X112419773Y-77879318D01*
X112419772Y-77879312D01*
X112419349Y-77874167D01*
X112385797Y-77740592D01*
X112364184Y-77654544D01*
X112364183Y-77654540D01*
X112362925Y-77649533D01*
X112351017Y-77622146D01*
X112272630Y-77441868D01*
X112272628Y-77441865D01*
X112270570Y-77437131D01*
X112144764Y-77242665D01*
X112138024Y-77235257D01*
X112095134Y-77188122D01*
X111988887Y-77071358D01*
X111984836Y-77068159D01*
X111984832Y-77068155D01*
X111811177Y-76931011D01*
X111811172Y-76931008D01*
X111807123Y-76927810D01*
X111802607Y-76925317D01*
X111802604Y-76925315D01*
X111608879Y-76818373D01*
X111608875Y-76818371D01*
X111604355Y-76815876D01*
X111599486Y-76814152D01*
X111599482Y-76814150D01*
X111390903Y-76740288D01*
X111390899Y-76740287D01*
X111386028Y-76738562D01*
X111380935Y-76737655D01*
X111380932Y-76737654D01*
X111163095Y-76698851D01*
X111163089Y-76698850D01*
X111158006Y-76697945D01*
X111085096Y-76697054D01*
X110931581Y-76695179D01*
X110931579Y-76695179D01*
X110926411Y-76695116D01*
X110697464Y-76730150D01*
X110477314Y-76802106D01*
X110472726Y-76804494D01*
X110472722Y-76804496D01*
X110276461Y-76906663D01*
X110271872Y-76909052D01*
X110267739Y-76912155D01*
X110267736Y-76912157D01*
X110090790Y-77045012D01*
X110086655Y-77048117D01*
X109926639Y-77215564D01*
X109859306Y-77314271D01*
X109804397Y-77359271D01*
X109733872Y-77367442D01*
X109670125Y-77336188D01*
X109649428Y-77311705D01*
X109607571Y-77247004D01*
X109604764Y-77242665D01*
X109598024Y-77235257D01*
X109555134Y-77188122D01*
X109448887Y-77071358D01*
X109444836Y-77068159D01*
X109444832Y-77068155D01*
X109271177Y-76931011D01*
X109271172Y-76931008D01*
X109267123Y-76927810D01*
X109262607Y-76925317D01*
X109262604Y-76925315D01*
X109068879Y-76818373D01*
X109068875Y-76818371D01*
X109064355Y-76815876D01*
X109059486Y-76814152D01*
X109059482Y-76814150D01*
X108850903Y-76740288D01*
X108850899Y-76740287D01*
X108846028Y-76738562D01*
X108840935Y-76737655D01*
X108840932Y-76737654D01*
X108623095Y-76698851D01*
X108623089Y-76698850D01*
X108618006Y-76697945D01*
X108545096Y-76697054D01*
X108391581Y-76695179D01*
X108391579Y-76695179D01*
X108386411Y-76695116D01*
X108157464Y-76730150D01*
X107937314Y-76802106D01*
X107932726Y-76804494D01*
X107932722Y-76804496D01*
X107736461Y-76906663D01*
X107731872Y-76909052D01*
X107727739Y-76912155D01*
X107727736Y-76912157D01*
X107550790Y-77045012D01*
X107546655Y-77048117D01*
X107386639Y-77215564D01*
X107319306Y-77314271D01*
X107264397Y-77359271D01*
X107193872Y-77367442D01*
X107130125Y-77336188D01*
X107109428Y-77311705D01*
X107067571Y-77247004D01*
X107064764Y-77242665D01*
X107058024Y-77235257D01*
X107015134Y-77188122D01*
X106908887Y-77071358D01*
X106904836Y-77068159D01*
X106904832Y-77068155D01*
X106731177Y-76931011D01*
X106731172Y-76931008D01*
X106727123Y-76927810D01*
X106722607Y-76925317D01*
X106722604Y-76925315D01*
X106528879Y-76818373D01*
X106528875Y-76818371D01*
X106524355Y-76815876D01*
X106519486Y-76814152D01*
X106519482Y-76814150D01*
X106310903Y-76740288D01*
X106310899Y-76740287D01*
X106306028Y-76738562D01*
X106300935Y-76737655D01*
X106300932Y-76737654D01*
X106083095Y-76698851D01*
X106083089Y-76698850D01*
X106078006Y-76697945D01*
X106005096Y-76697054D01*
X105851581Y-76695179D01*
X105851579Y-76695179D01*
X105846411Y-76695116D01*
X105617464Y-76730150D01*
X105397314Y-76802106D01*
X105392726Y-76804494D01*
X105392722Y-76804496D01*
X105196461Y-76906663D01*
X105191872Y-76909052D01*
X105187739Y-76912155D01*
X105187736Y-76912157D01*
X105010790Y-77045012D01*
X105006655Y-77048117D01*
X104846639Y-77215564D01*
X104843730Y-77219829D01*
X104843724Y-77219837D01*
X104829474Y-77240727D01*
X104716119Y-77406899D01*
X104618602Y-77616981D01*
X104556707Y-77840169D01*
X104532095Y-78070469D01*
X102274987Y-78070469D01*
X102259279Y-77879400D01*
X102257596Y-77869238D01*
X102203710Y-77654708D01*
X102200389Y-77644953D01*
X102112193Y-77442118D01*
X102107315Y-77433020D01*
X102034224Y-77320038D01*
X102023538Y-77310835D01*
X102013973Y-77315238D01*
X101237021Y-78092189D01*
X101229408Y-78106132D01*
X100499356Y-78106132D01*
X100500592Y-78103868D01*
X100500461Y-78102034D01*
X100496210Y-78095420D01*
X99718862Y-77318073D01*
X99707330Y-77311776D01*
X99695048Y-77321399D01*
X99639467Y-77402877D01*
X99634379Y-77411833D01*
X99541252Y-77612459D01*
X99537689Y-77622146D01*
X99478581Y-77835280D01*
X99476650Y-77845400D01*
X99453145Y-78065349D01*
X99452893Y-78075638D01*
X90878220Y-78075638D01*
X90873529Y-78072968D01*
X90868886Y-78070325D01*
X90652175Y-77991663D01*
X90646926Y-77990714D01*
X90646923Y-77990713D01*
X90429392Y-77951377D01*
X90429385Y-77951376D01*
X90425308Y-77950639D01*
X90407586Y-77949803D01*
X90402644Y-77949570D01*
X90402637Y-77949570D01*
X90401156Y-77949500D01*
X90239110Y-77949500D01*
X90172191Y-77955178D01*
X90072591Y-77963629D01*
X90072587Y-77963630D01*
X90067280Y-77964080D01*
X90062125Y-77965418D01*
X90062119Y-77965419D01*
X89849297Y-78020657D01*
X89849293Y-78020658D01*
X89844128Y-78021999D01*
X89839262Y-78024191D01*
X89839259Y-78024192D01*
X89725082Y-78075625D01*
X89633925Y-78116688D01*
X89442681Y-78245441D01*
X89438824Y-78249120D01*
X89438822Y-78249122D01*
X89389191Y-78296468D01*
X89275865Y-78404576D01*
X89138246Y-78589542D01*
X89135830Y-78594293D01*
X89135828Y-78594297D01*
X89122688Y-78620142D01*
X89033760Y-78795051D01*
X89032178Y-78800145D01*
X89032177Y-78800148D01*
X88970115Y-79000020D01*
X88965393Y-79015227D01*
X88964692Y-79020516D01*
X88942959Y-79184494D01*
X88935102Y-79243774D01*
X79960211Y-79243774D01*
X79995451Y-79059039D01*
X80015523Y-78740000D01*
X79995451Y-78420961D01*
X79935551Y-78106954D01*
X79836767Y-77802930D01*
X79807433Y-77740592D01*
X79702347Y-77517271D01*
X79702343Y-77517264D01*
X79700659Y-77513685D01*
X79655241Y-77442118D01*
X79531498Y-77247130D01*
X79531495Y-77247126D01*
X79529371Y-77243779D01*
X79325606Y-76997470D01*
X79270488Y-76945711D01*
X100070508Y-76945711D01*
X100077251Y-76958040D01*
X100852189Y-77732979D01*
X100866132Y-77740592D01*
X100867966Y-77740461D01*
X100874580Y-77736210D01*
X101653994Y-76956795D01*
X101661011Y-76943944D01*
X101653237Y-76933274D01*
X101650902Y-76931430D01*
X101642320Y-76925729D01*
X101448678Y-76818833D01*
X101439272Y-76814606D01*
X101230772Y-76740772D01*
X101220809Y-76738140D01*
X101003047Y-76699350D01*
X100992796Y-76698381D01*
X100771616Y-76695679D01*
X100761332Y-76696399D01*
X100542693Y-76729855D01*
X100532666Y-76732244D01*
X100322426Y-76800961D01*
X100312916Y-76804958D01*
X100116725Y-76907089D01*
X100108007Y-76912578D01*
X100078961Y-76934386D01*
X100070508Y-76945711D01*
X79270488Y-76945711D01*
X79092577Y-76778641D01*
X78833959Y-76590744D01*
X78553831Y-76436742D01*
X78391917Y-76372636D01*
X78260293Y-76320522D01*
X78260290Y-76320521D01*
X78256610Y-76319064D01*
X78252776Y-76318080D01*
X78252768Y-76318077D01*
X78060847Y-76268800D01*
X77946983Y-76239565D01*
X77943055Y-76239069D01*
X77943051Y-76239068D01*
X77817358Y-76223190D01*
X77629835Y-76199500D01*
X77310165Y-76199500D01*
X77122642Y-76223190D01*
X76996949Y-76239068D01*
X76996945Y-76239069D01*
X76993017Y-76239565D01*
X76879153Y-76268800D01*
X76687232Y-76318077D01*
X76687224Y-76318080D01*
X76683390Y-76319064D01*
X76679710Y-76320521D01*
X76679707Y-76320522D01*
X76548083Y-76372636D01*
X76386169Y-76436742D01*
X76106041Y-76590744D01*
X75847423Y-76778641D01*
X75614394Y-76997470D01*
X75410629Y-77243779D01*
X75408505Y-77247126D01*
X75408502Y-77247130D01*
X75284759Y-77442118D01*
X75239341Y-77513685D01*
X75237657Y-77517264D01*
X75237653Y-77517271D01*
X75132567Y-77740592D01*
X75103233Y-77802930D01*
X75004449Y-78106954D01*
X74944549Y-78420961D01*
X74924477Y-78740000D01*
X71247500Y-78740000D01*
X71247500Y-73024500D01*
X71267502Y-72956379D01*
X71321158Y-72909886D01*
X71373500Y-72898500D01*
X142875500Y-72898500D01*
X142943621Y-72918502D01*
G37*
G04 #@! TD.AperFunction*
M02*
