G04 #@! TF.GenerationSoftware,KiCad,Pcbnew,6.0.5-a6ca702e91~116~ubuntu20.04.1*
G04 #@! TF.CreationDate,2022-05-28T13:47:51-04:00*
G04 #@! TF.ProjectId,audiomute,61756469-6f6d-4757-9465-2e6b69636164,rev?*
G04 #@! TF.SameCoordinates,Original*
G04 #@! TF.FileFunction,Copper,L1,Top*
G04 #@! TF.FilePolarity,Positive*
%FSLAX46Y46*%
G04 Gerber Fmt 4.6, Leading zero omitted, Abs format (unit mm)*
G04 Created by KiCad (PCBNEW 6.0.5-a6ca702e91~116~ubuntu20.04.1) date 2022-05-28 13:47:51*
%MOMM*%
%LPD*%
G01*
G04 APERTURE LIST*
G04 Aperture macros list*
%AMRoundRect*
0 Rectangle with rounded corners*
0 $1 Rounding radius*
0 $2 $3 $4 $5 $6 $7 $8 $9 X,Y pos of 4 corners*
0 Add a 4 corners polygon primitive as box body*
4,1,4,$2,$3,$4,$5,$6,$7,$8,$9,$2,$3,0*
0 Add four circle primitives for the rounded corners*
1,1,$1+$1,$2,$3*
1,1,$1+$1,$4,$5*
1,1,$1+$1,$6,$7*
1,1,$1+$1,$8,$9*
0 Add four rect primitives between the rounded corners*
20,1,$1+$1,$2,$3,$4,$5,0*
20,1,$1+$1,$4,$5,$6,$7,0*
20,1,$1+$1,$6,$7,$8,$9,0*
20,1,$1+$1,$8,$9,$2,$3,0*%
G04 Aperture macros list end*
G04 #@! TA.AperFunction,SMDPad,CuDef*
%ADD10RoundRect,0.250000X-0.400000X-0.625000X0.400000X-0.625000X0.400000X0.625000X-0.400000X0.625000X0*%
G04 #@! TD*
G04 #@! TA.AperFunction,SMDPad,CuDef*
%ADD11RoundRect,0.150000X0.150000X-0.587500X0.150000X0.587500X-0.150000X0.587500X-0.150000X-0.587500X0*%
G04 #@! TD*
G04 #@! TA.AperFunction,SMDPad,CuDef*
%ADD12RoundRect,0.250000X0.412500X0.650000X-0.412500X0.650000X-0.412500X-0.650000X0.412500X-0.650000X0*%
G04 #@! TD*
G04 #@! TA.AperFunction,ComponentPad*
%ADD13C,2.100000*%
G04 #@! TD*
G04 #@! TA.AperFunction,SMDPad,CuDef*
%ADD14RoundRect,0.250000X0.650000X-0.412500X0.650000X0.412500X-0.650000X0.412500X-0.650000X-0.412500X0*%
G04 #@! TD*
G04 #@! TA.AperFunction,ComponentPad*
%ADD15R,1.800000X1.800000*%
G04 #@! TD*
G04 #@! TA.AperFunction,ComponentPad*
%ADD16C,1.800000*%
G04 #@! TD*
G04 #@! TA.AperFunction,SMDPad,CuDef*
%ADD17RoundRect,0.250000X-0.412500X-0.650000X0.412500X-0.650000X0.412500X0.650000X-0.412500X0.650000X0*%
G04 #@! TD*
G04 #@! TA.AperFunction,SMDPad,CuDef*
%ADD18R,2.800000X2.200000*%
G04 #@! TD*
G04 #@! TA.AperFunction,SMDPad,CuDef*
%ADD19R,2.800000X2.800000*%
G04 #@! TD*
G04 #@! TA.AperFunction,SMDPad,CuDef*
%ADD20RoundRect,0.150000X-0.587500X-0.150000X0.587500X-0.150000X0.587500X0.150000X-0.587500X0.150000X0*%
G04 #@! TD*
G04 #@! TA.AperFunction,SMDPad,CuDef*
%ADD21RoundRect,0.150000X0.587500X0.150000X-0.587500X0.150000X-0.587500X-0.150000X0.587500X-0.150000X0*%
G04 #@! TD*
G04 #@! TA.AperFunction,SMDPad,CuDef*
%ADD22RoundRect,0.250000X0.400000X0.625000X-0.400000X0.625000X-0.400000X-0.625000X0.400000X-0.625000X0*%
G04 #@! TD*
G04 #@! TA.AperFunction,ViaPad*
%ADD23C,1.000000*%
G04 #@! TD*
G04 #@! TA.AperFunction,Conductor*
%ADD24C,0.500000*%
G04 #@! TD*
G04 APERTURE END LIST*
D10*
X112496000Y-99822000D03*
X115596000Y-99822000D03*
D11*
X109794000Y-96822500D03*
X111694000Y-96822500D03*
X110744000Y-94947500D03*
X103571000Y-90726500D03*
X105471000Y-90726500D03*
X104521000Y-88851500D03*
D12*
X109385500Y-103124000D03*
X106260500Y-103124000D03*
D13*
X100941000Y-101219000D03*
X98441000Y-101219000D03*
D10*
X108686000Y-88392000D03*
X111786000Y-88392000D03*
D14*
X96901000Y-85001500D03*
X96901000Y-81876500D03*
D15*
X100865000Y-83185000D03*
D16*
X105945000Y-83185000D03*
X108485000Y-83185000D03*
X111025000Y-83185000D03*
X111025000Y-78105000D03*
X108485000Y-78105000D03*
X105945000Y-78105000D03*
X100865000Y-78105000D03*
D17*
X89496500Y-96012000D03*
X92621500Y-96012000D03*
D10*
X95986000Y-96012000D03*
X99086000Y-96012000D03*
X97637000Y-88011000D03*
X100737000Y-88011000D03*
X115290000Y-92964000D03*
X118390000Y-92964000D03*
D18*
X120540000Y-78210000D03*
D19*
X120540000Y-87610000D03*
X124990000Y-91710000D03*
D10*
X103098000Y-94488000D03*
X106198000Y-94488000D03*
D20*
X98122500Y-90998000D03*
X98122500Y-92898000D03*
X99997500Y-91948000D03*
D18*
X86597000Y-78208000D03*
D19*
X86597000Y-87608000D03*
X91047000Y-91708000D03*
D10*
X106273000Y-99822000D03*
X109373000Y-99822000D03*
D21*
X116761500Y-90231000D03*
X116761500Y-88331000D03*
X114886500Y-89281000D03*
D13*
X89916000Y-101219000D03*
X87416000Y-101219000D03*
D14*
X117475000Y-84239500D03*
X117475000Y-81114500D03*
D22*
X112040000Y-91694000D03*
X108940000Y-91694000D03*
D23*
X110236000Y-89916000D03*
X72644000Y-74422000D03*
X141478000Y-74168000D03*
X141224000Y-105664000D03*
X73152000Y-105410000D03*
X113030000Y-103124000D03*
X106934000Y-96520000D03*
X101854000Y-90551000D03*
X107188000Y-74168000D03*
X119761000Y-75311000D03*
X114554000Y-85471000D03*
X112776000Y-80518000D03*
X120396000Y-105664000D03*
X73406000Y-89662000D03*
X114427000Y-95504000D03*
X82423000Y-82677000D03*
X121539000Y-91567000D03*
X131064000Y-78740000D03*
X85725000Y-75565000D03*
X131445000Y-97409000D03*
X140081000Y-88900000D03*
X96139000Y-91059000D03*
X102108000Y-92456000D03*
X100457000Y-93726000D03*
X113538000Y-92837000D03*
D24*
X86597000Y-87608000D02*
X87762000Y-88773000D01*
X87762000Y-88773000D02*
X93129500Y-88773000D01*
X93129500Y-88773000D02*
X96901000Y-85001500D01*
X96942011Y-81835489D02*
X96901000Y-81876500D01*
X105945000Y-83185000D02*
X104595489Y-81835489D01*
X102870000Y-85471000D02*
X103659000Y-85471000D01*
X103659000Y-85471000D02*
X105945000Y-83185000D01*
X98961520Y-86686480D02*
X98987520Y-86686480D01*
X100203000Y-85471000D02*
X102870000Y-85471000D01*
X98987520Y-86686480D02*
X100203000Y-85471000D01*
X104595489Y-81835489D02*
X96942011Y-81835489D01*
X97637000Y-88011000D02*
X98961520Y-86686480D01*
X106273000Y-99822000D02*
X106273000Y-103111500D01*
X100965000Y-101219000D02*
X102362000Y-99822000D01*
X102362000Y-99822000D02*
X106273000Y-99822000D01*
X106273000Y-103111500D02*
X106260500Y-103124000D01*
X97929500Y-93091000D02*
X98122500Y-92898000D01*
X92621500Y-96012000D02*
X92621500Y-98508500D01*
X97155000Y-93091000D02*
X97929500Y-93091000D01*
X95986000Y-94260000D02*
X97155000Y-93091000D01*
X92621500Y-98508500D02*
X89911000Y-101219000D01*
X92621500Y-96012000D02*
X95986000Y-96012000D01*
X95986000Y-96012000D02*
X95986000Y-94260000D01*
X120540000Y-84179500D02*
X117475000Y-81114500D01*
X120540000Y-87610000D02*
X120540000Y-84179500D01*
X109794000Y-99401000D02*
X109373000Y-99822000D01*
X112496000Y-99822000D02*
X109373000Y-99822000D01*
X109794000Y-96822500D02*
X109794000Y-99401000D01*
X108204000Y-94488000D02*
X106198000Y-94488000D01*
X108663500Y-94947500D02*
X108204000Y-94488000D01*
X110744000Y-94947500D02*
X108663500Y-94947500D01*
X102616000Y-93599000D02*
X102616000Y-94006000D01*
X99086000Y-96012000D02*
X101574000Y-96012000D01*
X102108000Y-92456000D02*
X102108000Y-93091000D01*
X98122500Y-90998000D02*
X96200000Y-90998000D01*
X96200000Y-90998000D02*
X96139000Y-91059000D01*
X101574000Y-96012000D02*
X103098000Y-94488000D01*
X102108000Y-93091000D02*
X102616000Y-93599000D01*
X113792000Y-92964000D02*
X113665000Y-92964000D01*
X113665000Y-92964000D02*
X113538000Y-92837000D01*
X99997500Y-93266500D02*
X100457000Y-93726000D01*
X115290000Y-92964000D02*
X113792000Y-92964000D01*
X113538000Y-92837000D02*
X113183000Y-92837000D01*
X99997500Y-91948000D02*
X99997500Y-93266500D01*
X113183000Y-92837000D02*
X112040000Y-91694000D01*
X108940000Y-91694000D02*
X108720480Y-91913520D01*
X103851520Y-91913520D02*
X103632000Y-91694000D01*
X108720480Y-91913520D02*
X103851520Y-91913520D01*
X103632000Y-91694000D02*
X103632000Y-90787500D01*
X103632000Y-90787500D02*
X103571000Y-90726500D01*
X116827500Y-90297000D02*
X116761500Y-90231000D01*
X118390000Y-91085000D02*
X117602000Y-90297000D01*
X117602000Y-90297000D02*
X116827500Y-90297000D01*
X118390000Y-92964000D02*
X118390000Y-91085000D01*
X108226500Y-88851500D02*
X108686000Y-88392000D01*
X101577500Y-88851500D02*
X100737000Y-88011000D01*
X104521000Y-88851500D02*
X108226500Y-88851500D01*
X104521000Y-88851500D02*
X101577500Y-88851500D01*
X108485000Y-84863000D02*
X108485000Y-83185000D01*
X116761500Y-84953000D02*
X117475000Y-84239500D01*
X111786000Y-88392000D02*
X111786000Y-88164000D01*
X111786000Y-88392000D02*
X116700500Y-88392000D01*
X116761500Y-88331000D02*
X116761500Y-84953000D01*
X116700500Y-88392000D02*
X116761500Y-88331000D01*
X111786000Y-88164000D02*
X108485000Y-84863000D01*
G04 #@! TA.AperFunction,Conductor*
G36*
X142943621Y-72918502D02*
G01*
X142990114Y-72972158D01*
X143001500Y-73024500D01*
X143001500Y-107188500D01*
X142981498Y-107256621D01*
X142927842Y-107303114D01*
X142875500Y-107314500D01*
X71373500Y-107314500D01*
X71305379Y-107294498D01*
X71258886Y-107240842D01*
X71247500Y-107188500D01*
X71247500Y-101600000D01*
X74924477Y-101600000D01*
X74944549Y-101919039D01*
X75004449Y-102233046D01*
X75103233Y-102537070D01*
X75104920Y-102540656D01*
X75104922Y-102540660D01*
X75237653Y-102822729D01*
X75237657Y-102822736D01*
X75239341Y-102826315D01*
X75241465Y-102829661D01*
X75241465Y-102829662D01*
X75258467Y-102856452D01*
X75410629Y-103096221D01*
X75614394Y-103342530D01*
X75847423Y-103561359D01*
X76106041Y-103749256D01*
X76109510Y-103751163D01*
X76109513Y-103751165D01*
X76356116Y-103886736D01*
X76386169Y-103903258D01*
X76433289Y-103921914D01*
X76679707Y-104019478D01*
X76679710Y-104019479D01*
X76683390Y-104020936D01*
X76687224Y-104021920D01*
X76687232Y-104021923D01*
X76879153Y-104071200D01*
X76993017Y-104100435D01*
X76996945Y-104100931D01*
X76996949Y-104100932D01*
X77122642Y-104116810D01*
X77310165Y-104140500D01*
X77629835Y-104140500D01*
X77817358Y-104116810D01*
X77943051Y-104100932D01*
X77943055Y-104100931D01*
X77946983Y-104100435D01*
X78060847Y-104071200D01*
X78252768Y-104021923D01*
X78252776Y-104021920D01*
X78256610Y-104020936D01*
X78260290Y-104019479D01*
X78260293Y-104019478D01*
X78506711Y-103921914D01*
X78553831Y-103903258D01*
X78583885Y-103886736D01*
X78830487Y-103751165D01*
X78830490Y-103751163D01*
X78833959Y-103749256D01*
X79092577Y-103561359D01*
X79325606Y-103342530D01*
X79529371Y-103096221D01*
X79681534Y-102856452D01*
X79698535Y-102829662D01*
X79698535Y-102829661D01*
X79700659Y-102826315D01*
X79702343Y-102822736D01*
X79702347Y-102822729D01*
X79835078Y-102540660D01*
X79835080Y-102540656D01*
X79836767Y-102537070D01*
X79852701Y-102488030D01*
X86511800Y-102488030D01*
X86517527Y-102495680D01*
X86702272Y-102608893D01*
X86711067Y-102613375D01*
X86928490Y-102703434D01*
X86937875Y-102706483D01*
X87166708Y-102761422D01*
X87176455Y-102762965D01*
X87411070Y-102781430D01*
X87420930Y-102781430D01*
X87655545Y-102762965D01*
X87665292Y-102761422D01*
X87894125Y-102706483D01*
X87903510Y-102703434D01*
X88120933Y-102613375D01*
X88129728Y-102608893D01*
X88310805Y-102497928D01*
X88320267Y-102487470D01*
X88316484Y-102478694D01*
X87428812Y-101591022D01*
X87414868Y-101583408D01*
X87413035Y-101583539D01*
X87406420Y-101587790D01*
X86518560Y-102475650D01*
X86511800Y-102488030D01*
X79852701Y-102488030D01*
X79935551Y-102233046D01*
X79995451Y-101919039D01*
X80015523Y-101600000D01*
X79995451Y-101280961D01*
X79984572Y-101223930D01*
X85853570Y-101223930D01*
X85872035Y-101458545D01*
X85873578Y-101468292D01*
X85928517Y-101697125D01*
X85931566Y-101706510D01*
X86021625Y-101923933D01*
X86026107Y-101932728D01*
X86137072Y-102113805D01*
X86147530Y-102123267D01*
X86156306Y-102119484D01*
X87043978Y-101231812D01*
X87050356Y-101220132D01*
X87780408Y-101220132D01*
X87780539Y-101221965D01*
X87784790Y-101228580D01*
X88572873Y-102016663D01*
X88591209Y-102039920D01*
X88651248Y-102137896D01*
X88654463Y-102141660D01*
X88654465Y-102141663D01*
X88769096Y-102275877D01*
X88810567Y-102324433D01*
X88814323Y-102327641D01*
X88991182Y-102478694D01*
X88997104Y-102483752D01*
X89001327Y-102486340D01*
X89001330Y-102486342D01*
X89020237Y-102497928D01*
X89206268Y-102611927D01*
X89350967Y-102671864D01*
X89428335Y-102703911D01*
X89428337Y-102703912D01*
X89432908Y-102705805D01*
X89515563Y-102725649D01*
X89666630Y-102761917D01*
X89666636Y-102761918D01*
X89671443Y-102763072D01*
X89916000Y-102782319D01*
X90160557Y-102763072D01*
X90165364Y-102761918D01*
X90165370Y-102761917D01*
X90316437Y-102725649D01*
X90399092Y-102705805D01*
X90403663Y-102703912D01*
X90403665Y-102703911D01*
X90481033Y-102671864D01*
X90625732Y-102611927D01*
X90811763Y-102497928D01*
X90827915Y-102488030D01*
X97536800Y-102488030D01*
X97542527Y-102495680D01*
X97727272Y-102608893D01*
X97736067Y-102613375D01*
X97953490Y-102703434D01*
X97962875Y-102706483D01*
X98191708Y-102761422D01*
X98201455Y-102762965D01*
X98436070Y-102781430D01*
X98445930Y-102781430D01*
X98680545Y-102762965D01*
X98690292Y-102761422D01*
X98919125Y-102706483D01*
X98928510Y-102703434D01*
X99145933Y-102613375D01*
X99154728Y-102608893D01*
X99335805Y-102497928D01*
X99345267Y-102487470D01*
X99341484Y-102478694D01*
X98453812Y-101591022D01*
X98439868Y-101583408D01*
X98438035Y-101583539D01*
X98431420Y-101587790D01*
X97543560Y-102475650D01*
X97536800Y-102488030D01*
X90827915Y-102488030D01*
X90830670Y-102486342D01*
X90830673Y-102486340D01*
X90834896Y-102483752D01*
X90840819Y-102478694D01*
X91017677Y-102327641D01*
X91021433Y-102324433D01*
X91062904Y-102275877D01*
X91177535Y-102141663D01*
X91177537Y-102141660D01*
X91180752Y-102137896D01*
X91308927Y-101928732D01*
X91391598Y-101729149D01*
X91400911Y-101706665D01*
X91400912Y-101706663D01*
X91402805Y-101702092D01*
X91428265Y-101596042D01*
X91458917Y-101468370D01*
X91458918Y-101468364D01*
X91460072Y-101463557D01*
X91478931Y-101223930D01*
X96878570Y-101223930D01*
X96897035Y-101458545D01*
X96898578Y-101468292D01*
X96953517Y-101697125D01*
X96956566Y-101706510D01*
X97046625Y-101923933D01*
X97051107Y-101932728D01*
X97162072Y-102113805D01*
X97172530Y-102123267D01*
X97181306Y-102119484D01*
X98068978Y-101231812D01*
X98075356Y-101220132D01*
X98805408Y-101220132D01*
X98805539Y-101221965D01*
X98809790Y-101228580D01*
X99597873Y-102016663D01*
X99616209Y-102039920D01*
X99676248Y-102137896D01*
X99679463Y-102141660D01*
X99679465Y-102141663D01*
X99794096Y-102275877D01*
X99835567Y-102324433D01*
X99839323Y-102327641D01*
X100016182Y-102478694D01*
X100022104Y-102483752D01*
X100026327Y-102486340D01*
X100026330Y-102486342D01*
X100045237Y-102497928D01*
X100231268Y-102611927D01*
X100375967Y-102671864D01*
X100453335Y-102703911D01*
X100453337Y-102703912D01*
X100457908Y-102705805D01*
X100540563Y-102725649D01*
X100691630Y-102761917D01*
X100691636Y-102761918D01*
X100696443Y-102763072D01*
X100941000Y-102782319D01*
X101185557Y-102763072D01*
X101190364Y-102761918D01*
X101190370Y-102761917D01*
X101341437Y-102725649D01*
X101424092Y-102705805D01*
X101428663Y-102703912D01*
X101428665Y-102703911D01*
X101506033Y-102671864D01*
X101650732Y-102611927D01*
X101836763Y-102497928D01*
X101855670Y-102486342D01*
X101855673Y-102486340D01*
X101859896Y-102483752D01*
X101865819Y-102478694D01*
X102042677Y-102327641D01*
X102046433Y-102324433D01*
X102087904Y-102275877D01*
X102202535Y-102141663D01*
X102202537Y-102141660D01*
X102205752Y-102137896D01*
X102333927Y-101928732D01*
X102416598Y-101729149D01*
X102425911Y-101706665D01*
X102425912Y-101706663D01*
X102427805Y-101702092D01*
X102453265Y-101596042D01*
X102483917Y-101468370D01*
X102483918Y-101468364D01*
X102485072Y-101463557D01*
X102504319Y-101219000D01*
X102485072Y-100974443D01*
X102483915Y-100969621D01*
X102462276Y-100879490D01*
X102465823Y-100808582D01*
X102495700Y-100760981D01*
X102639276Y-100617405D01*
X102701588Y-100583379D01*
X102728371Y-100580500D01*
X105027121Y-100580500D01*
X105095242Y-100600502D01*
X105141735Y-100654158D01*
X105146644Y-100666623D01*
X105179130Y-100763993D01*
X105181450Y-100770946D01*
X105274522Y-100921348D01*
X105399697Y-101046305D01*
X105405925Y-101050144D01*
X105405930Y-101050148D01*
X105454617Y-101080159D01*
X105502110Y-101132931D01*
X105514500Y-101187418D01*
X105514500Y-101718160D01*
X105494498Y-101786281D01*
X105454803Y-101825304D01*
X105373652Y-101875522D01*
X105248695Y-102000697D01*
X105244855Y-102006927D01*
X105244854Y-102006928D01*
X105224516Y-102039923D01*
X105155885Y-102151262D01*
X105100203Y-102319139D01*
X105099503Y-102325975D01*
X105099502Y-102325978D01*
X105097861Y-102341998D01*
X105089500Y-102423600D01*
X105089500Y-103824400D01*
X105089837Y-103827646D01*
X105089837Y-103827650D01*
X105099618Y-103921914D01*
X105100474Y-103930166D01*
X105156450Y-104097946D01*
X105249522Y-104248348D01*
X105374697Y-104373305D01*
X105380927Y-104377145D01*
X105380928Y-104377146D01*
X105518288Y-104461816D01*
X105525262Y-104466115D01*
X105605005Y-104492564D01*
X105686611Y-104519632D01*
X105686613Y-104519632D01*
X105693139Y-104521797D01*
X105699975Y-104522497D01*
X105699978Y-104522498D01*
X105743031Y-104526909D01*
X105797600Y-104532500D01*
X106723400Y-104532500D01*
X106726646Y-104532163D01*
X106726650Y-104532163D01*
X106822308Y-104522238D01*
X106822312Y-104522237D01*
X106829166Y-104521526D01*
X106835702Y-104519345D01*
X106835704Y-104519345D01*
X106967806Y-104475272D01*
X106996946Y-104465550D01*
X107147348Y-104372478D01*
X107272305Y-104247303D01*
X107365115Y-104096738D01*
X107406378Y-103972333D01*
X107446808Y-103913973D01*
X107512373Y-103886736D01*
X107525971Y-103886000D01*
X108120476Y-103886000D01*
X108188597Y-103906002D01*
X108235090Y-103959658D01*
X108240000Y-103972124D01*
X108279588Y-104090784D01*
X108285761Y-104103962D01*
X108371063Y-104241807D01*
X108380099Y-104253208D01*
X108494829Y-104367739D01*
X108506240Y-104376751D01*
X108644243Y-104461816D01*
X108657424Y-104467963D01*
X108811710Y-104519138D01*
X108825086Y-104522005D01*
X108919438Y-104531672D01*
X108925854Y-104532000D01*
X109113385Y-104532000D01*
X109128624Y-104527525D01*
X109129829Y-104526135D01*
X109131500Y-104518452D01*
X109131500Y-104513884D01*
X109639500Y-104513884D01*
X109643975Y-104529123D01*
X109645365Y-104530328D01*
X109653048Y-104531999D01*
X109845095Y-104531999D01*
X109851614Y-104531662D01*
X109947206Y-104521743D01*
X109960600Y-104518851D01*
X110114784Y-104467412D01*
X110127962Y-104461239D01*
X110265807Y-104375937D01*
X110277208Y-104366901D01*
X110391739Y-104252171D01*
X110400751Y-104240760D01*
X110485816Y-104102757D01*
X110491963Y-104089576D01*
X110543138Y-103935290D01*
X110546005Y-103921914D01*
X110555672Y-103827562D01*
X110556000Y-103821146D01*
X110556000Y-103396115D01*
X110551525Y-103380876D01*
X110550135Y-103379671D01*
X110542452Y-103378000D01*
X109657615Y-103378000D01*
X109642376Y-103382475D01*
X109641171Y-103383865D01*
X109639500Y-103391548D01*
X109639500Y-104513884D01*
X109131500Y-104513884D01*
X109131500Y-102851885D01*
X109639500Y-102851885D01*
X109643975Y-102867124D01*
X109645365Y-102868329D01*
X109653048Y-102870000D01*
X110537884Y-102870000D01*
X110553123Y-102865525D01*
X110554328Y-102864135D01*
X110555999Y-102856452D01*
X110555999Y-102426905D01*
X110555662Y-102420386D01*
X110545743Y-102324794D01*
X110542851Y-102311400D01*
X110491412Y-102157216D01*
X110485239Y-102144038D01*
X110399937Y-102006193D01*
X110390901Y-101994792D01*
X110276171Y-101880261D01*
X110264760Y-101871249D01*
X110126757Y-101786184D01*
X110113576Y-101780037D01*
X109959290Y-101728862D01*
X109945914Y-101725995D01*
X109851562Y-101716328D01*
X109845145Y-101716000D01*
X109657615Y-101716000D01*
X109642376Y-101720475D01*
X109641171Y-101721865D01*
X109639500Y-101729548D01*
X109639500Y-102851885D01*
X109131500Y-102851885D01*
X109131500Y-101734116D01*
X109127025Y-101718877D01*
X109125635Y-101717672D01*
X109117952Y-101716001D01*
X108925905Y-101716001D01*
X108919386Y-101716338D01*
X108823794Y-101726257D01*
X108810400Y-101729149D01*
X108656216Y-101780588D01*
X108643038Y-101786761D01*
X108505193Y-101872063D01*
X108493792Y-101881099D01*
X108379261Y-101995829D01*
X108370249Y-102007240D01*
X108285184Y-102145243D01*
X108279036Y-102158426D01*
X108240149Y-102275667D01*
X108199718Y-102334027D01*
X108134154Y-102361264D01*
X108120556Y-102362000D01*
X107526052Y-102362000D01*
X107457931Y-102341998D01*
X107411438Y-102288342D01*
X107406529Y-102275877D01*
X107366870Y-102157007D01*
X107366869Y-102157005D01*
X107364550Y-102150054D01*
X107271478Y-101999652D01*
X107146303Y-101874695D01*
X107140075Y-101870856D01*
X107140070Y-101870852D01*
X107091383Y-101840841D01*
X107043890Y-101788069D01*
X107031500Y-101733582D01*
X107031500Y-101600000D01*
X134614477Y-101600000D01*
X134634549Y-101919039D01*
X134694449Y-102233046D01*
X134793233Y-102537070D01*
X134794920Y-102540656D01*
X134794922Y-102540660D01*
X134927653Y-102822729D01*
X134927657Y-102822736D01*
X134929341Y-102826315D01*
X134931465Y-102829661D01*
X134931465Y-102829662D01*
X134948467Y-102856452D01*
X135100629Y-103096221D01*
X135304394Y-103342530D01*
X135537423Y-103561359D01*
X135796041Y-103749256D01*
X135799510Y-103751163D01*
X135799513Y-103751165D01*
X136046116Y-103886736D01*
X136076169Y-103903258D01*
X136123289Y-103921914D01*
X136369707Y-104019478D01*
X136369710Y-104019479D01*
X136373390Y-104020936D01*
X136377224Y-104021920D01*
X136377232Y-104021923D01*
X136569153Y-104071200D01*
X136683017Y-104100435D01*
X136686945Y-104100931D01*
X136686949Y-104100932D01*
X136812642Y-104116810D01*
X137000165Y-104140500D01*
X137319835Y-104140500D01*
X137507358Y-104116810D01*
X137633051Y-104100932D01*
X137633055Y-104100931D01*
X137636983Y-104100435D01*
X137750847Y-104071200D01*
X137942768Y-104021923D01*
X137942776Y-104021920D01*
X137946610Y-104020936D01*
X137950290Y-104019479D01*
X137950293Y-104019478D01*
X138196711Y-103921914D01*
X138243831Y-103903258D01*
X138273885Y-103886736D01*
X138520487Y-103751165D01*
X138520490Y-103751163D01*
X138523959Y-103749256D01*
X138782577Y-103561359D01*
X139015606Y-103342530D01*
X139219371Y-103096221D01*
X139371534Y-102856452D01*
X139388535Y-102829662D01*
X139388535Y-102829661D01*
X139390659Y-102826315D01*
X139392343Y-102822736D01*
X139392347Y-102822729D01*
X139525078Y-102540660D01*
X139525080Y-102540656D01*
X139526767Y-102537070D01*
X139625551Y-102233046D01*
X139685451Y-101919039D01*
X139705523Y-101600000D01*
X139685451Y-101280961D01*
X139625551Y-100966954D01*
X139529172Y-100670333D01*
X139527993Y-100666703D01*
X139527993Y-100666702D01*
X139526767Y-100662930D01*
X139525078Y-100659340D01*
X139392347Y-100377271D01*
X139392343Y-100377264D01*
X139390659Y-100373685D01*
X139386710Y-100367463D01*
X139221498Y-100107130D01*
X139221495Y-100107126D01*
X139219371Y-100103779D01*
X139117488Y-99980624D01*
X139018131Y-99860522D01*
X139018130Y-99860521D01*
X139015606Y-99857470D01*
X138782577Y-99638641D01*
X138523959Y-99450744D01*
X138243831Y-99296742D01*
X138067119Y-99226777D01*
X137950293Y-99180522D01*
X137950290Y-99180521D01*
X137946610Y-99179064D01*
X137942776Y-99178080D01*
X137942768Y-99178077D01*
X137750847Y-99128800D01*
X137636983Y-99099565D01*
X137633055Y-99099069D01*
X137633051Y-99099068D01*
X137472753Y-99078818D01*
X137319835Y-99059500D01*
X137000165Y-99059500D01*
X136847247Y-99078818D01*
X136686949Y-99099068D01*
X136686945Y-99099069D01*
X136683017Y-99099565D01*
X136569153Y-99128800D01*
X136377232Y-99178077D01*
X136377224Y-99178080D01*
X136373390Y-99179064D01*
X136369710Y-99180521D01*
X136369707Y-99180522D01*
X136252881Y-99226777D01*
X136076169Y-99296742D01*
X135796041Y-99450744D01*
X135537423Y-99638641D01*
X135304394Y-99857470D01*
X135301870Y-99860521D01*
X135301869Y-99860522D01*
X135202512Y-99980624D01*
X135100629Y-100103779D01*
X135098505Y-100107126D01*
X135098502Y-100107130D01*
X134933290Y-100367463D01*
X134929341Y-100373685D01*
X134927657Y-100377264D01*
X134927653Y-100377271D01*
X134794922Y-100659340D01*
X134793233Y-100662930D01*
X134792007Y-100666702D01*
X134792007Y-100666703D01*
X134790828Y-100670333D01*
X134694449Y-100966954D01*
X134634549Y-101280961D01*
X134614477Y-101600000D01*
X107031500Y-101600000D01*
X107031500Y-101187369D01*
X107051502Y-101119248D01*
X107091193Y-101080228D01*
X107147348Y-101045478D01*
X107272305Y-100920303D01*
X107315511Y-100850210D01*
X107361275Y-100775968D01*
X107361276Y-100775966D01*
X107365115Y-100769738D01*
X107399317Y-100666623D01*
X107418632Y-100608389D01*
X107418632Y-100608387D01*
X107420797Y-100601861D01*
X107431500Y-100497400D01*
X107431500Y-99146600D01*
X107429300Y-99125393D01*
X107421238Y-99047692D01*
X107421237Y-99047688D01*
X107420526Y-99040834D01*
X107402848Y-98987845D01*
X107366868Y-98880002D01*
X107364550Y-98873054D01*
X107271478Y-98722652D01*
X107146303Y-98597695D01*
X107099868Y-98569072D01*
X107001968Y-98508725D01*
X107001966Y-98508724D01*
X106995738Y-98504885D01*
X106915995Y-98478436D01*
X106834389Y-98451368D01*
X106834387Y-98451368D01*
X106827861Y-98449203D01*
X106821025Y-98448503D01*
X106821022Y-98448502D01*
X106777969Y-98444091D01*
X106723400Y-98438500D01*
X105822600Y-98438500D01*
X105819354Y-98438837D01*
X105819350Y-98438837D01*
X105723692Y-98448762D01*
X105723688Y-98448763D01*
X105716834Y-98449474D01*
X105710298Y-98451655D01*
X105710296Y-98451655D01*
X105693928Y-98457116D01*
X105549054Y-98505450D01*
X105398652Y-98598522D01*
X105273695Y-98723697D01*
X105269855Y-98729927D01*
X105269854Y-98729928D01*
X105200978Y-98841666D01*
X105180885Y-98874262D01*
X105169103Y-98909784D01*
X105146753Y-98977167D01*
X105106322Y-99035527D01*
X105040758Y-99062764D01*
X105027160Y-99063500D01*
X102429063Y-99063500D01*
X102410114Y-99062067D01*
X102409907Y-99062036D01*
X102388651Y-99058802D01*
X102381359Y-99059395D01*
X102381356Y-99059395D01*
X102335991Y-99063085D01*
X102325777Y-99063500D01*
X102317707Y-99063500D01*
X102314087Y-99063922D01*
X102314069Y-99063923D01*
X102289461Y-99066792D01*
X102285100Y-99067224D01*
X102259981Y-99069267D01*
X102219661Y-99072546D01*
X102219658Y-99072547D01*
X102212363Y-99073140D01*
X102205399Y-99075396D01*
X102199440Y-99076587D01*
X102193585Y-99077971D01*
X102186319Y-99078818D01*
X102117673Y-99103735D01*
X102113545Y-99105152D01*
X102051064Y-99125393D01*
X102051062Y-99125394D01*
X102044101Y-99127649D01*
X102037846Y-99131445D01*
X102032372Y-99133951D01*
X102026942Y-99136670D01*
X102020063Y-99139167D01*
X102013943Y-99143180D01*
X102013942Y-99143180D01*
X102008726Y-99146600D01*
X101959016Y-99179191D01*
X101955327Y-99181518D01*
X101935135Y-99193771D01*
X101897693Y-99216491D01*
X101897688Y-99216495D01*
X101892892Y-99219405D01*
X101884516Y-99226803D01*
X101884493Y-99226777D01*
X101881503Y-99229426D01*
X101878264Y-99232134D01*
X101872148Y-99236144D01*
X101867121Y-99241451D01*
X101867117Y-99241454D01*
X101818872Y-99292383D01*
X101816494Y-99294825D01*
X101437726Y-99673593D01*
X101375414Y-99707619D01*
X101319219Y-99707017D01*
X101263593Y-99693663D01*
X101190370Y-99676083D01*
X101190364Y-99676082D01*
X101185557Y-99674928D01*
X100941000Y-99655681D01*
X100696443Y-99674928D01*
X100691636Y-99676082D01*
X100691630Y-99676083D01*
X100540563Y-99712351D01*
X100457908Y-99732195D01*
X100453337Y-99734088D01*
X100453335Y-99734089D01*
X100375967Y-99766136D01*
X100231268Y-99826073D01*
X100095515Y-99909262D01*
X100026330Y-99951658D01*
X100026327Y-99951660D01*
X100022104Y-99954248D01*
X100018340Y-99957463D01*
X100018337Y-99957465D01*
X99874312Y-100080475D01*
X99835567Y-100113567D01*
X99676248Y-100300104D01*
X99616209Y-100398080D01*
X99597873Y-100421337D01*
X98813022Y-101206188D01*
X98805408Y-101220132D01*
X98075356Y-101220132D01*
X98076592Y-101217868D01*
X98076461Y-101216035D01*
X98072210Y-101209420D01*
X97184350Y-100321560D01*
X97171970Y-100314800D01*
X97164320Y-100320527D01*
X97051107Y-100505272D01*
X97046625Y-100514067D01*
X96956566Y-100731490D01*
X96953517Y-100740875D01*
X96898578Y-100969708D01*
X96897035Y-100979455D01*
X96878570Y-101214070D01*
X96878570Y-101223930D01*
X91478931Y-101223930D01*
X91479319Y-101219000D01*
X91460072Y-100974443D01*
X91458916Y-100969629D01*
X91458915Y-100969621D01*
X91431662Y-100856106D01*
X91435208Y-100785198D01*
X91465085Y-100737596D01*
X92252151Y-99950530D01*
X97536733Y-99950530D01*
X97540516Y-99959306D01*
X98428188Y-100846978D01*
X98442132Y-100854592D01*
X98443965Y-100854461D01*
X98450580Y-100850210D01*
X99338440Y-99962350D01*
X99345200Y-99949970D01*
X99339473Y-99942320D01*
X99154728Y-99829107D01*
X99145933Y-99824625D01*
X98928510Y-99734566D01*
X98919125Y-99731517D01*
X98690292Y-99676578D01*
X98680545Y-99675035D01*
X98445930Y-99656570D01*
X98436070Y-99656570D01*
X98201455Y-99675035D01*
X98191708Y-99676578D01*
X97962875Y-99731517D01*
X97953490Y-99734566D01*
X97736067Y-99824625D01*
X97727272Y-99829107D01*
X97546195Y-99940072D01*
X97536733Y-99950530D01*
X92252151Y-99950530D01*
X93110411Y-99092270D01*
X93124823Y-99079884D01*
X93136418Y-99071351D01*
X93136423Y-99071346D01*
X93142318Y-99067008D01*
X93147057Y-99061430D01*
X93147060Y-99061427D01*
X93176535Y-99026732D01*
X93183465Y-99019216D01*
X93189160Y-99013521D01*
X93206781Y-98991249D01*
X93209572Y-98987845D01*
X93252091Y-98937797D01*
X93252092Y-98937795D01*
X93256833Y-98932215D01*
X93260161Y-98925699D01*
X93263528Y-98920650D01*
X93266695Y-98915521D01*
X93271234Y-98909784D01*
X93302155Y-98843625D01*
X93304061Y-98839725D01*
X93337269Y-98774692D01*
X93339008Y-98767583D01*
X93341104Y-98761949D01*
X93343023Y-98756179D01*
X93346122Y-98749550D01*
X93350357Y-98729193D01*
X93360990Y-98678071D01*
X93361961Y-98673782D01*
X93377973Y-98608344D01*
X93379308Y-98602890D01*
X93380000Y-98591736D01*
X93380035Y-98591738D01*
X93380275Y-98587766D01*
X93380652Y-98583545D01*
X93382141Y-98576385D01*
X93380046Y-98498958D01*
X93380000Y-98495550D01*
X93380000Y-97410105D01*
X93400002Y-97341984D01*
X93439697Y-97302961D01*
X93502120Y-97264332D01*
X93508348Y-97260478D01*
X93633305Y-97135303D01*
X93637338Y-97128760D01*
X93722275Y-96990968D01*
X93722276Y-96990966D01*
X93726115Y-96984738D01*
X93768539Y-96856833D01*
X93808969Y-96798473D01*
X93874534Y-96771236D01*
X93888132Y-96770500D01*
X94740121Y-96770500D01*
X94808242Y-96790502D01*
X94854735Y-96844158D01*
X94859644Y-96856623D01*
X94891729Y-96952790D01*
X94894450Y-96960946D01*
X94987522Y-97111348D01*
X95112697Y-97236305D01*
X95118927Y-97240145D01*
X95118928Y-97240146D01*
X95256090Y-97324694D01*
X95263262Y-97329115D01*
X95295787Y-97339903D01*
X95424611Y-97382632D01*
X95424613Y-97382632D01*
X95431139Y-97384797D01*
X95437975Y-97385497D01*
X95437978Y-97385498D01*
X95481031Y-97389909D01*
X95535600Y-97395500D01*
X96436400Y-97395500D01*
X96439646Y-97395163D01*
X96439650Y-97395163D01*
X96535308Y-97385238D01*
X96535312Y-97385237D01*
X96542166Y-97384526D01*
X96548702Y-97382345D01*
X96548704Y-97382345D01*
X96680806Y-97338272D01*
X96709946Y-97328550D01*
X96860348Y-97235478D01*
X96985305Y-97110303D01*
X96994975Y-97094615D01*
X97074275Y-96965968D01*
X97074276Y-96965966D01*
X97078115Y-96959738D01*
X97133797Y-96791861D01*
X97136913Y-96761454D01*
X97143738Y-96694833D01*
X97144500Y-96687400D01*
X97144500Y-95336600D01*
X97138045Y-95274389D01*
X97134238Y-95237692D01*
X97134237Y-95237688D01*
X97133526Y-95230834D01*
X97128776Y-95216595D01*
X97079868Y-95070002D01*
X97077550Y-95063054D01*
X96984478Y-94912652D01*
X96859303Y-94787695D01*
X96853075Y-94783856D01*
X96853070Y-94783852D01*
X96804383Y-94753841D01*
X96756890Y-94701069D01*
X96744500Y-94646582D01*
X96744500Y-94626371D01*
X96764502Y-94558250D01*
X96781405Y-94537276D01*
X97432276Y-93886405D01*
X97494588Y-93852379D01*
X97521371Y-93849500D01*
X97862430Y-93849500D01*
X97881380Y-93850933D01*
X97895615Y-93853099D01*
X97895619Y-93853099D01*
X97902849Y-93854199D01*
X97910141Y-93853606D01*
X97910144Y-93853606D01*
X97955518Y-93849915D01*
X97965733Y-93849500D01*
X97973793Y-93849500D01*
X97987946Y-93847850D01*
X98002007Y-93846211D01*
X98006382Y-93845778D01*
X98071839Y-93840454D01*
X98071842Y-93840453D01*
X98079137Y-93839860D01*
X98086101Y-93837604D01*
X98092060Y-93836413D01*
X98097915Y-93835029D01*
X98105181Y-93834182D01*
X98173827Y-93809265D01*
X98177955Y-93807848D01*
X98240436Y-93787607D01*
X98240438Y-93787606D01*
X98247399Y-93785351D01*
X98253654Y-93781555D01*
X98259128Y-93779049D01*
X98264558Y-93776330D01*
X98271437Y-93773833D01*
X98278737Y-93769047D01*
X98332476Y-93733814D01*
X98336195Y-93731468D01*
X98347213Y-93724782D01*
X98412579Y-93706500D01*
X98776502Y-93706500D01*
X98778950Y-93706307D01*
X98778958Y-93706307D01*
X98807421Y-93704067D01*
X98807426Y-93704066D01*
X98813831Y-93703562D01*
X98921984Y-93672141D01*
X98965988Y-93659357D01*
X98965990Y-93659356D01*
X98973601Y-93657145D01*
X99116807Y-93572453D01*
X99122412Y-93566848D01*
X99125359Y-93564562D01*
X99191444Y-93538615D01*
X99261066Y-93552515D01*
X99313905Y-93606337D01*
X99314667Y-93608437D01*
X99318682Y-93614560D01*
X99318683Y-93614563D01*
X99354686Y-93669476D01*
X99357023Y-93673180D01*
X99394905Y-93735607D01*
X99398621Y-93739815D01*
X99398622Y-93739816D01*
X99402303Y-93743984D01*
X99402276Y-93744008D01*
X99404929Y-93747000D01*
X99407632Y-93750233D01*
X99411644Y-93756352D01*
X99416956Y-93761384D01*
X99421654Y-93767003D01*
X99420303Y-93768133D01*
X99451365Y-93821532D01*
X99454571Y-93841091D01*
X99460268Y-93908934D01*
X99466210Y-93929656D01*
X99512066Y-94089573D01*
X99514783Y-94099050D01*
X99605187Y-94274956D01*
X99619883Y-94293498D01*
X99728035Y-94429953D01*
X99726819Y-94430917D01*
X99756222Y-94487061D01*
X99749928Y-94557778D01*
X99706401Y-94613866D01*
X99639460Y-94637518D01*
X99619813Y-94637046D01*
X99539601Y-94628828D01*
X99539602Y-94628828D01*
X99536400Y-94628500D01*
X98635600Y-94628500D01*
X98632354Y-94628837D01*
X98632350Y-94628837D01*
X98536692Y-94638762D01*
X98536688Y-94638763D01*
X98529834Y-94639474D01*
X98523298Y-94641655D01*
X98523296Y-94641655D01*
X98425796Y-94674184D01*
X98362054Y-94695450D01*
X98211652Y-94788522D01*
X98086695Y-94913697D01*
X98082855Y-94919927D01*
X98082854Y-94919928D01*
X98004881Y-95046424D01*
X97993885Y-95064262D01*
X97967436Y-95144005D01*
X97943359Y-95216595D01*
X97938203Y-95232139D01*
X97937503Y-95238975D01*
X97937502Y-95238978D01*
X97936656Y-95247236D01*
X97927500Y-95336600D01*
X97927500Y-96687400D01*
X97927837Y-96690646D01*
X97927837Y-96690650D01*
X97936610Y-96775199D01*
X97938474Y-96793166D01*
X97940655Y-96799702D01*
X97940655Y-96799704D01*
X97946379Y-96816861D01*
X97994450Y-96960946D01*
X98087522Y-97111348D01*
X98212697Y-97236305D01*
X98218927Y-97240145D01*
X98218928Y-97240146D01*
X98356090Y-97324694D01*
X98363262Y-97329115D01*
X98395787Y-97339903D01*
X98524611Y-97382632D01*
X98524613Y-97382632D01*
X98531139Y-97384797D01*
X98537975Y-97385497D01*
X98537978Y-97385498D01*
X98581031Y-97389909D01*
X98635600Y-97395500D01*
X99536400Y-97395500D01*
X99539646Y-97395163D01*
X99539650Y-97395163D01*
X99635308Y-97385238D01*
X99635312Y-97385237D01*
X99642166Y-97384526D01*
X99648702Y-97382345D01*
X99648704Y-97382345D01*
X99780806Y-97338272D01*
X99809946Y-97328550D01*
X99960348Y-97235478D01*
X100085305Y-97110303D01*
X100094975Y-97094615D01*
X100174275Y-96965968D01*
X100174276Y-96965966D01*
X100178115Y-96959738D01*
X100212247Y-96856833D01*
X100252678Y-96798473D01*
X100318242Y-96771236D01*
X100331840Y-96770500D01*
X101506930Y-96770500D01*
X101525880Y-96771933D01*
X101540115Y-96774099D01*
X101540119Y-96774099D01*
X101547349Y-96775199D01*
X101554641Y-96774606D01*
X101554644Y-96774606D01*
X101600018Y-96770915D01*
X101610233Y-96770500D01*
X101618293Y-96770500D01*
X101631583Y-96768951D01*
X101646507Y-96767211D01*
X101650882Y-96766778D01*
X101716339Y-96761454D01*
X101716342Y-96761453D01*
X101723637Y-96760860D01*
X101730601Y-96758604D01*
X101736560Y-96757413D01*
X101742415Y-96756029D01*
X101749681Y-96755182D01*
X101818327Y-96730265D01*
X101822455Y-96728848D01*
X101884936Y-96708607D01*
X101884938Y-96708606D01*
X101891899Y-96706351D01*
X101898154Y-96702555D01*
X101903628Y-96700049D01*
X101909058Y-96697330D01*
X101915937Y-96694833D01*
X101922317Y-96690650D01*
X101976976Y-96654814D01*
X101980680Y-96652477D01*
X102043107Y-96614595D01*
X102051484Y-96607197D01*
X102051508Y-96607224D01*
X102054500Y-96604571D01*
X102057733Y-96601868D01*
X102063852Y-96597856D01*
X102117128Y-96541617D01*
X102119506Y-96539175D01*
X102750276Y-95908405D01*
X102812588Y-95874379D01*
X102839371Y-95871500D01*
X103548400Y-95871500D01*
X103551646Y-95871163D01*
X103551650Y-95871163D01*
X103647308Y-95861238D01*
X103647312Y-95861237D01*
X103654166Y-95860526D01*
X103660702Y-95858345D01*
X103660704Y-95858345D01*
X103792806Y-95814272D01*
X103821946Y-95804550D01*
X103972348Y-95711478D01*
X104097305Y-95586303D01*
X104139753Y-95517440D01*
X104186275Y-95441968D01*
X104186276Y-95441966D01*
X104190115Y-95435738D01*
X104232338Y-95308438D01*
X104243632Y-95274389D01*
X104243632Y-95274387D01*
X104245797Y-95267861D01*
X104247269Y-95253500D01*
X104251307Y-95214086D01*
X104256500Y-95163400D01*
X105039500Y-95163400D01*
X105039837Y-95166646D01*
X105039837Y-95166650D01*
X105048849Y-95253500D01*
X105050474Y-95269166D01*
X105052655Y-95275702D01*
X105052655Y-95275704D01*
X105071905Y-95333402D01*
X105106450Y-95436946D01*
X105199522Y-95587348D01*
X105324697Y-95712305D01*
X105330927Y-95716145D01*
X105330928Y-95716146D01*
X105468090Y-95800694D01*
X105475262Y-95805115D01*
X105555005Y-95831564D01*
X105636611Y-95858632D01*
X105636613Y-95858632D01*
X105643139Y-95860797D01*
X105649975Y-95861497D01*
X105649978Y-95861498D01*
X105693031Y-95865909D01*
X105747600Y-95871500D01*
X106648400Y-95871500D01*
X106651646Y-95871163D01*
X106651650Y-95871163D01*
X106747308Y-95861238D01*
X106747312Y-95861237D01*
X106754166Y-95860526D01*
X106760702Y-95858345D01*
X106760704Y-95858345D01*
X106892806Y-95814272D01*
X106921946Y-95804550D01*
X107072348Y-95711478D01*
X107197305Y-95586303D01*
X107239753Y-95517440D01*
X107286275Y-95441968D01*
X107286276Y-95441966D01*
X107290115Y-95435738D01*
X107321930Y-95339817D01*
X107324247Y-95332833D01*
X107364678Y-95274473D01*
X107430242Y-95247236D01*
X107443840Y-95246500D01*
X107837629Y-95246500D01*
X107905750Y-95266502D01*
X107926724Y-95283405D01*
X108079730Y-95436411D01*
X108092116Y-95450823D01*
X108100649Y-95462418D01*
X108100654Y-95462423D01*
X108104992Y-95468318D01*
X108110570Y-95473057D01*
X108110573Y-95473060D01*
X108145268Y-95502535D01*
X108152784Y-95509465D01*
X108158479Y-95515160D01*
X108161361Y-95517440D01*
X108180751Y-95532781D01*
X108184155Y-95535572D01*
X108234203Y-95578091D01*
X108239785Y-95582833D01*
X108246301Y-95586161D01*
X108251350Y-95589528D01*
X108256479Y-95592695D01*
X108262216Y-95597234D01*
X108328375Y-95628155D01*
X108332269Y-95630058D01*
X108397308Y-95663269D01*
X108404416Y-95665008D01*
X108410059Y-95667107D01*
X108415822Y-95669024D01*
X108422450Y-95672122D01*
X108429612Y-95673612D01*
X108429613Y-95673612D01*
X108493912Y-95686986D01*
X108498196Y-95687956D01*
X108569110Y-95705308D01*
X108574712Y-95705656D01*
X108574715Y-95705656D01*
X108580264Y-95706000D01*
X108580262Y-95706036D01*
X108584255Y-95706275D01*
X108588447Y-95706649D01*
X108595615Y-95708140D01*
X108673020Y-95706046D01*
X108676428Y-95706000D01*
X108970911Y-95706000D01*
X109039032Y-95726002D01*
X109085525Y-95779658D01*
X109095629Y-95849932D01*
X109079365Y-95896136D01*
X109034855Y-95971399D01*
X109032644Y-95979010D01*
X109032643Y-95979012D01*
X109017472Y-96031231D01*
X108988438Y-96131169D01*
X108987934Y-96137574D01*
X108987933Y-96137579D01*
X108985693Y-96166042D01*
X108985500Y-96168498D01*
X108985500Y-97476502D01*
X108985693Y-97478950D01*
X108985693Y-97478958D01*
X108987927Y-97507333D01*
X108988438Y-97513831D01*
X108990232Y-97520007D01*
X108990233Y-97520011D01*
X109030497Y-97658602D01*
X109035500Y-97693754D01*
X109035500Y-98313183D01*
X109015498Y-98381304D01*
X108961842Y-98427797D01*
X108922504Y-98438510D01*
X108914620Y-98439328D01*
X108823692Y-98448762D01*
X108823688Y-98448763D01*
X108816834Y-98449474D01*
X108810298Y-98451655D01*
X108810296Y-98451655D01*
X108793928Y-98457116D01*
X108649054Y-98505450D01*
X108498652Y-98598522D01*
X108373695Y-98723697D01*
X108369855Y-98729927D01*
X108369854Y-98729928D01*
X108300978Y-98841666D01*
X108280885Y-98874262D01*
X108278509Y-98881426D01*
X108242657Y-98989518D01*
X108225203Y-99042139D01*
X108224503Y-99048975D01*
X108224502Y-99048978D01*
X108222027Y-99073140D01*
X108214500Y-99146600D01*
X108214500Y-100497400D01*
X108214837Y-100500646D01*
X108214837Y-100500650D01*
X108224618Y-100594914D01*
X108225474Y-100603166D01*
X108227655Y-100609702D01*
X108227655Y-100609704D01*
X108242486Y-100654158D01*
X108281450Y-100770946D01*
X108374522Y-100921348D01*
X108499697Y-101046305D01*
X108505927Y-101050145D01*
X108505928Y-101050146D01*
X108643288Y-101134816D01*
X108650262Y-101139115D01*
X108730005Y-101165564D01*
X108811611Y-101192632D01*
X108811613Y-101192632D01*
X108818139Y-101194797D01*
X108824975Y-101195497D01*
X108824978Y-101195498D01*
X108868031Y-101199909D01*
X108922600Y-101205500D01*
X109823400Y-101205500D01*
X109826646Y-101205163D01*
X109826650Y-101205163D01*
X109922308Y-101195238D01*
X109922312Y-101195237D01*
X109929166Y-101194526D01*
X109935702Y-101192345D01*
X109935704Y-101192345D01*
X110067806Y-101148272D01*
X110096946Y-101138550D01*
X110247348Y-101045478D01*
X110372305Y-100920303D01*
X110415511Y-100850210D01*
X110461275Y-100775968D01*
X110461276Y-100775966D01*
X110465115Y-100769738D01*
X110499247Y-100666833D01*
X110539678Y-100608473D01*
X110605242Y-100581236D01*
X110618840Y-100580500D01*
X111250121Y-100580500D01*
X111318242Y-100600502D01*
X111364735Y-100654158D01*
X111369644Y-100666623D01*
X111402130Y-100763993D01*
X111404450Y-100770946D01*
X111497522Y-100921348D01*
X111622697Y-101046305D01*
X111628927Y-101050145D01*
X111628928Y-101050146D01*
X111766288Y-101134816D01*
X111773262Y-101139115D01*
X111853005Y-101165564D01*
X111934611Y-101192632D01*
X111934613Y-101192632D01*
X111941139Y-101194797D01*
X111947975Y-101195497D01*
X111947978Y-101195498D01*
X111991031Y-101199909D01*
X112045600Y-101205500D01*
X112946400Y-101205500D01*
X112949646Y-101205163D01*
X112949650Y-101205163D01*
X113045308Y-101195238D01*
X113045312Y-101195237D01*
X113052166Y-101194526D01*
X113058702Y-101192345D01*
X113058704Y-101192345D01*
X113190806Y-101148272D01*
X113219946Y-101138550D01*
X113370348Y-101045478D01*
X113495305Y-100920303D01*
X113538511Y-100850210D01*
X113584275Y-100775968D01*
X113584276Y-100775966D01*
X113588115Y-100769738D01*
X113621086Y-100670333D01*
X113661516Y-100611973D01*
X113727081Y-100584736D01*
X113740679Y-100584000D01*
X114351817Y-100584000D01*
X114419938Y-100604002D01*
X114466431Y-100657658D01*
X114471341Y-100670124D01*
X114502588Y-100763784D01*
X114508761Y-100776962D01*
X114594063Y-100914807D01*
X114603099Y-100926208D01*
X114717829Y-101040739D01*
X114729240Y-101049751D01*
X114867243Y-101134816D01*
X114880424Y-101140963D01*
X115034710Y-101192138D01*
X115048086Y-101195005D01*
X115142438Y-101204672D01*
X115148854Y-101205000D01*
X115323885Y-101205000D01*
X115339124Y-101200525D01*
X115340329Y-101199135D01*
X115342000Y-101191452D01*
X115342000Y-101186884D01*
X115850000Y-101186884D01*
X115854475Y-101202123D01*
X115855865Y-101203328D01*
X115863548Y-101204999D01*
X116043095Y-101204999D01*
X116049614Y-101204662D01*
X116145206Y-101194743D01*
X116158600Y-101191851D01*
X116312784Y-101140412D01*
X116325962Y-101134239D01*
X116463807Y-101048937D01*
X116475208Y-101039901D01*
X116589739Y-100925171D01*
X116598751Y-100913760D01*
X116683816Y-100775757D01*
X116689963Y-100762576D01*
X116741138Y-100608290D01*
X116744005Y-100594914D01*
X116753672Y-100500562D01*
X116754000Y-100494146D01*
X116754000Y-100094115D01*
X116749525Y-100078876D01*
X116748135Y-100077671D01*
X116740452Y-100076000D01*
X115868115Y-100076000D01*
X115852876Y-100080475D01*
X115851671Y-100081865D01*
X115850000Y-100089548D01*
X115850000Y-101186884D01*
X115342000Y-101186884D01*
X115342000Y-99549885D01*
X115850000Y-99549885D01*
X115854475Y-99565124D01*
X115855865Y-99566329D01*
X115863548Y-99568000D01*
X116735884Y-99568000D01*
X116751123Y-99563525D01*
X116752328Y-99562135D01*
X116753999Y-99554452D01*
X116753999Y-99149905D01*
X116753662Y-99143386D01*
X116743743Y-99047794D01*
X116740851Y-99034400D01*
X116689412Y-98880216D01*
X116683239Y-98867038D01*
X116597937Y-98729193D01*
X116588901Y-98717792D01*
X116474171Y-98603261D01*
X116462760Y-98594249D01*
X116324757Y-98509184D01*
X116311576Y-98503037D01*
X116157290Y-98451862D01*
X116143914Y-98448995D01*
X116049562Y-98439328D01*
X116043145Y-98439000D01*
X115868115Y-98439000D01*
X115852876Y-98443475D01*
X115851671Y-98444865D01*
X115850000Y-98452548D01*
X115850000Y-99549885D01*
X115342000Y-99549885D01*
X115342000Y-98457116D01*
X115337525Y-98441877D01*
X115336135Y-98440672D01*
X115328452Y-98439001D01*
X115148905Y-98439001D01*
X115142386Y-98439338D01*
X115046794Y-98449257D01*
X115033400Y-98452149D01*
X114879216Y-98503588D01*
X114866038Y-98509761D01*
X114728193Y-98595063D01*
X114716792Y-98604099D01*
X114602261Y-98718829D01*
X114593249Y-98730240D01*
X114508184Y-98868243D01*
X114502036Y-98881426D01*
X114471441Y-98973667D01*
X114431010Y-99032027D01*
X114365446Y-99059264D01*
X114351848Y-99060000D01*
X113740711Y-99060000D01*
X113672590Y-99039998D01*
X113626097Y-98986342D01*
X113621187Y-98973876D01*
X113589868Y-98880002D01*
X113587550Y-98873054D01*
X113494478Y-98722652D01*
X113369303Y-98597695D01*
X113322868Y-98569072D01*
X113224968Y-98508725D01*
X113224966Y-98508724D01*
X113218738Y-98504885D01*
X113138995Y-98478436D01*
X113057389Y-98451368D01*
X113057387Y-98451368D01*
X113050861Y-98449203D01*
X113044025Y-98448503D01*
X113044022Y-98448502D01*
X113000969Y-98444091D01*
X112946400Y-98438500D01*
X112045600Y-98438500D01*
X112042354Y-98438837D01*
X112042350Y-98438837D01*
X111946692Y-98448762D01*
X111946688Y-98448763D01*
X111939834Y-98449474D01*
X111933298Y-98451655D01*
X111933296Y-98451655D01*
X111916928Y-98457116D01*
X111772054Y-98505450D01*
X111621652Y-98598522D01*
X111496695Y-98723697D01*
X111492855Y-98729927D01*
X111492854Y-98729928D01*
X111423978Y-98841666D01*
X111403885Y-98874262D01*
X111392103Y-98909784D01*
X111369753Y-98977167D01*
X111329322Y-99035527D01*
X111263758Y-99062764D01*
X111250160Y-99063500D01*
X111124000Y-99063500D01*
X111055879Y-99043498D01*
X111009386Y-98989842D01*
X110998000Y-98937500D01*
X110998000Y-98072455D01*
X111018002Y-98004334D01*
X111071658Y-97957841D01*
X111141932Y-97947737D01*
X111188139Y-97964001D01*
X111273779Y-98014648D01*
X111288210Y-98020893D01*
X111422605Y-98059939D01*
X111436706Y-98059899D01*
X111440000Y-98052630D01*
X111440000Y-98046878D01*
X111948000Y-98046878D01*
X111951973Y-98060409D01*
X111959871Y-98061544D01*
X112099790Y-98020893D01*
X112114221Y-98014648D01*
X112243678Y-97938089D01*
X112256104Y-97928449D01*
X112362449Y-97822104D01*
X112372089Y-97809678D01*
X112448648Y-97680221D01*
X112454893Y-97665790D01*
X112497269Y-97519935D01*
X112499570Y-97507333D01*
X112501807Y-97478916D01*
X112502000Y-97473986D01*
X112502000Y-97094615D01*
X112497525Y-97079376D01*
X112496135Y-97078171D01*
X112488452Y-97076500D01*
X111966115Y-97076500D01*
X111950876Y-97080975D01*
X111949671Y-97082365D01*
X111948000Y-97090048D01*
X111948000Y-98046878D01*
X111440000Y-98046878D01*
X111440000Y-96550385D01*
X111948000Y-96550385D01*
X111952475Y-96565624D01*
X111953865Y-96566829D01*
X111961548Y-96568500D01*
X112483884Y-96568500D01*
X112499123Y-96564025D01*
X112500328Y-96562635D01*
X112501999Y-96554952D01*
X112501999Y-96171017D01*
X112501805Y-96166080D01*
X112499570Y-96137664D01*
X112497270Y-96125069D01*
X112454893Y-95979210D01*
X112448648Y-95964779D01*
X112372089Y-95835322D01*
X112362449Y-95822896D01*
X112256104Y-95716551D01*
X112243678Y-95706911D01*
X112114221Y-95630352D01*
X112099790Y-95624107D01*
X111965395Y-95585061D01*
X111951294Y-95585101D01*
X111948000Y-95592370D01*
X111948000Y-96550385D01*
X111440000Y-96550385D01*
X111440000Y-95939842D01*
X111457547Y-95875703D01*
X111499108Y-95805427D01*
X111503145Y-95798601D01*
X111508649Y-95779658D01*
X111529426Y-95708140D01*
X111549562Y-95638831D01*
X111550230Y-95630352D01*
X111552307Y-95603958D01*
X111552307Y-95603950D01*
X111552500Y-95601502D01*
X111552500Y-94293498D01*
X111551707Y-94283419D01*
X111550067Y-94262579D01*
X111550066Y-94262574D01*
X111549562Y-94256169D01*
X111503145Y-94096399D01*
X111442473Y-93993808D01*
X111422491Y-93960020D01*
X111422489Y-93960017D01*
X111418453Y-93953193D01*
X111300807Y-93835547D01*
X111293983Y-93831511D01*
X111293980Y-93831509D01*
X111164427Y-93754892D01*
X111164428Y-93754892D01*
X111157601Y-93750855D01*
X111149990Y-93748644D01*
X111149988Y-93748643D01*
X111083972Y-93729464D01*
X110997831Y-93704438D01*
X110991426Y-93703934D01*
X110991421Y-93703933D01*
X110962958Y-93701693D01*
X110962950Y-93701693D01*
X110960502Y-93701500D01*
X110527498Y-93701500D01*
X110525050Y-93701693D01*
X110525042Y-93701693D01*
X110496579Y-93703933D01*
X110496574Y-93703934D01*
X110490169Y-93704438D01*
X110404028Y-93729464D01*
X110338012Y-93748643D01*
X110338010Y-93748644D01*
X110330399Y-93750855D01*
X110323572Y-93754892D01*
X110323573Y-93754892D01*
X110194020Y-93831509D01*
X110194017Y-93831511D01*
X110187193Y-93835547D01*
X110069547Y-93953193D01*
X110065511Y-93960017D01*
X110065509Y-93960020D01*
X110045527Y-93993808D01*
X109984855Y-94096399D01*
X109982643Y-94104012D01*
X109979494Y-94111289D01*
X109976726Y-94110091D01*
X109946111Y-94158007D01*
X109881609Y-94187670D01*
X109863348Y-94189000D01*
X109029871Y-94189000D01*
X108961750Y-94168998D01*
X108940776Y-94152095D01*
X108787770Y-93999089D01*
X108775384Y-93984677D01*
X108766851Y-93973082D01*
X108766846Y-93973077D01*
X108762508Y-93967182D01*
X108756930Y-93962443D01*
X108756927Y-93962440D01*
X108722232Y-93932965D01*
X108714716Y-93926035D01*
X108709021Y-93920340D01*
X108690893Y-93905998D01*
X108686749Y-93902719D01*
X108683345Y-93899928D01*
X108633297Y-93857409D01*
X108633295Y-93857408D01*
X108627715Y-93852667D01*
X108621199Y-93849339D01*
X108616150Y-93845972D01*
X108611021Y-93842805D01*
X108605284Y-93838266D01*
X108539125Y-93807345D01*
X108535225Y-93805439D01*
X108470192Y-93772231D01*
X108463084Y-93770492D01*
X108457441Y-93768393D01*
X108451678Y-93766476D01*
X108445050Y-93763378D01*
X108373583Y-93748513D01*
X108369299Y-93747543D01*
X108359585Y-93745166D01*
X108298390Y-93730192D01*
X108292788Y-93729844D01*
X108292785Y-93729844D01*
X108287236Y-93729500D01*
X108287238Y-93729464D01*
X108283245Y-93729225D01*
X108279053Y-93728851D01*
X108271885Y-93727360D01*
X108205675Y-93729151D01*
X108194479Y-93729454D01*
X108191072Y-93729500D01*
X107443879Y-93729500D01*
X107375758Y-93709498D01*
X107329265Y-93655842D01*
X107324356Y-93643377D01*
X107291870Y-93546007D01*
X107291868Y-93546002D01*
X107289550Y-93539054D01*
X107196478Y-93388652D01*
X107071303Y-93263695D01*
X107012933Y-93227715D01*
X106926968Y-93174725D01*
X106926966Y-93174724D01*
X106920738Y-93170885D01*
X106760254Y-93117655D01*
X106759389Y-93117368D01*
X106759387Y-93117368D01*
X106752861Y-93115203D01*
X106746025Y-93114503D01*
X106746022Y-93114502D01*
X106702969Y-93110091D01*
X106648400Y-93104500D01*
X105747600Y-93104500D01*
X105744354Y-93104837D01*
X105744350Y-93104837D01*
X105648692Y-93114762D01*
X105648688Y-93114763D01*
X105641834Y-93115474D01*
X105635298Y-93117655D01*
X105635296Y-93117655D01*
X105513967Y-93158134D01*
X105474054Y-93171450D01*
X105323652Y-93264522D01*
X105198695Y-93389697D01*
X105194855Y-93395927D01*
X105194854Y-93395928D01*
X105122775Y-93512862D01*
X105105885Y-93540262D01*
X105083095Y-93608971D01*
X105052408Y-93701492D01*
X105050203Y-93708139D01*
X105049503Y-93714975D01*
X105049502Y-93714978D01*
X105048019Y-93729454D01*
X105039500Y-93812600D01*
X105039500Y-95163400D01*
X104256500Y-95163400D01*
X104256500Y-93812600D01*
X104256155Y-93809276D01*
X104246238Y-93713692D01*
X104246237Y-93713688D01*
X104245526Y-93706834D01*
X104233952Y-93672141D01*
X104191868Y-93546002D01*
X104189550Y-93539054D01*
X104096478Y-93388652D01*
X103971303Y-93263695D01*
X103912933Y-93227715D01*
X103826968Y-93174725D01*
X103826966Y-93174724D01*
X103820738Y-93170885D01*
X103660254Y-93117655D01*
X103659389Y-93117368D01*
X103659387Y-93117368D01*
X103652861Y-93115203D01*
X103646025Y-93114503D01*
X103646022Y-93114502D01*
X103602969Y-93110091D01*
X103548400Y-93104500D01*
X103247155Y-93104500D01*
X103179034Y-93084498D01*
X103160501Y-93069972D01*
X103145617Y-93055872D01*
X103143176Y-93053495D01*
X103069847Y-92980166D01*
X103035821Y-92917854D01*
X103039384Y-92851299D01*
X103058662Y-92793348D01*
X103096197Y-92680513D01*
X103106863Y-92596081D01*
X103114182Y-92538150D01*
X103142564Y-92473073D01*
X103201624Y-92433672D01*
X103272610Y-92432455D01*
X103320766Y-92457917D01*
X103333298Y-92468563D01*
X103340804Y-92475485D01*
X103346499Y-92481180D01*
X103349381Y-92483460D01*
X103368771Y-92498801D01*
X103372175Y-92501592D01*
X103422223Y-92544111D01*
X103427805Y-92548853D01*
X103434321Y-92552181D01*
X103439370Y-92555548D01*
X103444499Y-92558715D01*
X103450236Y-92563254D01*
X103516395Y-92594175D01*
X103520289Y-92596078D01*
X103585328Y-92629289D01*
X103592436Y-92631028D01*
X103598079Y-92633127D01*
X103603842Y-92635044D01*
X103610470Y-92638142D01*
X103617632Y-92639632D01*
X103617633Y-92639632D01*
X103681932Y-92653006D01*
X103686216Y-92653976D01*
X103757130Y-92671328D01*
X103762732Y-92671676D01*
X103762735Y-92671676D01*
X103768284Y-92672020D01*
X103768282Y-92672056D01*
X103772275Y-92672295D01*
X103776467Y-92672669D01*
X103783635Y-92674160D01*
X103861040Y-92672066D01*
X103864448Y-92672020D01*
X107796240Y-92672020D01*
X107864361Y-92692022D01*
X107903383Y-92731716D01*
X107941522Y-92793348D01*
X108066697Y-92918305D01*
X108072927Y-92922145D01*
X108072928Y-92922146D01*
X108210090Y-93006694D01*
X108217262Y-93011115D01*
X108297005Y-93037564D01*
X108378611Y-93064632D01*
X108378613Y-93064632D01*
X108385139Y-93066797D01*
X108391975Y-93067497D01*
X108391978Y-93067498D01*
X108435031Y-93071909D01*
X108489600Y-93077500D01*
X109390400Y-93077500D01*
X109393646Y-93077163D01*
X109393650Y-93077163D01*
X109489308Y-93067238D01*
X109489312Y-93067237D01*
X109496166Y-93066526D01*
X109502702Y-93064345D01*
X109502704Y-93064345D01*
X109634806Y-93020272D01*
X109663946Y-93010550D01*
X109814348Y-92917478D01*
X109939305Y-92792303D01*
X109976650Y-92731718D01*
X110028275Y-92647968D01*
X110028276Y-92647966D01*
X110032115Y-92641738D01*
X110079071Y-92500170D01*
X110085632Y-92480389D01*
X110085632Y-92480387D01*
X110087797Y-92473861D01*
X110089431Y-92457919D01*
X110095939Y-92394394D01*
X110098500Y-92369400D01*
X110881500Y-92369400D01*
X110881837Y-92372646D01*
X110881837Y-92372650D01*
X110889917Y-92450519D01*
X110892474Y-92475166D01*
X110894655Y-92481702D01*
X110894655Y-92481704D01*
X110922053Y-92563825D01*
X110948450Y-92642946D01*
X111041522Y-92793348D01*
X111166697Y-92918305D01*
X111172927Y-92922145D01*
X111172928Y-92922146D01*
X111310090Y-93006694D01*
X111317262Y-93011115D01*
X111397005Y-93037564D01*
X111478611Y-93064632D01*
X111478613Y-93064632D01*
X111485139Y-93066797D01*
X111491975Y-93067497D01*
X111491978Y-93067498D01*
X111535031Y-93071909D01*
X111589600Y-93077500D01*
X112298629Y-93077500D01*
X112366750Y-93097502D01*
X112387724Y-93114405D01*
X112599230Y-93325911D01*
X112611616Y-93340323D01*
X112620149Y-93351918D01*
X112620154Y-93351923D01*
X112624492Y-93357818D01*
X112630070Y-93362557D01*
X112630073Y-93362560D01*
X112664768Y-93392035D01*
X112672284Y-93398965D01*
X112677979Y-93404660D01*
X112680850Y-93406931D01*
X112680863Y-93406943D01*
X112700268Y-93422295D01*
X112703639Y-93425058D01*
X112735640Y-93452245D01*
X112752792Y-93469992D01*
X112809035Y-93540953D01*
X112813722Y-93544942D01*
X112813725Y-93544945D01*
X112954958Y-93665143D01*
X112959650Y-93669136D01*
X113132294Y-93765624D01*
X113320392Y-93826740D01*
X113516777Y-93850158D01*
X113522912Y-93849686D01*
X113522914Y-93849686D01*
X113707830Y-93835457D01*
X113707834Y-93835456D01*
X113713972Y-93834984D01*
X113904463Y-93781798D01*
X113988429Y-93739384D01*
X114058250Y-93726524D01*
X114123941Y-93753453D01*
X114164763Y-93811974D01*
X114198450Y-93912946D01*
X114291522Y-94063348D01*
X114416697Y-94188305D01*
X114422927Y-94192145D01*
X114422928Y-94192146D01*
X114560090Y-94276694D01*
X114567262Y-94281115D01*
X114604596Y-94293498D01*
X114728611Y-94334632D01*
X114728613Y-94334632D01*
X114735139Y-94336797D01*
X114741975Y-94337497D01*
X114741978Y-94337498D01*
X114785031Y-94341909D01*
X114839600Y-94347500D01*
X115740400Y-94347500D01*
X115743646Y-94347163D01*
X115743650Y-94347163D01*
X115839308Y-94337238D01*
X115839312Y-94337237D01*
X115846166Y-94336526D01*
X115852702Y-94334345D01*
X115852704Y-94334345D01*
X115984806Y-94290272D01*
X116013946Y-94280550D01*
X116164348Y-94187478D01*
X116289305Y-94062303D01*
X116350862Y-93962440D01*
X116378275Y-93917968D01*
X116378276Y-93917966D01*
X116382115Y-93911738D01*
X116423287Y-93787607D01*
X116435632Y-93750389D01*
X116435632Y-93750387D01*
X116437797Y-93743861D01*
X116438827Y-93733814D01*
X116447095Y-93653108D01*
X116448500Y-93639400D01*
X116448500Y-92288600D01*
X116443279Y-92238279D01*
X116438238Y-92189692D01*
X116438237Y-92189688D01*
X116437526Y-92182834D01*
X116422854Y-92138855D01*
X116383868Y-92022002D01*
X116381550Y-92015054D01*
X116288478Y-91864652D01*
X116163303Y-91739695D01*
X116128781Y-91718415D01*
X116018968Y-91650725D01*
X116018966Y-91650724D01*
X116012738Y-91646885D01*
X115907270Y-91611903D01*
X115851389Y-91593368D01*
X115851387Y-91593368D01*
X115844861Y-91591203D01*
X115838025Y-91590503D01*
X115838022Y-91590502D01*
X115794969Y-91586091D01*
X115740400Y-91580500D01*
X114839600Y-91580500D01*
X114836354Y-91580837D01*
X114836350Y-91580837D01*
X114740692Y-91590762D01*
X114740688Y-91590763D01*
X114733834Y-91591474D01*
X114727298Y-91593655D01*
X114727296Y-91593655D01*
X114595194Y-91637728D01*
X114566054Y-91647450D01*
X114415652Y-91740522D01*
X114290695Y-91865697D01*
X114286855Y-91871927D01*
X114286854Y-91871928D01*
X114246019Y-91938175D01*
X114193247Y-91985668D01*
X114123175Y-91997092D01*
X114078830Y-91982895D01*
X113985626Y-91932500D01*
X113930701Y-91902802D01*
X113741768Y-91844318D01*
X113735643Y-91843674D01*
X113735642Y-91843674D01*
X113551204Y-91824289D01*
X113551202Y-91824289D01*
X113545075Y-91823645D01*
X113348112Y-91841570D01*
X113346547Y-91842031D01*
X113277450Y-91835301D01*
X113221726Y-91791309D01*
X113198500Y-91718415D01*
X113198500Y-91018600D01*
X113197971Y-91013500D01*
X113188238Y-90919692D01*
X113188237Y-90919688D01*
X113187526Y-90912834D01*
X113185064Y-90905453D01*
X113133868Y-90752002D01*
X113131550Y-90745054D01*
X113038478Y-90594652D01*
X112913303Y-90469695D01*
X112878140Y-90448020D01*
X112768968Y-90380725D01*
X112768966Y-90380724D01*
X112762738Y-90376885D01*
X112650604Y-90339692D01*
X112601389Y-90323368D01*
X112601387Y-90323368D01*
X112594861Y-90321203D01*
X112588025Y-90320503D01*
X112588022Y-90320502D01*
X112544969Y-90316091D01*
X112490400Y-90310500D01*
X111589600Y-90310500D01*
X111586354Y-90310837D01*
X111586350Y-90310837D01*
X111490692Y-90320762D01*
X111490688Y-90320763D01*
X111483834Y-90321474D01*
X111477298Y-90323655D01*
X111477296Y-90323655D01*
X111429228Y-90339692D01*
X111316054Y-90377450D01*
X111165652Y-90470522D01*
X111040695Y-90595697D01*
X111036855Y-90601927D01*
X111036854Y-90601928D01*
X110952983Y-90737992D01*
X110947885Y-90746262D01*
X110936370Y-90780980D01*
X110916560Y-90840706D01*
X110892203Y-90914139D01*
X110891503Y-90920975D01*
X110891502Y-90920978D01*
X110890028Y-90935363D01*
X110881500Y-91018600D01*
X110881500Y-92369400D01*
X110098500Y-92369400D01*
X110098500Y-91018600D01*
X110097971Y-91013500D01*
X110088238Y-90919692D01*
X110088237Y-90919688D01*
X110087526Y-90912834D01*
X110085064Y-90905453D01*
X110033868Y-90752002D01*
X110031550Y-90745054D01*
X109938478Y-90594652D01*
X109813303Y-90469695D01*
X109778140Y-90448020D01*
X109668968Y-90380725D01*
X109668966Y-90380724D01*
X109662738Y-90376885D01*
X109550604Y-90339692D01*
X109501389Y-90323368D01*
X109501387Y-90323368D01*
X109494861Y-90321203D01*
X109488025Y-90320503D01*
X109488022Y-90320502D01*
X109444969Y-90316091D01*
X109390400Y-90310500D01*
X108489600Y-90310500D01*
X108486354Y-90310837D01*
X108486350Y-90310837D01*
X108390692Y-90320762D01*
X108390688Y-90320763D01*
X108383834Y-90321474D01*
X108377298Y-90323655D01*
X108377296Y-90323655D01*
X108329228Y-90339692D01*
X108216054Y-90377450D01*
X108065652Y-90470522D01*
X107940695Y-90595697D01*
X107936855Y-90601927D01*
X107936854Y-90601928D01*
X107852983Y-90737992D01*
X107847885Y-90746262D01*
X107836370Y-90780980D01*
X107816560Y-90840706D01*
X107792203Y-90914139D01*
X107791503Y-90920975D01*
X107791502Y-90920978D01*
X107790028Y-90935363D01*
X107781500Y-91018600D01*
X107781500Y-91029020D01*
X107761498Y-91097141D01*
X107707842Y-91143634D01*
X107655500Y-91155020D01*
X106405000Y-91155020D01*
X106336879Y-91135018D01*
X106290386Y-91081362D01*
X106279000Y-91029020D01*
X106279000Y-90998615D01*
X106274525Y-90983376D01*
X106273135Y-90982171D01*
X106265452Y-90980500D01*
X104681116Y-90980500D01*
X104665877Y-90984975D01*
X104664672Y-90986365D01*
X104663001Y-90994048D01*
X104663001Y-91029020D01*
X104642999Y-91097141D01*
X104589343Y-91143634D01*
X104537001Y-91155020D01*
X104516500Y-91155020D01*
X104448379Y-91135018D01*
X104401886Y-91081362D01*
X104390500Y-91029020D01*
X104390500Y-90854570D01*
X104391933Y-90835620D01*
X104394099Y-90821385D01*
X104394099Y-90821381D01*
X104395199Y-90814151D01*
X104393513Y-90793416D01*
X104390915Y-90761482D01*
X104390500Y-90751267D01*
X104390500Y-90743207D01*
X104387211Y-90714993D01*
X104386778Y-90710618D01*
X104380860Y-90637863D01*
X104380978Y-90637853D01*
X104379500Y-90622919D01*
X104379500Y-90223500D01*
X104399502Y-90155379D01*
X104453158Y-90108886D01*
X104505500Y-90097500D01*
X104537000Y-90097500D01*
X104605121Y-90117502D01*
X104651614Y-90171158D01*
X104663000Y-90223500D01*
X104663000Y-90454385D01*
X104667475Y-90469624D01*
X104668865Y-90470829D01*
X104676548Y-90472500D01*
X106260884Y-90472500D01*
X106276123Y-90468025D01*
X106277328Y-90466635D01*
X106278999Y-90458952D01*
X106278999Y-90075017D01*
X106278805Y-90070080D01*
X106276570Y-90041664D01*
X106274270Y-90029069D01*
X106231893Y-89883210D01*
X106225648Y-89868779D01*
X106185055Y-89800139D01*
X106167596Y-89731322D01*
X106190113Y-89663991D01*
X106245458Y-89619522D01*
X106293509Y-89610000D01*
X107766754Y-89610000D01*
X107832870Y-89628740D01*
X107956090Y-89704694D01*
X107963262Y-89709115D01*
X108041409Y-89735035D01*
X108124611Y-89762632D01*
X108124613Y-89762632D01*
X108131139Y-89764797D01*
X108137975Y-89765497D01*
X108137978Y-89765498D01*
X108181031Y-89769909D01*
X108235600Y-89775500D01*
X109136400Y-89775500D01*
X109139646Y-89775163D01*
X109139650Y-89775163D01*
X109235308Y-89765238D01*
X109235312Y-89765237D01*
X109242166Y-89764526D01*
X109248702Y-89762345D01*
X109248704Y-89762345D01*
X109400447Y-89711719D01*
X109409946Y-89708550D01*
X109560348Y-89615478D01*
X109685305Y-89490303D01*
X109708158Y-89453229D01*
X109774275Y-89345968D01*
X109774276Y-89345966D01*
X109778115Y-89339738D01*
X109833797Y-89171861D01*
X109837133Y-89139307D01*
X109841943Y-89092357D01*
X109844500Y-89067400D01*
X109844500Y-87716600D01*
X109844163Y-87713350D01*
X109834238Y-87617691D01*
X109834237Y-87617686D01*
X109833526Y-87610834D01*
X109833061Y-87609440D01*
X109838082Y-87540726D01*
X109880717Y-87483956D01*
X109947275Y-87459248D01*
X110016626Y-87474447D01*
X110045165Y-87495846D01*
X110590595Y-88041276D01*
X110624621Y-88103588D01*
X110627500Y-88130371D01*
X110627500Y-89067400D01*
X110627837Y-89070646D01*
X110627837Y-89070650D01*
X110636610Y-89155199D01*
X110638474Y-89173166D01*
X110640655Y-89179702D01*
X110640655Y-89179704D01*
X110663540Y-89248297D01*
X110694450Y-89340946D01*
X110787522Y-89491348D01*
X110912697Y-89616305D01*
X110918927Y-89620145D01*
X110918928Y-89620146D01*
X111056090Y-89704694D01*
X111063262Y-89709115D01*
X111141409Y-89735035D01*
X111224611Y-89762632D01*
X111224613Y-89762632D01*
X111231139Y-89764797D01*
X111237975Y-89765497D01*
X111237978Y-89765498D01*
X111281031Y-89769909D01*
X111335600Y-89775500D01*
X112236400Y-89775500D01*
X112239646Y-89775163D01*
X112239650Y-89775163D01*
X112335308Y-89765238D01*
X112335312Y-89765237D01*
X112342166Y-89764526D01*
X112348702Y-89762345D01*
X112348704Y-89762345D01*
X112500447Y-89711719D01*
X112509946Y-89708550D01*
X112660348Y-89615478D01*
X112728836Y-89546871D01*
X113647456Y-89546871D01*
X113688107Y-89686790D01*
X113694352Y-89701221D01*
X113770911Y-89830678D01*
X113780551Y-89843104D01*
X113886896Y-89949449D01*
X113899322Y-89959089D01*
X114028779Y-90035648D01*
X114043210Y-90041893D01*
X114189065Y-90084269D01*
X114201667Y-90086570D01*
X114230084Y-90088807D01*
X114235014Y-90089000D01*
X114614385Y-90089000D01*
X114629624Y-90084525D01*
X114630829Y-90083135D01*
X114632500Y-90075452D01*
X114632500Y-90070884D01*
X115140500Y-90070884D01*
X115144975Y-90086123D01*
X115146365Y-90087328D01*
X115154048Y-90088999D01*
X115389500Y-90088999D01*
X115457621Y-90109001D01*
X115504114Y-90162657D01*
X115515500Y-90214999D01*
X115515500Y-90447502D01*
X115515693Y-90449950D01*
X115515693Y-90449958D01*
X115517720Y-90475704D01*
X115518438Y-90484831D01*
X115535010Y-90541872D01*
X115553206Y-90604503D01*
X115564855Y-90644601D01*
X115568892Y-90651427D01*
X115645509Y-90780980D01*
X115645511Y-90780983D01*
X115649547Y-90787807D01*
X115767193Y-90905453D01*
X115774017Y-90909489D01*
X115774020Y-90909491D01*
X115830108Y-90942661D01*
X115910399Y-90990145D01*
X115918010Y-90992356D01*
X115918012Y-90992357D01*
X115923833Y-90994048D01*
X116070169Y-91036562D01*
X116076574Y-91037066D01*
X116076579Y-91037067D01*
X116105042Y-91039307D01*
X116105050Y-91039307D01*
X116107498Y-91039500D01*
X116655359Y-91039500D01*
X116685308Y-91043111D01*
X116733110Y-91054808D01*
X116738712Y-91055156D01*
X116738715Y-91055156D01*
X116744264Y-91055500D01*
X116744262Y-91055536D01*
X116748255Y-91055775D01*
X116752447Y-91056149D01*
X116759615Y-91057640D01*
X116837020Y-91055546D01*
X116840428Y-91055500D01*
X117235629Y-91055500D01*
X117303750Y-91075502D01*
X117324724Y-91092405D01*
X117594595Y-91362276D01*
X117628621Y-91424588D01*
X117631500Y-91451371D01*
X117631500Y-91598631D01*
X117611498Y-91666752D01*
X117571807Y-91705772D01*
X117515652Y-91740522D01*
X117390695Y-91865697D01*
X117386855Y-91871927D01*
X117386854Y-91871928D01*
X117309702Y-91997092D01*
X117297885Y-92016262D01*
X117242203Y-92184139D01*
X117231500Y-92288600D01*
X117231500Y-93639400D01*
X117231837Y-93642646D01*
X117231837Y-93642650D01*
X117241230Y-93733175D01*
X117242474Y-93745166D01*
X117244655Y-93751702D01*
X117244655Y-93751704D01*
X117278850Y-93854199D01*
X117298450Y-93912946D01*
X117391522Y-94063348D01*
X117516697Y-94188305D01*
X117522927Y-94192145D01*
X117522928Y-94192146D01*
X117660090Y-94276694D01*
X117667262Y-94281115D01*
X117704596Y-94293498D01*
X117828611Y-94334632D01*
X117828613Y-94334632D01*
X117835139Y-94336797D01*
X117841975Y-94337497D01*
X117841978Y-94337498D01*
X117885031Y-94341909D01*
X117939600Y-94347500D01*
X118840400Y-94347500D01*
X118843646Y-94347163D01*
X118843650Y-94347163D01*
X118939308Y-94337238D01*
X118939312Y-94337237D01*
X118946166Y-94336526D01*
X118952702Y-94334345D01*
X118952704Y-94334345D01*
X119084806Y-94290272D01*
X119113946Y-94280550D01*
X119264348Y-94187478D01*
X119389305Y-94062303D01*
X119450862Y-93962440D01*
X119478275Y-93917968D01*
X119478276Y-93917966D01*
X119482115Y-93911738D01*
X119523287Y-93787607D01*
X119535632Y-93750389D01*
X119535632Y-93750387D01*
X119537797Y-93743861D01*
X119538827Y-93733814D01*
X119547095Y-93653108D01*
X119548500Y-93639400D01*
X119548500Y-93158134D01*
X123081500Y-93158134D01*
X123088255Y-93220316D01*
X123139385Y-93356705D01*
X123226739Y-93473261D01*
X123343295Y-93560615D01*
X123479684Y-93611745D01*
X123541866Y-93618500D01*
X126438134Y-93618500D01*
X126500316Y-93611745D01*
X126636705Y-93560615D01*
X126753261Y-93473261D01*
X126840615Y-93356705D01*
X126891745Y-93220316D01*
X126898500Y-93158134D01*
X126898500Y-90261866D01*
X126891745Y-90199684D01*
X126840615Y-90063295D01*
X126753261Y-89946739D01*
X126636705Y-89859385D01*
X126500316Y-89808255D01*
X126438134Y-89801500D01*
X123541866Y-89801500D01*
X123479684Y-89808255D01*
X123343295Y-89859385D01*
X123226739Y-89946739D01*
X123139385Y-90063295D01*
X123088255Y-90199684D01*
X123081500Y-90261866D01*
X123081500Y-93158134D01*
X119548500Y-93158134D01*
X119548500Y-92288600D01*
X119543279Y-92238279D01*
X119538238Y-92189692D01*
X119538237Y-92189688D01*
X119537526Y-92182834D01*
X119522854Y-92138855D01*
X119483868Y-92022002D01*
X119481550Y-92015054D01*
X119388478Y-91864652D01*
X119263303Y-91739695D01*
X119257075Y-91735856D01*
X119257070Y-91735852D01*
X119208383Y-91705841D01*
X119160890Y-91653069D01*
X119148500Y-91598582D01*
X119148500Y-91152069D01*
X119149933Y-91133118D01*
X119152099Y-91118883D01*
X119152099Y-91118881D01*
X119153199Y-91111651D01*
X119150736Y-91081362D01*
X119148915Y-91058982D01*
X119148500Y-91048767D01*
X119148500Y-91040707D01*
X119146951Y-91027417D01*
X119145211Y-91012493D01*
X119144778Y-91008118D01*
X119139454Y-90942661D01*
X119139453Y-90942658D01*
X119138860Y-90935363D01*
X119136604Y-90928399D01*
X119135413Y-90922440D01*
X119134029Y-90916585D01*
X119133182Y-90909319D01*
X119108265Y-90840673D01*
X119106848Y-90836545D01*
X119086607Y-90774064D01*
X119086606Y-90774062D01*
X119084351Y-90767101D01*
X119080555Y-90760846D01*
X119078049Y-90755372D01*
X119075330Y-90749942D01*
X119072833Y-90743063D01*
X119032809Y-90682016D01*
X119030472Y-90678312D01*
X119022793Y-90665656D01*
X119010016Y-90644601D01*
X118995509Y-90620693D01*
X118995505Y-90620688D01*
X118992595Y-90615892D01*
X118985197Y-90607516D01*
X118985223Y-90607493D01*
X118982574Y-90604503D01*
X118979866Y-90601264D01*
X118975856Y-90595148D01*
X118970549Y-90590121D01*
X118970546Y-90590117D01*
X118919617Y-90541872D01*
X118917175Y-90539494D01*
X118185770Y-89808089D01*
X118173384Y-89793677D01*
X118164851Y-89782082D01*
X118164846Y-89782077D01*
X118160508Y-89776182D01*
X118154930Y-89771443D01*
X118154927Y-89771440D01*
X118120232Y-89741965D01*
X118112716Y-89735035D01*
X118107021Y-89729340D01*
X118100880Y-89724482D01*
X118084749Y-89711719D01*
X118081345Y-89708928D01*
X118031297Y-89666409D01*
X118031295Y-89666408D01*
X118025715Y-89661667D01*
X118019199Y-89658339D01*
X118014150Y-89654972D01*
X118009021Y-89651805D01*
X118003284Y-89647266D01*
X117937125Y-89616345D01*
X117933225Y-89614439D01*
X117928335Y-89611942D01*
X117868192Y-89581231D01*
X117861084Y-89579492D01*
X117855441Y-89577393D01*
X117849678Y-89575476D01*
X117843050Y-89572378D01*
X117802473Y-89563938D01*
X117771594Y-89557515D01*
X117767349Y-89556555D01*
X117766813Y-89556424D01*
X117765853Y-89556189D01*
X117731622Y-89542244D01*
X117612601Y-89471855D01*
X117604990Y-89469644D01*
X117604988Y-89469643D01*
X117543639Y-89451820D01*
X117452831Y-89425438D01*
X117446426Y-89424934D01*
X117446421Y-89424933D01*
X117417958Y-89422693D01*
X117417950Y-89422693D01*
X117415502Y-89422500D01*
X116107498Y-89422500D01*
X116105050Y-89422693D01*
X116105042Y-89422693D01*
X116076579Y-89424933D01*
X116076574Y-89424934D01*
X116070169Y-89425438D01*
X115979361Y-89451820D01*
X115918012Y-89469643D01*
X115918010Y-89469644D01*
X115910399Y-89471855D01*
X115903575Y-89475891D01*
X115903573Y-89475892D01*
X115833297Y-89517453D01*
X115769158Y-89535000D01*
X115158615Y-89535000D01*
X115143376Y-89539475D01*
X115142171Y-89540865D01*
X115140500Y-89548548D01*
X115140500Y-90070884D01*
X114632500Y-90070884D01*
X114632500Y-89553115D01*
X114628025Y-89537876D01*
X114626635Y-89536671D01*
X114618952Y-89535000D01*
X113662122Y-89535000D01*
X113648591Y-89538973D01*
X113647456Y-89546871D01*
X112728836Y-89546871D01*
X112785305Y-89490303D01*
X112808158Y-89453229D01*
X112874275Y-89345968D01*
X112874276Y-89345966D01*
X112878115Y-89339738D01*
X112906319Y-89254705D01*
X112912247Y-89236833D01*
X112952678Y-89178473D01*
X113018242Y-89151236D01*
X113031840Y-89150500D01*
X116633430Y-89150500D01*
X116652380Y-89151933D01*
X116666615Y-89154099D01*
X116666619Y-89154099D01*
X116673849Y-89155199D01*
X116681141Y-89154606D01*
X116681144Y-89154606D01*
X116726518Y-89150915D01*
X116736733Y-89150500D01*
X116744793Y-89150500D01*
X116758083Y-89148951D01*
X116773007Y-89147211D01*
X116777382Y-89146778D01*
X116850137Y-89140860D01*
X116850147Y-89140978D01*
X116865081Y-89139500D01*
X117415502Y-89139500D01*
X117417950Y-89139307D01*
X117417958Y-89139307D01*
X117446421Y-89137067D01*
X117446426Y-89137066D01*
X117452831Y-89136562D01*
X117568106Y-89103072D01*
X117604988Y-89092357D01*
X117604990Y-89092356D01*
X117612601Y-89090145D01*
X117660985Y-89061531D01*
X117748980Y-89009491D01*
X117748983Y-89009489D01*
X117755807Y-89005453D01*
X117873453Y-88887807D01*
X117877489Y-88880983D01*
X117877491Y-88880980D01*
X117954108Y-88751427D01*
X117958145Y-88744601D01*
X118004562Y-88584831D01*
X118007500Y-88547502D01*
X118007500Y-88114498D01*
X118007307Y-88112042D01*
X118005067Y-88083579D01*
X118005066Y-88083574D01*
X118004562Y-88077169D01*
X117958145Y-87917399D01*
X117919222Y-87851584D01*
X117877491Y-87781020D01*
X117877489Y-87781017D01*
X117873453Y-87774193D01*
X117755807Y-87656547D01*
X117748983Y-87652511D01*
X117748980Y-87652509D01*
X117619427Y-87575892D01*
X117619428Y-87575892D01*
X117612601Y-87571855D01*
X117604988Y-87569643D01*
X117597711Y-87566494D01*
X117598909Y-87563726D01*
X117550993Y-87533111D01*
X117521330Y-87468609D01*
X117520000Y-87450348D01*
X117520000Y-85536500D01*
X117540002Y-85468379D01*
X117593658Y-85421886D01*
X117646000Y-85410500D01*
X118175400Y-85410500D01*
X118178646Y-85410163D01*
X118178650Y-85410163D01*
X118274308Y-85400238D01*
X118274312Y-85400237D01*
X118281166Y-85399526D01*
X118287702Y-85397345D01*
X118287704Y-85397345D01*
X118441998Y-85345868D01*
X118448946Y-85343550D01*
X118599348Y-85250478D01*
X118724305Y-85125303D01*
X118728383Y-85118688D01*
X118813275Y-84980968D01*
X118813276Y-84980966D01*
X118817115Y-84974738D01*
X118872797Y-84806861D01*
X118874713Y-84788167D01*
X118878325Y-84752912D01*
X118883500Y-84702400D01*
X118883500Y-83899871D01*
X118903502Y-83831750D01*
X118957158Y-83785257D01*
X119027432Y-83775153D01*
X119092012Y-83804647D01*
X119098595Y-83810776D01*
X119744595Y-84456776D01*
X119778621Y-84519088D01*
X119781500Y-84545871D01*
X119781500Y-85575500D01*
X119761498Y-85643621D01*
X119707842Y-85690114D01*
X119655500Y-85701500D01*
X119091866Y-85701500D01*
X119029684Y-85708255D01*
X118893295Y-85759385D01*
X118776739Y-85846739D01*
X118689385Y-85963295D01*
X118638255Y-86099684D01*
X118637402Y-86107540D01*
X118631912Y-86158078D01*
X118631500Y-86161866D01*
X118631500Y-89058134D01*
X118638255Y-89120316D01*
X118689385Y-89256705D01*
X118776739Y-89373261D01*
X118893295Y-89460615D01*
X119029684Y-89511745D01*
X119091866Y-89518500D01*
X121988134Y-89518500D01*
X122050316Y-89511745D01*
X122186705Y-89460615D01*
X122303261Y-89373261D01*
X122390615Y-89256705D01*
X122441745Y-89120316D01*
X122448500Y-89058134D01*
X122448500Y-86245774D01*
X122878102Y-86245774D01*
X122878302Y-86251103D01*
X122878302Y-86251105D01*
X122882427Y-86360966D01*
X122886751Y-86476158D01*
X122934093Y-86701791D01*
X122936051Y-86706750D01*
X122936052Y-86706752D01*
X123015339Y-86907517D01*
X123018776Y-86916221D01*
X123021543Y-86920780D01*
X123021544Y-86920783D01*
X123086883Y-87028458D01*
X123138377Y-87113317D01*
X123141874Y-87117347D01*
X123284472Y-87281677D01*
X123289477Y-87287445D01*
X123297102Y-87293697D01*
X123463627Y-87430240D01*
X123463633Y-87430244D01*
X123467755Y-87433624D01*
X123472391Y-87436263D01*
X123472394Y-87436265D01*
X123577063Y-87495846D01*
X123668114Y-87547675D01*
X123884825Y-87626337D01*
X123890074Y-87627286D01*
X123890077Y-87627287D01*
X124107608Y-87666623D01*
X124107615Y-87666624D01*
X124111692Y-87667361D01*
X124129414Y-87668197D01*
X124134356Y-87668430D01*
X124134363Y-87668430D01*
X124135844Y-87668500D01*
X124297890Y-87668500D01*
X124372656Y-87662156D01*
X124464409Y-87654371D01*
X124464413Y-87654370D01*
X124469720Y-87653920D01*
X124474875Y-87652582D01*
X124474881Y-87652581D01*
X124687703Y-87597343D01*
X124687707Y-87597342D01*
X124692872Y-87596001D01*
X124697738Y-87593809D01*
X124697741Y-87593808D01*
X124898202Y-87503507D01*
X124903075Y-87501312D01*
X125094319Y-87372559D01*
X125100275Y-87366878D01*
X125179991Y-87290832D01*
X125261135Y-87213424D01*
X125398754Y-87028458D01*
X125402189Y-87021703D01*
X125500822Y-86827704D01*
X125503240Y-86822949D01*
X125512632Y-86792704D01*
X125570024Y-86607871D01*
X125571607Y-86602773D01*
X125587406Y-86483568D01*
X125601198Y-86379511D01*
X125601198Y-86379506D01*
X125601898Y-86374226D01*
X125593249Y-86143842D01*
X125582216Y-86091256D01*
X125547002Y-85923428D01*
X125545907Y-85918209D01*
X125496181Y-85792296D01*
X125463185Y-85708744D01*
X125463184Y-85708742D01*
X125461224Y-85703779D01*
X125341623Y-85506683D01*
X125254366Y-85406128D01*
X125194023Y-85336588D01*
X125194021Y-85336586D01*
X125190523Y-85332555D01*
X125113860Y-85269695D01*
X125016373Y-85189760D01*
X125016367Y-85189756D01*
X125012245Y-85186376D01*
X125007609Y-85183737D01*
X125007606Y-85183735D01*
X124816529Y-85074968D01*
X124811886Y-85072325D01*
X124595175Y-84993663D01*
X124589926Y-84992714D01*
X124589923Y-84992713D01*
X124372392Y-84953377D01*
X124372385Y-84953376D01*
X124368308Y-84952639D01*
X124350586Y-84951803D01*
X124345644Y-84951570D01*
X124345637Y-84951570D01*
X124344156Y-84951500D01*
X124182110Y-84951500D01*
X124115191Y-84957178D01*
X124015591Y-84965629D01*
X124015587Y-84965630D01*
X124010280Y-84966080D01*
X124005125Y-84967418D01*
X124005119Y-84967419D01*
X123792297Y-85022657D01*
X123792293Y-85022658D01*
X123787128Y-85023999D01*
X123782262Y-85026191D01*
X123782259Y-85026192D01*
X123678420Y-85072968D01*
X123576925Y-85118688D01*
X123385681Y-85247441D01*
X123218865Y-85406576D01*
X123081246Y-85591542D01*
X123078830Y-85596293D01*
X123078828Y-85596297D01*
X123035510Y-85681498D01*
X122976760Y-85797051D01*
X122975178Y-85802145D01*
X122975177Y-85802148D01*
X122927992Y-85954109D01*
X122908393Y-86017227D01*
X122907692Y-86022516D01*
X122879068Y-86238489D01*
X122878102Y-86245774D01*
X122448500Y-86245774D01*
X122448500Y-86161866D01*
X122448089Y-86158078D01*
X122442598Y-86107540D01*
X122441745Y-86099684D01*
X122390615Y-85963295D01*
X122303261Y-85846739D01*
X122186705Y-85759385D01*
X122050316Y-85708255D01*
X121988134Y-85701500D01*
X121424500Y-85701500D01*
X121356379Y-85681498D01*
X121309886Y-85627842D01*
X121298500Y-85575500D01*
X121298500Y-84246570D01*
X121299933Y-84227620D01*
X121302099Y-84213385D01*
X121302099Y-84213381D01*
X121303199Y-84206151D01*
X121302275Y-84194784D01*
X121298915Y-84153482D01*
X121298500Y-84143267D01*
X121298500Y-84135207D01*
X121295209Y-84106980D01*
X121294778Y-84102621D01*
X121289454Y-84037162D01*
X121289453Y-84037159D01*
X121288860Y-84029864D01*
X121286604Y-84022900D01*
X121285417Y-84016961D01*
X121284030Y-84011090D01*
X121283182Y-84003819D01*
X121280686Y-83996943D01*
X121280684Y-83996934D01*
X121258275Y-83935202D01*
X121256865Y-83931098D01*
X121234352Y-83861601D01*
X121230556Y-83855346D01*
X121228057Y-83849887D01*
X121225329Y-83844439D01*
X121222833Y-83837563D01*
X121182805Y-83776510D01*
X121180481Y-83772827D01*
X121145500Y-83715180D01*
X121145499Y-83715179D01*
X121142595Y-83710393D01*
X121135198Y-83702017D01*
X121135225Y-83701993D01*
X121132570Y-83698999D01*
X121129868Y-83695768D01*
X121125856Y-83689648D01*
X121069617Y-83636372D01*
X121067175Y-83633994D01*
X118920405Y-81487224D01*
X118886379Y-81424912D01*
X118883500Y-81398129D01*
X118883500Y-80651600D01*
X118883163Y-80648350D01*
X118873238Y-80552692D01*
X118873237Y-80552688D01*
X118872526Y-80545834D01*
X118856677Y-80498327D01*
X118818868Y-80385002D01*
X118816550Y-80378054D01*
X118723478Y-80227652D01*
X118598303Y-80102695D01*
X118477869Y-80028458D01*
X118453968Y-80013725D01*
X118453966Y-80013724D01*
X118447738Y-80009885D01*
X118316378Y-79966315D01*
X118286389Y-79956368D01*
X118286387Y-79956368D01*
X118279861Y-79954203D01*
X118273025Y-79953503D01*
X118273022Y-79953502D01*
X118229969Y-79949091D01*
X118175400Y-79943500D01*
X116774600Y-79943500D01*
X116771354Y-79943837D01*
X116771350Y-79943837D01*
X116675692Y-79953762D01*
X116675688Y-79953763D01*
X116668834Y-79954474D01*
X116662298Y-79956655D01*
X116662296Y-79956655D01*
X116530194Y-80000728D01*
X116501054Y-80010450D01*
X116350652Y-80103522D01*
X116225695Y-80228697D01*
X116221855Y-80234927D01*
X116221854Y-80234928D01*
X116138250Y-80370559D01*
X116132885Y-80379262D01*
X116077203Y-80547139D01*
X116066500Y-80651600D01*
X116066500Y-81577400D01*
X116077474Y-81683166D01*
X116133450Y-81850946D01*
X116226522Y-82001348D01*
X116351697Y-82126305D01*
X116357927Y-82130145D01*
X116357928Y-82130146D01*
X116360701Y-82131855D01*
X116502262Y-82219115D01*
X116582005Y-82245564D01*
X116663611Y-82272632D01*
X116663613Y-82272632D01*
X116670139Y-82274797D01*
X116676975Y-82275497D01*
X116676978Y-82275498D01*
X116720031Y-82279909D01*
X116774600Y-82285500D01*
X117521129Y-82285500D01*
X117589250Y-82305502D01*
X117610224Y-82322405D01*
X118141224Y-82853405D01*
X118175250Y-82915717D01*
X118170185Y-82986532D01*
X118127638Y-83043368D01*
X118061118Y-83068179D01*
X118052129Y-83068500D01*
X116774600Y-83068500D01*
X116771354Y-83068837D01*
X116771350Y-83068837D01*
X116675692Y-83078762D01*
X116675688Y-83078763D01*
X116668834Y-83079474D01*
X116662298Y-83081655D01*
X116662296Y-83081655D01*
X116539987Y-83122461D01*
X116501054Y-83135450D01*
X116350652Y-83228522D01*
X116225695Y-83353697D01*
X116221855Y-83359927D01*
X116221854Y-83359928D01*
X116141009Y-83491083D01*
X116132885Y-83504262D01*
X116077203Y-83672139D01*
X116076503Y-83678975D01*
X116076502Y-83678978D01*
X116072793Y-83715180D01*
X116066500Y-83776600D01*
X116066500Y-84615827D01*
X116052716Y-84673129D01*
X116045731Y-84686808D01*
X116043991Y-84693920D01*
X116041892Y-84699563D01*
X116039977Y-84705321D01*
X116036878Y-84711950D01*
X116035388Y-84719112D01*
X116035388Y-84719113D01*
X116022014Y-84783412D01*
X116021044Y-84787696D01*
X116003692Y-84858610D01*
X116003000Y-84869764D01*
X116002964Y-84869762D01*
X116002725Y-84873755D01*
X116002351Y-84877947D01*
X116000860Y-84885115D01*
X116001058Y-84892432D01*
X116002954Y-84962521D01*
X116003000Y-84965928D01*
X116003000Y-87450348D01*
X115982998Y-87518469D01*
X115929342Y-87564962D01*
X115925279Y-87566471D01*
X115925289Y-87566494D01*
X115918012Y-87569643D01*
X115910399Y-87571855D01*
X115835831Y-87615955D01*
X115771694Y-87633500D01*
X113031879Y-87633500D01*
X112963758Y-87613498D01*
X112917265Y-87559842D01*
X112912356Y-87547377D01*
X112879870Y-87450007D01*
X112879869Y-87450005D01*
X112877550Y-87443054D01*
X112784478Y-87292652D01*
X112659303Y-87167695D01*
X112653072Y-87163854D01*
X112514968Y-87078725D01*
X112514966Y-87078724D01*
X112508738Y-87074885D01*
X112381674Y-87032740D01*
X112347389Y-87021368D01*
X112347387Y-87021368D01*
X112340861Y-87019203D01*
X112334025Y-87018503D01*
X112334022Y-87018502D01*
X112290969Y-87014091D01*
X112236400Y-87008500D01*
X111755371Y-87008500D01*
X111687250Y-86988498D01*
X111666276Y-86971595D01*
X109280405Y-84585724D01*
X109246379Y-84523412D01*
X109243500Y-84496629D01*
X109243500Y-84439052D01*
X109263502Y-84370931D01*
X109296332Y-84336473D01*
X109393039Y-84267493D01*
X109393042Y-84267491D01*
X109397243Y-84264494D01*
X109561303Y-84101005D01*
X109564319Y-84096808D01*
X109564326Y-84096800D01*
X109651960Y-83974844D01*
X109707954Y-83931196D01*
X109778658Y-83924750D01*
X109841622Y-83957553D01*
X109861715Y-83982536D01*
X109881800Y-84015313D01*
X109881806Y-84015321D01*
X109884501Y-84019719D01*
X110036147Y-84194784D01*
X110214349Y-84342730D01*
X110414322Y-84459584D01*
X110630694Y-84542209D01*
X110635760Y-84543240D01*
X110635761Y-84543240D01*
X110648693Y-84545871D01*
X110857656Y-84588385D01*
X110988324Y-84593176D01*
X111083949Y-84596683D01*
X111083953Y-84596683D01*
X111089113Y-84596872D01*
X111094233Y-84596216D01*
X111094235Y-84596216D01*
X111168166Y-84586745D01*
X111318847Y-84567442D01*
X111323795Y-84565957D01*
X111323802Y-84565956D01*
X111535747Y-84502369D01*
X111540690Y-84500886D01*
X111549380Y-84496629D01*
X111744049Y-84401262D01*
X111744052Y-84401260D01*
X111748684Y-84398991D01*
X111937243Y-84264494D01*
X112101303Y-84101005D01*
X112236458Y-83912917D01*
X112242197Y-83901306D01*
X112336784Y-83709922D01*
X112336785Y-83709920D01*
X112339078Y-83705280D01*
X112406408Y-83483671D01*
X112436640Y-83254041D01*
X112438327Y-83185000D01*
X112432032Y-83108434D01*
X112419773Y-82959318D01*
X112419772Y-82959312D01*
X112419349Y-82954167D01*
X112372718Y-82768521D01*
X112364184Y-82734544D01*
X112364183Y-82734540D01*
X112362925Y-82729533D01*
X112330027Y-82653872D01*
X112272630Y-82521868D01*
X112272628Y-82521865D01*
X112270570Y-82517131D01*
X112144764Y-82322665D01*
X111988887Y-82151358D01*
X111984836Y-82148159D01*
X111984832Y-82148155D01*
X111811177Y-82011011D01*
X111811172Y-82011008D01*
X111807123Y-82007810D01*
X111802607Y-82005317D01*
X111802604Y-82005315D01*
X111608879Y-81898373D01*
X111608875Y-81898371D01*
X111604355Y-81895876D01*
X111599486Y-81894152D01*
X111599482Y-81894150D01*
X111390903Y-81820288D01*
X111390899Y-81820287D01*
X111386028Y-81818562D01*
X111380935Y-81817655D01*
X111380932Y-81817654D01*
X111163095Y-81778851D01*
X111163089Y-81778850D01*
X111158006Y-81777945D01*
X111085096Y-81777054D01*
X110931581Y-81775179D01*
X110931579Y-81775179D01*
X110926411Y-81775116D01*
X110697464Y-81810150D01*
X110477314Y-81882106D01*
X110472726Y-81884494D01*
X110472722Y-81884496D01*
X110446065Y-81898373D01*
X110271872Y-81989052D01*
X110267739Y-81992155D01*
X110267736Y-81992157D01*
X110242625Y-82011011D01*
X110086655Y-82128117D01*
X110083083Y-82131855D01*
X109945815Y-82275498D01*
X109926639Y-82295564D01*
X109859306Y-82394271D01*
X109804397Y-82439271D01*
X109733872Y-82447442D01*
X109670125Y-82416188D01*
X109649428Y-82391705D01*
X109613478Y-82336134D01*
X109604764Y-82322665D01*
X109448887Y-82151358D01*
X109444836Y-82148159D01*
X109444832Y-82148155D01*
X109271177Y-82011011D01*
X109271172Y-82011008D01*
X109267123Y-82007810D01*
X109262607Y-82005317D01*
X109262604Y-82005315D01*
X109068879Y-81898373D01*
X109068875Y-81898371D01*
X109064355Y-81895876D01*
X109059486Y-81894152D01*
X109059482Y-81894150D01*
X108850903Y-81820288D01*
X108850899Y-81820287D01*
X108846028Y-81818562D01*
X108840935Y-81817655D01*
X108840932Y-81817654D01*
X108623095Y-81778851D01*
X108623089Y-81778850D01*
X108618006Y-81777945D01*
X108545096Y-81777054D01*
X108391581Y-81775179D01*
X108391579Y-81775179D01*
X108386411Y-81775116D01*
X108157464Y-81810150D01*
X107937314Y-81882106D01*
X107932726Y-81884494D01*
X107932722Y-81884496D01*
X107906065Y-81898373D01*
X107731872Y-81989052D01*
X107727739Y-81992155D01*
X107727736Y-81992157D01*
X107702625Y-82011011D01*
X107546655Y-82128117D01*
X107543083Y-82131855D01*
X107405815Y-82275498D01*
X107386639Y-82295564D01*
X107319306Y-82394271D01*
X107264397Y-82439271D01*
X107193872Y-82447442D01*
X107130125Y-82416188D01*
X107109428Y-82391705D01*
X107073478Y-82336134D01*
X107064764Y-82322665D01*
X106908887Y-82151358D01*
X106904836Y-82148159D01*
X106904832Y-82148155D01*
X106731177Y-82011011D01*
X106731172Y-82011008D01*
X106727123Y-82007810D01*
X106722607Y-82005317D01*
X106722604Y-82005315D01*
X106528879Y-81898373D01*
X106528875Y-81898371D01*
X106524355Y-81895876D01*
X106519486Y-81894152D01*
X106519482Y-81894150D01*
X106310903Y-81820288D01*
X106310899Y-81820287D01*
X106306028Y-81818562D01*
X106300935Y-81817655D01*
X106300932Y-81817654D01*
X106083095Y-81778851D01*
X106083089Y-81778850D01*
X106078006Y-81777945D01*
X106005096Y-81777054D01*
X105851581Y-81775179D01*
X105851579Y-81775179D01*
X105846411Y-81775116D01*
X105702515Y-81797135D01*
X105632152Y-81787667D01*
X105594361Y-81761680D01*
X105179259Y-81346578D01*
X105166873Y-81332166D01*
X105158340Y-81320571D01*
X105158335Y-81320566D01*
X105153997Y-81314671D01*
X105148419Y-81309932D01*
X105148416Y-81309929D01*
X105113721Y-81280454D01*
X105106205Y-81273524D01*
X105100510Y-81267829D01*
X105094369Y-81262971D01*
X105078238Y-81250208D01*
X105074834Y-81247417D01*
X105024786Y-81204898D01*
X105024784Y-81204897D01*
X105019204Y-81200156D01*
X105012688Y-81196828D01*
X105007639Y-81193461D01*
X105002510Y-81190294D01*
X104996773Y-81185755D01*
X104930614Y-81154834D01*
X104926714Y-81152928D01*
X104861681Y-81119720D01*
X104854573Y-81117981D01*
X104848930Y-81115882D01*
X104843167Y-81113965D01*
X104836539Y-81110867D01*
X104765072Y-81096002D01*
X104760788Y-81095032D01*
X104689879Y-81077681D01*
X104684277Y-81077333D01*
X104684274Y-81077333D01*
X104678725Y-81076989D01*
X104678727Y-81076953D01*
X104674734Y-81076714D01*
X104670542Y-81076340D01*
X104663374Y-81074849D01*
X104597164Y-81076640D01*
X104585968Y-81076943D01*
X104582561Y-81076989D01*
X98273726Y-81076989D01*
X98205605Y-81056987D01*
X98166584Y-81017295D01*
X98149478Y-80989652D01*
X98024303Y-80864695D01*
X98018072Y-80860854D01*
X97879968Y-80775725D01*
X97879966Y-80775724D01*
X97873738Y-80771885D01*
X97713254Y-80718655D01*
X97712389Y-80718368D01*
X97712387Y-80718368D01*
X97705861Y-80716203D01*
X97699025Y-80715503D01*
X97699022Y-80715502D01*
X97655969Y-80711091D01*
X97601400Y-80705500D01*
X96200600Y-80705500D01*
X96197354Y-80705837D01*
X96197350Y-80705837D01*
X96101692Y-80715762D01*
X96101688Y-80715763D01*
X96094834Y-80716474D01*
X96088298Y-80718655D01*
X96088296Y-80718655D01*
X95956194Y-80762728D01*
X95927054Y-80772450D01*
X95776652Y-80865522D01*
X95651695Y-80990697D01*
X95647855Y-80996927D01*
X95647854Y-80996928D01*
X95570112Y-81123049D01*
X95558885Y-81141262D01*
X95541371Y-81194066D01*
X95523204Y-81248839D01*
X95503203Y-81309139D01*
X95502503Y-81315975D01*
X95502502Y-81315978D01*
X95500058Y-81339834D01*
X95492500Y-81413600D01*
X95492500Y-82339400D01*
X95503474Y-82445166D01*
X95559450Y-82612946D01*
X95652522Y-82763348D01*
X95777697Y-82888305D01*
X95783927Y-82892145D01*
X95783928Y-82892146D01*
X95921090Y-82976694D01*
X95928262Y-82981115D01*
X95944594Y-82986532D01*
X96089611Y-83034632D01*
X96089613Y-83034632D01*
X96096139Y-83036797D01*
X96102975Y-83037497D01*
X96102978Y-83037498D01*
X96146031Y-83041909D01*
X96200600Y-83047500D01*
X97601400Y-83047500D01*
X97604646Y-83047163D01*
X97604650Y-83047163D01*
X97700308Y-83037238D01*
X97700312Y-83037237D01*
X97707166Y-83036526D01*
X97713702Y-83034345D01*
X97713704Y-83034345D01*
X97857016Y-82986532D01*
X97874946Y-82980550D01*
X98025348Y-82887478D01*
X98150305Y-82762303D01*
X98217143Y-82653872D01*
X98269916Y-82606379D01*
X98324403Y-82593989D01*
X99330500Y-82593989D01*
X99398621Y-82613991D01*
X99445114Y-82667647D01*
X99456500Y-82719989D01*
X99456500Y-84133134D01*
X99463255Y-84195316D01*
X99514385Y-84331705D01*
X99601739Y-84448261D01*
X99718295Y-84535615D01*
X99738635Y-84543240D01*
X99821647Y-84574360D01*
X99878411Y-84617002D01*
X99903111Y-84683563D01*
X99887904Y-84752912D01*
X99846503Y-84797713D01*
X99800016Y-84828191D01*
X99796327Y-84830518D01*
X99786719Y-84836349D01*
X99738693Y-84865491D01*
X99738688Y-84865495D01*
X99733892Y-84868405D01*
X99729685Y-84872121D01*
X99729682Y-84872123D01*
X99726622Y-84874826D01*
X99725516Y-84875803D01*
X99725493Y-84875777D01*
X99722503Y-84878426D01*
X99719264Y-84881134D01*
X99713148Y-84885144D01*
X99708121Y-84890451D01*
X99708117Y-84890454D01*
X99659872Y-84941383D01*
X99657494Y-84943825D01*
X98566795Y-86034524D01*
X98543065Y-86053148D01*
X98497211Y-86080973D01*
X98497207Y-86080976D01*
X98492413Y-86083885D01*
X98488214Y-86087594D01*
X98488209Y-86087597D01*
X98484036Y-86091283D01*
X98484012Y-86091256D01*
X98481020Y-86093909D01*
X98477787Y-86096612D01*
X98471668Y-86100624D01*
X98459173Y-86113814D01*
X98418392Y-86156863D01*
X98416014Y-86159305D01*
X97984724Y-86590595D01*
X97922412Y-86624621D01*
X97895629Y-86627500D01*
X97186600Y-86627500D01*
X97183354Y-86627837D01*
X97183350Y-86627837D01*
X97087692Y-86637762D01*
X97087688Y-86637763D01*
X97080834Y-86638474D01*
X97074298Y-86640655D01*
X97074296Y-86640655D01*
X96971844Y-86674836D01*
X96913054Y-86694450D01*
X96762652Y-86787522D01*
X96637695Y-86912697D01*
X96633855Y-86918927D01*
X96633854Y-86918928D01*
X96566339Y-87028458D01*
X96544885Y-87063262D01*
X96529795Y-87108757D01*
X96493859Y-87217103D01*
X96489203Y-87231139D01*
X96488503Y-87237975D01*
X96488502Y-87237978D01*
X96484091Y-87281031D01*
X96478500Y-87335600D01*
X96478500Y-88686400D01*
X96478837Y-88689646D01*
X96478837Y-88689650D01*
X96484539Y-88744601D01*
X96489474Y-88792166D01*
X96545450Y-88959946D01*
X96638522Y-89110348D01*
X96763697Y-89235305D01*
X96769927Y-89239145D01*
X96769928Y-89239146D01*
X96907090Y-89323694D01*
X96914262Y-89328115D01*
X96990929Y-89353544D01*
X97075611Y-89381632D01*
X97075613Y-89381632D01*
X97082139Y-89383797D01*
X97088975Y-89384497D01*
X97088978Y-89384498D01*
X97132031Y-89388909D01*
X97186600Y-89394500D01*
X98087400Y-89394500D01*
X98090646Y-89394163D01*
X98090650Y-89394163D01*
X98186308Y-89384238D01*
X98186312Y-89384237D01*
X98193166Y-89383526D01*
X98199702Y-89381345D01*
X98199704Y-89381345D01*
X98345240Y-89332790D01*
X98360946Y-89327550D01*
X98511348Y-89234478D01*
X98636305Y-89109303D01*
X98660163Y-89070598D01*
X98725275Y-88964968D01*
X98725276Y-88964966D01*
X98729115Y-88958738D01*
X98784797Y-88790861D01*
X98795500Y-88686400D01*
X98795500Y-87977371D01*
X98815502Y-87909250D01*
X98832405Y-87888276D01*
X99363405Y-87357276D01*
X99425717Y-87323250D01*
X99496532Y-87328315D01*
X99553368Y-87370862D01*
X99578179Y-87437382D01*
X99578500Y-87446371D01*
X99578500Y-88686400D01*
X99578837Y-88689646D01*
X99578837Y-88689650D01*
X99584539Y-88744601D01*
X99589474Y-88792166D01*
X99645450Y-88959946D01*
X99738522Y-89110348D01*
X99863697Y-89235305D01*
X99869927Y-89239145D01*
X99869928Y-89239146D01*
X100007090Y-89323694D01*
X100014262Y-89328115D01*
X100090929Y-89353544D01*
X100175611Y-89381632D01*
X100175613Y-89381632D01*
X100182139Y-89383797D01*
X100188975Y-89384497D01*
X100188978Y-89384498D01*
X100232031Y-89388909D01*
X100286600Y-89394500D01*
X100997494Y-89394500D01*
X101065615Y-89414502D01*
X101075671Y-89421686D01*
X101094752Y-89436782D01*
X101098155Y-89439572D01*
X101148203Y-89482091D01*
X101153785Y-89486833D01*
X101160301Y-89490161D01*
X101165338Y-89493520D01*
X101170477Y-89496694D01*
X101176216Y-89501234D01*
X101182849Y-89504334D01*
X101242337Y-89532136D01*
X101246291Y-89534069D01*
X101311308Y-89567269D01*
X101318424Y-89569010D01*
X101324054Y-89571104D01*
X101329821Y-89573023D01*
X101336450Y-89576121D01*
X101343610Y-89577610D01*
X101343612Y-89577611D01*
X101407896Y-89590982D01*
X101412180Y-89591952D01*
X101483110Y-89609308D01*
X101488712Y-89609656D01*
X101488715Y-89609656D01*
X101494264Y-89610000D01*
X101494262Y-89610036D01*
X101498252Y-89610275D01*
X101502450Y-89610650D01*
X101509615Y-89612140D01*
X101587004Y-89610046D01*
X101590412Y-89610000D01*
X102747911Y-89610000D01*
X102816032Y-89630002D01*
X102862525Y-89683658D01*
X102872629Y-89753932D01*
X102856365Y-89800136D01*
X102811855Y-89875399D01*
X102809644Y-89883010D01*
X102809643Y-89883012D01*
X102794472Y-89935231D01*
X102765438Y-90035169D01*
X102764934Y-90041574D01*
X102764933Y-90041579D01*
X102763037Y-90065674D01*
X102762500Y-90072498D01*
X102762500Y-91380502D01*
X102762693Y-91382950D01*
X102762693Y-91382958D01*
X102763879Y-91398020D01*
X102765438Y-91417831D01*
X102767232Y-91424006D01*
X102768390Y-91430345D01*
X102766549Y-91430681D01*
X102766374Y-91492736D01*
X102727822Y-91552353D01*
X102663158Y-91581665D01*
X102592913Y-91571363D01*
X102585650Y-91567733D01*
X102506124Y-91524734D01*
X102506122Y-91524733D01*
X102500701Y-91521802D01*
X102311768Y-91463318D01*
X102305643Y-91462674D01*
X102305642Y-91462674D01*
X102121204Y-91443289D01*
X102121202Y-91443289D01*
X102115075Y-91442645D01*
X102032576Y-91450153D01*
X101924251Y-91460011D01*
X101924248Y-91460012D01*
X101918112Y-91460570D01*
X101912206Y-91462308D01*
X101912202Y-91462309D01*
X101808820Y-91492736D01*
X101728381Y-91516410D01*
X101722923Y-91519263D01*
X101722919Y-91519265D01*
X101707028Y-91527573D01*
X101553110Y-91608040D01*
X101426701Y-91709676D01*
X101361079Y-91736773D01*
X101291224Y-91724090D01*
X101239316Y-91675654D01*
X101226752Y-91646633D01*
X101196357Y-91542012D01*
X101196356Y-91542010D01*
X101194145Y-91534399D01*
X101150152Y-91460011D01*
X101113491Y-91398020D01*
X101113489Y-91398017D01*
X101109453Y-91391193D01*
X100991807Y-91273547D01*
X100984983Y-91269511D01*
X100984980Y-91269509D01*
X100855427Y-91192892D01*
X100855428Y-91192892D01*
X100848601Y-91188855D01*
X100840990Y-91186644D01*
X100840988Y-91186643D01*
X100788769Y-91171472D01*
X100688831Y-91142438D01*
X100682426Y-91141934D01*
X100682421Y-91141933D01*
X100653958Y-91139693D01*
X100653950Y-91139693D01*
X100651502Y-91139500D01*
X99494500Y-91139500D01*
X99426379Y-91119498D01*
X99379886Y-91065842D01*
X99368500Y-91013500D01*
X99368500Y-90781498D01*
X99366925Y-90761482D01*
X99366067Y-90750579D01*
X99366066Y-90750574D01*
X99365562Y-90744169D01*
X99329689Y-90620693D01*
X99321357Y-90592012D01*
X99321356Y-90592010D01*
X99319145Y-90584399D01*
X99263914Y-90491008D01*
X99238491Y-90448020D01*
X99238489Y-90448017D01*
X99234453Y-90441193D01*
X99116807Y-90323547D01*
X99109983Y-90319511D01*
X99109980Y-90319509D01*
X98980427Y-90242892D01*
X98980428Y-90242892D01*
X98973601Y-90238855D01*
X98965990Y-90236644D01*
X98965988Y-90236643D01*
X98901665Y-90217956D01*
X98813831Y-90192438D01*
X98807426Y-90191934D01*
X98807421Y-90191933D01*
X98778958Y-90189693D01*
X98778950Y-90189693D01*
X98776502Y-90189500D01*
X97468498Y-90189500D01*
X97466050Y-90189693D01*
X97466042Y-90189693D01*
X97437579Y-90191933D01*
X97437574Y-90191934D01*
X97431169Y-90192438D01*
X97424993Y-90194232D01*
X97424989Y-90194233D01*
X97286398Y-90234497D01*
X97251246Y-90239500D01*
X96773707Y-90239500D01*
X96705754Y-90218723D01*
X96705675Y-90218870D01*
X96704947Y-90218476D01*
X96704945Y-90218476D01*
X96531701Y-90124802D01*
X96342768Y-90066318D01*
X96336643Y-90065674D01*
X96336642Y-90065674D01*
X96152204Y-90046289D01*
X96152202Y-90046289D01*
X96146075Y-90045645D01*
X96063576Y-90053153D01*
X95955251Y-90063011D01*
X95955248Y-90063012D01*
X95949112Y-90063570D01*
X95943206Y-90065308D01*
X95943202Y-90065309D01*
X95862710Y-90088999D01*
X95759381Y-90119410D01*
X95753923Y-90122263D01*
X95753919Y-90122265D01*
X95663147Y-90169720D01*
X95584110Y-90211040D01*
X95429975Y-90334968D01*
X95302846Y-90486474D01*
X95299879Y-90491872D01*
X95299875Y-90491877D01*
X95239951Y-90600880D01*
X95207567Y-90659787D01*
X95205706Y-90665654D01*
X95205705Y-90665656D01*
X95177158Y-90755648D01*
X95147765Y-90848306D01*
X95125719Y-91044851D01*
X95142268Y-91241934D01*
X95143967Y-91247858D01*
X95192706Y-91417831D01*
X95196783Y-91432050D01*
X95199602Y-91437535D01*
X95282395Y-91598631D01*
X95287187Y-91607956D01*
X95410035Y-91762953D01*
X95414728Y-91766947D01*
X95414729Y-91766948D01*
X95538081Y-91871928D01*
X95560650Y-91891136D01*
X95733294Y-91987624D01*
X95921392Y-92048740D01*
X96117777Y-92072158D01*
X96123912Y-92071686D01*
X96123914Y-92071686D01*
X96308830Y-92057457D01*
X96308834Y-92057456D01*
X96314972Y-92056984D01*
X96505463Y-92003798D01*
X96510967Y-92001018D01*
X96510969Y-92001017D01*
X96676495Y-91917404D01*
X96676497Y-91917403D01*
X96681996Y-91914625D01*
X96837847Y-91792861D01*
X96839693Y-91790722D01*
X96901790Y-91758761D01*
X96925554Y-91756500D01*
X97251246Y-91756500D01*
X97286398Y-91761503D01*
X97424989Y-91801767D01*
X97424993Y-91801768D01*
X97431169Y-91803562D01*
X97437574Y-91804066D01*
X97437579Y-91804067D01*
X97466042Y-91806307D01*
X97466050Y-91806307D01*
X97468498Y-91806500D01*
X98625500Y-91806500D01*
X98693621Y-91826502D01*
X98740114Y-91880158D01*
X98751500Y-91932500D01*
X98751500Y-91963500D01*
X98731498Y-92031621D01*
X98677842Y-92078114D01*
X98625500Y-92089500D01*
X97468498Y-92089500D01*
X97466050Y-92089693D01*
X97466042Y-92089693D01*
X97437579Y-92091933D01*
X97437574Y-92091934D01*
X97431169Y-92092438D01*
X97331231Y-92121472D01*
X97279012Y-92136643D01*
X97279010Y-92136644D01*
X97271399Y-92138855D01*
X97264572Y-92142892D01*
X97264573Y-92142892D01*
X97135020Y-92219509D01*
X97135017Y-92219511D01*
X97128193Y-92223547D01*
X97035694Y-92316046D01*
X96979221Y-92347543D01*
X96979320Y-92347817D01*
X96977629Y-92348431D01*
X96977627Y-92348432D01*
X96972440Y-92350315D01*
X96972436Y-92350316D01*
X96910702Y-92372725D01*
X96906598Y-92374135D01*
X96837101Y-92396648D01*
X96830846Y-92400444D01*
X96825387Y-92402943D01*
X96819939Y-92405671D01*
X96813063Y-92408167D01*
X96752010Y-92448195D01*
X96748327Y-92450519D01*
X96690686Y-92485496D01*
X96690682Y-92485499D01*
X96685893Y-92488405D01*
X96681694Y-92492114D01*
X96681689Y-92492117D01*
X96677516Y-92495803D01*
X96677492Y-92495776D01*
X96674500Y-92498429D01*
X96671267Y-92501132D01*
X96665148Y-92505144D01*
X96633881Y-92538150D01*
X96611872Y-92561383D01*
X96609494Y-92563825D01*
X95497089Y-93676230D01*
X95482677Y-93688616D01*
X95471082Y-93697149D01*
X95471077Y-93697154D01*
X95465182Y-93701492D01*
X95460443Y-93707070D01*
X95460440Y-93707073D01*
X95430965Y-93741768D01*
X95424035Y-93749284D01*
X95418340Y-93754979D01*
X95416060Y-93757861D01*
X95400719Y-93777251D01*
X95397928Y-93780655D01*
X95355409Y-93830703D01*
X95350667Y-93836285D01*
X95347339Y-93842801D01*
X95343972Y-93847850D01*
X95340805Y-93852979D01*
X95336266Y-93858716D01*
X95305345Y-93924875D01*
X95303442Y-93928769D01*
X95270231Y-93993808D01*
X95268492Y-94000916D01*
X95266393Y-94006559D01*
X95264476Y-94012322D01*
X95261378Y-94018950D01*
X95246689Y-94089573D01*
X95246514Y-94090412D01*
X95245544Y-94094696D01*
X95228192Y-94165610D01*
X95227500Y-94176764D01*
X95227464Y-94176762D01*
X95227225Y-94180755D01*
X95226851Y-94184947D01*
X95225360Y-94192115D01*
X95225558Y-94199432D01*
X95227454Y-94269521D01*
X95227500Y-94272928D01*
X95227500Y-94646631D01*
X95207498Y-94714752D01*
X95167807Y-94753772D01*
X95111652Y-94788522D01*
X94986695Y-94913697D01*
X94982855Y-94919927D01*
X94982854Y-94919928D01*
X94904881Y-95046424D01*
X94893885Y-95064262D01*
X94865907Y-95148615D01*
X94859753Y-95167167D01*
X94819322Y-95225527D01*
X94753758Y-95252764D01*
X94740160Y-95253500D01*
X93888219Y-95253500D01*
X93820098Y-95233498D01*
X93773605Y-95179842D01*
X93768697Y-95167382D01*
X93725550Y-95038054D01*
X93632478Y-94887652D01*
X93507303Y-94762695D01*
X93469119Y-94739158D01*
X93362968Y-94673725D01*
X93362966Y-94673724D01*
X93356738Y-94669885D01*
X93257731Y-94637046D01*
X93195389Y-94616368D01*
X93195387Y-94616368D01*
X93188861Y-94614203D01*
X93182025Y-94613503D01*
X93182022Y-94613502D01*
X93138969Y-94609091D01*
X93084400Y-94603500D01*
X92158600Y-94603500D01*
X92155354Y-94603837D01*
X92155350Y-94603837D01*
X92059692Y-94613762D01*
X92059688Y-94613763D01*
X92052834Y-94614474D01*
X92046298Y-94616655D01*
X92046296Y-94616655D01*
X91983763Y-94637518D01*
X91885054Y-94670450D01*
X91734652Y-94763522D01*
X91609695Y-94888697D01*
X91605855Y-94894927D01*
X91605854Y-94894928D01*
X91598118Y-94907479D01*
X91516885Y-95039262D01*
X91475622Y-95163667D01*
X91435192Y-95222027D01*
X91369627Y-95249264D01*
X91356029Y-95250000D01*
X90761524Y-95250000D01*
X90693403Y-95229998D01*
X90646910Y-95176342D01*
X90642000Y-95163876D01*
X90602412Y-95045216D01*
X90596239Y-95032038D01*
X90510937Y-94894193D01*
X90501901Y-94882792D01*
X90387171Y-94768261D01*
X90375760Y-94759249D01*
X90237757Y-94674184D01*
X90224576Y-94668037D01*
X90070290Y-94616862D01*
X90056914Y-94613995D01*
X89962562Y-94604328D01*
X89956145Y-94604000D01*
X89768615Y-94604000D01*
X89753376Y-94608475D01*
X89752171Y-94609865D01*
X89750500Y-94617548D01*
X89750500Y-97401884D01*
X89754975Y-97417123D01*
X89756365Y-97418328D01*
X89764048Y-97419999D01*
X89956095Y-97419999D01*
X89962614Y-97419662D01*
X90058206Y-97409743D01*
X90071600Y-97406851D01*
X90225784Y-97355412D01*
X90238962Y-97349239D01*
X90376807Y-97263937D01*
X90388208Y-97254901D01*
X90502739Y-97140171D01*
X90511751Y-97128760D01*
X90536947Y-97087884D01*
X90589719Y-97040391D01*
X90644207Y-97028000D01*
X91473272Y-97028000D01*
X91541393Y-97048002D01*
X91580414Y-97087694D01*
X91610522Y-97136348D01*
X91735697Y-97261305D01*
X91741927Y-97265145D01*
X91741928Y-97265146D01*
X91803116Y-97302863D01*
X91850610Y-97355636D01*
X91863000Y-97410123D01*
X91863000Y-98142129D01*
X91842998Y-98210250D01*
X91826095Y-98231224D01*
X90389340Y-99667979D01*
X90327028Y-99702005D01*
X90270830Y-99701402D01*
X90165379Y-99676085D01*
X90165371Y-99676084D01*
X90160557Y-99674928D01*
X89916000Y-99655681D01*
X89671443Y-99674928D01*
X89666636Y-99676082D01*
X89666630Y-99676083D01*
X89515563Y-99712351D01*
X89432908Y-99732195D01*
X89428337Y-99734088D01*
X89428335Y-99734089D01*
X89350967Y-99766136D01*
X89206268Y-99826073D01*
X89070515Y-99909262D01*
X89001330Y-99951658D01*
X89001327Y-99951660D01*
X88997104Y-99954248D01*
X88993340Y-99957463D01*
X88993337Y-99957465D01*
X88849312Y-100080475D01*
X88810567Y-100113567D01*
X88651248Y-100300104D01*
X88591209Y-100398080D01*
X88572873Y-100421337D01*
X87788022Y-101206188D01*
X87780408Y-101220132D01*
X87050356Y-101220132D01*
X87051592Y-101217868D01*
X87051461Y-101216035D01*
X87047210Y-101209420D01*
X86159350Y-100321560D01*
X86146970Y-100314800D01*
X86139320Y-100320527D01*
X86026107Y-100505272D01*
X86021625Y-100514067D01*
X85931566Y-100731490D01*
X85928517Y-100740875D01*
X85873578Y-100969708D01*
X85872035Y-100979455D01*
X85853570Y-101214070D01*
X85853570Y-101223930D01*
X79984572Y-101223930D01*
X79935551Y-100966954D01*
X79839172Y-100670333D01*
X79837993Y-100666703D01*
X79837993Y-100666702D01*
X79836767Y-100662930D01*
X79835078Y-100659340D01*
X79702347Y-100377271D01*
X79702343Y-100377264D01*
X79700659Y-100373685D01*
X79696710Y-100367463D01*
X79531498Y-100107130D01*
X79531495Y-100107126D01*
X79529371Y-100103779D01*
X79427488Y-99980624D01*
X79402592Y-99950530D01*
X86511733Y-99950530D01*
X86515516Y-99959306D01*
X87403188Y-100846978D01*
X87417132Y-100854592D01*
X87418965Y-100854461D01*
X87425580Y-100850210D01*
X88313440Y-99962350D01*
X88320200Y-99949970D01*
X88314473Y-99942320D01*
X88129728Y-99829107D01*
X88120933Y-99824625D01*
X87903510Y-99734566D01*
X87894125Y-99731517D01*
X87665292Y-99676578D01*
X87655545Y-99675035D01*
X87420930Y-99656570D01*
X87411070Y-99656570D01*
X87176455Y-99675035D01*
X87166708Y-99676578D01*
X86937875Y-99731517D01*
X86928490Y-99734566D01*
X86711067Y-99824625D01*
X86702272Y-99829107D01*
X86521195Y-99940072D01*
X86511733Y-99950530D01*
X79402592Y-99950530D01*
X79328131Y-99860522D01*
X79328130Y-99860521D01*
X79325606Y-99857470D01*
X79092577Y-99638641D01*
X78833959Y-99450744D01*
X78553831Y-99296742D01*
X78377119Y-99226777D01*
X78260293Y-99180522D01*
X78260290Y-99180521D01*
X78256610Y-99179064D01*
X78252776Y-99178080D01*
X78252768Y-99178077D01*
X78060847Y-99128800D01*
X77946983Y-99099565D01*
X77943055Y-99099069D01*
X77943051Y-99099068D01*
X77782753Y-99078818D01*
X77629835Y-99059500D01*
X77310165Y-99059500D01*
X77157247Y-99078818D01*
X76996949Y-99099068D01*
X76996945Y-99099069D01*
X76993017Y-99099565D01*
X76879153Y-99128800D01*
X76687232Y-99178077D01*
X76687224Y-99178080D01*
X76683390Y-99179064D01*
X76679710Y-99180521D01*
X76679707Y-99180522D01*
X76562881Y-99226777D01*
X76386169Y-99296742D01*
X76106041Y-99450744D01*
X75847423Y-99638641D01*
X75614394Y-99857470D01*
X75611870Y-99860521D01*
X75611869Y-99860522D01*
X75512512Y-99980624D01*
X75410629Y-100103779D01*
X75408505Y-100107126D01*
X75408502Y-100107130D01*
X75243290Y-100367463D01*
X75239341Y-100373685D01*
X75237657Y-100377264D01*
X75237653Y-100377271D01*
X75104922Y-100659340D01*
X75103233Y-100662930D01*
X75102007Y-100666702D01*
X75102007Y-100666703D01*
X75100828Y-100670333D01*
X75004449Y-100966954D01*
X74944549Y-101280961D01*
X74924477Y-101600000D01*
X71247500Y-101600000D01*
X71247500Y-96709095D01*
X88326001Y-96709095D01*
X88326338Y-96715614D01*
X88336257Y-96811206D01*
X88339149Y-96824600D01*
X88390588Y-96978784D01*
X88396761Y-96991962D01*
X88482063Y-97129807D01*
X88491099Y-97141208D01*
X88605829Y-97255739D01*
X88617240Y-97264751D01*
X88755243Y-97349816D01*
X88768424Y-97355963D01*
X88922710Y-97407138D01*
X88936086Y-97410005D01*
X89030438Y-97419672D01*
X89036854Y-97420000D01*
X89224385Y-97420000D01*
X89239624Y-97415525D01*
X89240829Y-97414135D01*
X89242500Y-97406452D01*
X89242500Y-96284115D01*
X89238025Y-96268876D01*
X89236635Y-96267671D01*
X89228952Y-96266000D01*
X88344116Y-96266000D01*
X88328877Y-96270475D01*
X88327672Y-96271865D01*
X88326001Y-96279548D01*
X88326001Y-96709095D01*
X71247500Y-96709095D01*
X71247500Y-95739885D01*
X88326000Y-95739885D01*
X88330475Y-95755124D01*
X88331865Y-95756329D01*
X88339548Y-95758000D01*
X89224385Y-95758000D01*
X89239624Y-95753525D01*
X89240829Y-95752135D01*
X89242500Y-95744452D01*
X89242500Y-94622116D01*
X89238025Y-94606877D01*
X89236635Y-94605672D01*
X89228952Y-94604001D01*
X89036905Y-94604001D01*
X89030386Y-94604338D01*
X88934794Y-94614257D01*
X88921400Y-94617149D01*
X88767216Y-94668588D01*
X88754038Y-94674761D01*
X88616193Y-94760063D01*
X88604792Y-94769099D01*
X88490261Y-94883829D01*
X88481249Y-94895240D01*
X88396184Y-95033243D01*
X88390037Y-95046424D01*
X88338862Y-95200710D01*
X88335995Y-95214086D01*
X88326328Y-95308438D01*
X88326000Y-95314855D01*
X88326000Y-95739885D01*
X71247500Y-95739885D01*
X71247500Y-93156134D01*
X89138500Y-93156134D01*
X89145255Y-93218316D01*
X89196385Y-93354705D01*
X89283739Y-93471261D01*
X89400295Y-93558615D01*
X89536684Y-93609745D01*
X89598866Y-93616500D01*
X92495134Y-93616500D01*
X92557316Y-93609745D01*
X92693705Y-93558615D01*
X92810261Y-93471261D01*
X92897615Y-93354705D01*
X92948745Y-93218316D01*
X92955500Y-93156134D01*
X92955500Y-90259866D01*
X92948745Y-90197684D01*
X92897615Y-90061295D01*
X92810261Y-89944739D01*
X92693705Y-89857385D01*
X92557316Y-89806255D01*
X92495134Y-89799500D01*
X89598866Y-89799500D01*
X89536684Y-89806255D01*
X89400295Y-89857385D01*
X89283739Y-89944739D01*
X89196385Y-90061295D01*
X89145255Y-90197684D01*
X89138500Y-90259866D01*
X89138500Y-93156134D01*
X71247500Y-93156134D01*
X71247500Y-89056134D01*
X84688500Y-89056134D01*
X84695255Y-89118316D01*
X84746385Y-89254705D01*
X84833739Y-89371261D01*
X84950295Y-89458615D01*
X85086684Y-89509745D01*
X85148866Y-89516500D01*
X87593946Y-89516500D01*
X87623894Y-89520111D01*
X87667610Y-89530808D01*
X87673212Y-89531156D01*
X87673215Y-89531156D01*
X87678764Y-89531500D01*
X87678762Y-89531535D01*
X87682734Y-89531775D01*
X87686955Y-89532152D01*
X87694115Y-89533641D01*
X87771542Y-89531546D01*
X87774950Y-89531500D01*
X93062430Y-89531500D01*
X93081380Y-89532933D01*
X93095615Y-89535099D01*
X93095619Y-89535099D01*
X93102849Y-89536199D01*
X93110141Y-89535606D01*
X93110144Y-89535606D01*
X93155518Y-89531915D01*
X93165733Y-89531500D01*
X93173793Y-89531500D01*
X93191180Y-89529473D01*
X93202007Y-89528211D01*
X93206382Y-89527778D01*
X93271839Y-89522454D01*
X93271842Y-89522453D01*
X93279137Y-89521860D01*
X93286101Y-89519604D01*
X93292060Y-89518413D01*
X93297915Y-89517029D01*
X93305181Y-89516182D01*
X93373827Y-89491265D01*
X93377955Y-89489848D01*
X93440436Y-89469607D01*
X93440438Y-89469606D01*
X93447399Y-89467351D01*
X93453654Y-89463555D01*
X93459128Y-89461049D01*
X93464558Y-89458330D01*
X93471437Y-89455833D01*
X93498408Y-89438150D01*
X93532476Y-89415814D01*
X93536180Y-89413477D01*
X93598607Y-89375595D01*
X93606984Y-89368197D01*
X93607008Y-89368224D01*
X93610000Y-89365571D01*
X93613233Y-89362868D01*
X93619352Y-89358856D01*
X93672628Y-89302617D01*
X93675006Y-89300175D01*
X96765776Y-86209405D01*
X96828088Y-86175379D01*
X96854871Y-86172500D01*
X97601400Y-86172500D01*
X97604646Y-86172163D01*
X97604650Y-86172163D01*
X97700308Y-86162238D01*
X97700312Y-86162237D01*
X97707166Y-86161526D01*
X97713702Y-86159345D01*
X97713704Y-86159345D01*
X97867998Y-86107868D01*
X97874946Y-86105550D01*
X98025348Y-86012478D01*
X98150305Y-85887303D01*
X98202796Y-85802148D01*
X98239275Y-85742968D01*
X98239276Y-85742966D01*
X98243115Y-85736738D01*
X98291274Y-85591542D01*
X98296632Y-85575389D01*
X98296632Y-85575387D01*
X98298797Y-85568861D01*
X98309500Y-85464400D01*
X98309500Y-84538600D01*
X98309163Y-84535350D01*
X98299238Y-84439692D01*
X98299237Y-84439688D01*
X98298526Y-84432834D01*
X98286428Y-84396570D01*
X98244868Y-84272002D01*
X98242550Y-84265054D01*
X98149478Y-84114652D01*
X98024303Y-83989695D01*
X98012689Y-83982536D01*
X97879968Y-83900725D01*
X97879966Y-83900724D01*
X97873738Y-83896885D01*
X97788343Y-83868561D01*
X97712389Y-83843368D01*
X97712387Y-83843368D01*
X97705861Y-83841203D01*
X97699025Y-83840503D01*
X97699022Y-83840502D01*
X97655969Y-83836091D01*
X97601400Y-83830500D01*
X96200600Y-83830500D01*
X96197354Y-83830837D01*
X96197350Y-83830837D01*
X96101692Y-83840762D01*
X96101688Y-83840763D01*
X96094834Y-83841474D01*
X96088298Y-83843655D01*
X96088296Y-83843655D01*
X95956194Y-83887728D01*
X95927054Y-83897450D01*
X95776652Y-83990522D01*
X95651695Y-84115697D01*
X95647855Y-84121927D01*
X95647854Y-84121928D01*
X95634701Y-84143267D01*
X95558885Y-84266262D01*
X95503203Y-84434139D01*
X95502503Y-84440975D01*
X95502502Y-84440978D01*
X95500863Y-84456977D01*
X95492500Y-84538600D01*
X95492500Y-85285129D01*
X95472498Y-85353250D01*
X95455595Y-85374224D01*
X92852224Y-87977595D01*
X92789912Y-88011621D01*
X92763129Y-88014500D01*
X88631500Y-88014500D01*
X88563379Y-87994498D01*
X88516886Y-87940842D01*
X88505500Y-87888500D01*
X88505500Y-86243774D01*
X88935102Y-86243774D01*
X88935302Y-86249103D01*
X88935302Y-86249105D01*
X88939427Y-86358966D01*
X88943751Y-86474158D01*
X88991093Y-86699791D01*
X88993051Y-86704750D01*
X88993052Y-86704752D01*
X89072719Y-86906479D01*
X89075776Y-86914221D01*
X89078543Y-86918780D01*
X89078544Y-86918783D01*
X89140969Y-87021655D01*
X89195377Y-87111317D01*
X89198874Y-87115347D01*
X89335102Y-87272336D01*
X89346477Y-87285445D01*
X89350608Y-87288832D01*
X89520627Y-87428240D01*
X89520633Y-87428244D01*
X89524755Y-87431624D01*
X89529391Y-87434263D01*
X89529394Y-87434265D01*
X89573283Y-87459248D01*
X89725114Y-87545675D01*
X89941825Y-87624337D01*
X89947074Y-87625286D01*
X89947077Y-87625287D01*
X90164608Y-87664623D01*
X90164615Y-87664624D01*
X90168692Y-87665361D01*
X90186414Y-87666197D01*
X90191356Y-87666430D01*
X90191363Y-87666430D01*
X90192844Y-87666500D01*
X90354890Y-87666500D01*
X90421809Y-87660822D01*
X90521409Y-87652371D01*
X90521413Y-87652370D01*
X90526720Y-87651920D01*
X90531875Y-87650582D01*
X90531881Y-87650581D01*
X90744703Y-87595343D01*
X90744707Y-87595342D01*
X90749872Y-87594001D01*
X90754738Y-87591809D01*
X90754741Y-87591808D01*
X90955202Y-87501507D01*
X90960075Y-87499312D01*
X91151319Y-87370559D01*
X91187966Y-87335600D01*
X91298836Y-87229834D01*
X91318135Y-87211424D01*
X91455754Y-87026458D01*
X91464885Y-87008500D01*
X91535222Y-86870155D01*
X91560240Y-86820949D01*
X91569011Y-86792704D01*
X91627024Y-86605871D01*
X91628607Y-86600773D01*
X91644141Y-86483568D01*
X91658198Y-86377511D01*
X91658198Y-86377506D01*
X91658898Y-86372226D01*
X91650249Y-86141842D01*
X91602907Y-85916209D01*
X91593537Y-85892483D01*
X91520185Y-85706744D01*
X91520184Y-85706742D01*
X91518224Y-85701779D01*
X91511146Y-85690114D01*
X91401390Y-85509243D01*
X91398623Y-85504683D01*
X91367120Y-85468379D01*
X91251023Y-85334588D01*
X91251021Y-85334586D01*
X91247523Y-85330555D01*
X91173299Y-85269695D01*
X91073373Y-85187760D01*
X91073367Y-85187756D01*
X91069245Y-85184376D01*
X91064609Y-85181737D01*
X91064606Y-85181735D01*
X90873529Y-85072968D01*
X90868886Y-85070325D01*
X90652175Y-84991663D01*
X90646926Y-84990714D01*
X90646923Y-84990713D01*
X90429392Y-84951377D01*
X90429385Y-84951376D01*
X90425308Y-84950639D01*
X90407586Y-84949803D01*
X90402644Y-84949570D01*
X90402637Y-84949570D01*
X90401156Y-84949500D01*
X90239110Y-84949500D01*
X90172191Y-84955178D01*
X90072591Y-84963629D01*
X90072587Y-84963630D01*
X90067280Y-84964080D01*
X90062125Y-84965418D01*
X90062119Y-84965419D01*
X89849297Y-85020657D01*
X89849293Y-85020658D01*
X89844128Y-85021999D01*
X89839262Y-85024191D01*
X89839259Y-85024192D01*
X89692371Y-85090360D01*
X89633925Y-85116688D01*
X89442681Y-85245441D01*
X89438824Y-85249120D01*
X89438822Y-85249122D01*
X89433361Y-85254332D01*
X89275865Y-85404576D01*
X89138246Y-85589542D01*
X89135830Y-85594293D01*
X89135828Y-85594297D01*
X89118773Y-85627842D01*
X89033760Y-85795051D01*
X89032178Y-85800145D01*
X89032177Y-85800148D01*
X88984371Y-85954109D01*
X88965393Y-86015227D01*
X88964692Y-86020516D01*
X88936450Y-86233606D01*
X88935102Y-86243774D01*
X88505500Y-86243774D01*
X88505500Y-86159866D01*
X88498745Y-86097684D01*
X88447615Y-85961295D01*
X88360261Y-85844739D01*
X88243705Y-85757385D01*
X88107316Y-85706255D01*
X88045134Y-85699500D01*
X85148866Y-85699500D01*
X85086684Y-85706255D01*
X84950295Y-85757385D01*
X84833739Y-85844739D01*
X84746385Y-85961295D01*
X84695255Y-86097684D01*
X84688500Y-86159866D01*
X84688500Y-89056134D01*
X71247500Y-89056134D01*
X71247500Y-78740000D01*
X74924477Y-78740000D01*
X74944549Y-79059039D01*
X75004449Y-79373046D01*
X75103233Y-79677070D01*
X75104920Y-79680656D01*
X75104922Y-79680660D01*
X75237653Y-79962729D01*
X75237657Y-79962736D01*
X75239341Y-79966315D01*
X75241465Y-79969661D01*
X75241465Y-79969662D01*
X75402567Y-80223517D01*
X75410629Y-80236221D01*
X75614394Y-80482530D01*
X75847423Y-80701359D01*
X75850625Y-80703686D01*
X75850627Y-80703687D01*
X75853574Y-80705828D01*
X76106041Y-80889256D01*
X76109510Y-80891163D01*
X76109513Y-80891165D01*
X76281139Y-80985517D01*
X76386169Y-81043258D01*
X76516935Y-81095032D01*
X76679707Y-81159478D01*
X76679710Y-81159479D01*
X76683390Y-81160936D01*
X76687224Y-81161920D01*
X76687232Y-81161923D01*
X76812422Y-81194066D01*
X76993017Y-81240435D01*
X76996945Y-81240931D01*
X76996949Y-81240932D01*
X77070378Y-81250208D01*
X77310165Y-81280500D01*
X77629835Y-81280500D01*
X77869622Y-81250208D01*
X77943051Y-81240932D01*
X77943055Y-81240931D01*
X77946983Y-81240435D01*
X78127578Y-81194066D01*
X78252768Y-81161923D01*
X78252776Y-81161920D01*
X78256610Y-81160936D01*
X78260290Y-81159479D01*
X78260293Y-81159478D01*
X78423065Y-81095032D01*
X78553831Y-81043258D01*
X78658862Y-80985517D01*
X78830487Y-80891165D01*
X78830490Y-80891163D01*
X78833959Y-80889256D01*
X79086426Y-80705828D01*
X79089373Y-80703687D01*
X79089375Y-80703686D01*
X79092577Y-80701359D01*
X79325606Y-80482530D01*
X79529371Y-80236221D01*
X79537434Y-80223517D01*
X79698535Y-79969662D01*
X79698535Y-79969661D01*
X79700659Y-79966315D01*
X79702343Y-79962736D01*
X79702347Y-79962729D01*
X79835078Y-79680660D01*
X79835080Y-79680656D01*
X79836767Y-79677070D01*
X79935551Y-79373046D01*
X79939438Y-79352669D01*
X84689001Y-79352669D01*
X84689371Y-79359490D01*
X84694895Y-79410352D01*
X84698521Y-79425604D01*
X84743676Y-79546054D01*
X84752214Y-79561649D01*
X84828715Y-79663724D01*
X84841276Y-79676285D01*
X84943351Y-79752786D01*
X84958946Y-79761324D01*
X85079394Y-79806478D01*
X85094649Y-79810105D01*
X85145514Y-79815631D01*
X85152328Y-79816000D01*
X86324885Y-79816000D01*
X86340124Y-79811525D01*
X86341329Y-79810135D01*
X86343000Y-79802452D01*
X86343000Y-79797884D01*
X86851000Y-79797884D01*
X86855475Y-79813123D01*
X86856865Y-79814328D01*
X86864548Y-79815999D01*
X88041669Y-79815999D01*
X88048490Y-79815629D01*
X88099352Y-79810105D01*
X88114604Y-79806479D01*
X88235054Y-79761324D01*
X88250649Y-79752786D01*
X88352724Y-79676285D01*
X88365285Y-79663724D01*
X88441786Y-79561649D01*
X88450324Y-79546054D01*
X88495478Y-79425606D01*
X88499105Y-79410351D01*
X88504631Y-79359486D01*
X88505000Y-79352672D01*
X88505000Y-79243774D01*
X88935102Y-79243774D01*
X88935302Y-79249103D01*
X88935302Y-79249105D01*
X88935912Y-79265340D01*
X88943751Y-79474158D01*
X88991093Y-79699791D01*
X88993051Y-79704750D01*
X88993052Y-79704752D01*
X89041609Y-79827704D01*
X89075776Y-79914221D01*
X89078543Y-79918780D01*
X89078544Y-79918783D01*
X89105211Y-79962729D01*
X89195377Y-80111317D01*
X89198874Y-80115347D01*
X89311158Y-80244743D01*
X89346477Y-80285445D01*
X89350608Y-80288832D01*
X89520627Y-80428240D01*
X89520633Y-80428244D01*
X89524755Y-80431624D01*
X89529391Y-80434263D01*
X89529394Y-80434265D01*
X89638422Y-80496327D01*
X89725114Y-80545675D01*
X89941825Y-80624337D01*
X89947074Y-80625286D01*
X89947077Y-80625287D01*
X90164608Y-80664623D01*
X90164615Y-80664624D01*
X90168692Y-80665361D01*
X90186414Y-80666197D01*
X90191356Y-80666430D01*
X90191363Y-80666430D01*
X90192844Y-80666500D01*
X90354890Y-80666500D01*
X90421809Y-80660822D01*
X90521409Y-80652371D01*
X90521413Y-80652370D01*
X90526720Y-80651920D01*
X90531875Y-80650582D01*
X90531881Y-80650581D01*
X90744703Y-80595343D01*
X90744707Y-80595342D01*
X90749872Y-80594001D01*
X90754738Y-80591809D01*
X90754741Y-80591808D01*
X90955202Y-80501507D01*
X90960075Y-80499312D01*
X91151319Y-80370559D01*
X91318135Y-80211424D01*
X91455754Y-80026458D01*
X91461933Y-80014306D01*
X91515342Y-79909256D01*
X91560240Y-79820949D01*
X91561892Y-79815631D01*
X91627024Y-79605871D01*
X91628607Y-79600773D01*
X91639814Y-79516216D01*
X91658198Y-79377511D01*
X91658198Y-79377506D01*
X91658898Y-79372226D01*
X91656900Y-79318991D01*
X91654926Y-79266406D01*
X100068423Y-79266406D01*
X100073704Y-79273461D01*
X100250080Y-79376527D01*
X100259363Y-79380974D01*
X100466003Y-79459883D01*
X100475901Y-79462759D01*
X100692653Y-79506857D01*
X100702883Y-79508076D01*
X100923914Y-79516182D01*
X100934223Y-79515714D01*
X101153623Y-79487608D01*
X101163688Y-79485468D01*
X101375557Y-79421905D01*
X101385152Y-79418144D01*
X101583778Y-79320838D01*
X101592636Y-79315559D01*
X101650097Y-79274572D01*
X101658497Y-79263874D01*
X101651510Y-79250721D01*
X100877811Y-78477021D01*
X100863868Y-78469408D01*
X100862034Y-78469539D01*
X100855420Y-78473790D01*
X100075180Y-79254031D01*
X100068423Y-79266406D01*
X91654926Y-79266406D01*
X91650449Y-79147173D01*
X91650249Y-79141842D01*
X91602907Y-78916209D01*
X91596601Y-78900242D01*
X91520185Y-78706744D01*
X91520184Y-78706742D01*
X91518224Y-78701779D01*
X91468686Y-78620142D01*
X91401390Y-78509243D01*
X91398623Y-78504683D01*
X91368013Y-78469408D01*
X91251023Y-78334588D01*
X91251021Y-78334586D01*
X91247523Y-78330555D01*
X91150648Y-78251122D01*
X91073373Y-78187760D01*
X91073367Y-78187756D01*
X91069245Y-78184376D01*
X91064609Y-78181737D01*
X91064606Y-78181735D01*
X90878220Y-78075638D01*
X99452893Y-78075638D01*
X99465627Y-78296468D01*
X99467061Y-78306670D01*
X99515685Y-78522439D01*
X99518773Y-78532292D01*
X99601986Y-78737220D01*
X99606634Y-78746421D01*
X99695097Y-78890781D01*
X99705553Y-78900242D01*
X99714331Y-78896458D01*
X100492979Y-78117811D01*
X100499356Y-78106132D01*
X101229408Y-78106132D01*
X101229539Y-78107966D01*
X101233790Y-78114580D01*
X102011307Y-78892096D01*
X102023313Y-78898652D01*
X102035052Y-78889684D01*
X102073010Y-78836859D01*
X102078321Y-78828020D01*
X102176318Y-78629737D01*
X102180117Y-78620142D01*
X102244415Y-78408517D01*
X102246594Y-78398436D01*
X102275702Y-78177338D01*
X102276221Y-78170663D01*
X102277744Y-78108364D01*
X102277550Y-78101646D01*
X102274987Y-78070469D01*
X104532095Y-78070469D01*
X104532392Y-78075622D01*
X104532392Y-78075625D01*
X104545129Y-78296529D01*
X104545427Y-78301697D01*
X104546564Y-78306743D01*
X104546565Y-78306749D01*
X104571425Y-78417061D01*
X104596346Y-78527642D01*
X104598288Y-78532424D01*
X104598289Y-78532428D01*
X104667868Y-78703779D01*
X104683484Y-78742237D01*
X104804501Y-78939719D01*
X104956147Y-79114784D01*
X105134349Y-79262730D01*
X105334322Y-79379584D01*
X105550694Y-79462209D01*
X105555760Y-79463240D01*
X105555761Y-79463240D01*
X105583222Y-79468827D01*
X105777656Y-79508385D01*
X105908324Y-79513176D01*
X106003949Y-79516683D01*
X106003953Y-79516683D01*
X106009113Y-79516872D01*
X106014233Y-79516216D01*
X106014235Y-79516216D01*
X106087291Y-79506857D01*
X106238847Y-79487442D01*
X106243795Y-79485957D01*
X106243802Y-79485956D01*
X106455747Y-79422369D01*
X106460690Y-79420886D01*
X106478110Y-79412352D01*
X106664049Y-79321262D01*
X106664052Y-79321260D01*
X106668684Y-79318991D01*
X106857243Y-79184494D01*
X107021303Y-79021005D01*
X107024319Y-79016808D01*
X107024326Y-79016800D01*
X107111960Y-78894844D01*
X107167954Y-78851196D01*
X107238658Y-78844750D01*
X107301622Y-78877553D01*
X107321715Y-78902536D01*
X107341800Y-78935313D01*
X107341804Y-78935318D01*
X107344501Y-78939719D01*
X107496147Y-79114784D01*
X107674349Y-79262730D01*
X107874322Y-79379584D01*
X108090694Y-79462209D01*
X108095760Y-79463240D01*
X108095761Y-79463240D01*
X108123222Y-79468827D01*
X108317656Y-79508385D01*
X108448324Y-79513176D01*
X108543949Y-79516683D01*
X108543953Y-79516683D01*
X108549113Y-79516872D01*
X108554233Y-79516216D01*
X108554235Y-79516216D01*
X108627291Y-79506857D01*
X108778847Y-79487442D01*
X108783795Y-79485957D01*
X108783802Y-79485956D01*
X108995747Y-79422369D01*
X109000690Y-79420886D01*
X109018110Y-79412352D01*
X109204049Y-79321262D01*
X109204052Y-79321260D01*
X109208684Y-79318991D01*
X109397243Y-79184494D01*
X109561303Y-79021005D01*
X109564319Y-79016808D01*
X109564326Y-79016800D01*
X109651960Y-78894844D01*
X109707954Y-78851196D01*
X109778658Y-78844750D01*
X109841622Y-78877553D01*
X109861715Y-78902536D01*
X109881800Y-78935313D01*
X109881804Y-78935318D01*
X109884501Y-78939719D01*
X110036147Y-79114784D01*
X110214349Y-79262730D01*
X110414322Y-79379584D01*
X110630694Y-79462209D01*
X110635760Y-79463240D01*
X110635761Y-79463240D01*
X110663222Y-79468827D01*
X110857656Y-79508385D01*
X110988324Y-79513176D01*
X111083949Y-79516683D01*
X111083953Y-79516683D01*
X111089113Y-79516872D01*
X111094233Y-79516216D01*
X111094235Y-79516216D01*
X111167291Y-79506857D01*
X111318847Y-79487442D01*
X111323795Y-79485957D01*
X111323802Y-79485956D01*
X111535747Y-79422369D01*
X111540690Y-79420886D01*
X111558110Y-79412352D01*
X111675856Y-79354669D01*
X118632001Y-79354669D01*
X118632371Y-79361490D01*
X118637895Y-79412352D01*
X118641521Y-79427604D01*
X118686676Y-79548054D01*
X118695214Y-79563649D01*
X118771715Y-79665724D01*
X118784276Y-79678285D01*
X118886351Y-79754786D01*
X118901946Y-79763324D01*
X119022394Y-79808478D01*
X119037649Y-79812105D01*
X119088514Y-79817631D01*
X119095328Y-79818000D01*
X120267885Y-79818000D01*
X120283124Y-79813525D01*
X120284329Y-79812135D01*
X120286000Y-79804452D01*
X120286000Y-79799884D01*
X120794000Y-79799884D01*
X120798475Y-79815123D01*
X120799865Y-79816328D01*
X120807548Y-79817999D01*
X121984669Y-79817999D01*
X121991490Y-79817629D01*
X122042352Y-79812105D01*
X122057604Y-79808479D01*
X122178054Y-79763324D01*
X122193649Y-79754786D01*
X122295724Y-79678285D01*
X122308285Y-79665724D01*
X122384786Y-79563649D01*
X122393324Y-79548054D01*
X122438478Y-79427606D01*
X122442105Y-79412351D01*
X122447631Y-79361486D01*
X122448000Y-79354672D01*
X122448000Y-79245774D01*
X122878102Y-79245774D01*
X122878302Y-79251103D01*
X122878302Y-79251105D01*
X122879141Y-79273461D01*
X122886751Y-79476158D01*
X122934093Y-79701791D01*
X122936051Y-79706750D01*
X122936052Y-79706752D01*
X122979841Y-79817631D01*
X123018776Y-79916221D01*
X123021543Y-79920780D01*
X123021544Y-79920783D01*
X123086883Y-80028458D01*
X123138377Y-80113317D01*
X123141874Y-80117347D01*
X123284242Y-80281412D01*
X123289477Y-80287445D01*
X123293608Y-80290832D01*
X123463627Y-80430240D01*
X123463633Y-80430244D01*
X123467755Y-80433624D01*
X123472391Y-80436263D01*
X123472394Y-80436265D01*
X123558440Y-80485245D01*
X123668114Y-80547675D01*
X123884825Y-80626337D01*
X123890074Y-80627286D01*
X123890077Y-80627287D01*
X124107608Y-80666623D01*
X124107615Y-80666624D01*
X124111692Y-80667361D01*
X124129414Y-80668197D01*
X124134356Y-80668430D01*
X124134363Y-80668430D01*
X124135844Y-80668500D01*
X124297890Y-80668500D01*
X124364809Y-80662822D01*
X124464409Y-80654371D01*
X124464413Y-80654370D01*
X124469720Y-80653920D01*
X124474875Y-80652582D01*
X124474881Y-80652581D01*
X124687703Y-80597343D01*
X124687707Y-80597342D01*
X124692872Y-80596001D01*
X124697738Y-80593809D01*
X124697741Y-80593808D01*
X124898202Y-80503507D01*
X124903075Y-80501312D01*
X125094319Y-80372559D01*
X125100275Y-80366878D01*
X125234038Y-80239273D01*
X125261135Y-80213424D01*
X125398754Y-80028458D01*
X125402189Y-80021703D01*
X125500822Y-79827704D01*
X125503240Y-79822949D01*
X125504892Y-79817631D01*
X125570024Y-79607871D01*
X125571607Y-79602773D01*
X125576792Y-79563649D01*
X125601198Y-79379511D01*
X125601198Y-79379506D01*
X125601898Y-79374226D01*
X125593249Y-79143842D01*
X125545907Y-78918209D01*
X125543158Y-78911248D01*
X125475529Y-78740000D01*
X134614477Y-78740000D01*
X134634549Y-79059039D01*
X134694449Y-79373046D01*
X134793233Y-79677070D01*
X134794920Y-79680656D01*
X134794922Y-79680660D01*
X134927653Y-79962729D01*
X134927657Y-79962736D01*
X134929341Y-79966315D01*
X134931465Y-79969661D01*
X134931465Y-79969662D01*
X135092567Y-80223517D01*
X135100629Y-80236221D01*
X135304394Y-80482530D01*
X135537423Y-80701359D01*
X135540625Y-80703686D01*
X135540627Y-80703687D01*
X135543574Y-80705828D01*
X135796041Y-80889256D01*
X135799510Y-80891163D01*
X135799513Y-80891165D01*
X135971139Y-80985517D01*
X136076169Y-81043258D01*
X136206935Y-81095032D01*
X136369707Y-81159478D01*
X136369710Y-81159479D01*
X136373390Y-81160936D01*
X136377224Y-81161920D01*
X136377232Y-81161923D01*
X136502422Y-81194066D01*
X136683017Y-81240435D01*
X136686945Y-81240931D01*
X136686949Y-81240932D01*
X136760378Y-81250208D01*
X137000165Y-81280500D01*
X137319835Y-81280500D01*
X137559622Y-81250208D01*
X137633051Y-81240932D01*
X137633055Y-81240931D01*
X137636983Y-81240435D01*
X137817578Y-81194066D01*
X137942768Y-81161923D01*
X137942776Y-81161920D01*
X137946610Y-81160936D01*
X137950290Y-81159479D01*
X137950293Y-81159478D01*
X138113065Y-81095032D01*
X138243831Y-81043258D01*
X138348862Y-80985517D01*
X138520487Y-80891165D01*
X138520490Y-80891163D01*
X138523959Y-80889256D01*
X138776426Y-80705828D01*
X138779373Y-80703687D01*
X138779375Y-80703686D01*
X138782577Y-80701359D01*
X139015606Y-80482530D01*
X139219371Y-80236221D01*
X139227434Y-80223517D01*
X139388535Y-79969662D01*
X139388535Y-79969661D01*
X139390659Y-79966315D01*
X139392343Y-79962736D01*
X139392347Y-79962729D01*
X139525078Y-79680660D01*
X139525080Y-79680656D01*
X139526767Y-79677070D01*
X139625551Y-79373046D01*
X139685451Y-79059039D01*
X139705523Y-78740000D01*
X139685451Y-78420961D01*
X139625551Y-78106954D01*
X139526767Y-77802930D01*
X139497433Y-77740592D01*
X139392347Y-77517271D01*
X139392343Y-77517264D01*
X139390659Y-77513685D01*
X139345241Y-77442118D01*
X139221498Y-77247130D01*
X139221495Y-77247126D01*
X139219371Y-77243779D01*
X139022372Y-77005649D01*
X139018131Y-77000522D01*
X139018130Y-77000521D01*
X139015606Y-76997470D01*
X138782577Y-76778641D01*
X138749042Y-76754276D01*
X138673442Y-76699350D01*
X138523959Y-76590744D01*
X138243831Y-76436742D01*
X138081917Y-76372636D01*
X137950293Y-76320522D01*
X137950290Y-76320521D01*
X137946610Y-76319064D01*
X137942776Y-76318080D01*
X137942768Y-76318077D01*
X137750847Y-76268800D01*
X137636983Y-76239565D01*
X137633055Y-76239069D01*
X137633051Y-76239068D01*
X137507358Y-76223190D01*
X137319835Y-76199500D01*
X137000165Y-76199500D01*
X136812642Y-76223190D01*
X136686949Y-76239068D01*
X136686945Y-76239069D01*
X136683017Y-76239565D01*
X136569153Y-76268800D01*
X136377232Y-76318077D01*
X136377224Y-76318080D01*
X136373390Y-76319064D01*
X136369710Y-76320521D01*
X136369707Y-76320522D01*
X136238083Y-76372636D01*
X136076169Y-76436742D01*
X135796041Y-76590744D01*
X135646558Y-76699350D01*
X135570959Y-76754276D01*
X135537423Y-76778641D01*
X135304394Y-76997470D01*
X135301870Y-77000521D01*
X135301869Y-77000522D01*
X135297628Y-77005649D01*
X135100629Y-77243779D01*
X135098505Y-77247126D01*
X135098502Y-77247130D01*
X134974759Y-77442118D01*
X134929341Y-77513685D01*
X134927657Y-77517264D01*
X134927653Y-77517271D01*
X134822567Y-77740592D01*
X134793233Y-77802930D01*
X134694449Y-78106954D01*
X134634549Y-78420961D01*
X134614477Y-78740000D01*
X125475529Y-78740000D01*
X125463185Y-78708744D01*
X125463184Y-78708742D01*
X125461224Y-78703779D01*
X125416407Y-78629922D01*
X125344390Y-78511243D01*
X125341623Y-78506683D01*
X125307080Y-78466876D01*
X125194023Y-78336588D01*
X125194021Y-78336586D01*
X125190523Y-78332555D01*
X125113272Y-78269213D01*
X125016373Y-78189760D01*
X125016367Y-78189756D01*
X125012245Y-78186376D01*
X125007609Y-78183737D01*
X125007606Y-78183735D01*
X124816529Y-78074968D01*
X124811886Y-78072325D01*
X124595175Y-77993663D01*
X124589926Y-77992714D01*
X124589923Y-77992713D01*
X124372392Y-77953377D01*
X124372385Y-77953376D01*
X124368308Y-77952639D01*
X124350586Y-77951803D01*
X124345644Y-77951570D01*
X124345637Y-77951570D01*
X124344156Y-77951500D01*
X124182110Y-77951500D01*
X124115191Y-77957178D01*
X124015591Y-77965629D01*
X124015587Y-77965630D01*
X124010280Y-77966080D01*
X124005125Y-77967418D01*
X124005119Y-77967419D01*
X123792297Y-78022657D01*
X123792293Y-78022658D01*
X123787128Y-78023999D01*
X123782262Y-78026191D01*
X123782259Y-78026192D01*
X123678420Y-78072968D01*
X123576925Y-78118688D01*
X123385681Y-78247441D01*
X123218865Y-78406576D01*
X123215682Y-78410854D01*
X123168856Y-78473790D01*
X123081246Y-78591542D01*
X123078830Y-78596293D01*
X123078828Y-78596297D01*
X123029003Y-78694296D01*
X122976760Y-78797051D01*
X122975178Y-78802145D01*
X122975177Y-78802148D01*
X122933828Y-78935313D01*
X122908393Y-79017227D01*
X122907692Y-79022516D01*
X122879068Y-79238489D01*
X122878102Y-79245774D01*
X122448000Y-79245774D01*
X122448000Y-78482115D01*
X122443525Y-78466876D01*
X122442135Y-78465671D01*
X122434452Y-78464000D01*
X120812115Y-78464000D01*
X120796876Y-78468475D01*
X120795671Y-78469865D01*
X120794000Y-78477548D01*
X120794000Y-79799884D01*
X120286000Y-79799884D01*
X120286000Y-78482115D01*
X120281525Y-78466876D01*
X120280135Y-78465671D01*
X120272452Y-78464000D01*
X118650116Y-78464000D01*
X118634877Y-78468475D01*
X118633672Y-78469865D01*
X118632001Y-78477548D01*
X118632001Y-79354669D01*
X111675856Y-79354669D01*
X111744049Y-79321262D01*
X111744052Y-79321260D01*
X111748684Y-79318991D01*
X111937243Y-79184494D01*
X112101303Y-79021005D01*
X112236458Y-78832917D01*
X112238879Y-78828020D01*
X112336784Y-78629922D01*
X112336785Y-78629920D01*
X112339078Y-78625280D01*
X112406408Y-78403671D01*
X112436640Y-78174041D01*
X112437920Y-78121673D01*
X112438245Y-78108365D01*
X112438245Y-78108361D01*
X112438327Y-78105000D01*
X112429323Y-77995484D01*
X112424588Y-77937885D01*
X118632000Y-77937885D01*
X118636475Y-77953124D01*
X118637865Y-77954329D01*
X118645548Y-77956000D01*
X120267885Y-77956000D01*
X120283124Y-77951525D01*
X120284329Y-77950135D01*
X120286000Y-77942452D01*
X120286000Y-77937885D01*
X120794000Y-77937885D01*
X120798475Y-77953124D01*
X120799865Y-77954329D01*
X120807548Y-77956000D01*
X122429884Y-77956000D01*
X122445123Y-77951525D01*
X122446328Y-77950135D01*
X122447999Y-77942452D01*
X122447999Y-77065331D01*
X122447629Y-77058510D01*
X122442105Y-77007648D01*
X122438479Y-76992396D01*
X122393324Y-76871946D01*
X122384786Y-76856351D01*
X122308285Y-76754276D01*
X122295724Y-76741715D01*
X122193649Y-76665214D01*
X122178054Y-76656676D01*
X122057606Y-76611522D01*
X122042351Y-76607895D01*
X121991486Y-76602369D01*
X121984672Y-76602000D01*
X120812115Y-76602000D01*
X120796876Y-76606475D01*
X120795671Y-76607865D01*
X120794000Y-76615548D01*
X120794000Y-77937885D01*
X120286000Y-77937885D01*
X120286000Y-76620116D01*
X120281525Y-76604877D01*
X120280135Y-76603672D01*
X120272452Y-76602001D01*
X119095331Y-76602001D01*
X119088510Y-76602371D01*
X119037648Y-76607895D01*
X119022396Y-76611521D01*
X118901946Y-76656676D01*
X118886351Y-76665214D01*
X118784276Y-76741715D01*
X118771715Y-76754276D01*
X118695214Y-76856351D01*
X118686676Y-76871946D01*
X118641522Y-76992394D01*
X118637895Y-77007649D01*
X118632369Y-77058514D01*
X118632000Y-77065328D01*
X118632000Y-77937885D01*
X112424588Y-77937885D01*
X112419773Y-77879318D01*
X112419772Y-77879312D01*
X112419349Y-77874167D01*
X112385797Y-77740592D01*
X112364184Y-77654544D01*
X112364183Y-77654540D01*
X112362925Y-77649533D01*
X112351017Y-77622146D01*
X112272630Y-77441868D01*
X112272628Y-77441865D01*
X112270570Y-77437131D01*
X112144764Y-77242665D01*
X112138024Y-77235257D01*
X112095134Y-77188122D01*
X111988887Y-77071358D01*
X111984836Y-77068159D01*
X111984832Y-77068155D01*
X111811177Y-76931011D01*
X111811172Y-76931008D01*
X111807123Y-76927810D01*
X111802607Y-76925317D01*
X111802604Y-76925315D01*
X111608879Y-76818373D01*
X111608875Y-76818371D01*
X111604355Y-76815876D01*
X111599486Y-76814152D01*
X111599482Y-76814150D01*
X111390903Y-76740288D01*
X111390899Y-76740287D01*
X111386028Y-76738562D01*
X111380935Y-76737655D01*
X111380932Y-76737654D01*
X111163095Y-76698851D01*
X111163089Y-76698850D01*
X111158006Y-76697945D01*
X111085096Y-76697054D01*
X110931581Y-76695179D01*
X110931579Y-76695179D01*
X110926411Y-76695116D01*
X110697464Y-76730150D01*
X110477314Y-76802106D01*
X110472726Y-76804494D01*
X110472722Y-76804496D01*
X110346994Y-76869946D01*
X110271872Y-76909052D01*
X110267739Y-76912155D01*
X110267736Y-76912157D01*
X110140553Y-77007649D01*
X110086655Y-77048117D01*
X109926639Y-77215564D01*
X109859306Y-77314271D01*
X109804397Y-77359271D01*
X109733872Y-77367442D01*
X109670125Y-77336188D01*
X109649428Y-77311705D01*
X109607571Y-77247004D01*
X109604764Y-77242665D01*
X109598024Y-77235257D01*
X109555134Y-77188122D01*
X109448887Y-77071358D01*
X109444836Y-77068159D01*
X109444832Y-77068155D01*
X109271177Y-76931011D01*
X109271172Y-76931008D01*
X109267123Y-76927810D01*
X109262607Y-76925317D01*
X109262604Y-76925315D01*
X109068879Y-76818373D01*
X109068875Y-76818371D01*
X109064355Y-76815876D01*
X109059486Y-76814152D01*
X109059482Y-76814150D01*
X108850903Y-76740288D01*
X108850899Y-76740287D01*
X108846028Y-76738562D01*
X108840935Y-76737655D01*
X108840932Y-76737654D01*
X108623095Y-76698851D01*
X108623089Y-76698850D01*
X108618006Y-76697945D01*
X108545096Y-76697054D01*
X108391581Y-76695179D01*
X108391579Y-76695179D01*
X108386411Y-76695116D01*
X108157464Y-76730150D01*
X107937314Y-76802106D01*
X107932726Y-76804494D01*
X107932722Y-76804496D01*
X107806994Y-76869946D01*
X107731872Y-76909052D01*
X107727739Y-76912155D01*
X107727736Y-76912157D01*
X107600553Y-77007649D01*
X107546655Y-77048117D01*
X107386639Y-77215564D01*
X107319306Y-77314271D01*
X107264397Y-77359271D01*
X107193872Y-77367442D01*
X107130125Y-77336188D01*
X107109428Y-77311705D01*
X107067571Y-77247004D01*
X107064764Y-77242665D01*
X107058024Y-77235257D01*
X107015134Y-77188122D01*
X106908887Y-77071358D01*
X106904836Y-77068159D01*
X106904832Y-77068155D01*
X106731177Y-76931011D01*
X106731172Y-76931008D01*
X106727123Y-76927810D01*
X106722607Y-76925317D01*
X106722604Y-76925315D01*
X106528879Y-76818373D01*
X106528875Y-76818371D01*
X106524355Y-76815876D01*
X106519486Y-76814152D01*
X106519482Y-76814150D01*
X106310903Y-76740288D01*
X106310899Y-76740287D01*
X106306028Y-76738562D01*
X106300935Y-76737655D01*
X106300932Y-76737654D01*
X106083095Y-76698851D01*
X106083089Y-76698850D01*
X106078006Y-76697945D01*
X106005096Y-76697054D01*
X105851581Y-76695179D01*
X105851579Y-76695179D01*
X105846411Y-76695116D01*
X105617464Y-76730150D01*
X105397314Y-76802106D01*
X105392726Y-76804494D01*
X105392722Y-76804496D01*
X105266994Y-76869946D01*
X105191872Y-76909052D01*
X105187739Y-76912155D01*
X105187736Y-76912157D01*
X105060553Y-77007649D01*
X105006655Y-77048117D01*
X104846639Y-77215564D01*
X104843730Y-77219829D01*
X104843724Y-77219837D01*
X104829474Y-77240727D01*
X104716119Y-77406899D01*
X104618602Y-77616981D01*
X104556707Y-77840169D01*
X104532095Y-78070469D01*
X102274987Y-78070469D01*
X102259279Y-77879400D01*
X102257596Y-77869238D01*
X102203710Y-77654708D01*
X102200389Y-77644953D01*
X102112193Y-77442118D01*
X102107315Y-77433020D01*
X102034224Y-77320038D01*
X102023538Y-77310835D01*
X102013973Y-77315238D01*
X101237021Y-78092189D01*
X101229408Y-78106132D01*
X100499356Y-78106132D01*
X100500592Y-78103868D01*
X100500461Y-78102034D01*
X100496210Y-78095420D01*
X99718862Y-77318073D01*
X99707330Y-77311776D01*
X99695048Y-77321399D01*
X99639467Y-77402877D01*
X99634379Y-77411833D01*
X99541252Y-77612459D01*
X99537689Y-77622146D01*
X99478581Y-77835280D01*
X99476650Y-77845400D01*
X99453145Y-78065349D01*
X99452893Y-78075638D01*
X90878220Y-78075638D01*
X90873529Y-78072968D01*
X90868886Y-78070325D01*
X90652175Y-77991663D01*
X90646926Y-77990714D01*
X90646923Y-77990713D01*
X90429392Y-77951377D01*
X90429385Y-77951376D01*
X90425308Y-77950639D01*
X90407586Y-77949803D01*
X90402644Y-77949570D01*
X90402637Y-77949570D01*
X90401156Y-77949500D01*
X90239110Y-77949500D01*
X90182199Y-77954329D01*
X90072591Y-77963629D01*
X90072587Y-77963630D01*
X90067280Y-77964080D01*
X90062125Y-77965418D01*
X90062119Y-77965419D01*
X89849297Y-78020657D01*
X89849293Y-78020658D01*
X89844128Y-78021999D01*
X89839262Y-78024191D01*
X89839259Y-78024192D01*
X89725082Y-78075625D01*
X89633925Y-78116688D01*
X89442681Y-78245441D01*
X89438824Y-78249120D01*
X89438822Y-78249122D01*
X89389191Y-78296468D01*
X89275865Y-78404576D01*
X89272682Y-78408854D01*
X89228323Y-78468475D01*
X89138246Y-78589542D01*
X89135830Y-78594293D01*
X89135828Y-78594297D01*
X89122688Y-78620142D01*
X89033760Y-78795051D01*
X89032178Y-78800145D01*
X89032177Y-78800148D01*
X88970115Y-79000020D01*
X88965393Y-79015227D01*
X88964692Y-79020516D01*
X88942959Y-79184494D01*
X88935102Y-79243774D01*
X88505000Y-79243774D01*
X88505000Y-78480115D01*
X88500525Y-78464876D01*
X88499135Y-78463671D01*
X88491452Y-78462000D01*
X86869115Y-78462000D01*
X86853876Y-78466475D01*
X86852671Y-78467865D01*
X86851000Y-78475548D01*
X86851000Y-79797884D01*
X86343000Y-79797884D01*
X86343000Y-78480115D01*
X86338525Y-78464876D01*
X86337135Y-78463671D01*
X86329452Y-78462000D01*
X84707116Y-78462000D01*
X84691877Y-78466475D01*
X84690672Y-78467865D01*
X84689001Y-78475548D01*
X84689001Y-79352669D01*
X79939438Y-79352669D01*
X79995451Y-79059039D01*
X80015523Y-78740000D01*
X79995451Y-78420961D01*
X79935551Y-78106954D01*
X79879967Y-77935885D01*
X84689000Y-77935885D01*
X84693475Y-77951124D01*
X84694865Y-77952329D01*
X84702548Y-77954000D01*
X86324885Y-77954000D01*
X86340124Y-77949525D01*
X86341329Y-77948135D01*
X86343000Y-77940452D01*
X86343000Y-77935885D01*
X86851000Y-77935885D01*
X86855475Y-77951124D01*
X86856865Y-77952329D01*
X86864548Y-77954000D01*
X88486884Y-77954000D01*
X88502123Y-77949525D01*
X88503328Y-77948135D01*
X88504999Y-77940452D01*
X88504999Y-77063331D01*
X88504629Y-77056510D01*
X88499105Y-77005648D01*
X88495479Y-76990396D01*
X88478727Y-76945711D01*
X100070508Y-76945711D01*
X100077251Y-76958040D01*
X100852189Y-77732979D01*
X100866132Y-77740592D01*
X100867966Y-77740461D01*
X100874580Y-77736210D01*
X101653994Y-76956795D01*
X101661011Y-76943944D01*
X101653237Y-76933274D01*
X101650902Y-76931430D01*
X101642320Y-76925729D01*
X101448678Y-76818833D01*
X101439272Y-76814606D01*
X101230772Y-76740772D01*
X101220809Y-76738140D01*
X101003047Y-76699350D01*
X100992796Y-76698381D01*
X100771616Y-76695679D01*
X100761332Y-76696399D01*
X100542693Y-76729855D01*
X100532666Y-76732244D01*
X100322426Y-76800961D01*
X100312916Y-76804958D01*
X100116725Y-76907089D01*
X100108007Y-76912578D01*
X100078961Y-76934386D01*
X100070508Y-76945711D01*
X88478727Y-76945711D01*
X88450324Y-76869946D01*
X88441786Y-76854351D01*
X88365285Y-76752276D01*
X88352724Y-76739715D01*
X88250649Y-76663214D01*
X88235054Y-76654676D01*
X88114606Y-76609522D01*
X88099351Y-76605895D01*
X88048486Y-76600369D01*
X88041672Y-76600000D01*
X86869115Y-76600000D01*
X86853876Y-76604475D01*
X86852671Y-76605865D01*
X86851000Y-76613548D01*
X86851000Y-77935885D01*
X86343000Y-77935885D01*
X86343000Y-76618116D01*
X86338525Y-76602877D01*
X86337135Y-76601672D01*
X86329452Y-76600001D01*
X85152331Y-76600001D01*
X85145510Y-76600371D01*
X85094648Y-76605895D01*
X85079396Y-76609521D01*
X84958946Y-76654676D01*
X84943351Y-76663214D01*
X84841276Y-76739715D01*
X84828715Y-76752276D01*
X84752214Y-76854351D01*
X84743676Y-76869946D01*
X84698522Y-76990394D01*
X84694895Y-77005649D01*
X84689369Y-77056514D01*
X84689000Y-77063328D01*
X84689000Y-77935885D01*
X79879967Y-77935885D01*
X79836767Y-77802930D01*
X79807433Y-77740592D01*
X79702347Y-77517271D01*
X79702343Y-77517264D01*
X79700659Y-77513685D01*
X79655241Y-77442118D01*
X79531498Y-77247130D01*
X79531495Y-77247126D01*
X79529371Y-77243779D01*
X79332372Y-77005649D01*
X79328131Y-77000522D01*
X79328130Y-77000521D01*
X79325606Y-76997470D01*
X79092577Y-76778641D01*
X79059042Y-76754276D01*
X78983442Y-76699350D01*
X78833959Y-76590744D01*
X78553831Y-76436742D01*
X78391917Y-76372636D01*
X78260293Y-76320522D01*
X78260290Y-76320521D01*
X78256610Y-76319064D01*
X78252776Y-76318080D01*
X78252768Y-76318077D01*
X78060847Y-76268800D01*
X77946983Y-76239565D01*
X77943055Y-76239069D01*
X77943051Y-76239068D01*
X77817358Y-76223190D01*
X77629835Y-76199500D01*
X77310165Y-76199500D01*
X77122642Y-76223190D01*
X76996949Y-76239068D01*
X76996945Y-76239069D01*
X76993017Y-76239565D01*
X76879153Y-76268800D01*
X76687232Y-76318077D01*
X76687224Y-76318080D01*
X76683390Y-76319064D01*
X76679710Y-76320521D01*
X76679707Y-76320522D01*
X76548083Y-76372636D01*
X76386169Y-76436742D01*
X76106041Y-76590744D01*
X75956558Y-76699350D01*
X75880959Y-76754276D01*
X75847423Y-76778641D01*
X75614394Y-76997470D01*
X75611870Y-77000521D01*
X75611869Y-77000522D01*
X75607628Y-77005649D01*
X75410629Y-77243779D01*
X75408505Y-77247126D01*
X75408502Y-77247130D01*
X75284759Y-77442118D01*
X75239341Y-77513685D01*
X75237657Y-77517264D01*
X75237653Y-77517271D01*
X75132567Y-77740592D01*
X75103233Y-77802930D01*
X75004449Y-78106954D01*
X74944549Y-78420961D01*
X74924477Y-78740000D01*
X71247500Y-78740000D01*
X71247500Y-73024500D01*
X71267502Y-72956379D01*
X71321158Y-72909886D01*
X71373500Y-72898500D01*
X142875500Y-72898500D01*
X142943621Y-72918502D01*
G37*
G04 #@! TD.AperFunction*
M02*
