M48
INCH,TZ
T1C0.0197
T2C0.0315
T3C0.0433
%
G90
G05
T1
X28600Y-29300
X28800Y-41500
X28900Y-35300
X32450Y-32550
X33750Y-29750
X37850Y-35850
X39550Y-36900
X40100Y-35650
X40200Y-36400
X42100Y-38000
X42200Y-29200
X43400Y-35400
X44400Y-31700
X44500Y-40600
X44700Y-36550
X45050Y-37600
X45100Y-33650
X47150Y-29650
X47400Y-41600
X47850Y-36050
X51600Y-31000
X51750Y-38350
X55150Y-35000
X55600Y-41600
X55700Y-29200
T2
X39711Y-30750
X39711Y-32750
X41711Y-30750
X41711Y-32750
X42711Y-30750
X42711Y-32750
X43711Y-30750
X43711Y-32750
T3
X34416Y-39850
X35400Y-39850
X38756Y-39850
X39741Y-39850
T0
M30
