G04 #@! TF.GenerationSoftware,KiCad,Pcbnew,6.0.4-6f826c9f35~116~ubuntu20.04.1*
G04 #@! TF.CreationDate,2022-04-06T08:04:33-04:00*
G04 #@! TF.ProjectId,audiomute,61756469-6f6d-4757-9465-2e6b69636164,rev?*
G04 #@! TF.SameCoordinates,Original*
G04 #@! TF.FileFunction,Copper,L2,Bot*
G04 #@! TF.FilePolarity,Positive*
%FSLAX46Y46*%
G04 Gerber Fmt 4.6, Leading zero omitted, Abs format (unit mm)*
G04 Created by KiCad (PCBNEW 6.0.4-6f826c9f35~116~ubuntu20.04.1) date 2022-04-06 08:04:33*
%MOMM*%
%LPD*%
G01*
G04 APERTURE LIST*
G04 #@! TA.AperFunction,ComponentPad*
%ADD10R,1.714500X1.714500*%
G04 #@! TD*
G04 #@! TA.AperFunction,ComponentPad*
%ADD11C,1.714500*%
G04 #@! TD*
G04 #@! TA.AperFunction,ComponentPad*
%ADD12R,1.800000X1.800000*%
G04 #@! TD*
G04 #@! TA.AperFunction,ComponentPad*
%ADD13C,1.800000*%
G04 #@! TD*
G04 #@! TA.AperFunction,ViaPad*
%ADD14C,1.000000*%
G04 #@! TD*
G04 #@! TA.AperFunction,Conductor*
%ADD15C,1.000000*%
G04 #@! TD*
G04 #@! TA.AperFunction,Conductor*
%ADD16C,0.500000*%
G04 #@! TD*
G04 APERTURE END LIST*
D10*
X100965000Y-101219000D03*
D11*
X98425000Y-101219000D03*
D12*
X100865000Y-83185000D03*
D13*
X105945000Y-83185000D03*
X108485000Y-83185000D03*
X111025000Y-83185000D03*
X111025000Y-78105000D03*
X108485000Y-78105000D03*
X105945000Y-78105000D03*
X100865000Y-78105000D03*
D10*
X89911000Y-101219000D03*
D11*
X87371000Y-101219000D03*
D14*
X101854000Y-90551000D03*
X107188000Y-74168000D03*
X119761000Y-75311000D03*
X114554000Y-85471000D03*
X112776000Y-80518000D03*
X120396000Y-105664000D03*
X73406000Y-89662000D03*
X114427000Y-95504000D03*
X82423000Y-82677000D03*
X121539000Y-91567000D03*
X131064000Y-78740000D03*
X85725000Y-75565000D03*
X131445000Y-97409000D03*
X140081000Y-88900000D03*
X96139000Y-91059000D03*
X102108000Y-92456000D03*
X100457000Y-93726000D03*
X113538000Y-92837000D03*
D15*
X89911000Y-101219000D02*
X89911000Y-94139000D01*
X89911000Y-94139000D02*
X90183500Y-93866500D01*
X90183500Y-93866500D02*
X100865000Y-83185000D01*
D16*
X100711000Y-91059000D02*
X102108000Y-92456000D01*
X96139000Y-91059000D02*
X100711000Y-91059000D01*
X112649000Y-93726000D02*
X113538000Y-92837000D01*
X100457000Y-93726000D02*
X112649000Y-93726000D01*
G04 #@! TA.AperFunction,Conductor*
G36*
X142943621Y-72918502D02*
G01*
X142990114Y-72972158D01*
X143001500Y-73024500D01*
X143001500Y-107188500D01*
X142981498Y-107256621D01*
X142927842Y-107303114D01*
X142875500Y-107314500D01*
X71373500Y-107314500D01*
X71305379Y-107294498D01*
X71258886Y-107240842D01*
X71247500Y-107188500D01*
X71247500Y-101600000D01*
X73908619Y-101600000D01*
X73928129Y-101972266D01*
X73928642Y-101975506D01*
X73928643Y-101975514D01*
X73945542Y-102082206D01*
X73986444Y-102340453D01*
X74082925Y-102700527D01*
X74216517Y-103048544D01*
X74218009Y-103051472D01*
X74218012Y-103051479D01*
X74364210Y-103338407D01*
X74385754Y-103380690D01*
X74588782Y-103693327D01*
X74823378Y-103983029D01*
X75086971Y-104246622D01*
X75376673Y-104481218D01*
X75689309Y-104684246D01*
X75692243Y-104685741D01*
X75692250Y-104685745D01*
X76018521Y-104851988D01*
X76018528Y-104851991D01*
X76021456Y-104853483D01*
X76024528Y-104854662D01*
X76024532Y-104854664D01*
X76150679Y-104903087D01*
X76369473Y-104987075D01*
X76729547Y-105083556D01*
X76925209Y-105114546D01*
X77094486Y-105141357D01*
X77094494Y-105141358D01*
X77097734Y-105141871D01*
X77470000Y-105161381D01*
X77842266Y-105141871D01*
X77845506Y-105141358D01*
X77845514Y-105141357D01*
X78014791Y-105114546D01*
X78210453Y-105083556D01*
X78570527Y-104987075D01*
X78789321Y-104903087D01*
X78915468Y-104854664D01*
X78915472Y-104854662D01*
X78918544Y-104853483D01*
X78921472Y-104851991D01*
X78921479Y-104851988D01*
X79247750Y-104685745D01*
X79247757Y-104685741D01*
X79250691Y-104684246D01*
X79563327Y-104481218D01*
X79853029Y-104246622D01*
X80116622Y-103983029D01*
X80351218Y-103693327D01*
X80554246Y-103380690D01*
X80575791Y-103338407D01*
X80721988Y-103051479D01*
X80721991Y-103051472D01*
X80723483Y-103048544D01*
X80857075Y-102700527D01*
X80951225Y-102349153D01*
X86605677Y-102349153D01*
X86610958Y-102356208D01*
X86774615Y-102451842D01*
X86783898Y-102456289D01*
X86983971Y-102532689D01*
X86993869Y-102535565D01*
X87203734Y-102578262D01*
X87213962Y-102579481D01*
X87427980Y-102587330D01*
X87438266Y-102586863D01*
X87650696Y-102559650D01*
X87660774Y-102557508D01*
X87865902Y-102495966D01*
X87875500Y-102492205D01*
X88067824Y-102397986D01*
X88076669Y-102392713D01*
X88125445Y-102357921D01*
X88133845Y-102347222D01*
X88126858Y-102334068D01*
X87383812Y-101591022D01*
X87369868Y-101583408D01*
X87368035Y-101583539D01*
X87361420Y-101587790D01*
X86612437Y-102336773D01*
X86605677Y-102349153D01*
X80951225Y-102349153D01*
X80953556Y-102340453D01*
X80994458Y-102082206D01*
X81011357Y-101975514D01*
X81011358Y-101975506D01*
X81011871Y-101972266D01*
X81031381Y-101600000D01*
X81011871Y-101227734D01*
X81010958Y-101221965D01*
X81006004Y-101190686D01*
X86001777Y-101190686D01*
X86014105Y-101404488D01*
X86015541Y-101414709D01*
X86062623Y-101623622D01*
X86065702Y-101633451D01*
X86146277Y-101831883D01*
X86150920Y-101841074D01*
X86232188Y-101973692D01*
X86242644Y-101983152D01*
X86251422Y-101979368D01*
X86998978Y-101231812D01*
X87005356Y-101220132D01*
X87735408Y-101220132D01*
X87735539Y-101221965D01*
X87739790Y-101228580D01*
X88499481Y-101988271D01*
X88497884Y-101989868D01*
X88529837Y-102021820D01*
X88545250Y-102082206D01*
X88545250Y-102124384D01*
X88552005Y-102186566D01*
X88603135Y-102322955D01*
X88690489Y-102439511D01*
X88807045Y-102526865D01*
X88943434Y-102577995D01*
X89005616Y-102584750D01*
X90816384Y-102584750D01*
X90878566Y-102577995D01*
X91014955Y-102526865D01*
X91131511Y-102439511D01*
X91199231Y-102349153D01*
X97659677Y-102349153D01*
X97664958Y-102356208D01*
X97828615Y-102451842D01*
X97837898Y-102456289D01*
X98037971Y-102532689D01*
X98047869Y-102535565D01*
X98257734Y-102578262D01*
X98267962Y-102579481D01*
X98481980Y-102587330D01*
X98492266Y-102586863D01*
X98704696Y-102559650D01*
X98714774Y-102557508D01*
X98919902Y-102495966D01*
X98929500Y-102492205D01*
X99121824Y-102397986D01*
X99130669Y-102392713D01*
X99179445Y-102357921D01*
X99187845Y-102347222D01*
X99180858Y-102334068D01*
X98437812Y-101591022D01*
X98423868Y-101583408D01*
X98422035Y-101583539D01*
X98415420Y-101587790D01*
X97666437Y-102336773D01*
X97659677Y-102349153D01*
X91199231Y-102349153D01*
X91218865Y-102322955D01*
X91269995Y-102186566D01*
X91276750Y-102124384D01*
X91276750Y-101190686D01*
X97055777Y-101190686D01*
X97068105Y-101404488D01*
X97069541Y-101414709D01*
X97116623Y-101623622D01*
X97119702Y-101633451D01*
X97200277Y-101831883D01*
X97204920Y-101841074D01*
X97286188Y-101973692D01*
X97296644Y-101983152D01*
X97305422Y-101979368D01*
X98052978Y-101231812D01*
X98059356Y-101220132D01*
X98789408Y-101220132D01*
X98789539Y-101221965D01*
X98793790Y-101228580D01*
X99553481Y-101988271D01*
X99551884Y-101989868D01*
X99583837Y-102021820D01*
X99599250Y-102082206D01*
X99599250Y-102124384D01*
X99606005Y-102186566D01*
X99657135Y-102322955D01*
X99744489Y-102439511D01*
X99861045Y-102526865D01*
X99997434Y-102577995D01*
X100059616Y-102584750D01*
X101870384Y-102584750D01*
X101932566Y-102577995D01*
X102068955Y-102526865D01*
X102185511Y-102439511D01*
X102272865Y-102322955D01*
X102323995Y-102186566D01*
X102330750Y-102124384D01*
X102330750Y-101600000D01*
X133598619Y-101600000D01*
X133618129Y-101972266D01*
X133618642Y-101975506D01*
X133618643Y-101975514D01*
X133635542Y-102082206D01*
X133676444Y-102340453D01*
X133772925Y-102700527D01*
X133906517Y-103048544D01*
X133908009Y-103051472D01*
X133908012Y-103051479D01*
X134054210Y-103338407D01*
X134075754Y-103380690D01*
X134278782Y-103693327D01*
X134513378Y-103983029D01*
X134776971Y-104246622D01*
X135066673Y-104481218D01*
X135379309Y-104684246D01*
X135382243Y-104685741D01*
X135382250Y-104685745D01*
X135708521Y-104851988D01*
X135708528Y-104851991D01*
X135711456Y-104853483D01*
X135714528Y-104854662D01*
X135714532Y-104854664D01*
X135840679Y-104903087D01*
X136059473Y-104987075D01*
X136419547Y-105083556D01*
X136615209Y-105114546D01*
X136784486Y-105141357D01*
X136784494Y-105141358D01*
X136787734Y-105141871D01*
X137160000Y-105161381D01*
X137532266Y-105141871D01*
X137535506Y-105141358D01*
X137535514Y-105141357D01*
X137704791Y-105114546D01*
X137900453Y-105083556D01*
X138260527Y-104987075D01*
X138479321Y-104903087D01*
X138605468Y-104854664D01*
X138605472Y-104854662D01*
X138608544Y-104853483D01*
X138611472Y-104851991D01*
X138611479Y-104851988D01*
X138937750Y-104685745D01*
X138937757Y-104685741D01*
X138940691Y-104684246D01*
X139253327Y-104481218D01*
X139543029Y-104246622D01*
X139806622Y-103983029D01*
X140041218Y-103693327D01*
X140244246Y-103380690D01*
X140265791Y-103338407D01*
X140411988Y-103051479D01*
X140411991Y-103051472D01*
X140413483Y-103048544D01*
X140547075Y-102700527D01*
X140643556Y-102340453D01*
X140684458Y-102082206D01*
X140701357Y-101975514D01*
X140701358Y-101975506D01*
X140701871Y-101972266D01*
X140721381Y-101600000D01*
X140701871Y-101227734D01*
X140700958Y-101221965D01*
X140644072Y-100862808D01*
X140643556Y-100859547D01*
X140547075Y-100499473D01*
X140413483Y-100151456D01*
X140394931Y-100115045D01*
X140245745Y-99822251D01*
X140245741Y-99822244D01*
X140244246Y-99819310D01*
X140229631Y-99796804D01*
X140043020Y-99509448D01*
X140041218Y-99506673D01*
X139806622Y-99216971D01*
X139543029Y-98953378D01*
X139253327Y-98718782D01*
X138940691Y-98515754D01*
X138937757Y-98514259D01*
X138937750Y-98514255D01*
X138611479Y-98348012D01*
X138611472Y-98348009D01*
X138608544Y-98346517D01*
X138605472Y-98345338D01*
X138605468Y-98345336D01*
X138479321Y-98296913D01*
X138260527Y-98212925D01*
X137900453Y-98116444D01*
X137704791Y-98085454D01*
X137535514Y-98058643D01*
X137535506Y-98058642D01*
X137532266Y-98058129D01*
X137160000Y-98038619D01*
X136787734Y-98058129D01*
X136784494Y-98058642D01*
X136784486Y-98058643D01*
X136615209Y-98085454D01*
X136419547Y-98116444D01*
X136059473Y-98212925D01*
X135840679Y-98296913D01*
X135714532Y-98345336D01*
X135714528Y-98345338D01*
X135711456Y-98346517D01*
X135708528Y-98348009D01*
X135708521Y-98348012D01*
X135382251Y-98514255D01*
X135382244Y-98514259D01*
X135379310Y-98515754D01*
X135066673Y-98718782D01*
X134776971Y-98953378D01*
X134513378Y-99216971D01*
X134278782Y-99506673D01*
X134276980Y-99509448D01*
X134090370Y-99796804D01*
X134075754Y-99819310D01*
X134074259Y-99822244D01*
X134074255Y-99822251D01*
X133925069Y-100115045D01*
X133906517Y-100151456D01*
X133772925Y-100499473D01*
X133676444Y-100859547D01*
X133675928Y-100862808D01*
X133619043Y-101221965D01*
X133618129Y-101227734D01*
X133598619Y-101600000D01*
X102330750Y-101600000D01*
X102330750Y-100313616D01*
X102323995Y-100251434D01*
X102272865Y-100115045D01*
X102185511Y-99998489D01*
X102068955Y-99911135D01*
X101932566Y-99860005D01*
X101870384Y-99853250D01*
X100059616Y-99853250D01*
X99997434Y-99860005D01*
X99861045Y-99911135D01*
X99744489Y-99998489D01*
X99657135Y-100115045D01*
X99606005Y-100251434D01*
X99599250Y-100313616D01*
X99599250Y-100353579D01*
X99579248Y-100421700D01*
X99553826Y-100443795D01*
X99556676Y-100446846D01*
X99551943Y-100451267D01*
X98797022Y-101206188D01*
X98789408Y-101220132D01*
X98059356Y-101220132D01*
X98060592Y-101217868D01*
X98060461Y-101216035D01*
X98056210Y-101209420D01*
X97309632Y-100462842D01*
X97298096Y-100456542D01*
X97285813Y-100466166D01*
X97236773Y-100538056D01*
X97231674Y-100547032D01*
X97141508Y-100741275D01*
X97137949Y-100750950D01*
X97080718Y-100957318D01*
X97078787Y-100967438D01*
X97056029Y-101180397D01*
X97055777Y-101190686D01*
X91276750Y-101190686D01*
X91276750Y-100313616D01*
X91269995Y-100251434D01*
X91218865Y-100115045D01*
X91200280Y-100090247D01*
X97661043Y-100090247D01*
X97667788Y-100102578D01*
X98412188Y-100846978D01*
X98426132Y-100854592D01*
X98427965Y-100854461D01*
X98434580Y-100850210D01*
X99183552Y-100101238D01*
X99190572Y-100088382D01*
X99183572Y-100078774D01*
X99178587Y-100075462D01*
X98991089Y-99971957D01*
X98981692Y-99967734D01*
X98779818Y-99896247D01*
X98769847Y-99893613D01*
X98559011Y-99856058D01*
X98548758Y-99855088D01*
X98334609Y-99852471D01*
X98324324Y-99853191D01*
X98112635Y-99885584D01*
X98102607Y-99887973D01*
X97899045Y-99954507D01*
X97889548Y-99958499D01*
X97699584Y-100057387D01*
X97690859Y-100062882D01*
X97669496Y-100078922D01*
X97661043Y-100090247D01*
X91200280Y-100090247D01*
X91131511Y-99998489D01*
X91014955Y-99911135D01*
X91001272Y-99906006D01*
X90944507Y-99863365D01*
X90919806Y-99796804D01*
X90919500Y-99788023D01*
X90919500Y-94608925D01*
X90939502Y-94540804D01*
X90956405Y-94519830D01*
X95059111Y-90417124D01*
X95121423Y-90383098D01*
X95192238Y-90388163D01*
X95249074Y-90430710D01*
X95273885Y-90497230D01*
X95258621Y-90566919D01*
X95207567Y-90659787D01*
X95147765Y-90848306D01*
X95125719Y-91044851D01*
X95142268Y-91241934D01*
X95143967Y-91247858D01*
X95192534Y-91417231D01*
X95196783Y-91432050D01*
X95287187Y-91607956D01*
X95410035Y-91762953D01*
X95560650Y-91891136D01*
X95733294Y-91987624D01*
X95921392Y-92048740D01*
X96117777Y-92072158D01*
X96123912Y-92071686D01*
X96123914Y-92071686D01*
X96308830Y-92057457D01*
X96308834Y-92057456D01*
X96314972Y-92056984D01*
X96505463Y-92003798D01*
X96510967Y-92001018D01*
X96510969Y-92001017D01*
X96676495Y-91917404D01*
X96676497Y-91917403D01*
X96681996Y-91914625D01*
X96772121Y-91844211D01*
X96838116Y-91818033D01*
X96849695Y-91817500D01*
X100344629Y-91817500D01*
X100412750Y-91837502D01*
X100433724Y-91854405D01*
X101068856Y-92489537D01*
X101102882Y-92551849D01*
X101105319Y-92568089D01*
X101110208Y-92626306D01*
X101111268Y-92638934D01*
X101128521Y-92699102D01*
X101128071Y-92770095D01*
X101089309Y-92829577D01*
X101024543Y-92858660D01*
X100954334Y-92848110D01*
X100947473Y-92844667D01*
X100870568Y-92803085D01*
X100849701Y-92791802D01*
X100660768Y-92733318D01*
X100654643Y-92732674D01*
X100654642Y-92732674D01*
X100470204Y-92713289D01*
X100470202Y-92713289D01*
X100464075Y-92712645D01*
X100381576Y-92720153D01*
X100273251Y-92730011D01*
X100273248Y-92730012D01*
X100267112Y-92730570D01*
X100261206Y-92732308D01*
X100261202Y-92732309D01*
X100156076Y-92763249D01*
X100077381Y-92786410D01*
X100071923Y-92789263D01*
X100071919Y-92789265D01*
X99987316Y-92833495D01*
X99902110Y-92878040D01*
X99747975Y-93001968D01*
X99620846Y-93153474D01*
X99617879Y-93158872D01*
X99617875Y-93158877D01*
X99568232Y-93249179D01*
X99525567Y-93326787D01*
X99523706Y-93332654D01*
X99523705Y-93332656D01*
X99505117Y-93391252D01*
X99465765Y-93515306D01*
X99443719Y-93711851D01*
X99447472Y-93756546D01*
X99454450Y-93839642D01*
X99460268Y-93908934D01*
X99470562Y-93944834D01*
X99512890Y-94092447D01*
X99514783Y-94099050D01*
X99517602Y-94104535D01*
X99594624Y-94254402D01*
X99605187Y-94274956D01*
X99728035Y-94429953D01*
X99732728Y-94433947D01*
X99732729Y-94433948D01*
X99796357Y-94488099D01*
X99878650Y-94558136D01*
X100051294Y-94654624D01*
X100239392Y-94715740D01*
X100435777Y-94739158D01*
X100441912Y-94738686D01*
X100441914Y-94738686D01*
X100626830Y-94724457D01*
X100626834Y-94724456D01*
X100632972Y-94723984D01*
X100823463Y-94670798D01*
X100828967Y-94668018D01*
X100828969Y-94668017D01*
X100994495Y-94584404D01*
X100994497Y-94584403D01*
X100999996Y-94581625D01*
X101090121Y-94511211D01*
X101156116Y-94485033D01*
X101167695Y-94484500D01*
X112581930Y-94484500D01*
X112600880Y-94485933D01*
X112615115Y-94488099D01*
X112615119Y-94488099D01*
X112622349Y-94489199D01*
X112629641Y-94488606D01*
X112629644Y-94488606D01*
X112675018Y-94484915D01*
X112685233Y-94484500D01*
X112693293Y-94484500D01*
X112706583Y-94482951D01*
X112721507Y-94481211D01*
X112725882Y-94480778D01*
X112791339Y-94475454D01*
X112791342Y-94475453D01*
X112798637Y-94474860D01*
X112805601Y-94472604D01*
X112811560Y-94471413D01*
X112817415Y-94470029D01*
X112824681Y-94469182D01*
X112893327Y-94444265D01*
X112897455Y-94442848D01*
X112959936Y-94422607D01*
X112959938Y-94422606D01*
X112966899Y-94420351D01*
X112973154Y-94416555D01*
X112978628Y-94414049D01*
X112984058Y-94411330D01*
X112990937Y-94408833D01*
X113051976Y-94368814D01*
X113055680Y-94366477D01*
X113118107Y-94328595D01*
X113126484Y-94321197D01*
X113126508Y-94321224D01*
X113129500Y-94318571D01*
X113132733Y-94315868D01*
X113138852Y-94311856D01*
X113192128Y-94255617D01*
X113194506Y-94253175D01*
X113571296Y-93876385D01*
X113633608Y-93842359D01*
X113650723Y-93839851D01*
X113661121Y-93839051D01*
X113707830Y-93835457D01*
X113707834Y-93835456D01*
X113713972Y-93834984D01*
X113904463Y-93781798D01*
X113909967Y-93779018D01*
X113909969Y-93779017D01*
X114075495Y-93695404D01*
X114075497Y-93695403D01*
X114080996Y-93692625D01*
X114236847Y-93570861D01*
X114366078Y-93421145D01*
X114463769Y-93249179D01*
X114526197Y-93061513D01*
X114550985Y-92865295D01*
X114551380Y-92837000D01*
X114532080Y-92640167D01*
X114474916Y-92450831D01*
X114382066Y-92276204D01*
X114311709Y-92189938D01*
X114260960Y-92127713D01*
X114260957Y-92127710D01*
X114257065Y-92122938D01*
X114250724Y-92117692D01*
X114109425Y-92000799D01*
X114109421Y-92000797D01*
X114104675Y-91996870D01*
X113930701Y-91902802D01*
X113741768Y-91844318D01*
X113735643Y-91843674D01*
X113735642Y-91843674D01*
X113551204Y-91824289D01*
X113551202Y-91824289D01*
X113545075Y-91823645D01*
X113462576Y-91831153D01*
X113354251Y-91841011D01*
X113354248Y-91841012D01*
X113348112Y-91841570D01*
X113342206Y-91843308D01*
X113342202Y-91843309D01*
X113237076Y-91874249D01*
X113158381Y-91897410D01*
X113152923Y-91900263D01*
X113152919Y-91900265D01*
X113120136Y-91917404D01*
X112983110Y-91989040D01*
X112828975Y-92112968D01*
X112701846Y-92264474D01*
X112698879Y-92269872D01*
X112698875Y-92269877D01*
X112695397Y-92276204D01*
X112606567Y-92437787D01*
X112604706Y-92443654D01*
X112604705Y-92443656D01*
X112548627Y-92620436D01*
X112546765Y-92626306D01*
X112544685Y-92644854D01*
X112535354Y-92728035D01*
X112507883Y-92793502D01*
X112499234Y-92803085D01*
X112371724Y-92930595D01*
X112309412Y-92964621D01*
X112282629Y-92967500D01*
X103175432Y-92967500D01*
X103107311Y-92947498D01*
X103060818Y-92893842D01*
X103050714Y-92823568D01*
X103055874Y-92801728D01*
X103058201Y-92794732D01*
X103096197Y-92680513D01*
X103120985Y-92484295D01*
X103121380Y-92456000D01*
X103102080Y-92259167D01*
X103044916Y-92069831D01*
X102952066Y-91895204D01*
X102847463Y-91766948D01*
X102830960Y-91746713D01*
X102830957Y-91746710D01*
X102827065Y-91741938D01*
X102822316Y-91738009D01*
X102679425Y-91619799D01*
X102679421Y-91619797D01*
X102674675Y-91615870D01*
X102500701Y-91521802D01*
X102311768Y-91463318D01*
X102305646Y-91462675D01*
X102305643Y-91462674D01*
X102260878Y-91457969D01*
X102217836Y-91453446D01*
X102152180Y-91426433D01*
X102141912Y-91417231D01*
X101294770Y-90570089D01*
X101282384Y-90555677D01*
X101273851Y-90544082D01*
X101273846Y-90544077D01*
X101269508Y-90538182D01*
X101263930Y-90533443D01*
X101263927Y-90533440D01*
X101229232Y-90503965D01*
X101221716Y-90497035D01*
X101216021Y-90491340D01*
X101209870Y-90486474D01*
X101193749Y-90473719D01*
X101190345Y-90470928D01*
X101140297Y-90428409D01*
X101140295Y-90428408D01*
X101134715Y-90423667D01*
X101128199Y-90420339D01*
X101123150Y-90416972D01*
X101118021Y-90413805D01*
X101112284Y-90409266D01*
X101046125Y-90378345D01*
X101042225Y-90376439D01*
X100977192Y-90343231D01*
X100970084Y-90341492D01*
X100964441Y-90339393D01*
X100958678Y-90337476D01*
X100952050Y-90334378D01*
X100880583Y-90319513D01*
X100876299Y-90318543D01*
X100805390Y-90301192D01*
X100799788Y-90300844D01*
X100799785Y-90300844D01*
X100794236Y-90300500D01*
X100794238Y-90300464D01*
X100790245Y-90300225D01*
X100786053Y-90299851D01*
X100778885Y-90298360D01*
X100712675Y-90300151D01*
X100701479Y-90300454D01*
X100698072Y-90300500D01*
X96849712Y-90300500D01*
X96781591Y-90280498D01*
X96769397Y-90271585D01*
X96747706Y-90253641D01*
X96705675Y-90218870D01*
X96531701Y-90124802D01*
X96342768Y-90066318D01*
X96336643Y-90065674D01*
X96336642Y-90065674D01*
X96152204Y-90046289D01*
X96152202Y-90046289D01*
X96146075Y-90045645D01*
X96063576Y-90053153D01*
X95955251Y-90063011D01*
X95955248Y-90063012D01*
X95949112Y-90063570D01*
X95943206Y-90065308D01*
X95943202Y-90065309D01*
X95838076Y-90096249D01*
X95759381Y-90119410D01*
X95753917Y-90122267D01*
X95753911Y-90122269D01*
X95645535Y-90178927D01*
X95575899Y-90192762D01*
X95509838Y-90166752D01*
X95468326Y-90109157D01*
X95464543Y-90038261D01*
X95498064Y-89978171D01*
X99230460Y-86245774D01*
X122878102Y-86245774D01*
X122886751Y-86476158D01*
X122934093Y-86701791D01*
X123018776Y-86916221D01*
X123021543Y-86920780D01*
X123021544Y-86920783D01*
X123086883Y-87028458D01*
X123138377Y-87113317D01*
X123141874Y-87117347D01*
X123284242Y-87281412D01*
X123289477Y-87287445D01*
X123293608Y-87290832D01*
X123463627Y-87430240D01*
X123463633Y-87430244D01*
X123467755Y-87433624D01*
X123472391Y-87436263D01*
X123472394Y-87436265D01*
X123577908Y-87496327D01*
X123668114Y-87547675D01*
X123884825Y-87626337D01*
X123890074Y-87627286D01*
X123890077Y-87627287D01*
X124107608Y-87666623D01*
X124107615Y-87666624D01*
X124111692Y-87667361D01*
X124129414Y-87668197D01*
X124134356Y-87668430D01*
X124134363Y-87668430D01*
X124135844Y-87668500D01*
X124297890Y-87668500D01*
X124364809Y-87662822D01*
X124464409Y-87654371D01*
X124464413Y-87654370D01*
X124469720Y-87653920D01*
X124474875Y-87652582D01*
X124474881Y-87652581D01*
X124687703Y-87597343D01*
X124687707Y-87597342D01*
X124692872Y-87596001D01*
X124697738Y-87593809D01*
X124697741Y-87593808D01*
X124898202Y-87503507D01*
X124903075Y-87501312D01*
X125094319Y-87372559D01*
X125100275Y-87366878D01*
X125257278Y-87217103D01*
X125261135Y-87213424D01*
X125398754Y-87028458D01*
X125402189Y-87021703D01*
X125500822Y-86827704D01*
X125503240Y-86822949D01*
X125539321Y-86706752D01*
X125570024Y-86607871D01*
X125571607Y-86602773D01*
X125572573Y-86595484D01*
X125601198Y-86379511D01*
X125601198Y-86379506D01*
X125601898Y-86374226D01*
X125593249Y-86143842D01*
X125545907Y-85918209D01*
X125496181Y-85792296D01*
X125463185Y-85708744D01*
X125463184Y-85708742D01*
X125461224Y-85703779D01*
X125341623Y-85506683D01*
X125254755Y-85406576D01*
X125194023Y-85336588D01*
X125194021Y-85336586D01*
X125190523Y-85332555D01*
X125148970Y-85298484D01*
X125016373Y-85189760D01*
X125016367Y-85189756D01*
X125012245Y-85186376D01*
X125007609Y-85183737D01*
X125007606Y-85183735D01*
X124816529Y-85074968D01*
X124811886Y-85072325D01*
X124595175Y-84993663D01*
X124589926Y-84992714D01*
X124589923Y-84992713D01*
X124372392Y-84953377D01*
X124372385Y-84953376D01*
X124368308Y-84952639D01*
X124350586Y-84951803D01*
X124345644Y-84951570D01*
X124345637Y-84951570D01*
X124344156Y-84951500D01*
X124182110Y-84951500D01*
X124115191Y-84957178D01*
X124015591Y-84965629D01*
X124015587Y-84965630D01*
X124010280Y-84966080D01*
X124005125Y-84967418D01*
X124005119Y-84967419D01*
X123792297Y-85022657D01*
X123792293Y-85022658D01*
X123787128Y-85023999D01*
X123782262Y-85026191D01*
X123782259Y-85026192D01*
X123678420Y-85072968D01*
X123576925Y-85118688D01*
X123385681Y-85247441D01*
X123218865Y-85406576D01*
X123081246Y-85591542D01*
X122976760Y-85797051D01*
X122975178Y-85802145D01*
X122975177Y-85802148D01*
X122913115Y-86002020D01*
X122908393Y-86017227D01*
X122907692Y-86022516D01*
X122879068Y-86238489D01*
X122878102Y-86245774D01*
X99230460Y-86245774D01*
X100845829Y-84630405D01*
X100908141Y-84596379D01*
X100934924Y-84593500D01*
X101813134Y-84593500D01*
X101875316Y-84586745D01*
X102011705Y-84535615D01*
X102128261Y-84448261D01*
X102215615Y-84331705D01*
X102266745Y-84195316D01*
X102273500Y-84133134D01*
X102273500Y-83150469D01*
X104532095Y-83150469D01*
X104532392Y-83155622D01*
X104532392Y-83155625D01*
X104538067Y-83254041D01*
X104545427Y-83381697D01*
X104546564Y-83386743D01*
X104546565Y-83386749D01*
X104578741Y-83529523D01*
X104596346Y-83607642D01*
X104598288Y-83612424D01*
X104598289Y-83612428D01*
X104673467Y-83797568D01*
X104683484Y-83822237D01*
X104804501Y-84019719D01*
X104956147Y-84194784D01*
X105134349Y-84342730D01*
X105334322Y-84459584D01*
X105550694Y-84542209D01*
X105555760Y-84543240D01*
X105555761Y-84543240D01*
X105608846Y-84554040D01*
X105777656Y-84588385D01*
X105907089Y-84593131D01*
X106003949Y-84596683D01*
X106003953Y-84596683D01*
X106009113Y-84596872D01*
X106014233Y-84596216D01*
X106014235Y-84596216D01*
X106088166Y-84586745D01*
X106238847Y-84567442D01*
X106243795Y-84565957D01*
X106243802Y-84565956D01*
X106455747Y-84502369D01*
X106460690Y-84500886D01*
X106541236Y-84461427D01*
X106664049Y-84401262D01*
X106664052Y-84401260D01*
X106668684Y-84398991D01*
X106857243Y-84264494D01*
X107021303Y-84101005D01*
X107024319Y-84096808D01*
X107024326Y-84096800D01*
X107111960Y-83974844D01*
X107167954Y-83931196D01*
X107238658Y-83924750D01*
X107301622Y-83957553D01*
X107321715Y-83982536D01*
X107341800Y-84015313D01*
X107341804Y-84015318D01*
X107344501Y-84019719D01*
X107496147Y-84194784D01*
X107674349Y-84342730D01*
X107874322Y-84459584D01*
X108090694Y-84542209D01*
X108095760Y-84543240D01*
X108095761Y-84543240D01*
X108148846Y-84554040D01*
X108317656Y-84588385D01*
X108447089Y-84593131D01*
X108543949Y-84596683D01*
X108543953Y-84596683D01*
X108549113Y-84596872D01*
X108554233Y-84596216D01*
X108554235Y-84596216D01*
X108628166Y-84586745D01*
X108778847Y-84567442D01*
X108783795Y-84565957D01*
X108783802Y-84565956D01*
X108995747Y-84502369D01*
X109000690Y-84500886D01*
X109081236Y-84461427D01*
X109204049Y-84401262D01*
X109204052Y-84401260D01*
X109208684Y-84398991D01*
X109397243Y-84264494D01*
X109561303Y-84101005D01*
X109564319Y-84096808D01*
X109564326Y-84096800D01*
X109651960Y-83974844D01*
X109707954Y-83931196D01*
X109778658Y-83924750D01*
X109841622Y-83957553D01*
X109861715Y-83982536D01*
X109881800Y-84015313D01*
X109881804Y-84015318D01*
X109884501Y-84019719D01*
X110036147Y-84194784D01*
X110214349Y-84342730D01*
X110414322Y-84459584D01*
X110630694Y-84542209D01*
X110635760Y-84543240D01*
X110635761Y-84543240D01*
X110688846Y-84554040D01*
X110857656Y-84588385D01*
X110987089Y-84593131D01*
X111083949Y-84596683D01*
X111083953Y-84596683D01*
X111089113Y-84596872D01*
X111094233Y-84596216D01*
X111094235Y-84596216D01*
X111168166Y-84586745D01*
X111318847Y-84567442D01*
X111323795Y-84565957D01*
X111323802Y-84565956D01*
X111535747Y-84502369D01*
X111540690Y-84500886D01*
X111621236Y-84461427D01*
X111744049Y-84401262D01*
X111744052Y-84401260D01*
X111748684Y-84398991D01*
X111937243Y-84264494D01*
X112101303Y-84101005D01*
X112236458Y-83912917D01*
X112283641Y-83817450D01*
X112336784Y-83709922D01*
X112336785Y-83709920D01*
X112339078Y-83705280D01*
X112406408Y-83483671D01*
X112436640Y-83254041D01*
X112438327Y-83185000D01*
X112432032Y-83108434D01*
X112419773Y-82959318D01*
X112419772Y-82959312D01*
X112419349Y-82954167D01*
X112362925Y-82729533D01*
X112360866Y-82724797D01*
X112272630Y-82521868D01*
X112272628Y-82521865D01*
X112270570Y-82517131D01*
X112144764Y-82322665D01*
X111988887Y-82151358D01*
X111984836Y-82148159D01*
X111984832Y-82148155D01*
X111811177Y-82011011D01*
X111811172Y-82011008D01*
X111807123Y-82007810D01*
X111802607Y-82005317D01*
X111802604Y-82005315D01*
X111608879Y-81898373D01*
X111608875Y-81898371D01*
X111604355Y-81895876D01*
X111599486Y-81894152D01*
X111599482Y-81894150D01*
X111390903Y-81820288D01*
X111390899Y-81820287D01*
X111386028Y-81818562D01*
X111380935Y-81817655D01*
X111380932Y-81817654D01*
X111163095Y-81778851D01*
X111163089Y-81778850D01*
X111158006Y-81777945D01*
X111085096Y-81777054D01*
X110931581Y-81775179D01*
X110931579Y-81775179D01*
X110926411Y-81775116D01*
X110697464Y-81810150D01*
X110477314Y-81882106D01*
X110472726Y-81884494D01*
X110472722Y-81884496D01*
X110276461Y-81986663D01*
X110271872Y-81989052D01*
X110267739Y-81992155D01*
X110267736Y-81992157D01*
X110195088Y-82046703D01*
X110086655Y-82128117D01*
X110083083Y-82131855D01*
X109940216Y-82281357D01*
X109926639Y-82295564D01*
X109859306Y-82394271D01*
X109804397Y-82439271D01*
X109733872Y-82447442D01*
X109670125Y-82416188D01*
X109649428Y-82391705D01*
X109607571Y-82327004D01*
X109604764Y-82322665D01*
X109448887Y-82151358D01*
X109444836Y-82148159D01*
X109444832Y-82148155D01*
X109271177Y-82011011D01*
X109271172Y-82011008D01*
X109267123Y-82007810D01*
X109262607Y-82005317D01*
X109262604Y-82005315D01*
X109068879Y-81898373D01*
X109068875Y-81898371D01*
X109064355Y-81895876D01*
X109059486Y-81894152D01*
X109059482Y-81894150D01*
X108850903Y-81820288D01*
X108850899Y-81820287D01*
X108846028Y-81818562D01*
X108840935Y-81817655D01*
X108840932Y-81817654D01*
X108623095Y-81778851D01*
X108623089Y-81778850D01*
X108618006Y-81777945D01*
X108545096Y-81777054D01*
X108391581Y-81775179D01*
X108391579Y-81775179D01*
X108386411Y-81775116D01*
X108157464Y-81810150D01*
X107937314Y-81882106D01*
X107932726Y-81884494D01*
X107932722Y-81884496D01*
X107736461Y-81986663D01*
X107731872Y-81989052D01*
X107727739Y-81992155D01*
X107727736Y-81992157D01*
X107655088Y-82046703D01*
X107546655Y-82128117D01*
X107543083Y-82131855D01*
X107400216Y-82281357D01*
X107386639Y-82295564D01*
X107319306Y-82394271D01*
X107264397Y-82439271D01*
X107193872Y-82447442D01*
X107130125Y-82416188D01*
X107109428Y-82391705D01*
X107067571Y-82327004D01*
X107064764Y-82322665D01*
X106908887Y-82151358D01*
X106904836Y-82148159D01*
X106904832Y-82148155D01*
X106731177Y-82011011D01*
X106731172Y-82011008D01*
X106727123Y-82007810D01*
X106722607Y-82005317D01*
X106722604Y-82005315D01*
X106528879Y-81898373D01*
X106528875Y-81898371D01*
X106524355Y-81895876D01*
X106519486Y-81894152D01*
X106519482Y-81894150D01*
X106310903Y-81820288D01*
X106310899Y-81820287D01*
X106306028Y-81818562D01*
X106300935Y-81817655D01*
X106300932Y-81817654D01*
X106083095Y-81778851D01*
X106083089Y-81778850D01*
X106078006Y-81777945D01*
X106005096Y-81777054D01*
X105851581Y-81775179D01*
X105851579Y-81775179D01*
X105846411Y-81775116D01*
X105617464Y-81810150D01*
X105397314Y-81882106D01*
X105392726Y-81884494D01*
X105392722Y-81884496D01*
X105196461Y-81986663D01*
X105191872Y-81989052D01*
X105187739Y-81992155D01*
X105187736Y-81992157D01*
X105115088Y-82046703D01*
X105006655Y-82128117D01*
X105003083Y-82131855D01*
X104860216Y-82281357D01*
X104846639Y-82295564D01*
X104843730Y-82299829D01*
X104843724Y-82299837D01*
X104828152Y-82322665D01*
X104716119Y-82486899D01*
X104618602Y-82696981D01*
X104556707Y-82920169D01*
X104532095Y-83150469D01*
X102273500Y-83150469D01*
X102273500Y-82236866D01*
X102266745Y-82174684D01*
X102215615Y-82038295D01*
X102128261Y-81921739D01*
X102011705Y-81834385D01*
X101875316Y-81783255D01*
X101813134Y-81776500D01*
X99916866Y-81776500D01*
X99854684Y-81783255D01*
X99718295Y-81834385D01*
X99601739Y-81921739D01*
X99514385Y-82038295D01*
X99463255Y-82174684D01*
X99456500Y-82236866D01*
X99456500Y-83115075D01*
X99436498Y-83183196D01*
X99419595Y-83204170D01*
X89510545Y-93113221D01*
X89510527Y-93113238D01*
X89374587Y-93249179D01*
X89241616Y-93382150D01*
X89231473Y-93391252D01*
X89201975Y-93414968D01*
X89198008Y-93419696D01*
X89169709Y-93453421D01*
X89166528Y-93457069D01*
X89164885Y-93458881D01*
X89162691Y-93461075D01*
X89135358Y-93494349D01*
X89134696Y-93495147D01*
X89074846Y-93566474D01*
X89072278Y-93571144D01*
X89068897Y-93575261D01*
X89037860Y-93633145D01*
X89025023Y-93657086D01*
X89024394Y-93658245D01*
X88982538Y-93734381D01*
X88982535Y-93734389D01*
X88979567Y-93739787D01*
X88977955Y-93744869D01*
X88975438Y-93749563D01*
X88948238Y-93838531D01*
X88947918Y-93839559D01*
X88919765Y-93928306D01*
X88919171Y-93933602D01*
X88917613Y-93938698D01*
X88916990Y-93944834D01*
X88908218Y-94031187D01*
X88908089Y-94032393D01*
X88902500Y-94082227D01*
X88902500Y-94085754D01*
X88902445Y-94086739D01*
X88901998Y-94092419D01*
X88897626Y-94135462D01*
X88898206Y-94141593D01*
X88901941Y-94181109D01*
X88902500Y-94192967D01*
X88902500Y-99788023D01*
X88882498Y-99856144D01*
X88828842Y-99902637D01*
X88820733Y-99906004D01*
X88807045Y-99911135D01*
X88690489Y-99998489D01*
X88603135Y-100115045D01*
X88552005Y-100251434D01*
X88545250Y-100313616D01*
X88545250Y-100353579D01*
X88525248Y-100421700D01*
X88499826Y-100443795D01*
X88502676Y-100446846D01*
X88497943Y-100451267D01*
X87743022Y-101206188D01*
X87735408Y-101220132D01*
X87005356Y-101220132D01*
X87006592Y-101217868D01*
X87006461Y-101216035D01*
X87002210Y-101209420D01*
X86255632Y-100462842D01*
X86244096Y-100456542D01*
X86231813Y-100466166D01*
X86182773Y-100538056D01*
X86177674Y-100547032D01*
X86087508Y-100741275D01*
X86083949Y-100750950D01*
X86026718Y-100957318D01*
X86024787Y-100967438D01*
X86002029Y-101180397D01*
X86001777Y-101190686D01*
X81006004Y-101190686D01*
X80954072Y-100862808D01*
X80953556Y-100859547D01*
X80857075Y-100499473D01*
X80723483Y-100151456D01*
X80704931Y-100115045D01*
X80692296Y-100090247D01*
X86607043Y-100090247D01*
X86613788Y-100102578D01*
X87358188Y-100846978D01*
X87372132Y-100854592D01*
X87373965Y-100854461D01*
X87380580Y-100850210D01*
X88129552Y-100101238D01*
X88136572Y-100088382D01*
X88129572Y-100078774D01*
X88124587Y-100075462D01*
X87937089Y-99971957D01*
X87927692Y-99967734D01*
X87725818Y-99896247D01*
X87715847Y-99893613D01*
X87505011Y-99856058D01*
X87494758Y-99855088D01*
X87280609Y-99852471D01*
X87270324Y-99853191D01*
X87058635Y-99885584D01*
X87048607Y-99887973D01*
X86845045Y-99954507D01*
X86835548Y-99958499D01*
X86645584Y-100057387D01*
X86636859Y-100062882D01*
X86615496Y-100078922D01*
X86607043Y-100090247D01*
X80692296Y-100090247D01*
X80555745Y-99822251D01*
X80555741Y-99822244D01*
X80554246Y-99819310D01*
X80539631Y-99796804D01*
X80353020Y-99509448D01*
X80351218Y-99506673D01*
X80116622Y-99216971D01*
X79853029Y-98953378D01*
X79563327Y-98718782D01*
X79250691Y-98515754D01*
X79247757Y-98514259D01*
X79247750Y-98514255D01*
X78921479Y-98348012D01*
X78921472Y-98348009D01*
X78918544Y-98346517D01*
X78915472Y-98345338D01*
X78915468Y-98345336D01*
X78789321Y-98296913D01*
X78570527Y-98212925D01*
X78210453Y-98116444D01*
X78014791Y-98085454D01*
X77845514Y-98058643D01*
X77845506Y-98058642D01*
X77842266Y-98058129D01*
X77470000Y-98038619D01*
X77097734Y-98058129D01*
X77094494Y-98058642D01*
X77094486Y-98058643D01*
X76925209Y-98085454D01*
X76729547Y-98116444D01*
X76369473Y-98212925D01*
X76150679Y-98296913D01*
X76024532Y-98345336D01*
X76024528Y-98345338D01*
X76021456Y-98346517D01*
X76018528Y-98348009D01*
X76018521Y-98348012D01*
X75692251Y-98514255D01*
X75692244Y-98514259D01*
X75689310Y-98515754D01*
X75376673Y-98718782D01*
X75086971Y-98953378D01*
X74823378Y-99216971D01*
X74588782Y-99506673D01*
X74586980Y-99509448D01*
X74400370Y-99796804D01*
X74385754Y-99819310D01*
X74384259Y-99822244D01*
X74384255Y-99822251D01*
X74235069Y-100115045D01*
X74216517Y-100151456D01*
X74082925Y-100499473D01*
X73986444Y-100859547D01*
X73985928Y-100862808D01*
X73929043Y-101221965D01*
X73928129Y-101227734D01*
X73908619Y-101600000D01*
X71247500Y-101600000D01*
X71247500Y-86243774D01*
X88935102Y-86243774D01*
X88943751Y-86474158D01*
X88991093Y-86699791D01*
X88993051Y-86704750D01*
X88993052Y-86704752D01*
X89041609Y-86827704D01*
X89075776Y-86914221D01*
X89195377Y-87111317D01*
X89198874Y-87115347D01*
X89285438Y-87215103D01*
X89346477Y-87285445D01*
X89350608Y-87288832D01*
X89520627Y-87428240D01*
X89520633Y-87428244D01*
X89524755Y-87431624D01*
X89529391Y-87434263D01*
X89529394Y-87434265D01*
X89532908Y-87436265D01*
X89725114Y-87545675D01*
X89941825Y-87624337D01*
X89947074Y-87625286D01*
X89947077Y-87625287D01*
X90164608Y-87664623D01*
X90164615Y-87664624D01*
X90168692Y-87665361D01*
X90186414Y-87666197D01*
X90191356Y-87666430D01*
X90191363Y-87666430D01*
X90192844Y-87666500D01*
X90354890Y-87666500D01*
X90421809Y-87660822D01*
X90521409Y-87652371D01*
X90521413Y-87652370D01*
X90526720Y-87651920D01*
X90531875Y-87650582D01*
X90531881Y-87650581D01*
X90744703Y-87595343D01*
X90744707Y-87595342D01*
X90749872Y-87594001D01*
X90754738Y-87591809D01*
X90754741Y-87591808D01*
X90955202Y-87501507D01*
X90960075Y-87499312D01*
X91151319Y-87370559D01*
X91318135Y-87211424D01*
X91455754Y-87026458D01*
X91560240Y-86820949D01*
X91595700Y-86706752D01*
X91627024Y-86605871D01*
X91628607Y-86600773D01*
X91629308Y-86595484D01*
X91658198Y-86377511D01*
X91658198Y-86377506D01*
X91658898Y-86372226D01*
X91650249Y-86141842D01*
X91602907Y-85916209D01*
X91518224Y-85701779D01*
X91451331Y-85591542D01*
X91401390Y-85509243D01*
X91398623Y-85504683D01*
X91315467Y-85408854D01*
X91251023Y-85334588D01*
X91251021Y-85334586D01*
X91247523Y-85330555D01*
X91150648Y-85251122D01*
X91073373Y-85187760D01*
X91073367Y-85187756D01*
X91069245Y-85184376D01*
X91064609Y-85181737D01*
X91064606Y-85181735D01*
X90873529Y-85072968D01*
X90868886Y-85070325D01*
X90652175Y-84991663D01*
X90646926Y-84990714D01*
X90646923Y-84990713D01*
X90429392Y-84951377D01*
X90429385Y-84951376D01*
X90425308Y-84950639D01*
X90407586Y-84949803D01*
X90402644Y-84949570D01*
X90402637Y-84949570D01*
X90401156Y-84949500D01*
X90239110Y-84949500D01*
X90172191Y-84955178D01*
X90072591Y-84963629D01*
X90072587Y-84963630D01*
X90067280Y-84964080D01*
X90062125Y-84965418D01*
X90062119Y-84965419D01*
X89849297Y-85020657D01*
X89849293Y-85020658D01*
X89844128Y-85021999D01*
X89839262Y-85024191D01*
X89839259Y-85024192D01*
X89692371Y-85090360D01*
X89633925Y-85116688D01*
X89442681Y-85245441D01*
X89438824Y-85249120D01*
X89438822Y-85249122D01*
X89369464Y-85315287D01*
X89275865Y-85404576D01*
X89138246Y-85589542D01*
X89135830Y-85594293D01*
X89135828Y-85594297D01*
X89086003Y-85692296D01*
X89033760Y-85795051D01*
X89032178Y-85800145D01*
X89032177Y-85800148D01*
X88970115Y-86000020D01*
X88965393Y-86015227D01*
X88964692Y-86020516D01*
X88948347Y-86143842D01*
X88935102Y-86243774D01*
X71247500Y-86243774D01*
X71247500Y-78740000D01*
X73908619Y-78740000D01*
X73928129Y-79112266D01*
X73928642Y-79115506D01*
X73928643Y-79115514D01*
X73952542Y-79266406D01*
X73986444Y-79480453D01*
X74082925Y-79840527D01*
X74216517Y-80188544D01*
X74218009Y-80191472D01*
X74218012Y-80191479D01*
X74376999Y-80503507D01*
X74385754Y-80520690D01*
X74387550Y-80523456D01*
X74387552Y-80523459D01*
X74500067Y-80696718D01*
X74588782Y-80833327D01*
X74823378Y-81123029D01*
X75086971Y-81386622D01*
X75376673Y-81621218D01*
X75379448Y-81623020D01*
X75670078Y-81811757D01*
X75689309Y-81824246D01*
X75692243Y-81825741D01*
X75692250Y-81825745D01*
X76018521Y-81991988D01*
X76018528Y-81991991D01*
X76021456Y-81993483D01*
X76024528Y-81994662D01*
X76024532Y-81994664D01*
X76138195Y-82038295D01*
X76369473Y-82127075D01*
X76729547Y-82223556D01*
X76925209Y-82254546D01*
X77094486Y-82281357D01*
X77094494Y-82281358D01*
X77097734Y-82281871D01*
X77470000Y-82301381D01*
X77842266Y-82281871D01*
X77845506Y-82281358D01*
X77845514Y-82281357D01*
X78014791Y-82254546D01*
X78210453Y-82223556D01*
X78570527Y-82127075D01*
X78801805Y-82038295D01*
X78915468Y-81994664D01*
X78915472Y-81994662D01*
X78918544Y-81993483D01*
X78921472Y-81991991D01*
X78921479Y-81991988D01*
X79247750Y-81825745D01*
X79247757Y-81825741D01*
X79250691Y-81824246D01*
X79269923Y-81811757D01*
X79560552Y-81623020D01*
X79563327Y-81621218D01*
X79853029Y-81386622D01*
X80116622Y-81123029D01*
X80351218Y-80833327D01*
X80439933Y-80696718D01*
X80552448Y-80523459D01*
X80552450Y-80523456D01*
X80554246Y-80520690D01*
X80563002Y-80503507D01*
X80721988Y-80191479D01*
X80721991Y-80191472D01*
X80723483Y-80188544D01*
X80857075Y-79840527D01*
X80953556Y-79480453D01*
X80987458Y-79266406D01*
X80991043Y-79243774D01*
X88935102Y-79243774D01*
X88935302Y-79249103D01*
X88935302Y-79249105D01*
X88935912Y-79265340D01*
X88943751Y-79474158D01*
X88991093Y-79699791D01*
X88993051Y-79704750D01*
X88993052Y-79704752D01*
X89046673Y-79840527D01*
X89075776Y-79914221D01*
X89195377Y-80111317D01*
X89198874Y-80115347D01*
X89285438Y-80215103D01*
X89346477Y-80285445D01*
X89350608Y-80288832D01*
X89520627Y-80428240D01*
X89520633Y-80428244D01*
X89524755Y-80431624D01*
X89529391Y-80434263D01*
X89529394Y-80434265D01*
X89532908Y-80436265D01*
X89725114Y-80545675D01*
X89941825Y-80624337D01*
X89947074Y-80625286D01*
X89947077Y-80625287D01*
X90164608Y-80664623D01*
X90164615Y-80664624D01*
X90168692Y-80665361D01*
X90186414Y-80666197D01*
X90191356Y-80666430D01*
X90191363Y-80666430D01*
X90192844Y-80666500D01*
X90354890Y-80666500D01*
X90421809Y-80660822D01*
X90521409Y-80652371D01*
X90521413Y-80652370D01*
X90526720Y-80651920D01*
X90531875Y-80650582D01*
X90531881Y-80650581D01*
X90744703Y-80595343D01*
X90744707Y-80595342D01*
X90749872Y-80594001D01*
X90754738Y-80591809D01*
X90754741Y-80591808D01*
X90955202Y-80501507D01*
X90960075Y-80499312D01*
X91151319Y-80370559D01*
X91318135Y-80211424D01*
X91455754Y-80026458D01*
X91560240Y-79820949D01*
X91595700Y-79706752D01*
X91627024Y-79605871D01*
X91628607Y-79600773D01*
X91639814Y-79516216D01*
X91658198Y-79377511D01*
X91658198Y-79377506D01*
X91658898Y-79372226D01*
X91656900Y-79318991D01*
X91654926Y-79266406D01*
X100068423Y-79266406D01*
X100073704Y-79273461D01*
X100250080Y-79376527D01*
X100259363Y-79380974D01*
X100466003Y-79459883D01*
X100475901Y-79462759D01*
X100692653Y-79506857D01*
X100702883Y-79508076D01*
X100923914Y-79516182D01*
X100934223Y-79515714D01*
X101153623Y-79487608D01*
X101163688Y-79485468D01*
X101375557Y-79421905D01*
X101385152Y-79418144D01*
X101583778Y-79320838D01*
X101592636Y-79315559D01*
X101650097Y-79274572D01*
X101658497Y-79263874D01*
X101651510Y-79250721D01*
X100877811Y-78477021D01*
X100863868Y-78469408D01*
X100862034Y-78469539D01*
X100855420Y-78473790D01*
X100075180Y-79254031D01*
X100068423Y-79266406D01*
X91654926Y-79266406D01*
X91650449Y-79147173D01*
X91650249Y-79141842D01*
X91602907Y-78916209D01*
X91596601Y-78900242D01*
X91520185Y-78706744D01*
X91520184Y-78706742D01*
X91518224Y-78701779D01*
X91468686Y-78620142D01*
X91401390Y-78509243D01*
X91398623Y-78504683D01*
X91315467Y-78408854D01*
X91251023Y-78334588D01*
X91251021Y-78334586D01*
X91247523Y-78330555D01*
X91150648Y-78251122D01*
X91073373Y-78187760D01*
X91073367Y-78187756D01*
X91069245Y-78184376D01*
X91064609Y-78181737D01*
X91064606Y-78181735D01*
X90878220Y-78075638D01*
X99452893Y-78075638D01*
X99465627Y-78296468D01*
X99467061Y-78306670D01*
X99515685Y-78522439D01*
X99518773Y-78532292D01*
X99601986Y-78737220D01*
X99606634Y-78746421D01*
X99695097Y-78890781D01*
X99705553Y-78900242D01*
X99714331Y-78896458D01*
X100492979Y-78117811D01*
X100499356Y-78106132D01*
X101229408Y-78106132D01*
X101229539Y-78107966D01*
X101233790Y-78114580D01*
X102011307Y-78892096D01*
X102023313Y-78898652D01*
X102035052Y-78889684D01*
X102073010Y-78836859D01*
X102078321Y-78828020D01*
X102176318Y-78629737D01*
X102180117Y-78620142D01*
X102244415Y-78408517D01*
X102246594Y-78398436D01*
X102275702Y-78177338D01*
X102276221Y-78170663D01*
X102277744Y-78108364D01*
X102277550Y-78101646D01*
X102274987Y-78070469D01*
X104532095Y-78070469D01*
X104532392Y-78075622D01*
X104532392Y-78075625D01*
X104545129Y-78296529D01*
X104545427Y-78301697D01*
X104546564Y-78306743D01*
X104546565Y-78306749D01*
X104578741Y-78449523D01*
X104596346Y-78527642D01*
X104598288Y-78532424D01*
X104598289Y-78532428D01*
X104667868Y-78703779D01*
X104683484Y-78742237D01*
X104804501Y-78939719D01*
X104956147Y-79114784D01*
X105134349Y-79262730D01*
X105334322Y-79379584D01*
X105550694Y-79462209D01*
X105555760Y-79463240D01*
X105555761Y-79463240D01*
X105583222Y-79468827D01*
X105777656Y-79508385D01*
X105908324Y-79513176D01*
X106003949Y-79516683D01*
X106003953Y-79516683D01*
X106009113Y-79516872D01*
X106014233Y-79516216D01*
X106014235Y-79516216D01*
X106087291Y-79506857D01*
X106238847Y-79487442D01*
X106243795Y-79485957D01*
X106243802Y-79485956D01*
X106455747Y-79422369D01*
X106460690Y-79420886D01*
X106542161Y-79380974D01*
X106664049Y-79321262D01*
X106664052Y-79321260D01*
X106668684Y-79318991D01*
X106857243Y-79184494D01*
X107021303Y-79021005D01*
X107024319Y-79016808D01*
X107024326Y-79016800D01*
X107111960Y-78894844D01*
X107167954Y-78851196D01*
X107238658Y-78844750D01*
X107301622Y-78877553D01*
X107321715Y-78902536D01*
X107341800Y-78935313D01*
X107341804Y-78935318D01*
X107344501Y-78939719D01*
X107496147Y-79114784D01*
X107674349Y-79262730D01*
X107874322Y-79379584D01*
X108090694Y-79462209D01*
X108095760Y-79463240D01*
X108095761Y-79463240D01*
X108123222Y-79468827D01*
X108317656Y-79508385D01*
X108448324Y-79513176D01*
X108543949Y-79516683D01*
X108543953Y-79516683D01*
X108549113Y-79516872D01*
X108554233Y-79516216D01*
X108554235Y-79516216D01*
X108627291Y-79506857D01*
X108778847Y-79487442D01*
X108783795Y-79485957D01*
X108783802Y-79485956D01*
X108995747Y-79422369D01*
X109000690Y-79420886D01*
X109082161Y-79380974D01*
X109204049Y-79321262D01*
X109204052Y-79321260D01*
X109208684Y-79318991D01*
X109397243Y-79184494D01*
X109561303Y-79021005D01*
X109564319Y-79016808D01*
X109564326Y-79016800D01*
X109651960Y-78894844D01*
X109707954Y-78851196D01*
X109778658Y-78844750D01*
X109841622Y-78877553D01*
X109861715Y-78902536D01*
X109881800Y-78935313D01*
X109881804Y-78935318D01*
X109884501Y-78939719D01*
X110036147Y-79114784D01*
X110214349Y-79262730D01*
X110414322Y-79379584D01*
X110630694Y-79462209D01*
X110635760Y-79463240D01*
X110635761Y-79463240D01*
X110663222Y-79468827D01*
X110857656Y-79508385D01*
X110988324Y-79513176D01*
X111083949Y-79516683D01*
X111083953Y-79516683D01*
X111089113Y-79516872D01*
X111094233Y-79516216D01*
X111094235Y-79516216D01*
X111167291Y-79506857D01*
X111318847Y-79487442D01*
X111323795Y-79485957D01*
X111323802Y-79485956D01*
X111535747Y-79422369D01*
X111540690Y-79420886D01*
X111622161Y-79380974D01*
X111744049Y-79321262D01*
X111744052Y-79321260D01*
X111748684Y-79318991D01*
X111851331Y-79245774D01*
X122878102Y-79245774D01*
X122878302Y-79251103D01*
X122878302Y-79251105D01*
X122879141Y-79273461D01*
X122886751Y-79476158D01*
X122934093Y-79701791D01*
X122936051Y-79706750D01*
X122936052Y-79706752D01*
X122990102Y-79843613D01*
X123018776Y-79916221D01*
X123021543Y-79920780D01*
X123021544Y-79920783D01*
X123086883Y-80028458D01*
X123138377Y-80113317D01*
X123141874Y-80117347D01*
X123284242Y-80281412D01*
X123289477Y-80287445D01*
X123293608Y-80290832D01*
X123463627Y-80430240D01*
X123463633Y-80430244D01*
X123467755Y-80433624D01*
X123472391Y-80436263D01*
X123472394Y-80436265D01*
X123620708Y-80520690D01*
X123668114Y-80547675D01*
X123884825Y-80626337D01*
X123890074Y-80627286D01*
X123890077Y-80627287D01*
X124107608Y-80666623D01*
X124107615Y-80666624D01*
X124111692Y-80667361D01*
X124129414Y-80668197D01*
X124134356Y-80668430D01*
X124134363Y-80668430D01*
X124135844Y-80668500D01*
X124297890Y-80668500D01*
X124364809Y-80662822D01*
X124464409Y-80654371D01*
X124464413Y-80654370D01*
X124469720Y-80653920D01*
X124474875Y-80652582D01*
X124474881Y-80652581D01*
X124687703Y-80597343D01*
X124687707Y-80597342D01*
X124692872Y-80596001D01*
X124697738Y-80593809D01*
X124697741Y-80593808D01*
X124898202Y-80503507D01*
X124903075Y-80501312D01*
X125094319Y-80372559D01*
X125100275Y-80366878D01*
X125189865Y-80281412D01*
X125261135Y-80213424D01*
X125398754Y-80028458D01*
X125402189Y-80021703D01*
X125500822Y-79827704D01*
X125503240Y-79822949D01*
X125539321Y-79706752D01*
X125570024Y-79607871D01*
X125571607Y-79602773D01*
X125584158Y-79508076D01*
X125601198Y-79379511D01*
X125601198Y-79379506D01*
X125601898Y-79374226D01*
X125593249Y-79143842D01*
X125545907Y-78918209D01*
X125543158Y-78911248D01*
X125475529Y-78740000D01*
X133598619Y-78740000D01*
X133618129Y-79112266D01*
X133618642Y-79115506D01*
X133618643Y-79115514D01*
X133642542Y-79266406D01*
X133676444Y-79480453D01*
X133772925Y-79840527D01*
X133906517Y-80188544D01*
X133908009Y-80191472D01*
X133908012Y-80191479D01*
X134066999Y-80503507D01*
X134075754Y-80520690D01*
X134077550Y-80523456D01*
X134077552Y-80523459D01*
X134190067Y-80696718D01*
X134278782Y-80833327D01*
X134513378Y-81123029D01*
X134776971Y-81386622D01*
X135066673Y-81621218D01*
X135069448Y-81623020D01*
X135360078Y-81811757D01*
X135379309Y-81824246D01*
X135382243Y-81825741D01*
X135382250Y-81825745D01*
X135708521Y-81991988D01*
X135708528Y-81991991D01*
X135711456Y-81993483D01*
X135714528Y-81994662D01*
X135714532Y-81994664D01*
X135828195Y-82038295D01*
X136059473Y-82127075D01*
X136419547Y-82223556D01*
X136615209Y-82254546D01*
X136784486Y-82281357D01*
X136784494Y-82281358D01*
X136787734Y-82281871D01*
X137160000Y-82301381D01*
X137532266Y-82281871D01*
X137535506Y-82281358D01*
X137535514Y-82281357D01*
X137704791Y-82254546D01*
X137900453Y-82223556D01*
X138260527Y-82127075D01*
X138491805Y-82038295D01*
X138605468Y-81994664D01*
X138605472Y-81994662D01*
X138608544Y-81993483D01*
X138611472Y-81991991D01*
X138611479Y-81991988D01*
X138937750Y-81825745D01*
X138937757Y-81825741D01*
X138940691Y-81824246D01*
X138959923Y-81811757D01*
X139250552Y-81623020D01*
X139253327Y-81621218D01*
X139543029Y-81386622D01*
X139806622Y-81123029D01*
X140041218Y-80833327D01*
X140129933Y-80696718D01*
X140242448Y-80523459D01*
X140242450Y-80523456D01*
X140244246Y-80520690D01*
X140253002Y-80503507D01*
X140411988Y-80191479D01*
X140411991Y-80191472D01*
X140413483Y-80188544D01*
X140547075Y-79840527D01*
X140643556Y-79480453D01*
X140677458Y-79266406D01*
X140701357Y-79115514D01*
X140701358Y-79115506D01*
X140701871Y-79112266D01*
X140721381Y-78740000D01*
X140701871Y-78367734D01*
X140696622Y-78334588D01*
X140671193Y-78174041D01*
X140643556Y-77999547D01*
X140547075Y-77639473D01*
X140456156Y-77402623D01*
X140414664Y-77294532D01*
X140414662Y-77294528D01*
X140413483Y-77291456D01*
X140411988Y-77288521D01*
X140245745Y-76962251D01*
X140245741Y-76962244D01*
X140244246Y-76959310D01*
X140225869Y-76931011D01*
X140100617Y-76738140D01*
X140041218Y-76646673D01*
X139806622Y-76356971D01*
X139543029Y-76093378D01*
X139253327Y-75858782D01*
X138940691Y-75655754D01*
X138937757Y-75654259D01*
X138937750Y-75654255D01*
X138611479Y-75488012D01*
X138611472Y-75488009D01*
X138608544Y-75486517D01*
X138605472Y-75485338D01*
X138605468Y-75485336D01*
X138479321Y-75436913D01*
X138260527Y-75352925D01*
X137900453Y-75256444D01*
X137704791Y-75225454D01*
X137535514Y-75198643D01*
X137535506Y-75198642D01*
X137532266Y-75198129D01*
X137160000Y-75178619D01*
X136787734Y-75198129D01*
X136784494Y-75198642D01*
X136784486Y-75198643D01*
X136615209Y-75225454D01*
X136419547Y-75256444D01*
X136059473Y-75352925D01*
X135840679Y-75436913D01*
X135714532Y-75485336D01*
X135714528Y-75485338D01*
X135711456Y-75486517D01*
X135708528Y-75488009D01*
X135708521Y-75488012D01*
X135382251Y-75654255D01*
X135382244Y-75654259D01*
X135379310Y-75655754D01*
X135066673Y-75858782D01*
X134776971Y-76093378D01*
X134513378Y-76356971D01*
X134278782Y-76646673D01*
X134219383Y-76738140D01*
X134094132Y-76931011D01*
X134075754Y-76959310D01*
X134074259Y-76962244D01*
X134074255Y-76962251D01*
X133908012Y-77288521D01*
X133906517Y-77291456D01*
X133905338Y-77294528D01*
X133905336Y-77294532D01*
X133863844Y-77402623D01*
X133772925Y-77639473D01*
X133676444Y-77999547D01*
X133648807Y-78174041D01*
X133623379Y-78334588D01*
X133618129Y-78367734D01*
X133598619Y-78740000D01*
X125475529Y-78740000D01*
X125463185Y-78708744D01*
X125463184Y-78708742D01*
X125461224Y-78703779D01*
X125416407Y-78629922D01*
X125344390Y-78511243D01*
X125341623Y-78506683D01*
X125254755Y-78406576D01*
X125194023Y-78336588D01*
X125194021Y-78336586D01*
X125190523Y-78332555D01*
X125146512Y-78296468D01*
X125016373Y-78189760D01*
X125016367Y-78189756D01*
X125012245Y-78186376D01*
X125007609Y-78183737D01*
X125007606Y-78183735D01*
X124816529Y-78074968D01*
X124811886Y-78072325D01*
X124595175Y-77993663D01*
X124589926Y-77992714D01*
X124589923Y-77992713D01*
X124372392Y-77953377D01*
X124372385Y-77953376D01*
X124368308Y-77952639D01*
X124350586Y-77951803D01*
X124345644Y-77951570D01*
X124345637Y-77951570D01*
X124344156Y-77951500D01*
X124182110Y-77951500D01*
X124115191Y-77957178D01*
X124015591Y-77965629D01*
X124015587Y-77965630D01*
X124010280Y-77966080D01*
X124005125Y-77967418D01*
X124005119Y-77967419D01*
X123792297Y-78022657D01*
X123792293Y-78022658D01*
X123787128Y-78023999D01*
X123782262Y-78026191D01*
X123782259Y-78026192D01*
X123678420Y-78072968D01*
X123576925Y-78118688D01*
X123385681Y-78247441D01*
X123218865Y-78406576D01*
X123081246Y-78591542D01*
X123078830Y-78596293D01*
X123078828Y-78596297D01*
X123029003Y-78694296D01*
X122976760Y-78797051D01*
X122975178Y-78802145D01*
X122975177Y-78802148D01*
X122933828Y-78935313D01*
X122908393Y-79017227D01*
X122907692Y-79022516D01*
X122879068Y-79238489D01*
X122878102Y-79245774D01*
X111851331Y-79245774D01*
X111937243Y-79184494D01*
X112101303Y-79021005D01*
X112236458Y-78832917D01*
X112238879Y-78828020D01*
X112336784Y-78629922D01*
X112336785Y-78629920D01*
X112339078Y-78625280D01*
X112406408Y-78403671D01*
X112436640Y-78174041D01*
X112437920Y-78121673D01*
X112438245Y-78108365D01*
X112438245Y-78108361D01*
X112438327Y-78105000D01*
X112429323Y-77995484D01*
X112419773Y-77879318D01*
X112419772Y-77879312D01*
X112419349Y-77874167D01*
X112385797Y-77740592D01*
X112364184Y-77654544D01*
X112364183Y-77654540D01*
X112362925Y-77649533D01*
X112360866Y-77644797D01*
X112272630Y-77441868D01*
X112272628Y-77441865D01*
X112270570Y-77437131D01*
X112144764Y-77242665D01*
X111988887Y-77071358D01*
X111984836Y-77068159D01*
X111984832Y-77068155D01*
X111811177Y-76931011D01*
X111811172Y-76931008D01*
X111807123Y-76927810D01*
X111802607Y-76925317D01*
X111802604Y-76925315D01*
X111608879Y-76818373D01*
X111608875Y-76818371D01*
X111604355Y-76815876D01*
X111599486Y-76814152D01*
X111599482Y-76814150D01*
X111390903Y-76740288D01*
X111390899Y-76740287D01*
X111386028Y-76738562D01*
X111380935Y-76737655D01*
X111380932Y-76737654D01*
X111163095Y-76698851D01*
X111163089Y-76698850D01*
X111158006Y-76697945D01*
X111085096Y-76697054D01*
X110931581Y-76695179D01*
X110931579Y-76695179D01*
X110926411Y-76695116D01*
X110697464Y-76730150D01*
X110477314Y-76802106D01*
X110472726Y-76804494D01*
X110472722Y-76804496D01*
X110276461Y-76906663D01*
X110271872Y-76909052D01*
X110267739Y-76912155D01*
X110267736Y-76912157D01*
X110148619Y-77001593D01*
X110086655Y-77048117D01*
X109926639Y-77215564D01*
X109859306Y-77314271D01*
X109804397Y-77359271D01*
X109733872Y-77367442D01*
X109670125Y-77336188D01*
X109649428Y-77311705D01*
X109607571Y-77247004D01*
X109604764Y-77242665D01*
X109448887Y-77071358D01*
X109444836Y-77068159D01*
X109444832Y-77068155D01*
X109271177Y-76931011D01*
X109271172Y-76931008D01*
X109267123Y-76927810D01*
X109262607Y-76925317D01*
X109262604Y-76925315D01*
X109068879Y-76818373D01*
X109068875Y-76818371D01*
X109064355Y-76815876D01*
X109059486Y-76814152D01*
X109059482Y-76814150D01*
X108850903Y-76740288D01*
X108850899Y-76740287D01*
X108846028Y-76738562D01*
X108840935Y-76737655D01*
X108840932Y-76737654D01*
X108623095Y-76698851D01*
X108623089Y-76698850D01*
X108618006Y-76697945D01*
X108545096Y-76697054D01*
X108391581Y-76695179D01*
X108391579Y-76695179D01*
X108386411Y-76695116D01*
X108157464Y-76730150D01*
X107937314Y-76802106D01*
X107932726Y-76804494D01*
X107932722Y-76804496D01*
X107736461Y-76906663D01*
X107731872Y-76909052D01*
X107727739Y-76912155D01*
X107727736Y-76912157D01*
X107608619Y-77001593D01*
X107546655Y-77048117D01*
X107386639Y-77215564D01*
X107319306Y-77314271D01*
X107264397Y-77359271D01*
X107193872Y-77367442D01*
X107130125Y-77336188D01*
X107109428Y-77311705D01*
X107067571Y-77247004D01*
X107064764Y-77242665D01*
X106908887Y-77071358D01*
X106904836Y-77068159D01*
X106904832Y-77068155D01*
X106731177Y-76931011D01*
X106731172Y-76931008D01*
X106727123Y-76927810D01*
X106722607Y-76925317D01*
X106722604Y-76925315D01*
X106528879Y-76818373D01*
X106528875Y-76818371D01*
X106524355Y-76815876D01*
X106519486Y-76814152D01*
X106519482Y-76814150D01*
X106310903Y-76740288D01*
X106310899Y-76740287D01*
X106306028Y-76738562D01*
X106300935Y-76737655D01*
X106300932Y-76737654D01*
X106083095Y-76698851D01*
X106083089Y-76698850D01*
X106078006Y-76697945D01*
X106005096Y-76697054D01*
X105851581Y-76695179D01*
X105851579Y-76695179D01*
X105846411Y-76695116D01*
X105617464Y-76730150D01*
X105397314Y-76802106D01*
X105392726Y-76804494D01*
X105392722Y-76804496D01*
X105196461Y-76906663D01*
X105191872Y-76909052D01*
X105187739Y-76912155D01*
X105187736Y-76912157D01*
X105068619Y-77001593D01*
X105006655Y-77048117D01*
X104846639Y-77215564D01*
X104843730Y-77219829D01*
X104843724Y-77219837D01*
X104828152Y-77242665D01*
X104716119Y-77406899D01*
X104618602Y-77616981D01*
X104556707Y-77840169D01*
X104532095Y-78070469D01*
X102274987Y-78070469D01*
X102259279Y-77879400D01*
X102257596Y-77869238D01*
X102203710Y-77654708D01*
X102200389Y-77644953D01*
X102112193Y-77442118D01*
X102107315Y-77433020D01*
X102034224Y-77320038D01*
X102023538Y-77310835D01*
X102013973Y-77315238D01*
X101237021Y-78092189D01*
X101229408Y-78106132D01*
X100499356Y-78106132D01*
X100500592Y-78103868D01*
X100500461Y-78102034D01*
X100496210Y-78095420D01*
X99718862Y-77318073D01*
X99707330Y-77311776D01*
X99695048Y-77321399D01*
X99639467Y-77402877D01*
X99634379Y-77411833D01*
X99541252Y-77612459D01*
X99537689Y-77622146D01*
X99478581Y-77835280D01*
X99476650Y-77845400D01*
X99453145Y-78065349D01*
X99452893Y-78075638D01*
X90878220Y-78075638D01*
X90873529Y-78072968D01*
X90868886Y-78070325D01*
X90652175Y-77991663D01*
X90646926Y-77990714D01*
X90646923Y-77990713D01*
X90429392Y-77951377D01*
X90429385Y-77951376D01*
X90425308Y-77950639D01*
X90407586Y-77949803D01*
X90402644Y-77949570D01*
X90402637Y-77949570D01*
X90401156Y-77949500D01*
X90239110Y-77949500D01*
X90172191Y-77955178D01*
X90072591Y-77963629D01*
X90072587Y-77963630D01*
X90067280Y-77964080D01*
X90062125Y-77965418D01*
X90062119Y-77965419D01*
X89849297Y-78020657D01*
X89849293Y-78020658D01*
X89844128Y-78021999D01*
X89839262Y-78024191D01*
X89839259Y-78024192D01*
X89725082Y-78075625D01*
X89633925Y-78116688D01*
X89442681Y-78245441D01*
X89438824Y-78249120D01*
X89438822Y-78249122D01*
X89389191Y-78296468D01*
X89275865Y-78404576D01*
X89138246Y-78589542D01*
X89135830Y-78594293D01*
X89135828Y-78594297D01*
X89122688Y-78620142D01*
X89033760Y-78795051D01*
X89032178Y-78800145D01*
X89032177Y-78800148D01*
X88988839Y-78939719D01*
X88965393Y-79015227D01*
X88964692Y-79020516D01*
X88942959Y-79184494D01*
X88935102Y-79243774D01*
X80991043Y-79243774D01*
X81011357Y-79115514D01*
X81011358Y-79115506D01*
X81011871Y-79112266D01*
X81031381Y-78740000D01*
X81011871Y-78367734D01*
X81006622Y-78334588D01*
X80981193Y-78174041D01*
X80953556Y-77999547D01*
X80857075Y-77639473D01*
X80766156Y-77402623D01*
X80724664Y-77294532D01*
X80724662Y-77294528D01*
X80723483Y-77291456D01*
X80721988Y-77288521D01*
X80555745Y-76962251D01*
X80555741Y-76962244D01*
X80554246Y-76959310D01*
X80545415Y-76945711D01*
X100070508Y-76945711D01*
X100077251Y-76958040D01*
X100852189Y-77732979D01*
X100866132Y-77740592D01*
X100867966Y-77740461D01*
X100874580Y-77736210D01*
X101653994Y-76956795D01*
X101661011Y-76943944D01*
X101653237Y-76933274D01*
X101650902Y-76931430D01*
X101642320Y-76925729D01*
X101448678Y-76818833D01*
X101439272Y-76814606D01*
X101230772Y-76740772D01*
X101220809Y-76738140D01*
X101003047Y-76699350D01*
X100992796Y-76698381D01*
X100771616Y-76695679D01*
X100761332Y-76696399D01*
X100542693Y-76729855D01*
X100532666Y-76732244D01*
X100322426Y-76800961D01*
X100312916Y-76804958D01*
X100116725Y-76907089D01*
X100108007Y-76912578D01*
X100078961Y-76934386D01*
X100070508Y-76945711D01*
X80545415Y-76945711D01*
X80535869Y-76931011D01*
X80410617Y-76738140D01*
X80351218Y-76646673D01*
X80116622Y-76356971D01*
X79853029Y-76093378D01*
X79563327Y-75858782D01*
X79250691Y-75655754D01*
X79247757Y-75654259D01*
X79247750Y-75654255D01*
X78921479Y-75488012D01*
X78921472Y-75488009D01*
X78918544Y-75486517D01*
X78915472Y-75485338D01*
X78915468Y-75485336D01*
X78789321Y-75436913D01*
X78570527Y-75352925D01*
X78210453Y-75256444D01*
X78014791Y-75225454D01*
X77845514Y-75198643D01*
X77845506Y-75198642D01*
X77842266Y-75198129D01*
X77470000Y-75178619D01*
X77097734Y-75198129D01*
X77094494Y-75198642D01*
X77094486Y-75198643D01*
X76925209Y-75225454D01*
X76729547Y-75256444D01*
X76369473Y-75352925D01*
X76150679Y-75436913D01*
X76024532Y-75485336D01*
X76024528Y-75485338D01*
X76021456Y-75486517D01*
X76018528Y-75488009D01*
X76018521Y-75488012D01*
X75692251Y-75654255D01*
X75692244Y-75654259D01*
X75689310Y-75655754D01*
X75376673Y-75858782D01*
X75086971Y-76093378D01*
X74823378Y-76356971D01*
X74588782Y-76646673D01*
X74529383Y-76738140D01*
X74404132Y-76931011D01*
X74385754Y-76959310D01*
X74384259Y-76962244D01*
X74384255Y-76962251D01*
X74218012Y-77288521D01*
X74216517Y-77291456D01*
X74215338Y-77294528D01*
X74215336Y-77294532D01*
X74173844Y-77402623D01*
X74082925Y-77639473D01*
X73986444Y-77999547D01*
X73958807Y-78174041D01*
X73933379Y-78334588D01*
X73928129Y-78367734D01*
X73908619Y-78740000D01*
X71247500Y-78740000D01*
X71247500Y-73024500D01*
X71267502Y-72956379D01*
X71321158Y-72909886D01*
X71373500Y-72898500D01*
X142875500Y-72898500D01*
X142943621Y-72918502D01*
G37*
G04 #@! TD.AperFunction*
M02*
