G04 #@! TF.GenerationSoftware,KiCad,Pcbnew,6.0.4-6f826c9f35~116~ubuntu20.04.1*
G04 #@! TF.CreationDate,2022-04-06T08:04:33-04:00*
G04 #@! TF.ProjectId,audiomute,61756469-6f6d-4757-9465-2e6b69636164,rev?*
G04 #@! TF.SameCoordinates,Original*
G04 #@! TF.FileFunction,Soldermask,Top*
G04 #@! TF.FilePolarity,Negative*
%FSLAX46Y46*%
G04 Gerber Fmt 4.6, Leading zero omitted, Abs format (unit mm)*
G04 Created by KiCad (PCBNEW 6.0.4-6f826c9f35~116~ubuntu20.04.1) date 2022-04-06 08:04:33*
%MOMM*%
%LPD*%
G01*
G04 APERTURE LIST*
G04 Aperture macros list*
%AMRoundRect*
0 Rectangle with rounded corners*
0 $1 Rounding radius*
0 $2 $3 $4 $5 $6 $7 $8 $9 X,Y pos of 4 corners*
0 Add a 4 corners polygon primitive as box body*
4,1,4,$2,$3,$4,$5,$6,$7,$8,$9,$2,$3,0*
0 Add four circle primitives for the rounded corners*
1,1,$1+$1,$2,$3*
1,1,$1+$1,$4,$5*
1,1,$1+$1,$6,$7*
1,1,$1+$1,$8,$9*
0 Add four rect primitives between the rounded corners*
20,1,$1+$1,$2,$3,$4,$5,0*
20,1,$1+$1,$4,$5,$6,$7,0*
20,1,$1+$1,$6,$7,$8,$9,0*
20,1,$1+$1,$8,$9,$2,$3,0*%
G04 Aperture macros list end*
%ADD10RoundRect,0.250000X-0.400000X-0.625000X0.400000X-0.625000X0.400000X0.625000X-0.400000X0.625000X0*%
%ADD11RoundRect,0.150000X0.150000X-0.587500X0.150000X0.587500X-0.150000X0.587500X-0.150000X-0.587500X0*%
%ADD12RoundRect,0.250000X0.412500X0.650000X-0.412500X0.650000X-0.412500X-0.650000X0.412500X-0.650000X0*%
%ADD13R,1.714500X1.714500*%
%ADD14C,1.714500*%
%ADD15RoundRect,0.250000X0.650000X-0.412500X0.650000X0.412500X-0.650000X0.412500X-0.650000X-0.412500X0*%
%ADD16R,1.800000X1.800000*%
%ADD17C,1.800000*%
%ADD18RoundRect,0.250000X-0.412500X-0.650000X0.412500X-0.650000X0.412500X0.650000X-0.412500X0.650000X0*%
%ADD19C,1.700000*%
%ADD20R,2.800000X2.200000*%
%ADD21R,2.800000X2.800000*%
%ADD22RoundRect,0.150000X-0.587500X-0.150000X0.587500X-0.150000X0.587500X0.150000X-0.587500X0.150000X0*%
%ADD23RoundRect,0.150000X0.587500X0.150000X-0.587500X0.150000X-0.587500X-0.150000X0.587500X-0.150000X0*%
%ADD24RoundRect,0.250000X0.400000X0.625000X-0.400000X0.625000X-0.400000X-0.625000X0.400000X-0.625000X0*%
G04 APERTURE END LIST*
D10*
X112496000Y-99822000D03*
X115596000Y-99822000D03*
D11*
X109794000Y-96822500D03*
X111694000Y-96822500D03*
X110744000Y-94947500D03*
X103571000Y-90726500D03*
X105471000Y-90726500D03*
X104521000Y-88851500D03*
D12*
X109385500Y-103124000D03*
X106260500Y-103124000D03*
D13*
X100965000Y-101219000D03*
D14*
X98425000Y-101219000D03*
D10*
X108686000Y-88392000D03*
X111786000Y-88392000D03*
D15*
X96901000Y-85001500D03*
X96901000Y-81876500D03*
D16*
X100865000Y-83185000D03*
D17*
X105945000Y-83185000D03*
X108485000Y-83185000D03*
X111025000Y-83185000D03*
X111025000Y-78105000D03*
X108485000Y-78105000D03*
X105945000Y-78105000D03*
X100865000Y-78105000D03*
D18*
X89496500Y-96012000D03*
X92621500Y-96012000D03*
D10*
X95986000Y-96012000D03*
X99086000Y-96012000D03*
X97637000Y-88011000D03*
X100737000Y-88011000D03*
X115290000Y-92964000D03*
X118390000Y-92964000D03*
D19*
X124240000Y-86310000D03*
X124240000Y-79310000D03*
D20*
X120540000Y-78210000D03*
D21*
X120540000Y-87610000D03*
X124990000Y-91710000D03*
D10*
X103098000Y-94488000D03*
X106198000Y-94488000D03*
D22*
X98122500Y-90998000D03*
X98122500Y-92898000D03*
X99997500Y-91948000D03*
D19*
X90297000Y-79308000D03*
X90297000Y-86308000D03*
D20*
X86597000Y-78208000D03*
D21*
X86597000Y-87608000D03*
X91047000Y-91708000D03*
D10*
X106273000Y-99822000D03*
X109373000Y-99822000D03*
D23*
X116761500Y-90231000D03*
X116761500Y-88331000D03*
X114886500Y-89281000D03*
D13*
X89911000Y-101219000D03*
D14*
X87371000Y-101219000D03*
D15*
X117475000Y-84239500D03*
X117475000Y-81114500D03*
D24*
X112040000Y-91694000D03*
X108940000Y-91694000D03*
M02*
